<svg width="22" height="22" viewBox="0 0 22 22" fill="none" xmlns="http://www.w3.org/2000/svg">
<mask id="mask0_0_522" style="mask-type:alpha" maskUnits="userSpaceOnUse" x="-2" y="-2" width="26" height="26">
<rect x="-1.05478" y="-1.05484" width="24.1096" height="24.1096" fill="#D9D9D9"/>
</mask>
<g mask="url(#mask0_0_522)">
<path d="M9.99542 22V19.9908C7.90258 19.7564 6.10692 18.89 4.60844 17.3915C3.10997 15.8931 2.24353 14.0974 2.00913 12.0046H0V9.99542H2.00913C2.24353 7.90258 3.10997 6.10692 4.60844 4.60844C6.10692 3.10997 7.90258 2.24353 9.99542 2.00913V0H12.0046V2.00913C14.0974 2.24353 15.8931 3.10997 17.3915 4.60844C18.89 6.10692 19.7564 7.90258 19.9908 9.99542H22V12.0046H19.9908C19.7564 14.0974 18.89 15.8931 17.3915 17.3915C15.8931 18.89 14.0974 19.7564 12.0046 19.9908V22H9.99542ZM11 18.0319C12.9421 18.0319 14.5997 17.3455 15.9726 15.9726C17.3455 14.5997 18.0319 12.9421 18.0319 11C18.0319 9.05783 17.3455 7.4003 15.9726 6.02739C14.5997 4.65448 12.9421 3.96803 11 3.96803C9.05783 3.96803 7.4003 4.65448 6.02739 6.02739C4.65448 7.4003 3.96803 9.05783 3.96803 11C3.96803 12.9421 4.65448 14.5997 6.02739 15.9726C7.4003 17.3455 9.05783 18.0319 11 18.0319ZM11 15.0182C9.89497 15.0182 8.949 14.6248 8.16209 13.8379C7.37518 13.051 6.98173 12.105 6.98173 11C6.98173 9.89497 7.37518 8.949 8.16209 8.16209C8.949 7.37518 9.89497 6.98173 11 6.98173C12.105 6.98173 13.051 7.37518 13.8379 8.16209C14.6248 8.949 15.0182 9.89497 15.0182 11C15.0182 12.105 14.6248 13.051 13.8379 13.8379C13.051 14.6248 12.105 15.0182 11 15.0182ZM11 13.0091C11.5525 13.0091 12.0255 12.8124 12.4189 12.4189C12.8124 12.0255 13.0091 11.5525 13.0091 11C13.0091 10.4475 12.8124 9.97449 12.4189 9.58104C12.0255 9.18759 11.5525 8.99086 11 8.99086C10.4475 8.99086 9.97449 9.18759 9.58104 9.58104C9.18759 9.97449 8.99086 10.4475 8.99086 11C8.99086 11.5525 9.18759 12.0255 9.58104 12.4189C9.97449 12.8124 10.4475 13.0091 11 13.0091Z" fill="#200E32"/>
</g>
</svg>
