<svg width="12" height="18" viewBox="0 0 12 18" fill="none" xmlns="http://www.w3.org/2000/svg">
<path d="M10.8593 2.76923H8.49883V2.07692C8.49841 1.52628 8.34904 0.998369 8.0835 0.609004C7.81796 0.219641 7.45793 0.000622547 7.0824 0H4.24953C3.874 0.000622547 3.51397 0.219641 3.24843 0.609004C2.98289 0.998369 2.83352 1.52628 2.8331 2.07692V2.76923H0.472145C0.346924 2.76923 0.226832 2.84217 0.138288 2.972C0.0497438 3.10184 0 3.27793 0 3.46154C0 3.64515 0.0497438 3.82124 0.138288 3.95108C0.226832 4.08091 0.346924 4.15385 0.472145 4.15385H0.944289V16.6154C0.944576 16.9825 1.04415 17.3344 1.22118 17.594C1.39821 17.8536 1.63823 17.9996 1.88858 18H9.44289C9.69325 17.9996 9.93326 17.8536 10.1103 17.594C10.2873 17.3344 10.3869 16.9825 10.3872 16.6154V4.15385H10.8593C10.9845 4.15385 11.1046 4.08091 11.1932 3.95108C11.2817 3.82124 11.3315 3.64515 11.3315 3.46154C11.3315 3.27793 11.2817 3.10184 11.1932 2.972C11.1046 2.84217 10.9845 2.76923 10.8593 2.76923ZM3.77739 2.07692C3.77753 1.89338 3.82732 1.71741 3.91583 1.58762C4.00435 1.45783 4.12436 1.38483 4.24953 1.38462H7.0824C7.20758 1.38483 7.32759 1.45783 7.4161 1.58762C7.50461 1.71741 7.5544 1.89338 7.55454 2.07692V2.76923H3.77739V2.07692ZM9.44289 16.6154H1.88858V4.15385H9.44289V16.6154ZM4.72168 7.61539V13.1539C4.72168 13.3375 4.67193 13.5136 4.58339 13.6434C4.49485 13.7732 4.37475 13.8462 4.24953 13.8462C4.12431 13.8462 4.00422 13.7732 3.91568 13.6434C3.82713 13.5136 3.77739 13.3375 3.77739 13.1539V7.61539C3.77739 7.43178 3.82713 7.25569 3.91568 7.12585C4.00422 6.99602 4.12431 6.92308 4.24953 6.92308C4.37475 6.92308 4.49485 6.99602 4.58339 7.12585C4.67193 7.25569 4.72168 7.43178 4.72168 7.61539ZM7.55454 7.61539V13.1539C7.55454 13.3375 7.5048 13.5136 7.41626 13.6434C7.32771 13.7732 7.20762 13.8462 7.0824 13.8462C6.95718 13.8462 6.83709 13.7732 6.74854 13.6434C6.66 13.5136 6.61026 13.3375 6.61026 13.1539V7.61539C6.61026 7.43178 6.66 7.25569 6.74854 7.12585C6.83709 6.99602 6.95718 6.92308 7.0824 6.92308C7.20762 6.92308 7.32771 6.99602 7.41626 7.12585C7.5048 7.25569 7.55454 7.43178 7.55454 7.61539Z" fill="black"/>
</svg>
