<svg width="20" height="17" viewBox="0 0 20 17" fill="none" xmlns="http://www.w3.org/2000/svg">
<path d="M14.1008 9.95893C14.2783 9.48451 14.3684 8.98184 14.3666 8.4753C14.3666 7.35058 13.9198 6.27194 13.1245 5.47665C12.3292 4.68136 11.2506 4.23457 10.1258 4.23457C9.62555 4.23515 9.12938 4.32517 8.66076 4.50039L9.65603 5.52657C9.80732 5.50236 9.96027 5.48996 10.1135 5.48948C10.9087 5.48782 11.6723 5.80088 12.2376 6.36031C12.8028 6.91973 13.1237 7.68007 13.1302 8.4753C13.1297 8.62851 13.1173 8.78145 13.0931 8.93275L14.1008 9.95893Z" fill="#B8C3D4"/>
<path d="M19.7262 8.18476C17.6429 4.33349 13.9894 2.00294 9.94654 2.00294C8.84578 2.00553 7.7524 2.18289 6.70727 2.5284L7.70254 3.52985C8.43561 3.3404 9.18939 3.2428 9.94654 3.23931C13.4269 3.23931 16.592 5.1804 18.4774 8.45058C17.7858 9.66382 16.8689 10.7339 15.776 11.6033L16.6538 12.4811C17.9187 11.4607 18.9691 10.2002 19.7447 8.77203L19.9055 8.47531L19.7262 8.18476Z" fill="#B8C3D4"/>
<path d="M1.53927 0.921091L4.29636 3.67818C2.55366 4.80025 1.12936 6.35229 0.160727 8.18473L0 8.47527L0.160727 8.772C2.244 12.6233 5.89745 14.9538 9.94036 14.9538C11.5184 14.9535 13.0759 14.5964 14.4964 13.9091L17.5873 17L18.6691 16.0727L2.59636 0L1.53927 0.921091ZM7.56654 6.94836L11.6775 11.0593C11.213 11.3468 10.6783 11.5008 10.132 11.5044C9.73508 11.5044 9.34208 11.4259 8.97561 11.2734C8.60914 11.121 8.27644 10.8976 7.99664 10.616C7.71684 10.3345 7.49547 10.0005 7.34527 9.63306C7.19507 9.26566 7.11901 8.87218 7.12145 8.47527C7.12842 7.93533 7.28229 7.40748 7.56654 6.94836ZM6.67018 6.052C6.09183 6.86763 5.82075 7.8616 5.90494 8.85792C5.98913 9.85424 6.42316 10.7886 7.13018 11.4956C7.83719 12.2027 8.77158 12.6367 9.7679 12.7209C10.7642 12.8051 11.7582 12.534 12.5738 11.9556L13.5629 12.9447C12.4179 13.4342 11.1856 13.6865 9.94036 13.6865C6.46 13.6865 3.29491 11.7455 1.40945 8.47527C2.31429 6.87308 3.61743 5.53162 5.19273 4.58073L6.67018 6.052Z" fill="#B8C3D4"/>
</svg>
