<svg width="26" height="29" viewBox="0 0 26 29" fill="none" xmlns="http://www.w3.org/2000/svg">
<g clip-path="url(#clip0_0_352)">
<path d="M12.9943 8.88128C10.2417 8.88128 7.97473 11.4188 7.97473 14.5C7.97473 17.6266 10.2417 20.1188 12.9943 20.1188C15.747 20.1188 18.014 17.6266 18.014 14.5C18.014 11.4188 15.747 8.88128 12.9943 8.88128ZM12.9943 18.125C11.2132 18.125 9.79637 16.4938 9.79637 14.5453C9.79637 12.5516 11.2132 10.9657 12.9943 10.9657C14.7755 10.9657 16.1923 12.5516 16.1923 14.5C16.1923 16.4938 14.735 18.125 12.9943 18.125Z" fill="#D6E4AA"/>
<path d="M24.5718 17.2641L22.3049 15.8594C22.3859 15.361 22.4264 14.8625 22.4264 14.3641C22.4264 13.8203 22.3859 13.3219 22.3454 12.8235L24.6528 11.3735C25.179 11.0563 25.3814 10.3313 25.1386 9.6969L22.7907 5.25627C22.5073 4.71252 21.8596 4.48596 21.3334 4.71252L18.9045 6.20784C18.7831 6.11721 18.6616 5.98127 18.5807 5.89065C18.1354 5.48284 17.7306 5.07502 17.0829 4.71252C17.0424 4.71252 17.0019 4.66721 17.0019 4.57659V2.94533C17.0019 1.76721 16.1518 0.770332 15.0589 0.770332H10.8893C9.83684 0.770332 8.94626 1.76721 8.94626 2.94533V4.71252C8.94626 4.75784 8.90578 4.80315 8.8653 4.84846C8.25809 5.16565 7.8128 5.61877 7.32703 6.02659C7.24607 6.11721 7.12462 6.20784 7.04366 6.29846L4.89818 4.93909C4.08857 4.44065 3.40039 4.75784 3.11703 5.30159L0.890587 9.60628C0.769145 9.96878 0.728664 10.3313 0.809626 10.6938C0.890587 11.0563 1.09299 11.3282 1.37636 11.5094L3.64328 12.8688C3.56232 13.3219 3.56232 13.8203 3.56232 14.4094C3.56232 14.9078 3.6028 15.4063 3.64328 15.9047L1.29539 17.3547C0.769145 17.6719 0.566741 18.3969 0.809626 19.0313L3.15751 23.4719C3.44088 24.0157 4.04809 24.2422 4.61482 24.0157L7.04366 22.5203C7.16511 22.611 7.24607 22.7016 7.36751 22.8375C7.8128 23.2907 8.25809 23.6985 8.90578 24.0157C8.94626 24.0157 8.98674 24.061 8.98674 24.1516V26.1C8.98674 27.2782 9.83684 28.275 10.9298 28.275H15.0589C16.1114 28.275 17.0019 27.2782 17.0019 26.1V24.0157C17.0019 23.9704 17.0424 23.925 17.0829 23.8797C17.6901 23.5625 18.0949 23.1547 18.5807 22.7016C18.7021 22.611 18.7831 22.5203 18.9045 22.3844L21.05 23.7438C21.8596 24.2422 22.5073 23.925 22.8312 23.3813L25.0981 19.0766C25.26 18.7594 25.3005 18.3969 25.2195 18.0797C25.1386 17.7625 24.8552 17.4453 24.5718 17.2641ZM21.4953 21.75L19.5522 20.5266C18.9855 20.1641 18.3378 20.2547 17.852 20.7078C17.6496 20.8891 17.4877 21.025 17.3258 21.2063C16.921 21.6141 16.6376 21.886 16.2328 22.0672C15.5851 22.4297 15.1398 23.2 15.1398 24.0157V26.0094C15.1398 26.1 15.0993 26.1454 15.0184 26.1454H10.8893C10.8084 26.1454 10.7679 26.1 10.7679 26.0094V24.061C10.7679 23.2453 10.3226 22.475 9.67491 22.1125C9.2701 21.886 8.94626 21.6141 8.54145 21.2063C8.37953 21.0703 8.2176 20.8891 8.0152 20.7532C7.73184 20.5266 7.40799 20.3907 7.04366 20.3907C6.80078 20.3907 6.51741 20.4813 6.27453 20.6172L4.33145 21.8407L2.71222 18.7594L4.61482 17.5813C5.18155 17.2188 5.50539 16.5391 5.42443 15.7688C5.38395 15.3157 5.34347 14.8625 5.34347 14.4094C5.34347 13.911 5.38395 13.4578 5.42443 13.0953C5.54587 12.325 5.22203 11.5547 4.61482 11.1922L2.83366 10.0594L4.41241 7.02346L6.35549 8.2469C6.92222 8.6094 7.56991 8.51877 8.05568 8.06565C8.2176 7.92971 8.37953 7.74846 8.54145 7.61252C8.94626 7.20471 9.2701 6.93284 9.67491 6.70627C10.3631 6.34377 10.7679 5.57346 10.7679 4.75784V2.99065C10.7679 2.90002 10.8084 2.85471 10.8893 2.85471H15.0184C15.0993 2.85471 15.1398 2.90002 15.1398 2.99065V4.71252C15.1398 5.52815 15.5851 6.29846 16.2328 6.66096C16.6376 6.88752 16.921 7.1594 17.3258 7.5219C17.4877 7.70315 17.6496 7.83909 17.852 8.02034C18.3378 8.47346 19.026 8.51878 19.5522 8.15628L21.4953 6.93284L23.1145 10.0141L21.2524 11.1922C20.6857 11.5547 20.3618 12.325 20.4833 13.0953C20.5238 13.5032 20.5642 13.9563 20.5642 14.4094C20.5642 14.8625 20.5238 15.3157 20.4428 15.7688C20.3214 16.5391 20.6452 17.2641 21.2524 17.6266L23.074 18.7594L21.4953 21.75Z" fill="#D6E4AA"/>
</g>
<defs>
<clipPath id="clip0_0_352">
<rect width="25.0638" height="28.0554" fill="white" transform="scale(1.03367)"/>
</clipPath>
</defs>
</svg>
