<svg width="16" height="18" viewBox="0 0 16 18" fill="none" xmlns="http://www.w3.org/2000/svg">
<path d="M15.4667 7.03827H14.7466L12.8948 0.928758C12.8109 0.652425 12.6742 0.417655 12.5012 0.252832C12.3282 0.0880101 12.1264 0.000193574 11.9201 0H4.07995C3.87365 0.000193537 3.6718 0.0880212 3.49881 0.252863C3.32583 0.417704 3.18912 0.652499 3.10521 0.928856L1.2534 7.03827H0.533334C0.391885 7.03827 0.256229 7.12066 0.15621 7.26732C0.0561903 7.41398 0 7.61289 0 7.8203C0 8.02771 0.0561903 8.22662 0.15621 8.37328C0.256229 8.51994 0.391885 8.60233 0.533334 8.60233H1.06667V16.4226C1.06699 16.8373 1.17948 17.2349 1.37944 17.5281C1.57941 17.8213 1.85054 17.9862 2.13333 17.9867H3.73334C4.01613 17.9862 4.28726 17.8213 4.48723 17.5281C4.68719 17.2349 4.79968 16.8373 4.8 16.4226V14.8586H11.2V16.4226C11.2003 16.8373 11.3128 17.2349 11.5128 17.5281C11.7128 17.8213 11.9839 17.9862 12.2667 17.9867H13.8667C14.1495 17.9862 14.4206 17.8213 14.6206 17.5281C14.8205 17.2349 14.933 16.8373 14.9333 16.4226V8.60233H15.4667C15.6081 8.60233 15.7438 8.51994 15.8438 8.37328C15.9438 8.22662 16 8.02771 16 7.8203C16 7.61289 15.9438 7.41398 15.8438 7.26732C15.7438 7.12066 15.6081 7.03827 15.4667 7.03827ZM4.07995 1.56406H11.9201L13.5793 7.03827H2.42069L4.07995 1.56406ZM3.73334 16.4226H2.13333V14.8586H3.73334V16.4226ZM12.2667 16.4226V14.8586H13.8667V16.4226H12.2667ZM13.8667 13.2945H2.13333V8.60233H13.8667V13.2945ZM3.2 10.9484C3.20001 10.741 3.2562 10.5421 3.35622 10.3955C3.45624 10.2488 3.59189 10.1664 3.73334 10.1664H4.8C4.94145 10.1664 5.07711 10.2488 5.17713 10.3954C5.27715 10.5421 5.33334 10.741 5.33334 10.9484C5.33334 11.1558 5.27715 11.3547 5.17713 11.5014C5.07711 11.6481 4.94145 11.7305 4.8 11.7305H3.73334C3.59189 11.7304 3.45624 11.648 3.35622 11.5014C3.2562 11.3547 3.20001 11.1558 3.2 10.9484ZM10.6667 10.9484C10.6667 10.741 10.7229 10.5421 10.8229 10.3955C10.9229 10.2488 11.0586 10.1664 11.2 10.1664H12.2667C12.4081 10.1664 12.5438 10.2488 12.6438 10.3954C12.7438 10.5421 12.8 10.741 12.8 10.9484C12.8 11.1558 12.7438 11.3547 12.6438 11.5014C12.5438 11.6481 12.4081 11.7305 12.2667 11.7305H11.2C11.0586 11.7304 10.9229 11.648 10.8229 11.5014C10.7229 11.3547 10.6667 11.1558 10.6667 10.9484Z" fill="black"/>
</svg>
