<svg width="26" height="25" viewBox="0 0 26 25" fill="none" xmlns="http://www.w3.org/2000/svg">
<g clip-path="url(#clip0_0_264)">
<path d="M1.96763 22.5781V23.0782H2.46773H23.5022C23.7419 23.0782 23.903 23.2496 23.903 23.4375C23.903 23.6539 23.7115 23.8358 23.5022 23.8358H2.35022C1.72421 23.8358 1.20518 23.3162 1.20518 22.6953V1.56252C1.20518 1.32684 1.37504 1.16418 1.56682 1.16418C1.78714 1.16418 1.96763 1.3571 1.96763 1.56252V22.5781Z" fill="white" stroke="white"/>
<path d="M21.5184 10.8078L22.5331 9.9296H21.1911H18.5276C18.2932 9.9296 18.1267 9.76158 18.1267 9.53127C18.1267 9.3149 18.3182 9.13294 18.5276 9.13294H23.1105C23.5396 9.13294 23.9112 9.49809 23.9422 9.89953V14.5313C23.9422 14.7616 23.7757 14.9296 23.5413 14.9296C23.321 14.9296 23.1405 14.7367 23.1405 14.5313V11.5235V10.4202L22.3108 11.1473L19.7256 13.413L19.7135 13.4236L19.7021 13.435C19.6816 13.4553 19.647 13.4789 19.5985 13.4974C19.5498 13.5158 19.5022 13.5234 19.4676 13.5234H14.4147H14.1677L14.0176 13.7195L11.2365 17.3523L11.2267 17.365L11.2178 17.3783C11.1718 17.4472 11.0706 17.5077 10.9285 17.5077H6.38477C6.15045 17.5077 5.98395 17.3397 5.98395 17.1094C5.98395 16.893 6.17542 16.7111 6.38477 16.7111H10.4976H10.7446L10.8947 16.515L13.6758 12.8821L13.6856 12.8694L13.6945 12.8561C13.7405 12.7872 13.8417 12.7267 13.9838 12.7267H19.1151H19.3015L19.4424 12.6047L21.5184 10.8078Z" fill="white" stroke="white"/>
</g>
<defs>
<clipPath id="clip0_0_264">
<rect width="25.0638" height="24.9948" fill="white"/>
</clipPath>
</defs>
</svg>
