<svg width="17" height="19" viewBox="0 0 17 19" fill="none" xmlns="http://www.w3.org/2000/svg">
<path d="M13.77 5.68143L12.2612 2.94286L11.1279 0.885715C10.9933 0.641429 10.8092 0.5 10.625 0.5H8.5C8.11042 0.5 7.79167 1.07857 7.79167 1.78571C7.79167 2.49286 8.11042 3.07143 8.5 3.07143H10.3346L11.7512 5.64286H3.54167C1.55833 5.64286 0 8.47143 0 12.0714C0 15.6714 1.55833 18.5 3.54167 18.5C5.28417 18.5 6.69375 16.3271 7.0125 13.3571H7.59333C7.96875 13.3571 8.33 13.0871 8.59208 12.5986L10.1363 9.79571C9.99458 10.49 9.91667 11.2614 9.91667 12.0714C9.91667 15.6714 11.475 18.5 13.4583 18.5C15.4417 18.5 17 15.6714 17 12.0714C17 8.66429 15.6046 5.93857 13.77 5.68143ZM3.54167 13.3571H5.53917C5.24167 14.8357 4.44833 15.9286 3.54167 15.9286C2.38708 15.9286 1.41667 14.1671 1.41667 12.0714C1.41667 9.97571 2.38708 8.21429 3.54167 8.21429C4.44833 8.21429 5.24167 9.30714 5.53917 10.7857H3.54167C3.15208 10.7857 2.83333 11.3643 2.83333 12.0714C2.83333 12.7786 3.15208 13.3571 3.54167 13.3571ZM13.4583 15.9286C12.2825 15.9286 11.3333 14.2057 11.3333 12.0714C11.3333 9.93714 12.2825 8.21429 13.4583 8.21429C14.6342 8.21429 15.5833 9.93714 15.5833 12.0714C15.5833 14.2057 14.6342 15.9286 13.4583 15.9286Z" fill="#FFEB59"/>
</svg>
