<!--<svg width="22" height="22" viewBox="0 0 22 22" fill="none" xmlns="http://www.w3.org/2000/svg">-->
<!--<path d="M8.28282 7.14318C7.96812 6.82848 7.45788 6.82848 7.14318 7.14318C6.82848 7.45788 6.82848 7.96812 7.14318 8.28282C7.45788 8.59753 7.96812 8.59753 8.28282 8.28282C8.59753 7.96812 8.59753 7.45788 8.28282 7.14318Z" fill="#71757A"/>-->
<!--<path d="M11.1319 8.09288C10.8172 7.77818 10.307 7.77818 9.99228 8.09288C9.67758 8.40759 9.67758 8.91782 9.99228 9.23252C10.307 9.54723 10.8172 9.54723 11.1319 9.23252C11.4466 8.91782 11.4466 8.40759 11.1319 8.09288Z" fill="#71757A"/>-->
<!--<path d="M14.9307 11.8917C15.2454 12.2064 15.2454 12.7166 14.9307 13.0313C14.616 13.346 14.1058 13.346 13.7911 13.0313C13.4764 12.7166 13.4764 12.2064 13.7911 11.8917C14.1058 11.577 14.616 11.577 14.9307 11.8917Z" fill="#71757A"/>-->
<!--<path d="M15.8804 15.8804C16.1951 15.5657 16.1951 15.0555 15.8804 14.7408C15.5657 14.4261 15.0555 14.4261 14.7408 14.7408C14.4261 15.0555 14.4261 15.5657 14.7408 15.8804C15.0555 16.1951 15.5657 16.1951 15.8804 15.8804Z" fill="#71757A"/>-->
<!--<path d="M12.0816 12.0816C12.3963 11.7669 12.3963 11.2567 12.0816 10.942C11.7669 10.6273 11.2567 10.6273 10.942 10.942C10.6273 11.2567 10.6273 11.7669 10.942 12.0816C11.2567 12.3963 11.7669 12.3963 12.0816 12.0816Z" fill="#71757A"/>-->
<!--<path d="M13.0313 13.7911C13.346 14.1058 13.346 14.616 13.0313 14.9307C12.7166 15.2454 12.2064 15.2454 11.8917 14.9307C11.577 14.616 11.577 14.1058 11.8917 13.7911C12.2064 13.4764 12.7166 13.4764 13.0313 13.7911Z" fill="#71757A"/>-->
<!--<path d="M8.09288 9.99228C8.40759 9.67758 8.91782 9.67758 9.23252 9.99228C9.54723 10.307 9.54723 10.8172 9.23252 11.1319C8.91782 11.4466 8.40759 11.4466 8.09288 11.1319C7.77818 10.8172 7.77818 10.307 8.09288 9.99228Z" fill="#71757A"/>-->
<!--<path fill-rule="evenodd" clip-rule="evenodd" d="M13.4544 1.4662C15.4093 -0.488732 18.5789 -0.488732 20.5338 1.4662C22.4887 3.42112 22.4887 6.59069 20.5338 8.54562L18.0794 11L20.5338 13.4544C22.4887 15.4093 22.4887 18.5789 20.5338 20.5338C18.5789 22.4887 15.4093 22.4887 13.4544 20.5338L11 18.0794L8.54562 20.5338C6.59069 22.4887 3.42112 22.4887 1.4662 20.5338C-0.488732 18.5789 -0.488732 15.4093 1.4662 13.4544L3.92058 11L1.4662 8.54562C-0.488732 6.59069 -0.488732 3.42112 1.4662 1.4662C3.42112 -0.488732 6.59069 -0.488732 8.54562 1.4662L11 3.92058L13.4544 1.4662ZM19.4485 14.5397C20.804 15.8952 20.804 18.093 19.4485 19.4485C18.093 20.804 15.8952 20.804 14.5397 19.4485L2.55152 7.46029C1.196 6.10477 1.196 3.90704 2.55152 2.55152C3.90704 1.196 6.10477 1.196 7.46029 2.55152L19.4485 14.5397ZM19.4485 7.46029L16.9941 9.91467L12.0853 5.00591L14.5397 2.55152C15.8952 1.196 18.093 1.196 19.4485 2.55152C20.804 3.90704 20.804 6.10477 19.4485 7.46029ZM2.55152 14.5397L5.00591 12.0853L9.91467 16.9941L7.46029 19.4485C6.10477 20.804 3.90704 20.804 2.55152 19.4485C1.196 18.093 1.196 15.8952 2.55152 14.5397Z" fill="#71757A"/>-->
<svg width="25" height="28" viewBox="0 0 25 28" fill="none" xmlns="http://www.w3.org/2000/svg">

<!--        <path d="M12.8422 12.9863V13.5035H13.3594H16.4844C16.6142 13.5035 16.8266 13.6528 16.8266 13.9483C16.8266 14.3032 16.6003 14.4367 16.4844 14.4367H13.3984H12.8812V14.9539V18.4082C12.8812 18.7632 12.655 18.8967 12.5391 18.8967C12.356 18.8967 12.1578 18.7317 12.1578 18.4519V14.9977V14.4805H11.6406H8.5547C8.37163 14.4805 8.17346 14.3155 8.17346 14.0357C8.17346 13.6807 8.39972 13.5472 8.51564 13.5472H11.6016H12.1188V13.03V9.57576C12.1188 9.2208 12.345 9.08729 12.4609 9.08729C12.644 9.08729 12.8422 9.25224 12.8422 9.53204V12.9863Z"  stroke="#71757A"/>-->
<!--        <path d="M1.22033 13.992C1.22033 6.91917 6.3155 1.30424 12.5 1.30424C18.686 1.30424 23.8193 6.92096 23.8578 13.9933C23.8572 21.0655 18.7232 26.7235 12.5391 26.7235C6.35457 26.7235 1.22033 21.0648 1.22033 13.992ZM1.94374 13.992C1.94374 20.4275 6.61175 25.7902 12.5 25.7902C18.3858 25.7902 23.0953 20.4302 23.0953 13.992C23.0953 7.55104 18.3834 2.23746 12.5 2.23746C6.6142 2.23746 1.94374 7.55378 1.94374 13.992Z"  stroke="#71757A"/>-->
<!--        fill="white"-->


</svg>
