<svg width="41" height="26" viewBox="0 0 41 26" fill="none" xmlns="http://www.w3.org/2000/svg">
<g filter="url(#filter0_d_0_153)">
<path d="M19.5004 6.89536C19.5004 11.7777 19.5004 14.2624 19.5004 18.6825C19.5004 29.2609 2.00405 16.6095 2.00405 11.7272C2.00405 6.84482 9.83742 1.00203 19.5004 1.00203C19.5004 1.00203 19.5004 2.01319 19.5004 6.89536Z" fill="#F4F4F4"/>
<path d="M19.1998 6.89536V6.92394V6.95246V6.98093V7.00935V7.03771V7.06602V7.09427V7.12248V7.15062V7.17872V7.20676V7.23475V7.26269V7.29057V7.3184V7.34618V7.37391V7.40159V7.42921V7.45679V7.48431V7.51178V7.5392V7.56658V7.5939V7.62117V7.64839V7.67556V7.70268V7.72976V7.75678V7.78375V7.81068V7.83756V7.86439V7.89117V7.9179V7.94459V7.97123V7.99782V8.02436V8.05086V8.07731V8.10371V8.13007V8.15638V8.18264V8.20886V8.23504V8.26117V8.28725V8.31329V8.33928V8.36523V8.39113V8.41699V8.44281V8.46858V8.49431V8.51999V8.54564V8.57124V8.59679V8.6223V8.64778V8.6732V8.69859V8.72393V8.74924V8.7745V8.79972V8.8249V8.85004V8.87513V8.90019V8.92521V8.95018V8.97512V9.00001V9.02487V9.04969V9.07447V9.09921V9.12391V9.14857V9.17319V9.19778V9.22232V9.24683V9.2713V9.29574V9.32014V9.3445V9.36882V9.39311V9.41736V9.44157V9.46575V9.48989V9.51399V9.53806V9.5621V9.5861V9.61006V9.634V9.65789V9.68175V9.70558V9.72937V9.75313V9.77686V9.80055V9.82421V9.84784V9.87143V9.89499V9.91852V9.94202V9.96548V9.98892V10.0123V10.0357V10.059V10.0823V10.1056V10.1289V10.1521V10.1753V10.1984V10.2215V10.2446V10.2677V10.2907V10.3137V10.3367V10.3597V10.3826V10.4055V10.4283V10.4512V10.474V10.4968V10.5195V10.5423V10.565V10.5876V10.6103V10.6329V10.6555V10.6781V10.7006V10.7231V10.7456V10.7681V10.7905V10.8129V10.8353V10.8577V10.88V10.9023V10.9246V10.9469V10.9692V10.9914V11.0136V11.0358V11.0579V11.08V11.1022V11.1242V11.1463V11.1684V11.1904V11.2124V11.2344V11.2563V11.2783V11.3002V11.3221V11.344V11.3658V11.3877V11.4095V11.4313V11.453V11.4748V11.4965V11.5183V11.54V11.5617V11.5833V11.605V11.6266V11.6482V11.6698V11.6914V11.713V11.7345V11.756V11.7776V11.7991V11.8205V11.842V11.8635V11.8849V11.9063V11.9277V11.9491V11.9705V11.9918V12.0132V12.0345V12.0558V12.0772V12.0984V12.1197V12.141V12.1622V12.1835V12.2047V12.2259V12.2471V12.2683V12.2895V12.3107V12.3318V12.353V12.3741V12.3952V12.4163V12.4375V12.4585V12.4796V12.5007V12.5218V12.5428V12.5639V12.5849V12.6059V12.627V12.648V12.669V12.69V12.711V12.7319V12.7529V12.7739V12.7948V12.8158V12.8367V12.8577V12.8786V12.8995V12.9204V12.9414V12.9623V12.9832V13.0041V13.025V13.0458V13.0667V13.0876V13.1085V13.1294V13.1502V13.1711V13.192V13.2128V13.2337V13.2545V13.2754V13.2962V13.3171V13.3379V13.3587V13.3796V13.4004V13.4213V13.4421V13.4629V13.4838V13.5046V13.5254V13.5463V13.5671V13.5879V13.6088V13.6296V13.6504V13.6713V13.6921V13.713V13.7338V13.7546V13.7755V13.7963V13.8172V13.838V13.8589V13.8798V13.9006V13.9215V13.9424V13.9632V13.9841V14.005V14.0259V14.0468V14.0677V14.0886V14.1095V14.1304V14.1513V14.1722V14.1931V14.2141V14.235V14.256V14.2769V14.2979V14.3188V14.3398V14.3608V14.3818V14.4028V14.4238V14.4448V14.4658V14.4869V14.5079V14.529V14.55V14.5711V14.5922V14.6133V14.6343V14.6555V14.6766V14.6977V14.7188V14.74V14.7612V14.7823V14.8035V14.8247V14.8459V14.8671V14.8884V14.9096V14.9309V14.9521V14.9734V14.9947V15.016V15.0374V15.0587V15.0801V15.1014V15.1228V15.1442V15.1656V15.187V15.2085V15.2299V15.2514V15.2729V15.2944V15.3159V15.3375V15.359V15.3806V15.4022V15.4238V15.4454V15.467V15.4887V15.5104V15.5321V15.5538V15.5755V15.5972V15.619V15.6408V15.6626V15.6844V15.7063V15.7281V15.75V15.7719V15.7939V15.8158V15.8378V15.8598V15.8818V15.9038V15.9259V15.9479V15.97V15.9921V16.0143V16.0365V16.0586V16.0808V16.1031V16.1253V16.1476V16.1699V16.1922V16.2146V16.237V16.2594V16.2818V16.3043V16.3267V16.3492V16.3718V16.3943V16.4169V16.4395V16.4621V16.4848V16.5075V16.5302V16.5529V16.5757V16.5985V16.6213V16.6441V16.667V16.6899V16.7128V16.7358V16.7588V16.7818V16.8049V16.8279V16.851V16.8742V16.8973V16.9205V16.9438V16.967V16.9903V17.0136V17.037V17.0604V17.0838V17.1072V17.1307V17.1542V17.1778V17.2013V17.2249V17.2486V17.2722V17.2959V17.3197V17.3435V17.3673V17.3911V17.415V17.4389V17.4628V17.4868V17.5108V17.5349V17.559V17.5831V17.6072V17.6314V17.6557V17.6799V17.7042V17.7286V17.7529V17.7773V17.8018V17.8263V17.8508V17.8754V17.9V17.9246V17.9493V17.974V17.9987V18.0235V18.0484V18.0732V18.0982V18.1231V18.1481V18.1731V18.1982V18.2233V18.2485V18.2737V18.2989V18.3242V18.3495V18.3749V18.4003V18.4257V18.4512V18.4767V18.5023V18.5279V18.5536V18.5793V18.605V18.6308V18.6566V18.6825C19.1998 19.9676 18.9335 20.8564 18.5056 21.4441C18.0833 22.0239 17.4794 22.3438 16.7257 22.4473C15.1878 22.6584 13.0748 21.9594 10.8991 20.7404C8.73819 19.5295 6.57463 17.8392 4.95463 16.153C4.14469 15.3099 3.47674 14.4742 3.0132 13.7063C2.54563 12.9317 2.30466 12.2566 2.30466 11.7272C2.30466 9.43817 4.15812 6.83589 7.29315 4.78529C10.3449 2.78916 14.5463 1.36363 19.1998 1.30454V1.3056V1.31028V1.315V1.31977V1.32457V1.32942V1.33431V1.33924V1.34421V1.34923V1.35428V1.35939V1.36453V1.36972V1.37495V1.38022V1.38554V1.3909V1.39631V1.40176V1.40725V1.41279V1.41837V1.42399V1.42966V1.43538V1.44114V1.44694V1.45279V1.45868V1.46462V1.47061V1.47664V1.48272V1.48884V1.495V1.50122V1.50748V1.51379V1.52014V1.52654V1.53298V1.53948V1.54602V1.5526V1.55924V1.56592V1.57265V1.57942V1.58625V1.59312V1.60004V1.60701V1.61402V1.62109V1.6282V1.63536V1.64257V1.64983V1.65714V1.66449V1.6719V1.67935V1.68686V1.69441V1.70202V1.70967V1.71738V1.72513V1.73294V1.74079V1.7487V1.75665V1.76466V1.77272V1.78083V1.78899V1.7972V1.80546V1.81377V1.82214V1.83056V1.83903V1.84755V1.85612V1.86475V1.87342V1.88216V1.89094V1.89978V1.90866V1.91761V1.9266V1.93565V1.94475V1.95391V1.96312V1.97238V1.9817V1.99107V2.0005V2.00998V2.01951V2.0291V2.03874V2.04844V2.0582V2.068V2.07787V2.08779V2.09776V2.10779V2.11788V2.12802V2.13822V2.14847V2.15878V2.16915V2.17957V2.19005V2.20059V2.21118V2.22183V2.23254V2.24331V2.25413V2.26501V2.27595V2.28694V2.29799V2.30911V2.32028V2.3315V2.34279V2.35413V2.36554V2.377V2.38852V2.4001V2.41174V2.42344V2.4352V2.44702V2.45889V2.47083V2.48283V2.49489V2.507V2.51918V2.53142V2.54372V2.55608V2.5685V2.58098V2.59352V2.60613V2.61879V2.63152V2.64431V2.65716V2.67007V2.68305V2.69608V2.70918V2.72234V2.73557V2.74885V2.7622V2.77561V2.78909V2.80262V2.81623V2.82989V2.84362V2.85741V2.87127V2.88519V2.89917V2.91322V2.92733V2.94151V2.95575V2.97005V2.98442V2.99886V3.01336V3.02793V3.04256V3.05725V3.07202V3.08684V3.10174V3.1167V3.13172V3.14682V3.16198V3.1772V3.19249V3.20785V3.22328V3.23877V3.25433V3.26995V3.28565V3.30141V3.31724V3.33313V3.3491V3.36513V3.38123V3.3974V3.41364V3.42995V3.44632V3.46276V3.47928V3.49586V3.51251V3.52923V3.54602V3.56288V3.57981V3.5968V3.61387V3.63101V3.64822V3.6655V3.68285V3.70027V3.71776V3.73532V3.75295V3.77066V3.78843V3.80628V3.8242V3.84218V3.86025V3.87838V3.89658V3.91486V3.93321V3.95163V3.97012V3.98869V4.00733V4.02604V4.04483V4.06369V4.08262V4.10162V4.1207V4.13985V4.15908V4.17838V4.19775V4.2172V4.23672V4.25632V4.27599V4.29574V4.31556V4.33545V4.35542V4.37547V4.39559V4.41579V4.43606V4.45641V4.47683V4.49733V4.5179V4.53856V4.55928V4.58009V4.60097V4.62193V4.64296V4.66407V4.68526V4.70653V4.72787V4.74929V4.77079V4.79237V4.81402V4.83575V4.85756V4.87945V4.90142V4.92346V4.94559V4.96779V4.99007V5.01243V5.03487V5.05739V5.07999V5.10267V5.12542V5.14826V5.17118V5.19418V5.21725V5.24041V5.26365V5.28697V5.31037V5.33385V5.35741V5.38105V5.40477V5.42858V5.45246V5.47643V5.50048V5.52461V5.54883V5.57312V5.5975V5.62196V5.6465V5.67113V5.69583V5.72062V5.7455V5.77045V5.79549V5.82062V5.84582V5.87111V5.89649V5.92194V5.94748V5.97311V5.99882V6.02462V6.05049V6.07646V6.10251V6.12864V6.15486V6.18116V6.20755V6.23402V6.26058V6.28723V6.31396V6.34078V6.36768V6.39467V6.42175V6.44891V6.47616V6.50349V6.53091V6.55842V6.58602V6.6137V6.64147V6.66933V6.69727V6.72531V6.75343V6.78164V6.80994V6.83832V6.86679V6.89536Z" stroke="black" stroke-width="0.6"/>
</g>
<g filter="url(#filter1_d_0_153)">
<path d="M21.4996 6.89536C21.4996 11.7777 21.4996 14.2624 21.4996 18.6825C21.4996 29.2609 38.9959 16.6095 38.9959 11.7272C38.9959 6.84482 31.1626 1.00203 21.4996 1.00203C21.4996 1.00203 21.4996 2.01319 21.4996 6.89536Z" fill="#F4F4F4"/>
<path d="M21.7501 6.89536V6.92394V6.95246V6.98093V7.00935V7.03771V7.06602V7.09427V7.12248V7.15062V7.17872V7.20676V7.23475V7.26269V7.29057V7.3184V7.34618V7.37391V7.40159V7.42921V7.45679V7.48431V7.51178V7.5392V7.56658V7.5939V7.62117V7.64839V7.67556V7.70268V7.72976V7.75678V7.78375V7.81068V7.83756V7.86439V7.89117V7.9179V7.94459V7.97123V7.99782V8.02436V8.05086V8.07731V8.10371V8.13007V8.15638V8.18264V8.20886V8.23504V8.26117V8.28725V8.31329V8.33928V8.36523V8.39113V8.41699V8.44281V8.46858V8.49431V8.51999V8.54564V8.57124V8.59679V8.6223V8.64778V8.6732V8.69859V8.72393V8.74924V8.7745V8.79972V8.8249V8.85004V8.87513V8.90019V8.92521V8.95018V8.97512V9.00001V9.02487V9.04969V9.07447V9.09921V9.12391V9.14857V9.17319V9.19778V9.22232V9.24683V9.2713V9.29574V9.32014V9.3445V9.36882V9.39311V9.41736V9.44157V9.46575V9.48989V9.51399V9.53806V9.5621V9.5861V9.61006V9.634V9.65789V9.68175V9.70558V9.72937V9.75313V9.77686V9.80055V9.82421V9.84784V9.87143V9.89499V9.91852V9.94202V9.96548V9.98892V10.0123V10.0357V10.059V10.0823V10.1056V10.1289V10.1521V10.1753V10.1984V10.2215V10.2446V10.2677V10.2907V10.3137V10.3367V10.3597V10.3826V10.4055V10.4283V10.4512V10.474V10.4968V10.5195V10.5423V10.565V10.5876V10.6103V10.6329V10.6555V10.6781V10.7006V10.7231V10.7456V10.7681V10.7905V10.8129V10.8353V10.8577V10.88V10.9023V10.9246V10.9469V10.9692V10.9914V11.0136V11.0358V11.0579V11.08V11.1022V11.1242V11.1463V11.1684V11.1904V11.2124V11.2344V11.2563V11.2783V11.3002V11.3221V11.344V11.3658V11.3877V11.4095V11.4313V11.453V11.4748V11.4965V11.5183V11.54V11.5617V11.5833V11.605V11.6266V11.6482V11.6698V11.6914V11.713V11.7345V11.756V11.7776V11.7991V11.8205V11.842V11.8635V11.8849V11.9063V11.9277V11.9491V11.9705V11.9918V12.0132V12.0345V12.0558V12.0772V12.0984V12.1197V12.141V12.1622V12.1835V12.2047V12.2259V12.2471V12.2683V12.2895V12.3107V12.3318V12.353V12.3741V12.3952V12.4163V12.4375V12.4585V12.4796V12.5007V12.5218V12.5428V12.5639V12.5849V12.6059V12.627V12.648V12.669V12.69V12.711V12.7319V12.7529V12.7739V12.7948V12.8158V12.8367V12.8577V12.8786V12.8995V12.9204V12.9414V12.9623V12.9832V13.0041V13.025V13.0458V13.0667V13.0876V13.1085V13.1294V13.1502V13.1711V13.192V13.2128V13.2337V13.2545V13.2754V13.2962V13.3171V13.3379V13.3587V13.3796V13.4004V13.4213V13.4421V13.4629V13.4838V13.5046V13.5254V13.5463V13.5671V13.5879V13.6088V13.6296V13.6504V13.6713V13.6921V13.713V13.7338V13.7546V13.7755V13.7963V13.8172V13.838V13.8589V13.8798V13.9006V13.9215V13.9424V13.9632V13.9841V14.005V14.0259V14.0468V14.0677V14.0886V14.1095V14.1304V14.1513V14.1722V14.1931V14.2141V14.235V14.256V14.2769V14.2979V14.3188V14.3398V14.3608V14.3818V14.4028V14.4238V14.4448V14.4658V14.4869V14.5079V14.529V14.55V14.5711V14.5922V14.6133V14.6343V14.6555V14.6766V14.6977V14.7188V14.74V14.7612V14.7823V14.8035V14.8247V14.8459V14.8671V14.8884V14.9096V14.9309V14.9521V14.9734V14.9947V15.016V15.0374V15.0587V15.0801V15.1014V15.1228V15.1442V15.1656V15.187V15.2085V15.2299V15.2514V15.2729V15.2944V15.3159V15.3375V15.359V15.3806V15.4022V15.4238V15.4454V15.467V15.4887V15.5104V15.5321V15.5538V15.5755V15.5972V15.619V15.6408V15.6626V15.6844V15.7063V15.7281V15.75V15.7719V15.7939V15.8158V15.8378V15.8598V15.8818V15.9038V15.9259V15.9479V15.97V15.9921V16.0143V16.0365V16.0586V16.0808V16.1031V16.1253V16.1476V16.1699V16.1922V16.2146V16.237V16.2594V16.2818V16.3043V16.3267V16.3492V16.3718V16.3943V16.4169V16.4395V16.4621V16.4848V16.5075V16.5302V16.5529V16.5757V16.5985V16.6213V16.6441V16.667V16.6899V16.7128V16.7358V16.7588V16.7818V16.8049V16.8279V16.851V16.8742V16.8973V16.9205V16.9438V16.967V16.9903V17.0136V17.037V17.0604V17.0838V17.1072V17.1307V17.1542V17.1778V17.2013V17.2249V17.2486V17.2722V17.2959V17.3197V17.3435V17.3673V17.3911V17.415V17.4389V17.4628V17.4868V17.5108V17.5349V17.559V17.5831V17.6072V17.6314V17.6557V17.6799V17.7042V17.7286V17.7529V17.7773V17.8018V17.8263V17.8508V17.8754V17.9V17.9246V17.9493V17.974V17.9987V18.0235V18.0484V18.0732V18.0982V18.1231V18.1481V18.1731V18.1982V18.2233V18.2485V18.2737V18.2989V18.3242V18.3495V18.3749V18.4003V18.4257V18.4512V18.4767V18.5023V18.5279V18.5536V18.5793V18.605V18.6308V18.6566V18.6825C21.7501 19.9738 22.0176 20.8744 22.4539 21.4736C22.8856 22.0663 23.5028 22.3919 24.2675 22.4969C25.8224 22.7104 27.9478 22.0042 30.1253 20.7841C32.2906 19.5708 34.4581 17.8775 36.0815 16.1877C36.8931 15.3429 37.5637 14.5042 38.0297 13.7322C38.4991 12.9546 38.7454 12.2701 38.7454 11.7272C38.7454 9.41281 36.8745 6.79736 33.7343 4.74336C30.6634 2.73476 26.4333 1.30331 21.7501 1.25385V1.25685V1.26108V1.26535V1.26966V1.27401V1.2784V1.28283V1.2873V1.29182V1.29637V1.30097V1.3056V1.31028V1.315V1.31977V1.32457V1.32942V1.33431V1.33924V1.34421V1.34923V1.35428V1.35939V1.36453V1.36972V1.37495V1.38022V1.38554V1.3909V1.39631V1.40176V1.40725V1.41279V1.41837V1.42399V1.42966V1.43538V1.44114V1.44694V1.45279V1.45868V1.46462V1.47061V1.47664V1.48272V1.48884V1.495V1.50122V1.50748V1.51379V1.52014V1.52654V1.53298V1.53948V1.54602V1.5526V1.55924V1.56592V1.57265V1.57942V1.58625V1.59312V1.60004V1.60701V1.61402V1.62109V1.6282V1.63536V1.64257V1.64983V1.65714V1.66449V1.6719V1.67935V1.68686V1.69441V1.70202V1.70967V1.71738V1.72513V1.73294V1.74079V1.7487V1.75665V1.76466V1.77272V1.78083V1.78899V1.7972V1.80546V1.81377V1.82214V1.83056V1.83903V1.84755V1.85612V1.86475V1.87342V1.88216V1.89094V1.89978V1.90866V1.91761V1.9266V1.93565V1.94475V1.95391V1.96312V1.97238V1.9817V1.99107V2.0005V2.00998V2.01951V2.0291V2.03874V2.04844V2.0582V2.068V2.07787V2.08779V2.09776V2.10779V2.11788V2.12802V2.13822V2.14847V2.15878V2.16915V2.17957V2.19005V2.20059V2.21118V2.22183V2.23254V2.24331V2.25413V2.26501V2.27595V2.28694V2.29799V2.30911V2.32028V2.3315V2.34279V2.35413V2.36554V2.377V2.38852V2.4001V2.41174V2.42344V2.4352V2.44702V2.45889V2.47083V2.48283V2.49489V2.507V2.51918V2.53142V2.54372V2.55608V2.5685V2.58098V2.59352V2.60613V2.61879V2.63152V2.64431V2.65716V2.67007V2.68305V2.69608V2.70918V2.72234V2.73557V2.74885V2.7622V2.77561V2.78909V2.80262V2.81623V2.82989V2.84362V2.85741V2.87127V2.88519V2.89917V2.91322V2.92733V2.94151V2.95575V2.97005V2.98442V2.99886V3.01336V3.02793V3.04256V3.05725V3.07202V3.08684V3.10174V3.1167V3.13172V3.14682V3.16198V3.1772V3.19249V3.20785V3.22328V3.23877V3.25433V3.26995V3.28565V3.30141V3.31724V3.33313V3.3491V3.36513V3.38123V3.3974V3.41364V3.42995V3.44632V3.46276V3.47928V3.49586V3.51251V3.52923V3.54602V3.56288V3.57981V3.5968V3.61387V3.63101V3.64822V3.6655V3.68285V3.70027V3.71776V3.73532V3.75295V3.77066V3.78843V3.80628V3.8242V3.84218V3.86025V3.87838V3.89658V3.91486V3.93321V3.95163V3.97012V3.98869V4.00733V4.02604V4.04483V4.06369V4.08262V4.10162V4.1207V4.13985V4.15908V4.17838V4.19775V4.2172V4.23672V4.25632V4.27599V4.29574V4.31556V4.33545V4.35542V4.37547V4.39559V4.41579V4.43606V4.45641V4.47683V4.49733V4.5179V4.53856V4.55928V4.58009V4.60097V4.62193V4.64296V4.66407V4.68526V4.70653V4.72787V4.74929V4.77079V4.79237V4.81402V4.83575V4.85756V4.87945V4.90142V4.92346V4.94559V4.96779V4.99007V5.01243V5.03487V5.05739V5.07999V5.10267V5.12542V5.14826V5.17118V5.19418V5.21725V5.24041V5.26365V5.28697V5.31037V5.33385V5.35741V5.38105V5.40477V5.42858V5.45246V5.47643V5.50048V5.52461V5.54883V5.57312V5.5975V5.62196V5.6465V5.67113V5.69583V5.72062V5.7455V5.77045V5.79549V5.82062V5.84582V5.87111V5.89649V5.92194V5.94748V5.97311V5.99882V6.02462V6.05049V6.07646V6.10251V6.12864V6.15486V6.18116V6.20755V6.23402V6.26058V6.28723V6.31396V6.34078V6.36768V6.39467V6.42175V6.44891V6.47616V6.50349V6.53091V6.55842V6.58602V6.6137V6.64147V6.66933V6.69727V6.72531V6.75343V6.78164V6.80994V6.83832V6.86679V6.89536Z" stroke="black" stroke-width="0.5"/>
</g>
<path d="M17.179 17.7025H15.3404C14.8913 17.7025 14.5123 17.1725 14.5123 16.4997V14.3388C14.5123 14.1757 14.4281 14.0534 14.3159 14.0534H13.1931C13.0808 14.0534 12.9966 14.1757 12.9966 14.3388V16.4997C12.9966 17.1725 12.6317 17.7025 12.1685 17.7025H10.3299C9.88079 17.7025 9.50184 17.1725 9.50184 16.4997V9.62963C9.50184 9.28306 9.61412 8.97727 9.81062 8.79379L13.3895 5.51163C13.6141 5.30777 13.8948 5.30777 14.1053 5.51163L17.6843 8.81418C17.8808 8.99766 17.993 9.30345 17.993 9.65001V16.4997C18.0071 17.1521 17.6281 17.7025 17.179 17.7025ZM13.1931 13.136H14.3159C14.779 13.136 15.1439 13.6661 15.1439 14.3388V16.4997C15.1439 16.6628 15.2281 16.7852 15.3404 16.7852H17.179C17.2913 16.7852 17.3755 16.6628 17.3755 16.4997V9.62963C17.3755 9.60924 17.3615 9.58885 17.3615 9.56847L13.7685 6.2863C13.7545 6.26592 13.7404 6.26592 13.7264 6.2863L10.1615 9.56847C10.1475 9.58885 10.1334 9.60924 10.1334 9.62963V16.4997C10.1334 16.6628 10.2176 16.7852 10.3299 16.7852H12.1685C12.2808 16.7852 12.365 16.6628 12.365 16.4997V14.3388C12.365 13.6865 12.7299 13.136 13.1931 13.136Z" fill="black"/>
<path d="M31.2947 7.61064H29.687V6.46384C29.687 5.85916 29.3425 5.35873 28.9262 5.35873H26.7585C26.3422 5.35873 25.9977 5.85916 25.9977 6.46384V7.61064H24.4043C23.9162 7.61064 23.4999 8.19447 23.4999 8.92426V16.3889C23.4999 17.0978 23.9019 17.7025 24.4043 17.7025H31.2947C31.7828 17.7025 32.1991 17.1187 32.1991 16.3889V8.92426C32.1848 8.19447 31.7828 7.61064 31.2947 7.61064ZM26.6581 6.46384C26.6581 6.38043 26.7011 6.31788 26.7585 6.31788H28.9262C28.9836 6.31788 29.041 6.38043 29.041 6.48469V7.63149H26.6581V6.46384ZM31.5388 16.3889C31.5388 16.5974 31.4239 16.7642 31.2804 16.7642H24.4043C24.2608 16.7642 24.1459 16.5974 24.1459 16.3889V8.92426C24.1459 8.71575 24.2608 8.54894 24.4043 8.54894H31.2947C31.4383 8.54894 31.5531 8.71575 31.5531 8.92426V16.3889H31.5388Z" fill="black"/>
<defs>
<filter id="filter0_d_0_153" x="0" y="0" width="21.5044" height="25.7913" filterUnits="userSpaceOnUse" color-interpolation-filters="sRGB">
<feFlood flood-opacity="0" result="BackgroundImageFix"/>
<feColorMatrix in="SourceAlpha" type="matrix" values="0 0 0 0 0 0 0 0 0 0 0 0 0 0 0 0 0 0 127 0" result="hardAlpha"/>
<feOffset dy="1"/>
<feGaussianBlur stdDeviation="1"/>
<feComposite in2="hardAlpha" operator="out"/>
<feColorMatrix type="matrix" values="0 0 0 0 0 0 0 0 0 0 0 0 0 0 0 0 0 0 0.25 0"/>
<feBlend mode="normal" in2="BackgroundImageFix" result="effect1_dropShadow_0_153"/>
<feBlend mode="normal" in="SourceGraphic" in2="effect1_dropShadow_0_153" result="shape"/>
</filter>
<filter id="filter1_d_0_153" x="19.4956" y="0" width="21.5044" height="25.7913" filterUnits="userSpaceOnUse" color-interpolation-filters="sRGB">
<feFlood flood-opacity="0" result="BackgroundImageFix"/>
<feColorMatrix in="SourceAlpha" type="matrix" values="0 0 0 0 0 0 0 0 0 0 0 0 0 0 0 0 0 0 127 0" result="hardAlpha"/>
<feOffset dy="1"/>
<feGaussianBlur stdDeviation="1"/>
<feComposite in2="hardAlpha" operator="out"/>
<feColorMatrix type="matrix" values="0 0 0 0 0 0 0 0 0 0 0 0 0 0 0 0 0 0 0.25 0"/>
<feBlend mode="normal" in2="BackgroundImageFix" result="effect1_dropShadow_0_153"/>
<feBlend mode="normal" in="SourceGraphic" in2="effect1_dropShadow_0_153" result="shape"/>
</filter>
</defs>
</svg>
