<svg width="10" height="18" viewBox="0 0 10 18" fill="none" xmlns="http://www.w3.org/2000/svg">
<path d="M0.147899 5.06718C0.0532428 4.97335 0 4.84563 0 4.71238C0 4.57914 0.0532428 4.45141 0.147899 4.35758L4.2779 0.219878C4.41842 0.0792636 4.60905 0.00017495 4.8079 0H5.1879C5.38631 0.00230273 5.57618 0.0810711 5.7179 0.219878L9.8479 4.35758C9.94256 4.45141 9.9958 4.57914 9.9958 4.71238C9.9958 4.84563 9.94256 4.97335 9.8479 5.06718L9.1379 5.77679C9.04573 5.8708 8.91959 5.92378 8.7879 5.92378C8.65621 5.92378 8.53006 5.8708 8.4379 5.77679L4.9979 2.32871L1.5579 5.77679C1.46402 5.87139 1.33622 5.92461 1.2029 5.92461C1.06958 5.92461 0.941782 5.87139 0.847899 5.77679L0.147899 5.06718ZM9.1479 12.2132C9.05402 12.1186 8.92622 12.0654 8.7929 12.0654C8.65958 12.0654 8.53178 12.1186 8.4379 12.2132L4.9979 15.6613L1.5579 12.2232C1.46574 12.1292 1.33959 12.0762 1.2079 12.0762C1.07621 12.0762 0.950063 12.1292 0.857899 12.2232L0.147899 12.9328C0.0532428 13.0266 0 13.1544 0 13.2876C0 13.4209 0.0532428 13.5486 0.147899 13.6424L4.2779 17.7801C4.41962 17.9189 4.60949 17.9977 4.8079 18H5.1879C5.38674 17.9998 5.57738 17.9207 5.7179 17.7801L9.8479 13.6424C9.94256 13.5486 9.9958 13.4209 9.9958 13.2876C9.9958 13.1544 9.94256 13.0266 9.8479 12.9328L9.1479 12.2132Z" fill="#333333"/>
</svg>
