<svg width="29" height="30" viewBox="0 0 29 30" fill="none" xmlns="http://www.w3.org/2000/svg">
<path d="M17.0313 6.5625C18.2683 6.5625 19.2577 5.52094 19.2577 4.21875C19.2577 2.9165 18.2683 1.875 17.0313 1.875C15.7942 1.875 14.8045 2.9165 14.8045 4.21875C14.8045 5.52094 15.7942 6.5625 17.0313 6.5625ZM17.0313 13.5938H22.8203V11.25H18.8125L16.3186 7.18752C15.8901 6.50391 15.3091 6.12486 14.5968 6.12486C14.4188 6.12486 14.1054 6.15598 13.8843 6.22723L7.67969 8.4375V15H9.90625V10.3125L12.1624 9.375L7.67969 28.125H9.90625L13.0623 18.4997L15.8623 22.5V28.125H17.9775V20.625L14.803 15L15.9021 11.3752L17.0313 13.5938Z" fill="black"/>
</svg>
