<svg width="27" height="25" viewBox="0 0 27 25" fill="none" xmlns="http://www.w3.org/2000/svg">
<path d="M3.38736 0.833334V1.66667H0.835634C0.37413 1.66667 0 2.03977 0 2.5V24.1667C0 24.6268 0.37413 25 0.835634 25H25.9046C26.3661 25 26.7403 24.6268 26.7403 24.1667V2.5C26.7403 2.03977 26.3661 1.66667 25.9046 1.66667H23.353V0.833334C23.353 0.3731 22.9788 0 22.5173 0H17.4566C15.8814 0 14.4057 0.674867 13.3701 1.817C12.3345 0.674867 10.8589 0 9.28381 0H4.22299C3.76149 0 3.38736 0.3731 3.38736 0.833334ZM21.6817 2.44027C21.6802 2.46 21.6795 2.47992 21.6795 2.5C21.6795 2.52008 21.6802 2.54 21.6817 2.55973V19.902H17.7492C16.4379 19.902 15.197 20.3537 14.2058 21.1408V3.46482C14.9182 2.34445 16.1424 1.66667 17.4566 1.66667H21.6817V2.44027ZM23.353 3.33334H25.069V23.3333H14.418C15.1726 22.2347 16.414 21.5687 17.7492 21.5687H22.5173C22.9788 21.5687 23.353 21.1955 23.353 20.7353V3.33334ZM8.99103 21.5687C10.3262 21.5687 11.5676 22.2347 12.3222 23.3333H1.67127V3.33334H3.38736V20.7353C3.38736 21.1955 3.76149 21.5687 4.22299 21.5687H8.99103ZM5.05863 19.902V2.55972C5.06003 2.54 5.06075 2.52008 5.06075 2.5C5.06075 2.47992 5.06003 2.46 5.05863 2.44028V1.66667H9.28381C10.5978 1.66667 11.8221 2.34445 12.5345 3.46482V21.1408C11.5432 20.3537 10.3024 19.902 8.99103 19.902H5.05863Z" fill="#D6E4AA"/>
</svg>
