<svg width="47" height="25" viewBox="0 0 47 25" fill="none" xmlns="http://www.w3.org/2000/svg">
<g filter="url(#filter0_d_0_899)">
<path d="M22.338 6.68145C22.338 11.3882 22.338 13.7836 22.338 18.0448C22.338 28.2429 2 16.0463 2 11.3395C2 6.63273 11.1057 1 22.338 1C22.338 1 22.338 1.97481 22.338 6.68145Z" fill="#FEFEFE"/>
<path d="M22.038 6.68145V6.709V6.7365V6.76395V6.79134V6.81869V6.84598V6.87322V6.9004V6.92754V6.95462V6.98166V7.00864V7.03557V7.06245V7.08928V7.11607V7.1428V7.16948V7.19611V7.22269V7.24923V7.27571V7.30215V7.32854V7.35487V7.38117V7.40741V7.4336V7.45975V7.48585V7.5119V7.53791V7.56386V7.58978V7.61564V7.64146V7.66723V7.69296V7.71864V7.74427V7.76986V7.79541V7.82091V7.84636V7.87177V7.89713V7.92245V7.94773V7.97296V7.99815V8.0233V8.0484V8.07346V8.09847V8.12345V8.14838V8.17327V8.19811V8.22291V8.24768V8.2724V8.29707V8.32171V8.34631V8.37086V8.39538V8.41985V8.44428V8.46868V8.49303V8.51734V8.54162V8.56585V8.59005V8.6142V8.63832V8.6624V8.68644V8.71044V8.7344V8.75833V8.78221V8.80606V8.82988V8.85365V8.87739V8.90109V8.92475V8.94838V8.97197V8.99553V9.01905V9.04253V9.06598V9.0894V9.11277V9.13612V9.15943V9.1827V9.20594V9.22914V9.25231V9.27545V9.29856V9.32163V9.34466V9.36767V9.39064V9.41357V9.43648V9.45935V9.48219V9.505V9.52778V9.55052V9.57324V9.59592V9.61857V9.64119V9.66378V9.68634V9.70887V9.73137V9.75384V9.77628V9.79869V9.82107V9.84342V9.86575V9.88804V9.9103V9.93254V9.95475V9.97693V9.99908V10.0212V10.0433V10.0654V10.0874V10.1094V10.1314V10.1534V10.1753V10.1972V10.2191V10.241V10.2628V10.2846V10.3064V10.3281V10.3499V10.3716V10.3933V10.4149V10.4366V10.4582V10.4798V10.5013V10.5229V10.5444V10.5659V10.5873V10.6088V10.6302V10.6516V10.673V10.6944V10.7157V10.737V10.7583V10.7796V10.8008V10.8221V10.8433V10.8645V10.8856V10.9068V10.9279V10.949V10.9701V10.9912V11.0122V11.0333V11.0543V11.0753V11.0963V11.1172V11.1382V11.1591V11.18V11.2009V11.2217V11.2426V11.2634V11.2843V11.3051V11.3259V11.3466V11.3674V11.3881V11.4088V11.4296V11.4503V11.4709V11.4916V11.5122V11.5329V11.5535V11.5741V11.5947V11.6153V11.6358V11.6564V11.6769V11.6975V11.718V11.7385V11.759V11.7795V11.7999V11.8204V11.8408V11.8612V11.8817V11.9021V11.9225V11.9429V11.9632V11.9836V12.0039V12.0243V12.0446V12.065V12.0853V12.1056V12.1259V12.1462V12.1664V12.1867V12.207V12.2272V12.2475V12.2677V12.288V12.3082V12.3284V12.3486V12.3688V12.389V12.4092V12.4294V12.4496V12.4697V12.4899V12.5101V12.5302V12.5504V12.5705V12.5907V12.6108V12.6309V12.6511V12.6712V12.6913V12.7114V12.7316V12.7517V12.7718V12.7919V12.812V12.8321V12.8522V12.8723V12.8924V12.9125V12.9325V12.9526V12.9727V12.9928V13.0129V13.033V13.0531V13.0732V13.0932V13.1133V13.1334V13.1535V13.1736V13.1937V13.2138V13.2338V13.2539V13.274V13.2941V13.3142V13.3343V13.3544V13.3745V13.3946V13.4147V13.4349V13.455V13.4751V13.4952V13.5153V13.5355V13.5556V13.5757V13.5959V13.616V13.6362V13.6563V13.6765V13.6967V13.7169V13.737V13.7572V13.7774V13.7976V13.8178V13.838V13.8583V13.8785V13.8987V13.919V13.9392V13.9595V13.9797V14V14.0203V14.0406V14.0609V14.0812V14.1015V14.1219V14.1422V14.1625V14.1829V14.2033V14.2237V14.244V14.2644V14.2849V14.3053V14.3257V14.3462V14.3666V14.3871V14.4076V14.4281V14.4486V14.4691V14.4896V14.5102V14.5307V14.5513V14.5719V14.5925V14.6131V14.6337V14.6544V14.675V14.6957V14.7164V14.7371V14.7578V14.7785V14.7993V14.82V14.8408V14.8616V14.8824V14.9032V14.9241V14.9449V14.9658V14.9867V15.0076V15.0286V15.0495V15.0705V15.0915V15.1125V15.1335V15.1545V15.1756V15.1967V15.2178V15.2389V15.26V15.2812V15.3024V15.3236V15.3448V15.366V15.3873V15.4086V15.4299V15.4512V15.4725V15.4939V15.5153V15.5367V15.5581V15.5796V15.6011V15.6226V15.6441V15.6656V15.6872V15.7088V15.7304V15.7521V15.7737V15.7954V15.8171V15.8389V15.8607V15.8824V15.9043V15.9261V15.948V15.9699V15.9918V16.0137V16.0357V16.0577V16.0797V16.1018V16.1239V16.146V16.1681V16.1903V16.2125V16.2347V16.2569V16.2792V16.3015V16.3238V16.3462V16.3686V16.391V16.4135V16.4359V16.4585V16.481V16.5036V16.5262V16.5488V16.5715V16.5942V16.6169V16.6396V16.6624V16.6853V16.7081V16.731V16.7539V16.7769V16.7998V16.8229V16.8459V16.869V16.8921V16.9153V16.9384V16.9617V16.9849V17.0082V17.0315V17.0549V17.0783V17.1017V17.1252V17.1487V17.1722V17.1958V17.2194V17.243V17.2667V17.2904V17.3142V17.3379V17.3618V17.3856V17.4095V17.4335V17.4575V17.4815V17.5055V17.5296V17.5538V17.5779V17.6021V17.6264V17.6507V17.675V17.6994V17.7238V17.7482V17.7727V17.7972V17.8218V17.8464V17.8711V17.8958V17.9205V17.9453V17.9701V17.995V18.0199V18.0448C22.038 19.2711 21.7328 20.1171 21.2387 20.6798C20.7452 21.2418 20.0285 21.5605 19.1263 21.6632C17.3043 21.8707 14.8247 21.1847 12.2954 20.0094C9.77734 18.8393 7.2587 17.207 5.37386 15.5799C4.43116 14.7661 3.65466 13.9602 3.11645 13.2207C2.57153 12.4721 2.3 11.8311 2.3 11.3395C2.3 10.2601 2.8235 9.09273 3.82517 7.93454C4.82476 6.77877 6.28243 5.65435 8.09992 4.66841C11.6689 2.73236 16.5886 1.35044 22.038 1.30135V1.30172V1.30632V1.31095V1.31562V1.32033V1.32509V1.32988V1.33472V1.33959V1.34451V1.34947V1.35447V1.35952V1.3646V1.36973V1.37489V1.38011V1.38536V1.39065V1.39599V1.40137V1.4068V1.41226V1.41777V1.42332V1.42892V1.43456V1.44024V1.44597V1.45174V1.45755V1.46341V1.46931V1.47526V1.48125V1.48728V1.49336V1.49948V1.50565V1.51187V1.51813V1.52443V1.53078V1.53718V1.54362V1.5501V1.55664V1.56322V1.56984V1.57651V1.58323V1.58999V1.5968V1.60366V1.61056V1.61751V1.62451V1.63156V1.63865V1.64579V1.65298V1.66021V1.6675V1.67483V1.68221V1.68963V1.69711V1.70463V1.7122V1.71983V1.7275V1.73521V1.74298V1.7508V1.75867V1.76658V1.77455V1.78256V1.79063V1.79874V1.80691V1.81512V1.82339V1.8317V1.84007V1.84849V1.85695V1.86547V1.87404V1.88266V1.89134V1.90006V1.90883V1.91766V1.92654V1.93547V1.94445V1.95349V1.96257V1.97171V1.9809V1.99015V1.99944V2.00879V2.0182V2.02765V2.03716V2.04673V2.05634V2.06601V2.07573V2.08551V2.09534V2.10523V2.11517V2.12516V2.13521V2.14531V2.15547V2.16568V2.17595V2.18627V2.19665V2.20709V2.21757V2.22812V2.23872V2.24938V2.26009V2.27086V2.28168V2.29256V2.3035V2.31449V2.32554V2.33665V2.34781V2.35903V2.37031V2.38165V2.39304V2.40449V2.416V2.42756V2.43919V2.45087V2.46261V2.47441V2.48627V2.49818V2.51015V2.52219V2.53428V2.54643V2.55864V2.57091V2.58324V2.59563V2.60807V2.62058V2.63315V2.64578V2.65847V2.67121V2.68402V2.69689V2.70982V2.72281V2.73586V2.74897V2.76215V2.77538V2.78868V2.80204V2.81546V2.82894V2.84248V2.85608V2.86975V2.88348V2.89727V2.91113V2.92504V2.93902V2.95306V2.96717V2.98134V2.99557V3.00986V3.02422V3.03864V3.05313V3.06768V3.08229V3.09697V3.11171V3.12652V3.14139V3.15632V3.17132V3.18639V3.20152V3.21671V3.23197V3.2473V3.26269V3.27815V3.29367V3.30926V3.32491V3.34063V3.35642V3.37227V3.38819V3.40417V3.42022V3.43634V3.45253V3.46878V3.4851V3.50149V3.51794V3.53447V3.55106V3.56771V3.58444V3.60123V3.61809V3.63503V3.65202V3.66909V3.68623V3.70343V3.7207V3.73805V3.75546V3.77294V3.79049V3.80811V3.8258V3.84356V3.86139V3.87929V3.89725V3.91529V3.9334V3.95158V3.96983V3.98816V4.00655V4.02501V4.04355V4.06215V4.08083V4.09958V4.1184V4.13729V4.15626V4.17529V4.1944V4.21358V4.23283V4.25216V4.27155V4.29103V4.31057V4.33018V4.34987V4.36964V4.38947V4.40938V4.42936V4.44942V4.46955V4.48976V4.51003V4.53039V4.55081V4.57132V4.59189V4.61254V4.63327V4.65407V4.67494V4.69589V4.71692V4.73802V4.7592V4.78045V4.80178V4.82318V4.84466V4.86622V4.88785V4.90956V4.93135V4.95321V4.97515V4.99717V5.01926V5.04143V5.06368V5.086V5.10841V5.13089V5.15344V5.17608V5.19879V5.22159V5.24446V5.26741V5.29043V5.31354V5.33672V5.35999V5.38333V5.40675V5.43025V5.45383V5.47749V5.50123V5.52505V5.54895V5.57293V5.59699V5.62113V5.64535V5.66965V5.69403V5.71849V5.74303V5.76766V5.79236V5.81715V5.84201V5.86696V5.89199V5.9171V5.9423V5.96757V5.99293V6.01837V6.04389V6.0695V6.09518V6.12095V6.14681V6.17274V6.19876V6.22486V6.25105V6.27732V6.30367V6.33011V6.35663V6.38323V6.40992V6.43669V6.46355V6.49049V6.51751V6.54462V6.57182V6.5991V6.62646V6.65391V6.68145Z" stroke="black" stroke-width="0.6"/>
</g>
<g filter="url(#filter1_d_0_899)">
<path d="M24.6618 6.68145C24.6618 11.3882 24.6618 13.7836 24.6618 18.0448C24.6618 28.2429 44.9999 16.0463 44.9999 11.3395C44.9999 6.63273 35.8942 1 24.6618 1C24.6618 1 24.6618 1.97481 24.6618 6.68145Z" fill="#FEFEFE"/>
<path d="M24.9118 6.68145V6.709V6.7365V6.76395V6.79134V6.81869V6.84598V6.87322V6.9004V6.92754V6.95462V6.98166V7.00864V7.03557V7.06245V7.08928V7.11607V7.1428V7.16948V7.19611V7.22269V7.24923V7.27571V7.30215V7.32854V7.35487V7.38117V7.40741V7.4336V7.45975V7.48585V7.5119V7.53791V7.56386V7.58978V7.61564V7.64146V7.66723V7.69296V7.71864V7.74427V7.76986V7.79541V7.82091V7.84636V7.87177V7.89713V7.92245V7.94773V7.97296V7.99815V8.0233V8.0484V8.07346V8.09847V8.12345V8.14838V8.17327V8.19811V8.22291V8.24768V8.2724V8.29707V8.32171V8.34631V8.37086V8.39538V8.41985V8.44428V8.46868V8.49303V8.51734V8.54162V8.56585V8.59005V8.6142V8.63832V8.6624V8.68644V8.71044V8.7344V8.75833V8.78221V8.80606V8.82988V8.85365V8.87739V8.90109V8.92475V8.94838V8.97197V8.99553V9.01905V9.04253V9.06598V9.0894V9.11277V9.13612V9.15943V9.1827V9.20594V9.22914V9.25231V9.27545V9.29856V9.32163V9.34466V9.36767V9.39064V9.41357V9.43648V9.45935V9.48219V9.505V9.52778V9.55052V9.57324V9.59592V9.61857V9.64119V9.66378V9.68634V9.70887V9.73137V9.75384V9.77628V9.79869V9.82107V9.84342V9.86575V9.88804V9.9103V9.93254V9.95475V9.97693V9.99908V10.0212V10.0433V10.0654V10.0874V10.1094V10.1314V10.1534V10.1753V10.1972V10.2191V10.241V10.2628V10.2846V10.3064V10.3281V10.3499V10.3716V10.3933V10.4149V10.4366V10.4582V10.4798V10.5013V10.5229V10.5444V10.5659V10.5873V10.6088V10.6302V10.6516V10.673V10.6944V10.7157V10.737V10.7583V10.7796V10.8008V10.8221V10.8433V10.8645V10.8856V10.9068V10.9279V10.949V10.9701V10.9912V11.0122V11.0333V11.0543V11.0753V11.0963V11.1172V11.1382V11.1591V11.18V11.2009V11.2217V11.2426V11.2634V11.2843V11.3051V11.3259V11.3466V11.3674V11.3881V11.4088V11.4296V11.4503V11.4709V11.4916V11.5122V11.5329V11.5535V11.5741V11.5947V11.6153V11.6358V11.6564V11.6769V11.6975V11.718V11.7385V11.759V11.7795V11.7999V11.8204V11.8408V11.8612V11.8817V11.9021V11.9225V11.9429V11.9632V11.9836V12.0039V12.0243V12.0446V12.065V12.0853V12.1056V12.1259V12.1462V12.1664V12.1867V12.207V12.2272V12.2475V12.2677V12.288V12.3082V12.3284V12.3486V12.3688V12.389V12.4092V12.4294V12.4496V12.4697V12.4899V12.5101V12.5302V12.5504V12.5705V12.5907V12.6108V12.6309V12.6511V12.6712V12.6913V12.7114V12.7316V12.7517V12.7718V12.7919V12.812V12.8321V12.8522V12.8723V12.8924V12.9125V12.9325V12.9526V12.9727V12.9928V13.0129V13.033V13.0531V13.0732V13.0932V13.1133V13.1334V13.1535V13.1736V13.1937V13.2138V13.2338V13.2539V13.274V13.2941V13.3142V13.3343V13.3544V13.3745V13.3946V13.4147V13.4349V13.455V13.4751V13.4952V13.5153V13.5355V13.5556V13.5757V13.5959V13.616V13.6362V13.6563V13.6765V13.6967V13.7169V13.737V13.7572V13.7774V13.7976V13.8178V13.838V13.8583V13.8785V13.8987V13.919V13.9392V13.9595V13.9797V14V14.0203V14.0406V14.0609V14.0812V14.1015V14.1219V14.1422V14.1625V14.1829V14.2033V14.2237V14.244V14.2644V14.2849V14.3053V14.3257V14.3462V14.3666V14.3871V14.4076V14.4281V14.4486V14.4691V14.4896V14.5102V14.5307V14.5513V14.5719V14.5925V14.6131V14.6337V14.6544V14.675V14.6957V14.7164V14.7371V14.7578V14.7785V14.7993V14.82V14.8408V14.8616V14.8824V14.9032V14.9241V14.9449V14.9658V14.9867V15.0076V15.0286V15.0495V15.0705V15.0915V15.1125V15.1335V15.1545V15.1756V15.1967V15.2178V15.2389V15.26V15.2812V15.3024V15.3236V15.3448V15.366V15.3873V15.4086V15.4299V15.4512V15.4725V15.4939V15.5153V15.5367V15.5581V15.5796V15.6011V15.6226V15.6441V15.6656V15.6872V15.7088V15.7304V15.7521V15.7737V15.7954V15.8171V15.8389V15.8607V15.8824V15.9043V15.9261V15.948V15.9699V15.9918V16.0137V16.0357V16.0577V16.0797V16.1018V16.1239V16.146V16.1681V16.1903V16.2125V16.2347V16.2569V16.2792V16.3015V16.3238V16.3462V16.3686V16.391V16.4135V16.4359V16.4585V16.481V16.5036V16.5262V16.5488V16.5715V16.5942V16.6169V16.6396V16.6624V16.6853V16.7081V16.731V16.7539V16.7769V16.7998V16.8229V16.8459V16.869V16.8921V16.9153V16.9384V16.9617V16.9849V17.0082V17.0315V17.0549V17.0783V17.1017V17.1252V17.1487V17.1722V17.1958V17.2194V17.243V17.2667V17.2904V17.3142V17.3379V17.3618V17.3856V17.4095V17.4335V17.4575V17.4815V17.5055V17.5296V17.5538V17.5779V17.6021V17.6264V17.6507V17.675V17.6994V17.7238V17.7482V17.7727V17.7972V17.8218V17.8464V17.8711V17.8958V17.9205V17.9453V17.9701V17.995V18.0199V18.0448C24.9118 19.2792 25.2191 20.1383 25.7236 20.7128C26.2276 21.2867 26.9572 21.6092 27.8679 21.7129C29.7041 21.922 32.1941 21.2311 34.7255 20.0548C37.2476 18.8828 39.7702 17.248 41.6587 15.6178C42.6032 14.8025 43.3827 13.9937 43.9239 13.2502C44.4706 12.4989 44.7499 11.8472 44.7499 11.3395C44.7499 10.2439 44.2188 9.06532 43.2125 7.90184C42.208 6.74037 40.7451 5.61245 38.9238 4.62447C35.3363 2.67834 30.3892 1.29199 24.9118 1.25094V1.25385V1.25801V1.2622V1.26644V1.27071V1.27502V1.27937V1.28376V1.28819V1.29266V1.29717V1.30172V1.30632V1.31095V1.31562V1.32033V1.32509V1.32988V1.33472V1.33959V1.34451V1.34947V1.35447V1.35952V1.3646V1.36973V1.37489V1.38011V1.38536V1.39065V1.39599V1.40137V1.4068V1.41226V1.41777V1.42332V1.42892V1.43456V1.44024V1.44597V1.45174V1.45755V1.46341V1.46931V1.47526V1.48125V1.48728V1.49336V1.49948V1.50565V1.51187V1.51813V1.52443V1.53078V1.53718V1.54362V1.5501V1.55664V1.56322V1.56984V1.57651V1.58323V1.58999V1.5968V1.60366V1.61056V1.61751V1.62451V1.63156V1.63865V1.64579V1.65298V1.66021V1.6675V1.67483V1.68221V1.68963V1.69711V1.70463V1.7122V1.71983V1.7275V1.73521V1.74298V1.7508V1.75867V1.76658V1.77455V1.78256V1.79063V1.79874V1.80691V1.81512V1.82339V1.8317V1.84007V1.84849V1.85695V1.86547V1.87404V1.88266V1.89134V1.90006V1.90883V1.91766V1.92654V1.93547V1.94445V1.95349V1.96257V1.97171V1.9809V1.99015V1.99944V2.00879V2.0182V2.02765V2.03716V2.04673V2.05634V2.06601V2.07573V2.08551V2.09534V2.10523V2.11517V2.12516V2.13521V2.14531V2.15547V2.16568V2.17595V2.18627V2.19665V2.20709V2.21757V2.22812V2.23872V2.24938V2.26009V2.27086V2.28168V2.29256V2.3035V2.31449V2.32554V2.33665V2.34781V2.35903V2.37031V2.38165V2.39304V2.40449V2.416V2.42756V2.43919V2.45087V2.46261V2.47441V2.48627V2.49818V2.51015V2.52219V2.53428V2.54643V2.55864V2.57091V2.58324V2.59563V2.60807V2.62058V2.63315V2.64578V2.65847V2.67121V2.68402V2.69689V2.70982V2.72281V2.73586V2.74897V2.76215V2.77538V2.78868V2.80204V2.81546V2.82894V2.84248V2.85608V2.86975V2.88348V2.89727V2.91113V2.92504V2.93902V2.95306V2.96717V2.98134V2.99557V3.00986V3.02422V3.03864V3.05313V3.06768V3.08229V3.09697V3.11171V3.12652V3.14139V3.15632V3.17132V3.18639V3.20152V3.21671V3.23197V3.2473V3.26269V3.27815V3.29367V3.30926V3.32491V3.34063V3.35642V3.37227V3.38819V3.40417V3.42022V3.43634V3.45253V3.46878V3.4851V3.50149V3.51794V3.53447V3.55106V3.56771V3.58444V3.60123V3.61809V3.63503V3.65202V3.66909V3.68623V3.70343V3.7207V3.73805V3.75546V3.77294V3.79049V3.80811V3.8258V3.84356V3.86139V3.87929V3.89725V3.91529V3.9334V3.95158V3.96983V3.98816V4.00655V4.02501V4.04355V4.06215V4.08083V4.09958V4.1184V4.13729V4.15626V4.17529V4.1944V4.21358V4.23283V4.25216V4.27155V4.29103V4.31057V4.33018V4.34987V4.36964V4.38947V4.40938V4.42936V4.44942V4.46955V4.48976V4.51003V4.53039V4.55081V4.57132V4.59189V4.61254V4.63327V4.65407V4.67494V4.69589V4.71692V4.73802V4.7592V4.78045V4.80178V4.82318V4.84466V4.86622V4.88785V4.90956V4.93135V4.95321V4.97515V4.99717V5.01926V5.04143V5.06368V5.086V5.10841V5.13089V5.15344V5.17608V5.19879V5.22159V5.24446V5.26741V5.29043V5.31354V5.33672V5.35999V5.38333V5.40675V5.43025V5.45383V5.47749V5.50123V5.52505V5.54895V5.57293V5.59699V5.62113V5.64535V5.66965V5.69403V5.71849V5.74303V5.76766V5.79236V5.81715V5.84201V5.86696V5.89199V5.9171V5.9423V5.96757V5.99293V6.01837V6.04389V6.0695V6.09518V6.12095V6.14681V6.17274V6.19876V6.22486V6.25105V6.27732V6.30367V6.33011V6.35663V6.38323V6.40992V6.43669V6.46355V6.49049V6.51751V6.54462V6.57182V6.5991V6.62646V6.65391V6.68145Z" stroke="black" stroke-width="0.5"/>
</g>
<path d="M19.64 17.1H17.5028C16.9808 17.1 16.5403 16.589 16.5403 15.9404V13.8572C16.5403 13.7 16.4424 13.582 16.3119 13.582H15.0067C14.8762 13.582 14.7783 13.7 14.7783 13.8572V15.9404C14.7783 16.589 14.3541 17.1 13.8157 17.1H11.6785C11.1565 17.1 10.716 16.589 10.716 15.9404V9.31729C10.716 8.98319 10.8465 8.68839 11.0749 8.51151L15.2351 5.34735C15.4961 5.15082 15.8224 5.15082 16.0672 5.34735L20.2274 8.53117C20.4558 8.70804 20.5863 9.00284 20.5863 9.33695V15.9404C20.6026 16.5693 20.1621 17.1 19.64 17.1ZM15.0067 12.6976H16.3119C16.8503 12.6976 17.2744 13.2086 17.2744 13.8572V15.9404C17.2744 16.0976 17.3723 16.2156 17.5028 16.2156H19.64C19.7706 16.2156 19.8684 16.0976 19.8684 15.9404V9.31729C19.8684 9.29764 19.8521 9.27799 19.8521 9.25833L15.6756 6.09417C15.6593 6.07452 15.643 6.07452 15.6267 6.09417L11.4828 9.25833C11.4664 9.27799 11.4501 9.29764 11.4501 9.31729V15.9404C11.4501 16.0976 11.548 16.2156 11.6785 16.2156H13.8157C13.9463 16.2156 14.0441 16.0976 14.0441 15.9404V13.8572C14.0441 13.2283 14.4683 12.6976 15.0067 12.6976Z" fill="black"/>
<path d="M36.0475 7.3709H34.1786V6.26532C34.1786 5.68238 33.7782 5.19995 33.2942 5.19995H30.7746C30.2906 5.19995 29.8902 5.68238 29.8902 6.26532V7.3709H28.038C27.4706 7.3709 26.9867 7.93374 26.9867 8.63728V15.8336C26.9867 16.517 27.4539 17.1 28.038 17.1H36.0475C36.6149 17.1 37.0988 16.5371 37.0988 15.8336V8.63728C37.0821 7.93374 36.6149 7.3709 36.0475 7.3709ZM30.6578 6.26532C30.6578 6.18492 30.7078 6.12461 30.7746 6.12461H33.2942C33.361 6.12461 33.4277 6.18492 33.4277 6.28542V7.391H30.6578V6.26532ZM36.3312 15.8336C36.3312 16.0346 36.1977 16.1954 36.0308 16.1954H28.038C27.8711 16.1954 27.7376 16.0346 27.7376 15.8336V8.63728C27.7376 8.43627 27.8711 8.27546 28.038 8.27546H36.0475C36.2144 8.27546 36.3479 8.43627 36.3479 8.63728V15.8336H36.3312Z" fill="black"/>
<defs>
<filter id="filter0_d_0_899" x="0" y="0" width="24.338" height="25" filterUnits="userSpaceOnUse" color-interpolation-filters="sRGB">
<feFlood flood-opacity="0" result="BackgroundImageFix"/>
<feColorMatrix in="SourceAlpha" type="matrix" values="0 0 0 0 0 0 0 0 0 0 0 0 0 0 0 0 0 0 127 0" result="hardAlpha"/>
<feOffset dy="1"/>
<feGaussianBlur stdDeviation="1"/>
<feComposite in2="hardAlpha" operator="out"/>
<feColorMatrix type="matrix" values="0 0 0 0 0 0 0 0 0 0 0 0 0 0 0 0 0 0 0.25 0"/>
<feBlend mode="normal" in2="BackgroundImageFix" result="effect1_dropShadow_0_899"/>
<feBlend mode="normal" in="SourceGraphic" in2="effect1_dropShadow_0_899" result="shape"/>
</filter>
<filter id="filter1_d_0_899" x="22.6618" y="0" width="24.338" height="25" filterUnits="userSpaceOnUse" color-interpolation-filters="sRGB">
<feFlood flood-opacity="0" result="BackgroundImageFix"/>
<feColorMatrix in="SourceAlpha" type="matrix" values="0 0 0 0 0 0 0 0 0 0 0 0 0 0 0 0 0 0 127 0" result="hardAlpha"/>
<feOffset dy="1"/>
<feGaussianBlur stdDeviation="1"/>
<feComposite in2="hardAlpha" operator="out"/>
<feColorMatrix type="matrix" values="0 0 0 0 0 0 0 0 0 0 0 0 0 0 0 0 0 0 0.25 0"/>
<feBlend mode="normal" in2="BackgroundImageFix" result="effect1_dropShadow_0_899"/>
<feBlend mode="normal" in="SourceGraphic" in2="effect1_dropShadow_0_899" result="shape"/>
</filter>
</defs>
</svg>
