<svg width="12" height="18" viewBox="0 0 12 18" fill="none" xmlns="http://www.w3.org/2000/svg">
<path d="M10.8593 2.76923H8.49883V2.07692C8.4984 1.52628 8.34904 0.998368 8.08349 0.609004C7.81795 0.21964 7.45792 0.000622546 7.08239 0H4.24953C3.874 0.000622546 3.51397 0.21964 3.24843 0.609004C2.98289 0.998368 2.83352 1.52628 2.8331 2.07692V2.76923H0.472144C0.346924 2.76923 0.226832 2.84217 0.138288 2.972C0.0497437 3.10183 0 3.27793 0 3.46154C0 3.64515 0.0497437 3.82124 0.138288 3.95107C0.226832 4.08091 0.346924 4.15384 0.472144 4.15384H0.944288V16.6154C0.944575 16.9825 1.04415 17.3344 1.22118 17.594C1.39821 17.8536 1.63822 17.9996 1.88858 18H9.44288C9.69324 17.9996 9.93325 17.8536 10.1103 17.594C10.2873 17.3344 10.3869 16.9825 10.3872 16.6154V4.15384H10.8593C10.9845 4.15384 11.1046 4.08091 11.1932 3.95107C11.2817 3.82124 11.3315 3.64515 11.3315 3.46154C11.3315 3.27793 11.2817 3.10183 11.1932 2.972C11.1046 2.84217 10.9845 2.76923 10.8593 2.76923ZM3.77738 2.07692C3.77753 1.89338 3.82732 1.71741 3.91583 1.58762C4.00434 1.45783 4.12435 1.38482 4.24953 1.38461H7.08239C7.20757 1.38482 7.32758 1.45783 7.41609 1.58762C7.50461 1.71741 7.55439 1.89338 7.55454 2.07692V2.76923H3.77738V2.07692ZM9.44288 16.6154H1.88858V4.15384H9.44288V16.6154ZM4.72167 7.61538V13.1538C4.72167 13.3375 4.67193 13.5135 4.58339 13.6434C4.49484 13.7732 4.37475 13.8461 4.24953 13.8461C4.12431 13.8461 4.00422 13.7732 3.91567 13.6434C3.82713 13.5135 3.77738 13.3375 3.77738 13.1538V7.61538C3.77738 7.43177 3.82713 7.25568 3.91567 7.12585C4.00422 6.99601 4.12431 6.92307 4.24953 6.92307C4.37475 6.92307 4.49484 6.99601 4.58339 7.12585C4.67193 7.25568 4.72167 7.43177 4.72167 7.61538ZM7.55454 7.61538V13.1538C7.55454 13.3375 7.5048 13.5135 7.41625 13.6434C7.32771 13.7732 7.20761 13.8461 7.08239 13.8461C6.95717 13.8461 6.83708 13.7732 6.74854 13.6434C6.65999 13.5135 6.61025 13.3375 6.61025 13.1538V7.61538C6.61025 7.43177 6.65999 7.25568 6.74854 7.12585C6.83708 6.99601 6.95717 6.92307 7.08239 6.92307C7.20761 6.92307 7.32771 6.99601 7.41625 7.12585C7.5048 7.25568 7.55454 7.43177 7.55454 7.61538Z" fill="black"/>
</svg>
