<svg width="21" height="21" viewBox="0 0 21 21" fill="none" xmlns="http://www.w3.org/2000/svg">
<path d="M9.32988 18.6598C14.4826 18.6598 18.6598 14.4826 18.6598 9.32988C18.6598 4.17713 14.4826 0 9.32988 0C4.17713 0 0 4.17713 0 9.32988C0 14.4826 4.17713 18.6598 9.32988 18.6598Z" fill="#162E38"/>
<path d="M20.6997 17.5518C20.358 16.9201 19.6331 16.568 18.6598 16.568C17.9246 16.568 17.2929 16.8683 16.9201 17.3861C16.5473 17.9038 16.4645 18.5976 16.6923 19.2914C17.1376 20.6376 17.9142 20.9379 18.3388 20.9896C18.4009 21 18.463 21 18.5355 21C18.9911 21 19.6953 20.8033 20.3787 19.7781C20.9275 18.9808 21.0311 18.1834 20.6997 17.5518Z" fill="#162E38"/>
</svg>
