<svg width="364" height="212" viewBox="0 0 364 212" fill="none" xmlns="http://www.w3.org/2000/svg">
<path d="M336.212 82.0889L332.555 92.4009L335.148 93.5178L338.805 83.2059L336.212 82.0889Z" fill="#00A4FD"/>
<path d="M107.741 56.8025L105.667 58.8494L112.369 67.0969L114.443 65.05L107.741 56.8025Z" fill="#FFD600"/>
<path d="M138.47 93.7169L130.429 100.355L132.098 102.81L140.139 96.1728L138.47 93.7169Z" fill="#00A4FD"/>
<path d="M231.473 17.5477L229.565 19.7821L236.882 27.3698L238.79 25.1354L231.473 17.5477Z" fill="#00A4FD"/>
<path d="M178.27 20.015L173.263 29.614L175.677 31.1432L180.684 21.5442L178.27 20.015Z" fill="#FFD600"/>
<path d="M250.983 102.102L248.629 103.739L253.99 113.102L256.345 111.465L250.983 102.102Z" fill="#FFD600"/>
<path d="M141.809 147.696L139.318 149.068L143.808 158.972L146.299 157.601L141.809 147.696Z" fill="#FFD600"/>
<path d="M105.371 121.636L102.486 132.241L105.152 133.122L108.037 122.517L105.371 121.636Z" fill="#00A4FD"/>
<path d="M279.653 154.684L271.309 160.85L272.859 163.398L281.204 157.232L279.653 154.684Z" fill="#00A4FD"/>
<path d="M280.903 2.60992e-05L275.896 9.59873L278.309 11.1278L283.316 1.52913L280.903 2.60992e-05Z" fill="#FFD600"/>
<path d="M2.59303 78.528L0 79.6449L3.65747 89.9569L6.2505 88.84L2.59303 78.528Z" fill="#FFD600"/>
<path d="M271.767 65.7886L270.097 68.2445L278.138 74.8821L279.808 72.4262L271.767 65.7886Z" fill="#FFD600"/>
<path d="M45.8955 20.5502L38.5786 28.1379L40.4866 30.3723L47.8034 22.7846L45.8955 20.5502Z" fill="#00A4FD"/>
<path d="M126.938 11.5145L124.525 13.0437L129.532 22.6426L131.946 21.1135L126.938 11.5145Z" fill="#00A4FD"/>
<path d="M28.4908 132.034L23.1291 141.398L25.4836 143.035L30.8452 133.672L28.4908 132.034Z" fill="#FFD600"/>
<path d="M4.74233 157.684L3.1916 160.233L11.5404 166.4L13.0911 163.851L4.74233 157.684Z" fill="#00A4FD"/>
<path d="M326.844 35.4106L324.43 36.9397L329.437 46.5384L331.851 45.0093L326.844 35.4106Z" fill="#00A4FD"/>
<path d="M233.679 61.5687L226.614 69.8169L228.8 71.8641L235.865 63.6158L233.679 61.5687Z" fill="#00A4FD"/>
<path d="M171.667 154.532L166.935 164.437L169.56 165.809L174.292 155.904L171.667 154.532Z" fill="#FFD600"/>
<path d="M210.069 128.473L207.258 129.354L210.299 139.959L213.11 139.078L210.069 128.473Z" fill="#00A4FD"/>
<path d="M211.015 134.525L201.015 126.576C200.795 126.401 200.543 126.277 200.275 126.209C200.006 126.142 199.727 126.134 199.456 126.186C199.184 126.238 198.926 126.348 198.698 126.51C198.469 126.672 198.275 126.882 198.128 127.126C197.871 127.586 197.786 128.13 197.89 128.652C197.994 129.173 198.28 129.636 198.691 129.951L200.836 131.655L191.74 129.532C190.733 129.277 189.341 129.639 189.143 130.839C189.037 131.296 189.083 131.776 189.273 132.202C189.462 132.628 189.784 132.975 190.186 133.185C190.181 133.194 190.178 133.204 190.175 133.214C190.174 133.222 190.174 133.23 190.175 133.238L188.621 132.845C188.334 132.773 188.034 132.768 187.744 132.832C187.455 132.896 187.182 133.027 186.947 133.215C186.712 133.403 186.52 133.643 186.385 133.919C186.25 134.194 186.175 134.498 186.166 134.807C186.162 135.294 186.318 135.769 186.608 136.15C186.898 136.532 187.304 136.798 187.759 136.904L188.42 137.071C188.424 137.093 188.432 137.114 188.443 137.134C187.971 137.129 187.514 137.301 187.152 137.617C186.79 137.933 186.547 138.374 186.467 138.86C186.394 139.394 186.517 139.938 186.811 140.382C187.105 140.826 187.548 141.138 188.051 141.255L189.694 141.67C189.667 141.681 189.643 141.699 189.623 141.722C189.604 141.745 189.591 141.772 189.584 141.802C189.577 141.838 189.581 141.875 189.594 141.908C189.172 142.026 188.8 142.286 188.534 142.647C188.267 143.008 188.122 143.45 188.119 143.906C188.126 144.385 188.287 144.847 188.577 145.218C188.866 145.59 189.267 145.848 189.714 145.951L203.568 149.451C205.506 149.941 207.54 149.814 209.408 149.087C211.277 148.36 212.896 147.066 214.057 145.371C215.058 143.909 215.474 142.097 215.218 140.32C214.962 138.542 214.052 136.939 212.684 135.851L211.015 134.525Z" fill="#E98862"/>
<g opacity="0.2">
<path d="M199.179 135.333C199.167 135.382 199.138 135.424 199.097 135.45C199.056 135.476 199.007 135.485 198.961 135.474L190.313 133.441C190.289 133.436 190.267 133.425 190.247 133.411C190.227 133.396 190.211 133.378 190.198 133.357C190.185 133.335 190.176 133.312 190.172 133.287C190.168 133.262 190.169 133.237 190.174 133.212C190.179 133.187 190.189 133.164 190.203 133.144C190.217 133.123 190.235 133.105 190.255 133.092C190.275 133.079 190.298 133.069 190.322 133.065C190.345 133.061 190.37 133.061 190.393 133.067L199.041 135.1C199.065 135.105 199.087 135.116 199.107 135.13C199.126 135.145 199.143 135.163 199.156 135.185C199.169 135.206 199.178 135.23 199.182 135.255C199.186 135.28 199.185 135.305 199.18 135.33L199.179 135.333Z" fill="#0C0C0C"/>
</g>
<g opacity="0.2">
<path d="M198.427 139.346C198.416 139.395 198.386 139.438 198.345 139.464C198.304 139.49 198.254 139.499 198.207 139.487L188.556 137.221C188.533 137.215 188.51 137.205 188.491 137.19C188.471 137.176 188.454 137.157 188.441 137.136C188.428 137.114 188.419 137.09 188.415 137.065C188.411 137.041 188.412 137.015 188.418 136.99C188.43 136.942 188.459 136.899 188.5 136.872C188.541 136.845 188.59 136.836 188.638 136.845L198.289 139.112C198.312 139.118 198.335 139.128 198.354 139.142C198.374 139.157 198.391 139.176 198.404 139.197C198.417 139.218 198.425 139.242 198.429 139.267C198.433 139.292 198.433 139.317 198.427 139.342V139.346Z" fill="#0C0C0C"/>
</g>
<g opacity="0.2">
<path d="M197.638 143.698C197.626 143.746 197.597 143.788 197.556 143.815C197.515 143.841 197.466 143.849 197.419 143.838L189.721 142.031C189.673 142.019 189.632 141.989 189.606 141.946C189.58 141.903 189.571 141.851 189.582 141.801C189.593 141.752 189.622 141.709 189.663 141.681C189.704 141.654 189.754 141.645 189.801 141.656L197.5 143.464C197.523 143.47 197.546 143.48 197.566 143.494C197.585 143.509 197.602 143.528 197.615 143.549C197.628 143.57 197.637 143.594 197.641 143.619C197.645 143.644 197.644 143.67 197.639 143.694L197.638 143.698Z" fill="#0C0C0C"/>
</g>
<path d="M163.538 79.8495L169.121 68.0829C169.244 67.8243 169.417 67.5953 169.629 67.4105C169.841 67.2256 170.087 67.0889 170.352 67.0091C170.618 66.9293 170.896 66.9081 171.169 66.9469C171.443 66.9857 171.706 67.0837 171.941 67.2345C172.367 67.5269 172.675 67.9745 172.803 68.4904C172.932 69.0064 172.873 69.5539 172.638 70.0269L171.44 72.5501L178.687 66.4242C179.481 65.7281 180.882 65.4056 181.57 66.3889C181.858 66.7492 182.021 67.2011 182.032 67.6707C182.043 68.1404 181.902 68.6001 181.631 68.9749C181.639 68.9811 181.647 68.9882 181.653 68.996C181.657 69.0028 181.661 69.0098 181.664 69.0171L182.889 67.9433C183.116 67.7446 183.383 67.6015 183.669 67.5242C183.956 67.4469 184.256 67.4375 184.546 67.4966C184.837 67.5558 185.111 67.6819 185.349 67.8659C185.587 68.05 185.783 68.2872 185.922 68.5604C186.133 68.9951 186.195 69.4925 186.097 69.9692C185.999 70.4459 185.748 70.8731 185.385 71.1794L184.864 71.6362C184.87 71.658 184.872 71.6807 184.869 71.7033C185.29 71.4802 185.773 71.4209 186.231 71.5359C186.69 71.6509 187.095 71.9328 187.373 72.3311C187.665 72.7764 187.785 73.3205 187.711 73.8547C187.636 74.389 187.371 74.8741 186.969 75.2132L185.674 76.3473C185.704 76.3446 185.733 76.3493 185.76 76.3609C185.787 76.3725 185.811 76.3907 185.83 76.414C185.851 76.443 185.864 76.4778 185.867 76.5141C186.294 76.4241 186.738 76.4835 187.13 76.6832C187.522 76.8828 187.84 77.2116 188.036 77.619C188.233 78.0512 188.285 78.5404 188.184 79.0073C188.082 79.4743 187.833 79.8917 187.476 80.192L176.55 89.7623C175.022 91.1012 173.146 91.9323 171.163 92.1489C169.18 92.3656 167.18 91.958 165.42 90.9784C163.903 90.1339 162.76 88.704 162.235 86.9925C161.709 85.281 161.843 83.4227 162.606 81.8124L163.538 79.8495Z" fill="#E98862"/>
<g opacity="0.2">
<path d="M174.486 75.0755C174.517 75.1141 174.561 75.1384 174.609 75.1431C174.657 75.1478 174.705 75.1324 174.743 75.1004L181.628 69.2641C181.666 69.232 181.69 69.1856 181.695 69.135C181.7 69.0844 181.686 69.0338 181.655 68.9943C181.624 68.9547 181.58 68.9296 181.531 68.9243C181.483 68.919 181.435 68.934 181.397 68.9661L174.511 74.8024C174.474 74.8344 174.45 74.8805 174.445 74.9308C174.44 74.9811 174.454 75.0314 174.484 75.0709L174.486 75.0755Z" fill="#0C0C0C"/>
</g>
<g opacity="0.2">
<path d="M176.863 78.3224C176.894 78.361 176.939 78.3852 176.987 78.3898C177.035 78.3944 177.083 78.379 177.12 78.3469L184.804 71.8337C184.842 71.8016 184.865 71.7555 184.87 71.7052C184.875 71.6549 184.861 71.6046 184.831 71.5652C184.799 71.5274 184.755 71.5035 184.708 71.4983C184.66 71.493 184.612 71.5068 184.574 71.5368L176.887 78.0489C176.85 78.0809 176.826 78.127 176.821 78.1773C176.816 78.2276 176.83 78.2779 176.86 78.3174L176.863 78.3224Z" fill="#0C0C0C"/>
</g>
<g opacity="0.2">
<path d="M179.419 81.8538C179.45 81.8924 179.494 81.9167 179.542 81.9214C179.59 81.9261 179.638 81.9107 179.676 81.8787L185.805 76.6832C185.843 76.6512 185.867 76.6048 185.872 76.5542C185.877 76.5036 185.863 76.4529 185.832 76.4134C185.802 76.3739 185.757 76.3487 185.709 76.3434C185.66 76.3382 185.612 76.3532 185.574 76.3852L179.443 81.5807C179.406 81.6127 179.382 81.6588 179.377 81.7091C179.372 81.7594 179.386 81.8097 179.416 81.8492L179.419 81.8538Z" fill="#0C0C0C"/>
</g>
<path d="M38.2333 69.7608C38.2333 69.7608 37.4459 82.1157 34.7881 86.5971C27.1354 99.5017 24.9184 114.019 32.5817 121.603C40.245 129.188 89.1241 129.293 92.8272 111.849C95.9446 97.1619 89.2546 95.5825 87.6266 83.4684C86.8902 77.9864 84.8638 66.4913 84.8638 66.4913" fill="#0A0A0A"/>
<path d="M80.176 109.291C80.0917 109.279 79.1554 125.526 61.1071 124.109C48.6125 123.13 44.1576 109.267 43.8715 109.267C45.2186 108.968 47.487 108.532 48.0851 108.198C50.0528 107.093 52.4862 105.942 53.1214 101.947C53.4882 99.6459 52.8665 87.8635 53.0576 85.5325L72.2366 90.0104C71.9685 94.9313 70.0929 106.339 76.6669 108.357C77.7606 108.692 78.939 108.999 80.176 109.291Z" fill="#E98862"/>
<path opacity="0.5" d="M72.5052 103.696C72.2048 102.684 72.0114 101.64 71.9283 100.584C71.7176 98.1728 71.7597 95.7452 72.0538 93.3439C68.1559 92.7937 64.4837 91.1111 61.4546 88.4875C61.0985 89.8628 59.1396 95.8725 59.6821 97.1795C60.7064 99.6505 65.523 103.696 72.5052 103.696Z" fill="#0C0C0C"/>
<path d="M70.0258 98.6349C62.4641 99.402 52.6805 96.2372 50.6539 85.707L48.8252 76.2058C46.7986 65.676 50.4445 56.0267 59.9254 54.0312C69.4067 52.037 78.1362 59.0802 80.1628 69.6104L80.9726 73.8168C81.7501 77.8572 83.5168 97.2696 70.0258 98.6349Z" fill="#E98862"/>
<path opacity="0.1" d="M65.2197 84.8361C66.4643 84.6808 67.385 83.7812 67.2761 82.8268C67.1672 81.8724 66.0699 81.2245 64.8253 81.3798C63.5808 81.5351 62.6601 82.4347 62.769 83.3891C62.8779 84.3435 63.9751 84.9914 65.2197 84.8361Z" fill="#0C0C0C"/>
<path opacity="0.1" d="M78.3676 81.0204C78.4776 81.9734 79.5763 82.6204 80.8209 82.467C81.036 82.44 81.2478 82.3898 81.4529 82.317C81.5109 81.1807 81.5142 80.0877 81.4826 79.0756C81.1369 78.9851 80.7781 78.9631 80.4247 79.0107C79.1801 79.1642 78.2597 80.0635 78.3676 81.0204Z" fill="#0C0C0C"/>
<path opacity="0.5" d="M72.8694 83.9662C72.8755 83.9656 72.8817 83.9645 72.8877 83.9631C73.2721 83.8794 73.6517 83.7735 74.0248 83.646C74.5817 83.4511 75.3087 83.1313 75.2089 82.6047C75.0938 82.0049 72.2744 75.8621 71.9545 75.1645C71.9414 75.133 71.9224 75.1046 71.8985 75.081C71.8747 75.0574 71.8465 75.039 71.8157 75.027C71.785 75.0151 71.7522 75.0097 71.7194 75.0112C71.6866 75.0128 71.6544 75.0213 71.6248 75.0361C71.5952 75.051 71.5687 75.0719 71.547 75.0977C71.5253 75.1235 71.5088 75.1536 71.4985 75.1862C71.4882 75.2188 71.4843 75.2533 71.487 75.2875C71.4897 75.3217 71.499 75.355 71.5143 75.3854C72.7164 78.0014 74.6525 82.3025 74.7302 82.7063C74.6694 82.8947 73.7457 83.2624 72.7923 83.4634C72.7607 83.4687 72.7304 83.4806 72.7031 83.4981C72.6759 83.5157 72.6522 83.5387 72.6334 83.5659C72.6147 83.5931 72.6012 83.6238 72.5938 83.6564C72.5865 83.689 72.5853 83.7228 72.5904 83.7558C72.5955 83.7889 72.6068 83.8206 72.6236 83.8491C72.6404 83.8776 72.6625 83.9024 72.6884 83.922C72.7144 83.9416 72.7438 83.9556 72.775 83.9634C72.8062 83.9711 72.8385 83.9723 72.8701 83.967L72.8694 83.9662Z" fill="#0C0C0C"/>
<path d="M41.2602 79.6171L49.7601 77.8809C56.1808 75.0732 58.0025 63.3718 58.0025 63.3718C58.0025 63.3718 65.9265 71.2634 84.8649 66.4913C84.8649 66.4913 80.7511 38.8451 52.7869 47.2388C43.7703 49.9445 37.3833 59.5554 38.3331 72.2851C38.9988 81.2033 41.2602 79.6171 41.2602 79.6171Z" fill="#0A0A0A"/>
<path d="M51.8595 88.7912C48.9783 89.3975 46.0223 86.6658 45.4414 83.6521C44.8604 80.6384 46.8776 78.4861 49.7588 77.8794L51.6322 79.586L54.3362 88.2692L51.8595 88.7912Z" fill="#E98862"/>
<path d="M73.9969 70.2658C74.7178 69.7328 75.5608 69.4089 76.4402 69.327C76.8821 69.2827 77.3279 69.3085 77.7624 69.4037C78.2005 69.4971 78.6257 69.6476 79.028 69.8516L79.0405 69.8578C79.0851 69.8784 79.1356 69.8799 79.1813 69.862C79.2269 69.8442 79.2641 69.8084 79.2848 69.7622C79.3056 69.7161 79.3082 69.6633 79.2922 69.6152C79.2763 69.5671 79.2429 69.5273 79.1993 69.5046C78.773 69.2692 78.32 69.0909 77.8511 68.9738C77.379 68.8537 76.8922 68.8086 76.4072 68.8399C75.4249 68.8967 74.475 69.2278 73.6566 69.7987C73.6261 69.8203 73.5999 69.848 73.5797 69.8802C73.5594 69.9124 73.5454 69.9485 73.5385 69.9863C73.5316 70.0242 73.5319 70.0631 73.5393 70.1008C73.5468 70.1386 73.5614 70.1744 73.5821 70.2062C73.6028 70.2381 73.6294 70.2654 73.6602 70.2865C73.6911 70.3076 73.7256 70.3221 73.7618 70.3293C73.798 70.3364 73.8352 70.336 73.8713 70.3281C73.9074 70.3202 73.9416 70.3049 73.972 70.2831L73.9786 70.2785L73.9969 70.2658Z" fill="#0C0C0C"/>
<path d="M66.2326 71.388C65.2674 71.1872 64.2683 71.261 63.3396 71.6017C62.8806 71.767 62.4479 72.0034 62.056 72.3031C61.6656 72.5989 61.3125 72.945 61.0049 73.3332C60.9738 73.3718 60.9582 73.4215 60.9614 73.4718C60.9646 73.5222 60.9863 73.5693 61.022 73.6032C61.0577 73.6372 61.1045 73.6554 61.1527 73.6541C61.201 73.6527 61.2468 73.6319 61.2807 73.5959L61.2906 73.5852C61.5874 73.2356 61.925 72.9264 62.2955 72.6648C62.6621 72.4032 63.0645 72.2011 63.4889 72.0653C64.3313 71.7886 65.2287 71.7502 66.0899 71.9541L66.1112 71.9599C66.1835 71.9782 66.2597 71.9657 66.3232 71.9252C66.3867 71.8847 66.4322 71.8195 66.4497 71.7439C66.4672 71.6684 66.4553 71.5886 66.4166 71.5222C66.3778 71.4559 66.3155 71.4083 66.2432 71.39L66.2326 71.388Z" fill="#0C0C0C"/>
<path d="M49.7662 77.7344C55.4799 75.51 57.376 71.3841 57.9599 68.3137C58.3377 66.266 58.3024 64.1583 57.8561 62.1257L57.6793 62.1767C58.1189 64.1828 58.1529 66.2628 57.779 68.2834C57.2025 71.3036 55.3335 75.3635 49.702 77.5553L49.7662 77.7344Z" fill="#0C0C0C"/>
<path d="M94.8752 111.223L149.128 130.187L133.199 137.591L160.251 79.5573L182.36 90.3318L157.261 149.317C155.992 152.299 153.738 154.705 150.913 156.094C148.087 157.483 144.878 157.762 141.872 156.881L141.332 156.721L86.2583 140.552L94.8752 111.223Z" fill="#00A4FD"/>
<path d="M60.7708 120.048C48.2674 119.431 47.7411 108.334 47.7411 108.334C47.7411 108.334 41.5459 108.753 37.4277 109.335C30.6853 110.289 26.2373 112.68 22.6974 116.381C19.4047 119.825 17.4 123.55 19.5213 147.335C21.0573 164.558 19.9764 202.439 19.9764 202.439H96.1694C96.1694 202.439 101.49 147.711 102.121 139.96C103.324 125.16 106.725 121.893 99.8348 114.269C94.8378 108.741 81.9372 108.334 76.7447 108.335C76.66 108.335 77.7984 120.887 60.7708 120.048Z" fill="#00A4FD"/>
<path d="M75.4042 86.0418C72.9474 87.3481 70.1443 87.7612 67.438 87.2157C67.3443 87.1973 67.2475 87.2072 67.159 87.2442C67.0704 87.2812 66.9938 87.3438 66.938 87.4246C66.8822 87.5054 66.8496 87.6012 66.8439 87.7007C66.8381 87.8002 66.8596 87.8994 66.9058 87.9866C67.7127 89.4731 69.6264 92.0135 72.9096 90.978C75.0294 90.3091 75.8307 88.0288 76.1278 86.6178C76.1481 86.5202 76.1414 86.4186 76.1084 86.3249C76.0754 86.2312 76.0175 86.1492 75.9415 86.0888C75.8655 86.0283 75.7746 85.9917 75.6794 85.9834C75.5842 85.975 75.4888 85.9953 75.4042 86.0418Z" fill="white"/>
<path d="M75.5578 74.616C76.2136 74.616 76.7452 74.0602 76.7452 73.3746C76.7452 72.689 76.2136 72.1332 75.5578 72.1332C74.902 72.1332 74.3704 72.689 74.3704 73.3746C74.3704 74.0602 74.902 74.616 75.5578 74.616Z" fill="#0C0C0C"/>
<path d="M64.1506 76.7044C64.8064 76.7044 65.338 76.1486 65.338 75.4629C65.338 74.7773 64.8064 74.2215 64.1506 74.2215C63.4948 74.2215 62.9632 74.7773 62.9632 75.4629C62.9632 76.1486 63.4948 76.7044 64.1506 76.7044Z" fill="#0C0C0C"/>
<path d="M101.951 145.352C101.943 145.352 101.936 145.352 101.928 145.352C101.88 145.345 101.836 145.319 101.806 145.279C101.776 145.239 101.763 145.189 101.769 145.138L102.949 135.137C102.951 135.112 102.959 135.087 102.97 135.065C102.982 135.043 102.998 135.024 103.017 135.008C103.036 134.993 103.058 134.981 103.081 134.975C103.105 134.968 103.129 134.967 103.153 134.97C103.177 134.973 103.2 134.981 103.221 134.994C103.242 135.006 103.26 135.023 103.275 135.043C103.29 135.063 103.301 135.085 103.307 135.11C103.314 135.134 103.316 135.159 103.313 135.184L102.133 145.185C102.127 145.231 102.105 145.274 102.072 145.304C102.038 145.335 101.995 145.352 101.951 145.352Z" fill="#0C0C0C"/>
<path d="M294.813 68.1799C294.813 68.1799 290.269 62.8425 290.796 52.8469C291.204 45.1076 296.913 51.3666 296.913 51.3666C296.913 51.3666 297.259 45.7968 300.935 47.123C304.611 48.4492 305.644 54.5908 305.644 54.5908" fill="#0C0C0C"/>
<path d="M320.356 51.831C320.356 51.831 338.714 57.8441 326.866 83.0108L325.184 82.7807L321.77 82.3147" fill="#0C0C0C"/>
<path d="M294.241 109.25C294.326 109.239 295.259 125.431 313.247 124.019C325.7 123.044 330.141 109.228 330.426 109.228C329.083 108.929 326.822 108.495 326.226 108.162C324.265 107.06 321.839 105.914 321.206 101.932C320.842 99.6367 321.46 87.8953 321.27 85.5727L302.154 90.0342C302.422 94.9386 304.291 106.308 297.739 108.321C296.649 108.654 295.473 108.96 294.241 109.25Z" fill="#E98862"/>
<path opacity="0.52" d="M301.887 103.674C302.186 102.665 302.379 101.625 302.462 100.572C302.672 98.1689 302.63 95.7492 302.337 93.3558C306.222 92.8076 309.882 91.1308 312.902 88.5159C313.257 89.8865 315.209 95.8763 314.668 97.1791C313.647 99.6417 308.846 103.674 301.887 103.674Z" fill="#0C0C0C"/>
<path d="M304.179 98.1908C311.707 99.0387 321.49 95.997 323.62 85.5255L325.54 76.0768C327.668 65.6068 324.135 55.9472 314.706 53.8513C305.278 51.7554 296.505 58.6778 294.376 69.1494L293.526 73.3324C293.258 74.7739 293.084 76.2329 293.006 77.6991C292.771 81.5726 292.43 87.4653 294.139 91.8558C295.752 96.0009 299.37 97.6488 304.179 98.1908Z" fill="#E98862"/>
<path d="M298.199 74.0669C298.855 74.0669 299.386 73.511 299.386 72.8254C299.386 72.1398 298.855 71.584 298.199 71.584C297.543 71.584 297.012 72.1398 297.012 72.8254C297.012 73.511 297.543 74.0669 298.199 74.0669Z" fill="#0C0C0C"/>
<path d="M309.475 75.3083C310.13 75.3083 310.662 74.7525 310.662 74.0669C310.662 73.3812 310.13 72.8254 309.475 72.8254C308.819 72.8254 308.287 73.3812 308.287 74.0669C308.287 74.7525 308.819 75.3083 309.475 75.3083Z" fill="#0C0C0C"/>
<path d="M322.385 88.5856C325.25 89.2226 328.225 86.5334 328.834 83.537C329.443 80.5406 327.456 78.3722 324.591 77.7352L322.706 79.4146L319.921 88.038L322.385 88.5856Z" fill="#E98862"/>
<path d="M320.445 83.1631C320.445 83.1631 322.307 68.1059 318.174 66.2907C315.423 65.0818 307.654 67.8869 301.455 65.2586C298.743 64.1081 295.927 64.2807 295.39 65.6164C295.177 66.1453 294.931 57.856 300.492 52.7629C304.919 48.7076 316.68 49.7534 321.614 52.4143C335.275 59.7812 325.057 78.5129 325.057 78.5129L323.434 83.4987L320.445 83.1631Z" fill="#0C0C0C"/>
<g opacity="0.52">
<path d="M301.288 84.2404L301.269 84.2373C300.345 84.0344 298.817 83.5853 298.961 82.8639C299.082 82.2653 301.947 76.1451 302.273 75.4494C302.302 75.3896 302.351 75.3438 302.412 75.3222C302.472 75.3007 302.538 75.305 302.595 75.3344C302.652 75.3637 302.696 75.4156 302.717 75.4787C302.737 75.5418 302.733 75.6109 302.705 75.6707C301.434 78.3806 299.514 82.5602 299.432 82.9671C299.489 83.1589 300.411 83.5351 301.367 83.7449C301.428 83.759 301.48 83.7966 301.515 83.85C301.549 83.9034 301.562 83.9686 301.552 84.0321C301.542 84.0956 301.509 84.1525 301.46 84.1913C301.411 84.2301 301.349 84.2476 301.288 84.2404Z" fill="#0C0C0C"/>
</g>
<path d="M301.075 68.9419C300.167 68.4629 299.152 68.2487 298.138 68.3218C297.64 68.3546 297.149 68.4654 296.682 68.6504C296.22 68.8313 295.781 69.0725 295.377 69.3684C295.31 69.4134 295.262 69.4843 295.244 69.566C295.226 69.6477 295.239 69.7334 295.281 69.8048C295.323 69.8762 295.39 69.9274 295.468 69.9474C295.546 69.9674 295.628 69.9547 295.697 69.9118L295.718 69.8992C296.089 69.6588 296.487 69.4681 296.903 69.3316C297.313 69.1945 297.741 69.1232 298.172 69.1202C299.023 69.1072 299.862 69.3296 300.605 69.7649L300.633 69.7822C300.685 69.8146 300.742 69.8359 300.802 69.8449C300.862 69.8539 300.923 69.8504 300.982 69.8347C301.04 69.8189 301.095 69.7912 301.144 69.7531C301.192 69.7151 301.233 69.6674 301.263 69.6128C301.294 69.5582 301.314 69.4978 301.322 69.4351C301.33 69.3724 301.327 69.3087 301.311 69.2475C301.296 69.1863 301.269 69.1289 301.232 69.0787C301.195 69.0284 301.149 68.9862 301.097 68.9546L301.075 68.9419Z" fill="#0C0C0C"/>
<path d="M307.863 70.8606C308.687 70.6394 309.553 70.6498 310.373 70.8909C310.788 71.0097 311.184 71.1935 311.546 71.4359C311.915 71.6798 312.253 71.9711 312.552 72.303L312.569 72.3203C312.625 72.3776 312.701 72.4099 312.779 72.4104C312.858 72.4109 312.934 72.3795 312.991 72.3229C313.048 72.2663 313.083 72.1888 313.086 72.1066C313.09 72.0243 313.064 71.9437 313.012 71.8815C312.694 71.4871 312.33 71.1362 311.928 70.8372C311.522 70.5331 311.075 70.2942 310.601 70.1285C309.639 69.7848 308.606 69.7186 307.611 69.9367C307.552 69.9501 307.496 69.9755 307.447 70.0115C307.397 70.0475 307.355 70.0933 307.322 70.1463C307.257 70.2534 307.234 70.3834 307.26 70.5078C307.286 70.6321 307.358 70.7406 307.461 70.8093C307.563 70.8781 307.687 70.9015 307.806 70.8744L307.83 70.8683L307.863 70.8606Z" fill="#0C0C0C"/>
<path d="M299.835 86.5634C302.509 87.262 305.329 87.0088 307.85 85.8439C307.938 85.8041 308.034 85.7911 308.128 85.8064C308.222 85.8217 308.311 85.8648 308.382 85.9305C308.454 85.9962 308.506 86.0818 308.533 86.1775C308.56 86.2731 308.56 86.3747 308.534 86.4705C308.065 88.1085 306.744 91.0344 303.323 90.792C301.113 90.6363 299.844 88.601 299.252 87.2955C299.211 87.205 299.195 87.1041 299.207 87.0047C299.219 86.9053 299.258 86.8116 299.32 86.7346C299.381 86.6577 299.462 86.6006 299.553 86.5703C299.645 86.5399 299.742 86.5375 299.835 86.5634Z" fill="white"/>
<path d="M310.446 54.9082C311.723 51.7719 311.107 48.4935 309.069 47.5857C307.032 46.678 304.344 48.4846 303.066 51.621C301.789 54.7573 302.405 58.0357 304.442 58.9435C306.48 59.8512 309.168 58.0446 310.446 54.9082Z" fill="#0C0C0C"/>
<path d="M313.527 120.048C326.03 119.431 326.556 108.334 326.556 108.334C326.556 108.334 332.752 108.753 336.87 109.335C343.613 110.289 348.061 112.68 351.6 116.381C354.893 119.825 356.898 123.55 354.776 147.335C353.24 164.558 354.321 202.439 354.321 202.439H278.128C278.128 202.439 272.808 147.712 272.177 139.96C270.973 125.16 267.573 121.893 274.463 114.269C279.46 108.741 292.36 108.334 297.553 108.335C297.637 108.335 296.5 120.887 313.527 120.048Z" fill="#00A4FD"/>
<path d="M271.997 117.697L252.298 161.369L213.449 130.819L198.019 152.275L249.46 192.727C249.921 193.085 250.402 193.413 250.9 193.709C252.37 194.57 253.988 195.12 255.661 195.327C257.334 195.535 259.03 195.396 260.651 194.918C262.273 194.44 263.789 193.633 265.112 192.542C266.435 191.452 267.54 190.099 268.364 188.562L268.587 188.147L298.641 132.05L271.997 117.697Z" fill="#00A4FD"/>
<path d="M357.245 202.822H10.2661C10.1688 202.822 10.0755 202.782 10.0068 202.71C9.93797 202.638 9.89933 202.54 9.89933 202.439C9.89933 202.337 9.93797 202.239 10.0068 202.167C10.0755 202.096 10.1688 202.055 10.2661 202.055H357.245C357.342 202.055 357.435 202.096 357.504 202.167C357.573 202.239 357.611 202.337 357.611 202.439C357.611 202.54 357.573 202.638 357.504 202.71C357.435 202.782 357.342 202.822 357.245 202.822Z" fill="#292A2E"/>
<path d="M281.774 145.394H95.9702V211.808H281.774V145.394Z" fill="white"/>
<path d="M281.957 212H95.7868V145.202H281.957V212ZM96.1536 211.617H281.591V145.586H96.1536V211.617Z" fill="#0C0C0C"/>
<path d="M86.7958 165.691L98.2653 160.335C98.5173 160.217 98.79 160.156 99.066 160.154C99.3421 160.153 99.6153 160.211 99.8684 160.327C100.122 160.442 100.349 160.611 100.536 160.823C100.724 161.035 100.867 161.285 100.956 161.558C101.107 162.067 101.071 162.617 100.856 163.1C100.641 163.584 100.262 163.966 99.7924 164.174L97.333 165.325L106.653 165.425C107.689 165.417 108.965 166.101 108.897 167.317C108.9 167.787 108.751 168.244 108.473 168.613C108.196 168.983 107.807 169.244 107.37 169.352C107.372 169.362 107.374 169.373 107.374 169.383C107.373 169.391 107.372 169.399 107.37 169.407L108.968 169.395C109.264 169.393 109.556 169.46 109.824 169.591C110.092 169.722 110.329 169.914 110.517 170.153C110.705 170.392 110.839 170.671 110.911 170.971C110.983 171.271 110.989 171.585 110.931 171.888C110.829 172.363 110.574 172.788 110.208 173.091C109.843 173.394 109.389 173.556 108.922 173.55L108.242 173.555C108.233 173.576 108.221 173.595 108.206 173.611C108.666 173.719 109.074 173.995 109.358 174.389C109.641 174.783 109.782 175.269 109.754 175.762C109.708 176.299 109.47 176.8 109.088 177.162C108.705 177.525 108.206 177.723 107.689 177.718L106 177.73C106.024 177.748 106.043 177.77 106.057 177.797C106.071 177.824 106.078 177.853 106.079 177.884C106.078 177.92 106.066 177.955 106.046 177.984C106.431 178.2 106.737 178.541 106.917 178.956C107.098 179.371 107.143 179.836 107.046 180.281C106.935 180.745 106.678 181.157 106.315 181.449C105.953 181.742 105.506 181.898 105.048 181.892L90.7964 181.998C88.8027 182.013 86.8502 181.405 85.1892 180.252C83.5281 179.099 82.2342 177.453 81.4731 175.526C80.8169 173.865 80.8061 172.001 81.443 170.331C82.0799 168.662 83.3143 167.317 84.8839 166.584L86.7958 165.691Z" fill="#E98862"/>
<g opacity="0.2">
<path d="M98.1445 169.299C98.1452 169.349 98.1648 169.397 98.1991 169.433C98.2334 169.468 98.2797 169.488 98.3279 169.488L107.191 169.571C107.239 169.572 107.286 169.552 107.321 169.516C107.356 169.481 107.375 169.432 107.376 169.381C107.376 169.33 107.357 169.281 107.323 169.245C107.289 169.209 107.243 169.188 107.194 169.188L98.3312 169.104C98.2825 169.104 98.2359 169.124 98.2015 169.16C98.1671 169.196 98.1478 169.245 98.1478 169.296L98.1445 169.299Z" fill="#0C0C0C"/>
</g>
<g opacity="0.2">
<path d="M98.0017 173.387C98.0024 173.437 98.022 173.485 98.0563 173.521C98.0906 173.556 98.1369 173.576 98.1851 173.576L108.076 173.669C108.125 173.669 108.171 173.649 108.206 173.613C108.24 173.577 108.259 173.528 108.259 173.477C108.258 173.427 108.238 173.379 108.204 173.344C108.17 173.308 108.124 173.287 108.076 173.286L98.1851 173.192C98.1609 173.192 98.1368 173.197 98.1144 173.206C98.0919 173.216 98.0715 173.23 98.0542 173.248C98.037 173.266 98.0233 173.287 98.014 173.31C98.0047 173.334 97.9999 173.359 97.9999 173.384L98.0017 173.387Z" fill="#0C0C0C"/>
</g>
<g opacity="0.2">
<path d="M97.822 177.81C97.8227 177.861 97.8423 177.909 97.8767 177.944C97.911 177.98 97.9572 177.999 98.0054 177.999L105.895 178.074C105.944 178.074 105.991 178.055 106.026 178.019C106.06 177.983 106.08 177.935 106.08 177.884C106.081 177.833 106.062 177.784 106.028 177.748C105.994 177.711 105.947 177.691 105.899 177.69L98.0087 177.616C97.9601 177.616 97.9134 177.636 97.8791 177.672C97.8447 177.708 97.8254 177.757 97.8254 177.808L97.822 177.81Z" fill="#0C0C0C"/>
</g>
<path d="M90.0792 187.047L26.489 202.163C24.3766 202.403 22.2395 202.129 20.2456 201.36C18.2517 200.592 16.4552 199.351 14.997 197.735C13.5388 196.118 12.4586 194.171 11.8411 192.044C11.2237 189.918 11.0858 187.671 11.4382 185.48L18.7154 124.271C19.3206 120.509 21.3299 117.153 24.3013 114.941C27.2728 112.729 30.9629 111.841 34.56 112.474C38.157 113.107 41.3664 115.208 43.4819 118.316C45.5975 121.423 46.446 125.282 45.8408 129.043L42.3364 172.854L86.5169 162.399L90.0792 187.047Z" fill="#00A4FD"/>
<path d="M33.3957 174.576C33.3497 174.575 33.3055 174.557 33.2719 174.524C33.2383 174.491 33.2177 174.446 33.2144 174.398C33.211 174.35 33.225 174.302 33.2537 174.265C33.2823 174.227 33.3235 174.202 33.369 174.194L42.2301 172.216C42.2539 172.212 42.2783 172.213 42.3018 172.219C42.3252 172.225 42.3473 172.235 42.3667 172.251C42.3862 172.266 42.4025 172.284 42.4148 172.306C42.4271 172.328 42.4351 172.352 42.4384 172.377C42.4455 172.427 42.4333 172.478 42.4045 172.519C42.3756 172.56 42.3324 172.587 42.2844 172.595L33.4233 174.573C33.4142 174.575 33.405 174.576 33.3957 174.576Z" fill="#0C0C0C"/>
<path d="M28.3961 202.439C28.3475 202.442 28.2996 202.425 28.263 202.391C28.2263 202.358 28.204 202.31 28.2008 202.259C28.1977 202.208 28.2139 202.158 28.2461 202.12C28.2783 202.082 28.3236 202.058 28.3723 202.055L89.6795 186.956L86.2056 162.679L42.2887 172.593C42.2603 172.597 42.2315 172.593 42.2045 172.584C42.1774 172.574 42.1529 172.558 42.1329 172.536C42.1129 172.515 42.098 172.488 42.0894 172.46C42.0809 172.431 42.0789 172.401 42.0837 172.371L44.5472 147.339C44.5509 147.314 44.5593 147.29 44.572 147.268C44.5847 147.247 44.6014 147.228 44.6211 147.213C44.6408 147.199 44.6631 147.188 44.6867 147.183C44.7103 147.177 44.7347 147.177 44.7585 147.182C44.8064 147.19 44.8492 147.218 44.8774 147.259C44.9056 147.301 44.9169 147.352 44.9088 147.402L42.4883 172.178L86.2911 162.256C86.3146 162.249 86.3393 162.247 86.3635 162.251C86.3878 162.254 86.4112 162.262 86.4323 162.275C86.4533 162.288 86.4717 162.305 86.4864 162.326C86.5011 162.346 86.5117 162.37 86.5177 162.394L90.08 187.044C90.0913 187.093 90.084 187.144 90.0599 187.187C90.0357 187.23 89.9965 187.261 89.9505 187.274L28.42 202.437C28.4121 202.438 28.4041 202.439 28.3961 202.439Z" fill="#0C0C0C"/>
<path d="M287.502 177.197L276.032 171.84C275.78 171.722 275.507 171.661 275.232 171.66C274.956 171.658 274.682 171.717 274.429 171.832C274.176 171.947 273.949 172.116 273.761 172.328C273.574 172.54 273.431 172.79 273.342 173.063C273.191 173.573 273.227 174.122 273.442 174.606C273.657 175.089 274.036 175.472 274.505 175.679L276.965 176.83L267.645 176.93C266.609 176.922 265.332 177.606 265.401 178.822C265.398 179.292 265.547 179.749 265.824 180.119C266.102 180.489 266.491 180.749 266.928 180.858C266.925 180.868 266.924 180.878 266.923 180.889C266.924 180.897 266.926 180.904 266.928 180.912L265.33 180.9C265.034 180.898 264.742 180.965 264.474 181.096C264.206 181.227 263.969 181.419 263.781 181.658C263.593 181.897 263.458 182.177 263.387 182.477C263.315 182.777 263.308 183.09 263.367 183.393C263.469 183.869 263.724 184.294 264.089 184.596C264.455 184.899 264.909 185.061 265.375 185.056L266.055 185.061C266.065 185.081 266.077 185.1 266.092 185.116C265.632 185.224 265.224 185.5 264.94 185.894C264.656 186.288 264.516 186.775 264.544 187.267C264.59 187.805 264.828 188.305 265.21 188.668C265.593 189.03 266.092 189.229 266.609 189.223L268.298 189.236C268.274 189.253 268.255 189.276 268.241 189.302C268.227 189.329 268.22 189.359 268.219 189.389C268.22 189.425 268.231 189.46 268.252 189.49C267.867 189.705 267.561 190.047 267.381 190.461C267.2 190.876 267.154 191.342 267.251 191.786C267.362 192.251 267.62 192.663 267.983 192.955C268.346 193.247 268.792 193.403 269.25 193.397L283.502 193.503C285.496 193.518 287.448 192.91 289.109 191.757C290.77 190.604 292.064 188.958 292.825 187.031C293.481 185.369 293.492 183.505 292.855 181.836C292.218 180.166 290.984 178.822 289.414 178.088L287.502 177.197Z" fill="#E98862"/>
<g opacity="0.2">
<path d="M276.153 180.804C276.152 180.855 276.132 180.903 276.098 180.938C276.064 180.974 276.017 180.993 275.969 180.993L267.106 181.077C267.082 181.077 267.058 181.072 267.036 181.063C267.014 181.053 266.993 181.039 266.976 181.022C266.959 181.004 266.945 180.983 266.936 180.96C266.926 180.937 266.921 180.912 266.921 180.887C266.921 180.861 266.926 180.836 266.935 180.813C266.944 180.79 266.957 180.768 266.974 180.75C266.991 180.733 267.011 180.718 267.033 180.708C267.055 180.699 267.079 180.693 267.103 180.693L275.966 180.609C276.015 180.609 276.061 180.63 276.096 180.666C276.13 180.702 276.149 180.75 276.149 180.801L276.153 180.804Z" fill="#0C0C0C"/>
</g>
<g opacity="0.2">
<path d="M276.296 184.892C276.295 184.942 276.276 184.99 276.242 185.025C276.208 185.061 276.162 185.081 276.115 185.081L266.223 185.174C266.175 185.174 266.128 185.154 266.094 185.118C266.059 185.082 266.04 185.034 266.04 184.983C266.041 184.932 266.061 184.885 266.095 184.849C266.129 184.813 266.175 184.793 266.223 184.791L276.114 184.698C276.163 184.698 276.209 184.718 276.244 184.754C276.278 184.79 276.298 184.839 276.298 184.89L276.296 184.892Z" fill="#0C0C0C"/>
</g>
<g opacity="0.2">
<path d="M276.476 189.316C276.475 189.366 276.456 189.414 276.421 189.45C276.387 189.485 276.341 189.505 276.292 189.505L268.402 189.579C268.378 189.58 268.355 189.575 268.332 189.565C268.31 189.556 268.289 189.542 268.272 189.524C268.255 189.507 268.241 189.486 268.232 189.463C268.223 189.439 268.218 189.414 268.217 189.389C268.217 189.364 268.222 189.339 268.231 189.316C268.24 189.292 268.253 189.271 268.27 189.253C268.287 189.235 268.307 189.221 268.329 189.211C268.351 189.201 268.375 189.196 268.399 189.196L276.289 189.121C276.338 189.121 276.384 189.142 276.419 189.178C276.453 189.213 276.473 189.262 276.473 189.313L276.476 189.316Z" fill="#0C0C0C"/>
</g>
<path d="M287.887 198.552L347.809 202.163C349.922 202.403 352.059 202.129 354.053 201.36C356.047 200.592 357.843 199.351 359.301 197.735C360.759 196.118 361.84 194.171 362.457 192.044C363.075 189.918 363.212 187.671 362.86 185.48L355.584 124.269C355.285 122.406 354.637 120.624 353.679 119.023C352.72 117.422 351.47 116.034 349.998 114.939C348.527 113.844 346.864 113.062 345.104 112.639C343.343 112.216 341.521 112.159 339.74 112.472C337.959 112.786 336.254 113.463 334.723 114.465C333.192 115.467 331.865 116.775 330.818 118.314C329.77 119.852 329.023 121.592 328.618 123.432C328.213 125.273 328.159 127.179 328.459 129.041L331.963 175.537L288.149 173.902L287.887 198.552Z" fill="#00A4FD"/>
<path d="M340.902 175.343C340.948 175.343 340.993 175.324 341.026 175.291C341.06 175.258 341.08 175.213 341.084 175.165C341.087 175.117 341.073 175.07 341.045 175.032C341.016 174.994 340.975 174.969 340.929 174.962L332.068 174.901C332.044 174.897 332.02 174.898 331.996 174.903C331.973 174.909 331.951 174.92 331.931 174.935C331.912 174.95 331.896 174.969 331.883 174.991C331.871 175.013 331.863 175.037 331.86 175.062C331.852 175.112 331.865 175.163 331.894 175.204C331.923 175.245 331.966 175.272 332.014 175.28L340.875 175.341C340.884 175.342 340.893 175.343 340.902 175.343Z" fill="#0C0C0C"/>
<path d="M345.902 202.439C345.95 202.442 345.998 202.425 346.035 202.391C346.072 202.357 346.094 202.31 346.097 202.259C346.1 202.208 346.084 202.158 346.052 202.12C346.019 202.082 345.974 202.058 345.925 202.055L288.285 198.463L288.458 174.186L332.008 175.279C332.036 175.283 332.065 175.28 332.092 175.27C332.119 175.26 332.144 175.244 332.164 175.222C332.184 175.201 332.199 175.175 332.207 175.146C332.216 175.117 332.218 175.087 332.213 175.057L329.75 147.34C329.746 147.315 329.737 147.291 329.725 147.27C329.712 147.248 329.695 147.23 329.676 147.215C329.656 147.2 329.634 147.19 329.61 147.185C329.587 147.179 329.562 147.179 329.538 147.183C329.515 147.187 329.492 147.196 329.471 147.21C329.451 147.223 329.433 147.24 329.419 147.261C329.405 147.281 329.395 147.305 329.39 147.329C329.384 147.354 329.384 147.379 329.388 147.404L331.81 174.864L288.374 173.763C288.351 173.756 288.326 173.754 288.302 173.758C288.277 173.761 288.254 173.769 288.233 173.782C288.212 173.795 288.193 173.812 288.179 173.833C288.164 173.853 288.153 173.877 288.147 173.901L287.886 198.551C287.874 198.6 287.882 198.651 287.906 198.694C287.93 198.737 287.969 198.768 288.015 198.781L345.877 202.435C345.885 202.437 345.893 202.438 345.902 202.439Z" fill="#0C0C0C"/>
</svg>
