<svg width="26" height="29" viewBox="0 0 26 29" fill="none" xmlns="http://www.w3.org/2000/svg">
<g clip-path="url(#clip0_0_114)">
<path d="M12.9943 8.88124C10.2416 8.88124 7.97469 11.4187 7.97469 14.5C7.97469 17.6265 10.2416 20.1187 12.9943 20.1187C15.747 20.1187 18.0139 17.6265 18.0139 14.5C18.0139 11.4187 15.747 8.88124 12.9943 8.88124ZM12.9943 18.125C11.2131 18.125 9.79633 16.4937 9.79633 14.5453C9.79633 12.5515 11.2131 10.9656 12.9943 10.9656C14.7755 10.9656 16.1923 12.5515 16.1923 14.5C16.1923 16.4937 14.735 18.125 12.9943 18.125Z" fill="white" fill-opacity="0.6"/>
<path d="M24.5718 17.264L22.3049 15.8594C22.3858 15.3609 22.4263 14.8625 22.4263 14.364C22.4263 13.8203 22.3858 13.3219 22.3454 12.8234L24.6528 11.3734C25.179 11.0562 25.3814 10.3312 25.1385 9.69686L22.7906 5.25624C22.5073 4.71249 21.8596 4.48592 21.3333 4.71249L18.9045 6.2078C18.783 6.11717 18.6616 5.98124 18.5806 5.89061C18.1354 5.4828 17.7305 5.07499 17.0829 4.71249C17.0424 4.71249 17.0019 4.66717 17.0019 4.57655V2.9453C17.0019 1.76717 16.1518 0.7703 15.0588 0.7703H10.8893C9.83681 0.7703 8.94623 1.76717 8.94623 2.9453V4.71249C8.94623 4.7578 8.90575 4.80311 8.86527 4.84842C8.25806 5.16561 7.81277 5.61874 7.327 6.02655C7.24604 6.11717 7.1246 6.2078 7.04364 6.29842L4.89816 4.93905C4.08855 4.44061 3.40037 4.7578 3.11701 5.30155L0.890571 9.60623C0.769128 9.96873 0.728648 10.3312 0.809609 10.6937C0.890571 11.0562 1.09297 11.3281 1.37634 11.5094L3.64326 12.8687C3.5623 13.3219 3.5623 13.8203 3.5623 14.4094C3.5623 14.9078 3.60278 15.4062 3.64326 15.9047L1.29538 17.3547C0.769128 17.6719 0.566725 18.3969 0.809609 19.0312L3.15749 23.4719C3.44086 24.0156 4.04807 24.2422 4.6148 24.0156L7.04364 22.5203C7.16508 22.6109 7.24604 22.7015 7.36749 22.8375C7.81277 23.2906 8.25806 23.6984 8.90575 24.0156C8.94623 24.0156 8.98671 24.0609 8.98671 24.1515V26.1C8.98671 27.2781 9.83681 28.275 10.9298 28.275H15.0588C16.1113 28.275 17.0019 27.2781 17.0019 26.1V24.0156C17.0019 23.9703 17.0424 23.925 17.0829 23.8797C17.6901 23.5625 18.0949 23.1547 18.5806 22.7015C18.7021 22.6109 18.783 22.5203 18.9045 22.3844L21.05 23.7437C21.8596 24.2422 22.5073 23.925 22.8311 23.3812L25.098 19.0765C25.26 18.7594 25.3004 18.3969 25.2195 18.0797C25.1385 17.7625 24.8552 17.4453 24.5718 17.264ZM21.4953 21.75L19.5522 20.5265C18.9855 20.164 18.3378 20.2547 17.852 20.7078C17.6496 20.889 17.4877 21.025 17.3257 21.2062C16.9209 21.614 16.6376 21.8859 16.2328 22.0672C15.5851 22.4297 15.1398 23.2 15.1398 24.0156V26.0094C15.1398 26.1 15.0993 26.1453 15.0183 26.1453H10.8893C10.8083 26.1453 10.7679 26.1 10.7679 26.0094V24.0609C10.7679 23.2453 10.3226 22.475 9.67489 22.1125C9.27008 21.8859 8.94623 21.614 8.54143 21.2062C8.3795 21.0703 8.21758 20.889 8.01518 20.7531C7.73181 20.5265 7.40797 20.3906 7.04364 20.3906C6.80076 20.3906 6.51739 20.4812 6.27451 20.6172L4.33143 21.8406L2.7122 18.7594L4.6148 17.5812C5.18153 17.2187 5.50537 16.539 5.42441 15.7687C5.38393 15.3156 5.34345 14.8625 5.34345 14.4094C5.34345 13.9109 5.38393 13.4578 5.42441 13.0953C5.54585 12.325 5.22201 11.5547 4.6148 11.1922L2.83364 10.0594L4.41239 7.02342L6.35547 8.24686C6.9222 8.60936 7.56989 8.51873 8.05566 8.06561C8.21758 7.92967 8.3795 7.74842 8.54143 7.61249C8.94623 7.20467 9.27008 6.9328 9.67489 6.70624C10.3631 6.34374 10.7679 5.57342 10.7679 4.7578V2.99061C10.7679 2.89999 10.8083 2.85467 10.8893 2.85467H15.0183C15.0993 2.85467 15.1398 2.89999 15.1398 2.99061V4.71249C15.1398 5.52811 15.5851 6.29842 16.2328 6.66092C16.6376 6.88749 16.9209 7.15936 17.3257 7.52186C17.4877 7.70311 17.6496 7.83905 17.852 8.0203C18.3378 8.47342 19.0259 8.51873 19.5522 8.15623L21.4953 6.9328L23.1145 10.014L21.2524 11.1922C20.6856 11.5547 20.3618 12.325 20.4832 13.0953C20.5237 13.5031 20.5642 13.9562 20.5642 14.4094C20.5642 14.8625 20.5237 15.3156 20.4428 15.7687C20.3213 16.539 20.6452 17.264 21.2524 17.6265L23.074 18.7594L21.4953 21.75Z" fill="white" fill-opacity="0.6"/>
</g>
<defs>
<clipPath id="clip0_0_114">
<rect width="25.0638" height="28.0554" fill="white" transform="scale(1.03367)"/>
</clipPath>
</defs>
</svg>
