<svg width="335" height="25" viewBox="0 0 335 25" fill="none" xmlns="http://www.w3.org/2000/svg">
<line x1="314.499" y1="25" x2="314.498" y2="2.56347e-05" stroke="black"/>
<path d="M333.889 8.89382H331.522V8.42036C331.521 8.04379 331.372 7.68275 331.105 7.41647C330.839 7.15019 330.478 7.00041 330.101 6.99998H327.261C326.884 7.00041 326.523 7.15019 326.257 7.41647C325.99 7.68275 325.841 8.04379 325.84 8.42036V8.89382H323.473C323.347 8.89382 323.227 8.94371 323.138 9.0325C323.049 9.12129 322.999 9.24172 322.999 9.36729C322.999 9.49285 323.049 9.61328 323.138 9.70207C323.227 9.79086 323.347 9.84075 323.473 9.84075H323.946V18.363C323.946 18.6141 324.046 18.8548 324.224 19.0323C324.401 19.2098 324.642 19.3097 324.893 19.31H332.468C332.719 19.3097 332.96 19.2098 333.138 19.0323C333.315 18.8548 333.415 18.6141 333.415 18.363V9.84075H333.889C334.014 9.84075 334.135 9.79086 334.224 9.70207C334.312 9.61328 334.362 9.49285 334.362 9.36729C334.362 9.24172 334.312 9.12129 334.224 9.0325C334.135 8.94371 334.014 8.89382 333.889 8.89382ZM326.787 8.42036C326.787 8.29484 326.837 8.1745 326.926 8.08574C327.015 7.99698 327.135 7.94705 327.261 7.9469H330.101C330.227 7.94705 330.347 7.99698 330.436 8.08574C330.525 8.1745 330.575 8.29484 330.575 8.42036V8.89382H326.787V8.42036ZM332.468 18.363H324.893V9.84075H332.468V18.363ZM327.734 12.208V15.9957C327.734 16.1213 327.684 16.2417 327.595 16.3305C327.507 16.4193 327.386 16.4692 327.261 16.4692C327.135 16.4692 327.015 16.4193 326.926 16.3305C326.837 16.2417 326.787 16.1213 326.787 15.9957V12.208C326.787 12.0825 326.837 11.9621 326.926 11.8733C327.015 11.7845 327.135 11.7346 327.261 11.7346C327.386 11.7346 327.507 11.7845 327.595 11.8733C327.684 11.9621 327.734 12.0825 327.734 12.208ZM330.575 12.208V15.9957C330.575 16.1213 330.525 16.2417 330.436 16.3305C330.347 16.4193 330.227 16.4692 330.101 16.4692C329.976 16.4692 329.855 16.4193 329.767 16.3305C329.678 16.2417 329.628 16.1213 329.628 15.9957V12.208C329.628 12.0825 329.678 11.9621 329.767 11.8733C329.855 11.7845 329.976 11.7346 330.101 11.7346C330.227 11.7346 330.347 11.7845 330.436 11.8733C330.525 11.9621 330.575 12.0825 330.575 12.208Z" fill="black"/>
<path d="M8.79283 18.4307H6.07474C6.53205 18.023 6.96333 17.5871 7.36604 17.1255C8.87468 15.3905 9.67212 13.5614 9.67212 11.836C9.67212 10.5534 9.16261 9.32337 8.25567 8.41643C7.34873 7.5095 6.11866 6.99998 4.83606 6.99998C3.55346 6.99998 2.32339 7.5095 1.41645 8.41643C0.509512 9.32337 0 10.5534 0 11.836C0 13.5614 0.797441 15.3905 2.30608 17.1255C2.70879 17.5871 3.14007 18.023 3.59738 18.4307H0.879283C0.762683 18.4307 0.650859 18.477 0.56841 18.5594C0.485961 18.6419 0.439642 18.7537 0.439642 18.8703C0.439642 18.9869 0.485961 19.0987 0.56841 19.1812C0.650859 19.2636 0.762683 19.31 0.879283 19.31H8.79283C8.90944 19.31 9.02126 19.2636 9.10371 19.1812C9.18616 19.0987 9.23248 18.9869 9.23248 18.8703C9.23248 18.7537 9.18616 18.6419 9.10371 18.5594C9.02126 18.477 8.90944 18.4307 8.79283 18.4307ZM0.879283 11.836C0.879283 10.7866 1.29616 9.78022 2.0382 9.03818C2.78024 8.29614 3.78666 7.87927 4.83606 7.87927C5.88546 7.87927 6.89188 8.29614 7.63392 9.03818C8.37596 9.78022 8.79283 10.7866 8.79283 11.836C8.79283 14.9813 5.74448 17.6071 4.83606 18.3196C3.92747 17.607 0.879283 14.9813 0.879283 11.836ZM7.03427 11.836C7.03427 11.4013 6.90535 10.9763 6.6638 10.6148C6.42226 10.2533 6.07895 9.97154 5.67728 9.80516C5.27561 9.63878 4.83362 9.59525 4.40721 9.68007C3.9808 9.76489 3.58912 9.97425 3.28169 10.2817C2.97427 10.5891 2.76491 10.9808 2.68009 11.4072C2.59527 11.8336 2.6388 12.2756 2.80518 12.6773C2.97156 13.0789 3.25331 13.4222 3.6148 13.6638C3.97629 13.9053 4.40129 14.0343 4.83606 14.0343C5.41886 14.0336 5.9776 13.8018 6.3897 13.3897C6.8018 12.9776 7.03361 12.4188 7.03427 11.836ZM3.51713 11.836C3.51713 11.5752 3.59449 11.3202 3.73941 11.1033C3.88434 10.8864 4.09033 10.7173 4.33133 10.6175C4.57233 10.5177 4.83752 10.4916 5.09337 10.5425C5.34922 10.5934 5.58422 10.719 5.76868 10.9034C5.95313 11.0879 6.07875 11.3229 6.12964 11.5787C6.18053 11.8346 6.15441 12.0998 6.05459 12.3408C5.95476 12.5818 5.78571 12.7878 5.56881 12.9327C5.35192 13.0776 5.09692 13.155 4.83606 13.155C4.48638 13.1546 4.15114 13.0155 3.90388 12.7682C3.65662 12.521 3.51753 12.1857 3.51713 11.836Z" fill="black"/>
<path d="M42.5212 11.8169H41.7986L39.9402 7.63562C39.856 7.4465 39.7188 7.28582 39.5452 7.17302C39.3716 7.06022 39.1691 7.00012 38.9621 6.99998H31.0943C30.8873 7.00012 30.6847 7.06022 30.5111 7.17304C30.3375 7.28586 30.2003 7.44655 30.1161 7.63569L28.2578 11.8169H27.5352C27.3932 11.8169 27.2571 11.8733 27.1567 11.9737C27.0563 12.0741 26.9999 12.2102 26.9999 12.3521C26.9999 12.4941 27.0563 12.6302 27.1567 12.7306C27.2571 12.831 27.3932 12.8874 27.5352 12.8874H28.0704V18.2395C28.0707 18.5233 28.1836 18.7954 28.3842 18.9961C28.5849 19.1967 28.857 19.3096 29.1408 19.31H30.7464C31.0302 19.3096 31.3023 19.1967 31.503 18.9961C31.7037 18.7954 31.8166 18.5233 31.8169 18.2395V17.1691H38.2395V18.2395C38.2398 18.5233 38.3527 18.7954 38.5534 18.9961C38.754 19.1967 39.0261 19.3096 39.3099 19.31H40.9156C41.1993 19.3096 41.4714 19.1967 41.6721 18.9961C41.8728 18.7954 41.9857 18.5233 41.986 18.2395V12.8874H42.5212C42.6631 12.8874 42.7993 12.831 42.8997 12.7306C43 12.6302 43.0564 12.4941 43.0564 12.3521C43.0564 12.2102 43 12.0741 42.8997 11.9737C42.7993 11.8733 42.6631 11.8169 42.5212 11.8169ZM31.0943 8.07042H38.9621L40.6272 11.8169H29.4292L31.0943 8.07042ZM30.7464 18.2395H29.1408V17.1691H30.7464V18.2395ZM39.3099 18.2395V17.1691H40.9156V18.2395H39.3099ZM40.9156 16.0987H29.1408V12.8874H40.9156V16.0987ZM30.2112 14.493C30.2112 14.3511 30.2676 14.2149 30.368 14.1146C30.4684 14.0142 30.6045 13.9578 30.7464 13.9578H31.8169C31.9588 13.9578 32.095 14.0142 32.1953 14.1146C32.2957 14.2149 32.3521 14.3511 32.3521 14.493C32.3521 14.635 32.2957 14.7711 32.1953 14.8715C32.095 14.9718 31.9588 15.0282 31.8169 15.0282H30.7464C30.6045 15.0282 30.4684 14.9718 30.368 14.8715C30.2676 14.7711 30.2112 14.635 30.2112 14.493ZM37.7043 14.493C37.7043 14.3511 37.7607 14.2149 37.861 14.1146C37.9614 14.0142 38.0975 13.9578 38.2395 13.9578H39.3099C39.4519 13.9578 39.588 14.0142 39.6884 14.1146C39.7887 14.2149 39.8451 14.3511 39.8451 14.493C39.8451 14.635 39.7887 14.7711 39.6884 14.8715C39.588 14.9718 39.4519 15.0282 39.3099 15.0282H38.2395C38.0975 15.0282 37.9614 14.9718 37.861 14.8715C37.7607 14.7711 37.7043 14.635 37.7043 14.493Z" fill="black"/>
<line x1="20.4999" y1="24.9999" x2="20.5" y2="-3.26679e-10" stroke="black"/>
<line x1="50.4999" y1="24.9999" x2="50.4999" y2="-3.26679e-10" stroke="black"/>
</svg>
