<svg width="43" height="21" viewBox="0 0 43 21" fill="none" xmlns="http://www.w3.org/2000/svg">
<path d="M20.7 5.68145V5.709V5.7365V5.76395V5.79134V5.81869V5.84598V5.87322V5.9004V5.92754V5.95462V5.98166V6.00864V6.03557V6.06245V6.08928V6.11607V6.1428V6.16948V6.19611V6.22269V6.24923V6.27571V6.30215V6.32854V6.35487V6.38117V6.40741V6.4336V6.45975V6.48585V6.5119V6.53791V6.56386V6.58978V6.61564V6.64146V6.66723V6.69296V6.71864V6.74427V6.76986V6.79541V6.82091V6.84636V6.87177V6.89713V6.92245V6.94773V6.97296V6.99815V7.0233V7.0484V7.07346V7.09847V7.12345V7.14838V7.17327V7.19811V7.22291V7.24768V7.2724V7.29707V7.32171V7.34631V7.37086V7.39538V7.41985V7.44428V7.46868V7.49303V7.51734V7.54162V7.56585V7.59005V7.6142V7.63832V7.6624V7.68644V7.71044V7.7344V7.75833V7.78221V7.80606V7.82988V7.85365V7.87739V7.90109V7.92475V7.94838V7.97197V7.99553V8.01905V8.04253V8.06598V8.0894V8.11277V8.13612V8.15943V8.1827V8.20594V8.22914V8.25231V8.27545V8.29856V8.32163V8.34466V8.36767V8.39064V8.41357V8.43648V8.45935V8.48219V8.505V8.52778V8.55052V8.57324V8.59592V8.61857V8.64119V8.66378V8.68634V8.70887V8.73137V8.75384V8.77628V8.79869V8.82107V8.84342V8.86575V8.88804V8.9103V8.93254V8.95475V8.97693V8.99908V9.02121V9.0433V9.06537V9.08742V9.10943V9.13142V9.15338V9.17532V9.19723V9.21911V9.24097V9.2628V9.28461V9.30639V9.32815V9.34988V9.37159V9.39327V9.41493V9.43656V9.45817V9.47976V9.50132V9.52286V9.54437V9.56587V9.58734V9.60879V9.63021V9.65161V9.67299V9.69435V9.71569V9.73701V9.7583V9.77957V9.80082V9.82205V9.84327V9.86446V9.88563V9.90678V9.92791V9.94902V9.97011V9.99118V10.0122V10.0333V10.0543V10.0753V10.0963V10.1172V10.1382V10.1591V10.18V10.2009V10.2217V10.2426V10.2634V10.2843V10.3051V10.3259V10.3466V10.3674V10.3881V10.4088V10.4296V10.4503V10.4709V10.4916V10.5122V10.5329V10.5535V10.5741V10.5947V10.6153V10.6358V10.6564V10.6769V10.6975V10.718V10.7385V10.759V10.7795V10.7999V10.8204V10.8408V10.8612V10.8817V10.9021V10.9225V10.9429V10.9632V10.9836V11.0039V11.0243V11.0446V11.065V11.0853V11.1056V11.1259V11.1462V11.1664V11.1867V11.207V11.2272V11.2475V11.2677V11.288V11.3082V11.3284V11.3486V11.3688V11.389V11.4092V11.4294V11.4496V11.4697V11.4899V11.5101V11.5302V11.5504V11.5705V11.5907V11.6108V11.6309V11.6511V11.6712V11.6913V11.7114V11.7316V11.7517V11.7718V11.7919V11.812V11.8321V11.8522V11.8723V11.8924V11.9125V11.9325V11.9526V11.9727V11.9928V12.0129V12.033V12.0531V12.0732V12.0932V12.1133V12.1334V12.1535V12.1736V12.1937V12.2138V12.2338V12.2539V12.274V12.2941V12.3142V12.3343V12.3544V12.3745V12.3946V12.4147V12.4349V12.455V12.4751V12.4952V12.5153V12.5355V12.5556V12.5757V12.5959V12.616V12.6362V12.6563V12.6765V12.6967V12.7169V12.737V12.7572V12.7774V12.7976V12.8178V12.838V12.8583V12.8785V12.8987V12.919V12.9392V12.9595V12.9797V13V13.0203V13.0406V13.0609V13.0812V13.1015V13.1219V13.1422V13.1625V13.1829V13.2033V13.2237V13.244V13.2644V13.2849V13.3053V13.3257V13.3462V13.3666V13.3871V13.4076V13.4281V13.4486V13.4691V13.4896V13.5102V13.5307V13.5513V13.5719V13.5925V13.6131V13.6337V13.6544V13.675V13.6957V13.7164V13.7371V13.7578V13.7785V13.7993V13.82V13.8408V13.8616V13.8824V13.9032V13.9241V13.9449V13.9658V13.9867V14.0076V14.0286V14.0495V14.0705V14.0915V14.1125V14.1335V14.1545V14.1756V14.1967V14.2178V14.2389V14.26V14.2812V14.3024V14.3236V14.3448V14.366V14.3873V14.4086V14.4299V14.4512V14.4725V14.4939V14.5153V14.5367V14.5581V14.5796V14.6011V14.6226V14.6441V14.6656V14.6872V14.7088V14.7304V14.7521V14.7737V14.7954V14.8171V14.8389V14.8607V14.8824V14.9043V14.9261V14.948V14.9699V14.9918V15.0137V15.0357V15.0577V15.0797V15.1018V15.1239V15.146V15.1681V15.1903V15.2125V15.2347V15.2569V15.2792V15.3015V15.3238V15.3462V15.3686V15.391V15.4135V15.4359V15.4585V15.481V15.5036V15.5262V15.5488V15.5715V15.5942V15.6169V15.6396V15.6624V15.6853V15.7081V15.731V15.7539V15.7769V15.7998V15.8229V15.8459V15.869V15.8921V15.9153V15.9384V15.9617V15.9849V16.0082V16.0315V16.0549V16.0783V16.1017V16.1252V16.1487V16.1722V16.1958V16.2194V16.243V16.2667V16.2904V16.3142V16.3379V16.3618V16.3856V16.4095V16.4335V16.4575V16.4815V16.5055V16.5296V16.5538V16.5779V16.6021V16.6264V16.6507V16.675V16.6994V16.7238V16.7482V16.7727V16.7972V16.8218V16.8464V16.8711V16.8958V16.9205V16.9453V16.9701V16.995V17.0199V17.0448C20.7 18.2688 20.3857 19.1134 19.8754 19.6762C19.3645 20.2396 18.6215 20.5599 17.6859 20.6631C15.7991 20.8712 13.235 20.1834 10.6231 19.0079C8.02188 17.8373 5.42041 16.2044 3.47367 14.5769C2.49997 13.7628 1.69798 12.9566 1.14216 12.2171C0.578998 11.4677 0.3 10.828 0.3 10.3395C0.3 9.26337 0.839063 8.0971 1.87405 6.93812C2.90659 5.78189 4.4125 4.65682 6.29028 3.67029C9.97967 1.73201 15.0661 0.348843 20.7 0.301267V0.301725V0.306316V0.310948V0.31562V0.320333V0.325087V0.329881V0.334717V0.339594V0.344512V0.349472V0.354473V0.359515V0.3646V0.369726V0.374895V0.380105V0.385358V0.390654V0.395991V0.401372V0.406795V0.412261V0.417771V0.423323V0.428918V0.434557V0.44024V0.445966V0.451736V0.457549V0.463407V0.469309V0.475255V0.481246V0.487281V0.49336V0.499485V0.505654V0.511868V0.518127V0.524432V0.530782V0.537177V0.543618V0.550105V0.556638V0.563216V0.569841V0.576512V0.583229V0.589993V0.596803V0.60366V0.610564V0.617514V0.624512V0.631557V0.63865V0.64579V0.652977V0.660212V0.667495V0.674826V0.682205V0.689632V0.697108V0.704632V0.712204V0.719825V0.727495V0.735214V0.742982V0.7508V0.758666V0.766582V0.774547V0.782562V0.790627V0.798742V0.806907V0.815122V0.823388V0.831703V0.84007V0.848487V0.856954V0.865473V0.874043V0.882663V0.891335V0.900059V0.908834V0.917661V0.926539V0.935469V0.944452V0.953486V0.962573V0.971712V0.980904V0.990148V0.999445V1.00879V1.0182V1.02765V1.03716V1.04673V1.05634V1.06601V1.07573V1.08551V1.09534V1.10523V1.11517V1.12516V1.13521V1.14531V1.15547V1.16568V1.17595V1.18627V1.19665V1.20709V1.21757V1.22812V1.23872V1.24938V1.26009V1.27086V1.28168V1.29256V1.3035V1.31449V1.32554V1.33665V1.34781V1.35903V1.37031V1.38165V1.39304V1.40449V1.416V1.42756V1.43919V1.45087V1.46261V1.47441V1.48627V1.49818V1.51015V1.52219V1.53428V1.54643V1.55864V1.57091V1.58324V1.59563V1.60807V1.62058V1.63315V1.64578V1.65847V1.67121V1.68402V1.69689V1.70982V1.72281V1.73586V1.74897V1.76215V1.77538V1.78868V1.80204V1.81546V1.82894V1.84248V1.85608V1.86975V1.88348V1.89727V1.91113V1.92504V1.93902V1.95306V1.96717V1.98134V1.99557V2.00986V2.02422V2.03864V2.05313V2.06768V2.08229V2.09697V2.11171V2.12652V2.14139V2.15632V2.17132V2.18639V2.20152V2.21671V2.23197V2.2473V2.26269V2.27815V2.29367V2.30926V2.32491V2.34063V2.35642V2.37227V2.38819V2.40417V2.42022V2.43634V2.45253V2.46878V2.4851V2.50149V2.51794V2.53447V2.55106V2.56771V2.58444V2.60123V2.61809V2.63503V2.65202V2.66909V2.68623V2.70343V2.7207V2.73805V2.75546V2.77294V2.79049V2.80811V2.8258V2.84356V2.86139V2.87929V2.89725V2.91529V2.9334V2.95158V2.96983V2.98816V3.00655V3.02501V3.04355V3.06215V3.08083V3.09958V3.1184V3.13729V3.15626V3.17529V3.1944V3.21358V3.23283V3.25216V3.27155V3.29103V3.31057V3.33018V3.34987V3.36964V3.38947V3.40938V3.42936V3.44942V3.46955V3.48976V3.51003V3.53039V3.55081V3.57132V3.59189V3.61254V3.63327V3.65407V3.67494V3.69589V3.71692V3.73802V3.7592V3.78045V3.80178V3.82318V3.84466V3.86622V3.88785V3.90956V3.93135V3.95321V3.97515V3.99717V4.01926V4.04143V4.06368V4.086V4.10841V4.13089V4.15344V4.17608V4.19879V4.22159V4.24446V4.26741V4.29043V4.31354V4.33672V4.35999V4.38333V4.40675V4.43025V4.45383V4.47749V4.50123V4.52505V4.54895V4.57293V4.59699V4.62113V4.64535V4.66965V4.69403V4.71849V4.74303V4.76766V4.79236V4.81715V4.84201V4.86696V4.89199V4.9171V4.9423V4.96757V4.99293V5.01837V5.04389V5.0695V5.09518V5.12095V5.14681V5.17274V5.19876V5.22486V5.25105V5.27732V5.30367V5.33011V5.35663V5.38323V5.40992V5.43669V5.46355V5.49049V5.51751V5.54462V5.57182V5.5991V5.62646V5.65391V5.68145Z" fill="#F0F0F0" stroke="black" stroke-width="0.6"/>
<path d="M22.25 5.68145V5.709V5.7365V5.76395V5.79134V5.81869V5.84598V5.87322V5.9004V5.92754V5.95462V5.98166V6.00864V6.03557V6.06245V6.08928V6.11607V6.1428V6.16948V6.19611V6.22269V6.24923V6.27571V6.30215V6.32854V6.35487V6.38117V6.40741V6.4336V6.45975V6.48585V6.5119V6.53791V6.56386V6.58978V6.61564V6.64146V6.66723V6.69296V6.71864V6.74427V6.76986V6.79541V6.82091V6.84636V6.87177V6.89713V6.92245V6.94773V6.97296V6.99815V7.0233V7.0484V7.07346V7.09847V7.12345V7.14838V7.17327V7.19811V7.22291V7.24768V7.2724V7.29707V7.32171V7.34631V7.37086V7.39538V7.41985V7.44428V7.46868V7.49303V7.51734V7.54162V7.56585V7.59005V7.6142V7.63832V7.6624V7.68644V7.71044V7.7344V7.75833V7.78221V7.80606V7.82988V7.85365V7.87739V7.90109V7.92475V7.94838V7.97197V7.99553V8.01905V8.04253V8.06598V8.0894V8.11277V8.13612V8.15943V8.1827V8.20594V8.22914V8.25231V8.27545V8.29856V8.32163V8.34466V8.36767V8.39064V8.41357V8.43648V8.45935V8.48219V8.505V8.52778V8.55052V8.57324V8.59592V8.61857V8.64119V8.66378V8.68634V8.70887V8.73137V8.75384V8.77628V8.79869V8.82107V8.84342V8.86575V8.88804V8.9103V8.93254V8.95475V8.97693V8.99908V9.02121V9.0433V9.06537V9.08742V9.10943V9.13142V9.15338V9.17532V9.19723V9.21911V9.24097V9.2628V9.28461V9.30639V9.32815V9.34988V9.37159V9.39327V9.41493V9.43656V9.45817V9.47976V9.50132V9.52286V9.54437V9.56587V9.58734V9.60879V9.63021V9.65161V9.67299V9.69435V9.71569V9.73701V9.7583V9.77957V9.80082V9.82205V9.84327V9.86446V9.88563V9.90678V9.92791V9.94902V9.97011V9.99118V10.0122V10.0333V10.0543V10.0753V10.0963V10.1172V10.1382V10.1591V10.18V10.2009V10.2217V10.2426V10.2634V10.2843V10.3051V10.3259V10.3466V10.3674V10.3881V10.4088V10.4296V10.4503V10.4709V10.4916V10.5122V10.5329V10.5535V10.5741V10.5947V10.6153V10.6358V10.6564V10.6769V10.6975V10.718V10.7385V10.759V10.7795V10.7999V10.8204V10.8408V10.8612V10.8817V10.9021V10.9225V10.9429V10.9632V10.9836V11.0039V11.0243V11.0446V11.065V11.0853V11.1056V11.1259V11.1462V11.1664V11.1867V11.207V11.2272V11.2475V11.2677V11.288V11.3082V11.3284V11.3486V11.3688V11.389V11.4092V11.4294V11.4496V11.4697V11.4899V11.5101V11.5302V11.5504V11.5705V11.5907V11.6108V11.6309V11.6511V11.6712V11.6913V11.7114V11.7316V11.7517V11.7718V11.7919V11.812V11.8321V11.8522V11.8723V11.8924V11.9125V11.9325V11.9526V11.9727V11.9928V12.0129V12.033V12.0531V12.0732V12.0932V12.1133V12.1334V12.1535V12.1736V12.1937V12.2138V12.2338V12.2539V12.274V12.2941V12.3142V12.3343V12.3544V12.3745V12.3946V12.4147V12.4349V12.455V12.4751V12.4952V12.5153V12.5355V12.5556V12.5757V12.5959V12.616V12.6362V12.6563V12.6765V12.6967V12.7169V12.737V12.7572V12.7774V12.7976V12.8178V12.838V12.8583V12.8785V12.8987V12.919V12.9392V12.9595V12.9797V13V13.0203V13.0406V13.0609V13.0812V13.1015V13.1219V13.1422V13.1625V13.1829V13.2033V13.2237V13.244V13.2644V13.2849V13.3053V13.3257V13.3462V13.3666V13.3871V13.4076V13.4281V13.4486V13.4691V13.4896V13.5102V13.5307V13.5513V13.5719V13.5925V13.6131V13.6337V13.6544V13.675V13.6957V13.7164V13.7371V13.7578V13.7785V13.7993V13.82V13.8408V13.8616V13.8824V13.9032V13.9241V13.9449V13.9658V13.9867V14.0076V14.0286V14.0495V14.0705V14.0915V14.1125V14.1335V14.1545V14.1756V14.1967V14.2178V14.2389V14.26V14.2812V14.3024V14.3236V14.3448V14.366V14.3873V14.4086V14.4299V14.4512V14.4725V14.4939V14.5153V14.5367V14.5581V14.5796V14.6011V14.6226V14.6441V14.6656V14.6872V14.7088V14.7304V14.7521V14.7737V14.7954V14.8171V14.8389V14.8607V14.8824V14.9043V14.9261V14.948V14.9699V14.9918V15.0137V15.0357V15.0577V15.0797V15.1018V15.1239V15.146V15.1681V15.1903V15.2125V15.2347V15.2569V15.2792V15.3015V15.3238V15.3462V15.3686V15.391V15.4135V15.4359V15.4585V15.481V15.5036V15.5262V15.5488V15.5715V15.5942V15.6169V15.6396V15.6624V15.6853V15.7081V15.731V15.7539V15.7769V15.7998V15.8229V15.8459V15.869V15.8921V15.9153V15.9384V15.9617V15.9849V16.0082V16.0315V16.0549V16.0783V16.1017V16.1252V16.1487V16.1722V16.1958V16.2194V16.243V16.2667V16.2904V16.3142V16.3379V16.3618V16.3856V16.4095V16.4335V16.4575V16.4815V16.5055V16.5296V16.5538V16.5779V16.6021V16.6264V16.6507V16.675V16.6994V16.7238V16.7482V16.7727V16.7972V16.8218V16.8464V16.8711V16.8958V16.9205V16.9453V16.9701V16.995V17.0199V17.0448C22.25 18.2772 22.5666 19.1353 23.0875 19.7098C23.609 20.2849 24.3649 20.6087 25.3087 20.7128C27.2091 20.9224 29.7834 20.23 32.3974 19.0535C35.0026 17.8811 37.608 16.2459 39.5584 14.6152C40.5339 13.7997 41.3389 12.9907 41.8978 12.2471C42.4628 11.4953 42.75 10.8447 42.75 10.3395C42.75 9.24662 42.2028 8.06896 41.1632 6.90482C40.1257 5.74296 38.6145 4.61452 36.733 3.62603C33.0251 1.67805 27.9115 0.290664 22.25 0.250878V0.253854V0.258009V0.262203V0.266436V0.270708V0.275019V0.279371V0.283762V0.288192V0.292663V0.297174V0.301725V0.306316V0.310948V0.31562V0.320333V0.325087V0.329881V0.334717V0.339594V0.344512V0.349472V0.354473V0.359515V0.3646V0.369726V0.374895V0.380105V0.385358V0.390654V0.395991V0.401372V0.406795V0.412261V0.417771V0.423323V0.428918V0.434557V0.44024V0.445966V0.451736V0.457549V0.463407V0.469309V0.475255V0.481246V0.487281V0.49336V0.499485V0.505654V0.511868V0.518127V0.524432V0.530782V0.537177V0.543618V0.550105V0.556638V0.563216V0.569841V0.576512V0.583229V0.589993V0.596803V0.60366V0.610564V0.617514V0.624512V0.631557V0.63865V0.64579V0.652977V0.660212V0.667495V0.674826V0.682205V0.689632V0.697108V0.704632V0.712204V0.719825V0.727495V0.735214V0.742982V0.7508V0.758666V0.766582V0.774547V0.782562V0.790627V0.798742V0.806907V0.815122V0.823388V0.831703V0.84007V0.848487V0.856954V0.865473V0.874043V0.882663V0.891335V0.900059V0.908834V0.917661V0.926539V0.935469V0.944452V0.953486V0.962573V0.971712V0.980904V0.990148V0.999445V1.00879V1.0182V1.02765V1.03716V1.04673V1.05634V1.06601V1.07573V1.08551V1.09534V1.10523V1.11517V1.12516V1.13521V1.14531V1.15547V1.16568V1.17595V1.18627V1.19665V1.20709V1.21757V1.22812V1.23872V1.24938V1.26009V1.27086V1.28168V1.29256V1.3035V1.31449V1.32554V1.33665V1.34781V1.35903V1.37031V1.38165V1.39304V1.40449V1.416V1.42756V1.43919V1.45087V1.46261V1.47441V1.48627V1.49818V1.51015V1.52219V1.53428V1.54643V1.55864V1.57091V1.58324V1.59563V1.60807V1.62058V1.63315V1.64578V1.65847V1.67121V1.68402V1.69689V1.70982V1.72281V1.73586V1.74897V1.76215V1.77538V1.78868V1.80204V1.81546V1.82894V1.84248V1.85608V1.86975V1.88348V1.89727V1.91113V1.92504V1.93902V1.95306V1.96717V1.98134V1.99557V2.00986V2.02422V2.03864V2.05313V2.06768V2.08229V2.09697V2.11171V2.12652V2.14139V2.15632V2.17132V2.18639V2.20152V2.21671V2.23197V2.2473V2.26269V2.27815V2.29367V2.30926V2.32491V2.34063V2.35642V2.37227V2.38819V2.40417V2.42022V2.43634V2.45253V2.46878V2.4851V2.50149V2.51794V2.53447V2.55106V2.56771V2.58444V2.60123V2.61809V2.63503V2.65202V2.66909V2.68623V2.70343V2.7207V2.73805V2.75546V2.77294V2.79049V2.80811V2.8258V2.84356V2.86139V2.87929V2.89725V2.91529V2.9334V2.95158V2.96983V2.98816V3.00655V3.02501V3.04355V3.06215V3.08083V3.09958V3.1184V3.13729V3.15626V3.17529V3.1944V3.21358V3.23283V3.25216V3.27155V3.29103V3.31057V3.33018V3.34987V3.36964V3.38947V3.40938V3.42936V3.44942V3.46955V3.48976V3.51003V3.53039V3.55081V3.57132V3.59189V3.61254V3.63327V3.65407V3.67494V3.69589V3.71692V3.73802V3.7592V3.78045V3.80178V3.82318V3.84466V3.86622V3.88785V3.90956V3.93135V3.95321V3.97515V3.99717V4.01926V4.04143V4.06368V4.086V4.10841V4.13089V4.15344V4.17608V4.19879V4.22159V4.24446V4.26741V4.29043V4.31354V4.33672V4.35999V4.38333V4.40675V4.43025V4.45383V4.47749V4.50123V4.52505V4.54895V4.57293V4.59699V4.62113V4.64535V4.66965V4.69403V4.71849V4.74303V4.76766V4.79236V4.81715V4.84201V4.86696V4.89199V4.9171V4.9423V4.96757V4.99293V5.01837V5.04389V5.0695V5.09518V5.12095V5.14681V5.17274V5.19876V5.22486V5.25105V5.27732V5.30367V5.33011V5.35663V5.38323V5.40992V5.43669V5.46355V5.49049V5.51751V5.54462V5.57182V5.5991V5.62646V5.65391V5.68145Z" fill="#F0F0F0" stroke="black" stroke-width="0.5"/>
<path d="M18.3871 16.3623H16.6395C16.2126 16.3623 15.8524 15.8333 15.8524 15.1619V13.0054C15.8524 12.8426 15.7723 12.7206 15.6656 12.7206H14.5984C14.4917 12.7206 14.4116 12.8426 14.4116 13.0054V15.1619C14.4116 15.8333 14.0648 16.3623 13.6245 16.3623H11.8769C11.45 16.3623 11.0898 15.8333 11.0898 15.1619V8.30572C11.0898 7.95985 11.1965 7.65468 11.3833 7.47157L14.7851 4.19604C14.9986 3.99259 15.2654 3.99259 15.4655 4.19604L18.8674 7.49192C19.0541 7.67502 19.1608 7.9802 19.1608 8.32606V15.1619C19.1742 15.813 18.814 16.3623 18.3871 16.3623ZM14.5984 11.805H15.6656C16.1059 11.805 16.4527 12.334 16.4527 13.0054V15.1619C16.4527 15.3247 16.5328 15.4468 16.6395 15.4468H18.3871C18.4938 15.4468 18.5739 15.3247 18.5739 15.1619V8.30572C18.5739 8.28537 18.5605 8.26502 18.5605 8.24468L15.1453 4.96915C15.132 4.94881 15.1187 4.94881 15.1053 4.96915L11.7168 8.24468C11.7035 8.26502 11.6901 8.28537 11.6901 8.30572V15.1619C11.6901 15.3247 11.7702 15.4468 11.8769 15.4468H13.6245C13.7312 15.4468 13.8113 15.3247 13.8113 15.1619V13.0054C13.8113 12.3544 14.1581 11.805 14.5984 11.805Z" fill="black"/>
<path d="M31.8035 6.29081H30.2753V5.14633C30.2753 4.54287 29.9478 4.04346 29.5521 4.04346H27.4918C27.0961 4.04346 26.7686 4.54287 26.7686 5.14633V6.29081H25.254C24.7901 6.29081 24.3944 6.87346 24.3944 7.60177V15.0513C24.3944 15.7588 24.7765 16.3623 25.254 16.3623H31.8035C32.2674 16.3623 32.6631 15.7796 32.6631 15.0513V7.60177C32.6495 6.87346 32.2674 6.29081 31.8035 6.29081ZM27.3963 5.14633C27.3963 5.06309 27.4372 5.00066 27.4918 5.00066H29.5521C29.6067 5.00066 29.6613 5.06309 29.6613 5.16714V6.31162H27.3963V5.14633ZM32.0355 15.0513C32.0355 15.2594 31.9263 15.4259 31.7899 15.4259H25.254C25.1176 15.4259 25.0084 15.2594 25.0084 15.0513V7.60177C25.0084 7.39368 25.1176 7.22721 25.254 7.22721H31.8035C31.94 7.22721 32.0491 7.39368 32.0491 7.60177V15.0513H32.0355Z" fill="black"/>
</svg>
