<svg width="30" height="30" viewBox="0 0 30 30" fill="none" xmlns="http://www.w3.org/2000/svg">
<g filter="url(#filter0_d_0_432)">
<g clip-path="url(#clip0_0_432)">
<g clip-path="url(#clip1_0_432)">
<rect width="30" height="30" rx="3" fill="#F6F7F8"/>
<path d="M19.875 5H11.121C10.897 5 9.722 5.065 8.618 6.351C7.531 7.616 7.5 8.862 7.5 9V20C7.5 20.5304 7.71071 21.0391 8.08579 21.4142C8.46086 21.7893 8.96957 22 9.5 22H10.5L8.5 25H10.853L11.52 24H19.52L20.197 25H22.5L20.5 22H21.5C22.0304 22 22.5391 21.7893 22.9142 21.4142C23.2893 21.0391 23.5 20.5304 23.5 20V9C23.501 8.812 23.468 7.566 22.371 6.335C21.215 5.037 20.009 5 19.875 5ZM13.5 7H17.5V9H13.5V7ZM11 20C10.602 19.9999 10.2204 19.8417 9.93913 19.5602C9.65783 19.2787 9.49987 18.897 9.5 18.499C9.50013 18.101 9.65835 17.7194 9.93984 17.4381C10.2213 17.1568 10.603 16.9989 11.001 16.999C11.399 16.9991 11.7806 17.1573 12.0619 17.4388C12.3432 17.7203 12.5011 18.102 12.501 18.5C12.5009 18.898 12.3427 19.2796 12.0612 19.5609C11.7797 19.8422 11.398 20.0001 11 20ZM20 20C19.602 19.9999 19.2204 19.8417 18.9391 19.5602C18.6578 19.2787 18.4999 18.897 18.5 18.499C18.5001 18.101 18.6583 17.7194 18.9398 17.4381C19.2213 17.1568 19.603 16.9989 20.001 16.999C20.399 16.9991 20.7806 17.1573 21.0619 17.4388C21.3432 17.7203 21.5011 18.102 21.501 18.5C21.5009 18.898 21.3427 19.2796 21.0612 19.5609C20.7797 19.8422 20.398 20.0001 20 20ZM21.5 15H9.5V11H21.5V15Z" fill="black"/>
</g>
</g>
</g>
<defs>
<filter id="filter0_d_0_432" x="-4" y="-2" width="38" height="38" filterUnits="userSpaceOnUse" color-interpolation-filters="sRGB">
<feFlood flood-opacity="0" result="BackgroundImageFix"/>
<feColorMatrix in="SourceAlpha" type="matrix" values="0 0 0 0 0 0 0 0 0 0 0 0 0 0 0 0 0 0 127 0" result="hardAlpha"/>
<feOffset dy="2"/>
<feGaussianBlur stdDeviation="2"/>
<feComposite in2="hardAlpha" operator="out"/>
<feColorMatrix type="matrix" values="0 0 0 0 0 0 0 0 0 0 0 0 0 0 0 0 0 0 0.25 0"/>
<feBlend mode="normal" in2="BackgroundImageFix" result="effect1_dropShadow_0_432"/>
<feBlend mode="normal" in="SourceGraphic" in2="effect1_dropShadow_0_432" result="shape"/>
</filter>
<clipPath id="clip0_0_432">
<rect width="30" height="30" rx="3" fill="white"/>
</clipPath>
<clipPath id="clip1_0_432">
<rect width="30" height="30" fill="white"/>
</clipPath>
</defs>
</svg>
