<svg width="186" height="186" viewBox="0 0 186 186" fill="none" xmlns="http://www.w3.org/2000/svg">
<path opacity="0.1" d="M93 185.999C144.362 185.999 186 144.361 186 92.9993C186 41.6372 144.362 0 93 0C41.6375 0 0 41.6372 0 92.9993C0 144.361 41.6375 185.999 93 185.999Z" fill="#FFBF7F"/>
<path d="M52.7636 65.1035C53.0999 64.7266 53.5071 64.4195 53.962 64.1999C54.4169 63.9803 54.9106 63.8524 55.4149 63.8236C55.9192 63.7948 56.4243 63.8656 56.9012 64.032C57.3782 64.1983 57.8177 64.457 58.1947 64.7932L70.4705 75.742L65.3496 81.4835L53.0738 70.5347C52.6968 70.1985 52.3897 69.7913 52.1701 69.3363C51.9505 68.8814 51.8226 68.3877 51.7938 67.8833C51.765 67.379 51.8358 66.8739 52.0022 66.397C52.1686 65.92 52.4274 65.4805 52.7636 65.1035Z" fill="white"/>
<path d="M65.3794 82.0191L52.8211 70.8177C52.4068 70.4483 52.0694 70.0009 51.8281 69.5011C51.5868 69.0012 51.4463 68.4588 51.4146 67.9047C51.383 67.3505 51.4607 66.7956 51.6435 66.2715C51.8263 65.7475 52.1106 65.2646 52.48 64.8503C52.8494 64.4361 53.2968 64.0987 53.7967 63.8574C54.2965 63.6161 54.839 63.4756 55.3931 63.4439C55.9472 63.4122 56.5022 63.49 57.0262 63.6728C57.5503 63.8556 58.0332 64.1398 58.4474 64.5093L71.0072 75.7109L65.3794 82.0191ZM55.6377 64.1965C55.5704 64.1965 55.503 64.1984 55.4354 64.2022C54.7508 64.2415 54.0933 64.4829 53.5459 64.8958C52.9986 65.3088 52.5859 65.8748 52.3602 66.5222C52.1345 67.1697 52.1059 67.8695 52.2779 68.5333C52.4499 69.197 52.8149 69.7949 53.3267 70.2512L65.3191 80.9472L69.9342 75.773L57.9418 65.0769C57.3092 64.5091 56.4888 64.1955 55.6388 64.1965H55.6377Z" fill="#292A2E"/>
<path d="M120.649 81.4831L115.528 75.7418L127.804 64.793C128.565 64.114 129.565 63.7652 130.584 63.8234C131.602 63.8816 132.556 64.342 133.235 65.1033C133.914 65.8647 134.263 66.8646 134.204 67.8831C134.146 68.9016 133.686 69.8552 132.924 70.5343L120.649 81.4831Z" fill="white"/>
<path d="M120.619 82.0191L114.993 75.7109L127.552 64.5093C128.389 63.7632 129.487 63.38 130.607 63.4439C131.726 63.5079 132.774 64.0138 133.52 64.8503C134.266 65.6869 134.649 66.7856 134.585 67.9047C134.521 69.0238 134.015 70.0716 133.179 70.8177L120.619 82.0191ZM116.065 75.7724L120.681 80.9466L132.673 70.2512C133.013 69.9482 133.289 69.5812 133.487 69.1712C133.685 68.7612 133.8 68.3163 133.826 67.8618C133.852 67.4073 133.789 66.9521 133.639 66.5222C133.489 66.0924 133.256 65.6963 132.953 65.3565C132.65 65.0168 132.283 64.7401 131.873 64.5421C131.463 64.3442 131.018 64.229 130.563 64.203C130.109 64.1771 129.653 64.2409 129.224 64.3908C128.794 64.5408 128.398 64.7739 128.058 65.077L116.065 75.7724Z" fill="#292A2E"/>
<path d="M125.761 88.6049C128.499 100.731 132.248 108.532 130.381 113.013C129.4 115.368 127.386 117.342 124.052 117.342C118.855 117.342 118.855 111.214 113.658 111.214C108.461 111.214 108.462 117.342 103.265 117.342C98.0685 117.342 98.0691 111.214 92.873 111.214C87.6769 111.214 87.6766 117.342 82.4803 117.342C77.2839 117.342 77.2842 111.214 72.0881 111.214C66.892 111.214 66.8926 117.342 61.6971 117.342C58.6123 117.342 56.8684 115.526 55.7625 113.426C53.1049 108.382 59.2989 97.2832 61.6971 87.4956C64.3468 76.6804 64.1236 63.2091 64.4791 55.0843C65.1649 39.4161 77.1919 26.6873 92.8764 26.6873C108.561 26.6873 120.131 39.4427 121.274 55.0843C121.89 63.5167 123.255 77.5047 125.761 88.6049Z" fill="white"/>
<path d="M124.052 117.726C121.276 117.726 119.897 116.099 118.563 114.525C117.286 113.018 116.079 111.596 113.658 111.596C111.237 111.596 110.032 113.018 108.754 114.525C107.42 116.098 106.041 117.726 103.265 117.726C100.49 117.726 99.1107 116.099 97.7771 114.525C96.4998 113.018 95.2933 111.596 92.873 111.596C90.4527 111.596 89.2471 113.018 87.969 114.525C86.6351 116.098 85.2561 117.726 82.4803 117.726C79.7045 117.726 78.325 116.099 76.9936 114.526C75.7163 113.02 74.5101 111.597 72.0896 111.597C69.669 111.597 68.4637 113.02 67.1861 114.526C65.8527 116.099 64.4738 117.727 61.6985 117.727C58.938 117.727 56.886 116.38 55.4249 113.606C53.572 110.09 55.7974 103.872 58.1539 97.29C59.3241 94.0205 60.5334 90.6399 61.3266 87.4069C63.4458 78.7573 63.714 68.5938 63.9293 60.4268C63.98 58.4952 64.0282 56.6703 64.0993 55.0699C64.4392 47.3142 67.5229 40.0959 72.7836 34.744C75.3982 32.0646 78.5241 29.9372 81.976 28.488C85.4278 27.0387 89.1355 26.297 92.8793 26.3068C96.5988 26.298 100.282 27.042 103.706 28.494C107.131 29.946 110.226 32.076 112.806 34.7557C117.945 40.0469 121.089 47.2578 121.659 55.0588C122.208 62.5808 123.52 76.9299 126.138 88.523C127.026 92.4551 128.019 95.9283 128.896 98.9927C130.727 105.392 132.049 110.015 130.737 113.163C130.025 114.866 128.212 117.726 124.052 117.726ZM113.658 110.831C116.434 110.831 117.814 112.457 119.147 114.032C120.425 115.538 121.631 116.961 124.052 116.961C127.767 116.961 129.391 114.396 130.028 112.866C131.236 109.966 129.943 105.451 128.156 99.2021C127.278 96.1277 126.28 92.6438 125.388 88.6907C122.759 77.0483 121.443 62.6564 120.892 55.1135C119.724 39.1268 107.68 27.0714 92.8761 27.0714C77.8553 27.0714 65.5496 39.3837 64.8604 55.1022C64.7908 56.6958 64.7426 58.5173 64.6905 60.4455C64.4857 68.2162 64.2049 78.8581 62.0662 87.5879C61.2649 90.8592 60.0476 94.2593 58.8709 97.5472C56.573 103.966 54.4026 110.03 56.0985 113.249C57.4146 115.746 59.2448 116.96 61.6943 116.96C64.1146 116.96 65.3202 115.537 66.5977 114.031C67.9311 112.457 69.3101 110.83 72.0853 110.83C74.8605 110.83 76.2401 112.456 77.5734 114.031C78.8507 115.537 80.0569 116.96 82.4775 116.96C84.898 116.96 86.1048 115.537 87.3818 114.031C88.7157 112.457 90.0947 110.83 92.8702 110.83C95.6457 110.83 97.025 112.457 98.3583 114.031C99.6356 115.537 100.841 116.96 103.262 116.96C105.683 116.96 106.89 115.537 108.167 114.031C109.503 112.459 110.882 110.831 113.658 110.831Z" fill="#292A2E"/>
<path d="M82.2055 56.9165C83.944 56.9165 85.3533 55.5072 85.3533 53.7688C85.3533 52.0303 83.944 50.6211 82.2055 50.6211C80.4671 50.6211 79.0578 52.0303 79.0578 53.7688C79.0578 55.5072 80.4671 56.9165 82.2055 56.9165Z" fill="#292A2E"/>
<path d="M103.79 56.9165C105.529 56.9165 106.938 55.5072 106.938 53.7688C106.938 52.0303 105.529 50.6211 103.79 50.6211C102.052 50.6211 100.642 52.0303 100.642 53.7688C100.642 55.5072 102.052 56.9165 103.79 56.9165Z" fill="#292A2E"/>
<path d="M98.6357 62.2644C98.8174 62.2639 98.9968 62.304 99.1611 62.3816C99.3253 62.4593 99.4702 62.5726 99.5852 62.7132C99.7001 62.8539 99.7823 63.0185 99.8257 63.1949C99.869 63.3713 99.8725 63.5552 99.8359 63.7331C99.1611 66.8891 96.3565 68.8728 92.9988 68.8728C89.6412 68.8728 86.8365 66.8899 86.1617 63.7331C86.1251 63.5552 86.1286 63.3713 86.172 63.1948C86.2154 63.0184 86.2976 62.8538 86.4126 62.7131C86.5275 62.5724 86.6725 62.4592 86.8367 62.3815C87.001 62.3039 87.1806 62.2639 87.3623 62.2644H98.6357Z" fill="white"/>
<path d="M92.9985 69.2558C89.3811 69.2558 86.4833 67.0687 85.787 63.813C85.7374 63.5813 85.7405 63.3413 85.796 63.1109C85.8515 62.8805 85.958 62.6654 86.1076 62.4817C86.2585 62.2942 86.4495 62.1431 86.6666 62.0394C86.8837 61.9357 87.1214 61.8821 87.362 61.8825H98.6362C98.8768 61.8822 99.1144 61.9358 99.3315 62.0395C99.5486 62.1432 99.7397 62.2943 99.8906 62.4817C100.04 62.6655 100.147 62.8805 100.202 63.1109C100.258 63.3413 100.261 63.5813 100.211 63.813C99.5138 67.0687 96.6151 69.2558 92.9985 69.2558ZM87.3614 62.6474C87.235 62.6472 87.1102 62.6755 86.9962 62.73C86.8821 62.7845 86.7818 62.8639 86.7025 62.9624C86.6248 63.0576 86.5694 63.1692 86.5406 63.2887C86.5117 63.4082 86.51 63.5327 86.5357 63.653C87.154 66.546 89.7511 68.4898 92.998 68.4898C96.2448 68.4898 98.8419 66.546 99.4606 63.653C99.4861 63.5327 99.4844 63.4082 99.4554 63.2886C99.4264 63.1691 99.371 63.0576 99.2931 62.9624C99.2139 62.8639 99.1136 62.7845 98.9997 62.73C98.8857 62.6755 98.7609 62.6472 98.6345 62.6474H87.3614Z" fill="#292A2E"/>
<path d="M166.99 149.35C149.999 171.627 123.178 186 93.0014 186C62.8243 186 36.004 171.627 19.0133 149.35C38.409 142.053 64.4135 137.592 93.0014 137.592C121.589 137.592 147.592 142.053 166.99 149.35Z" fill="#FFBF7F"/>
<path d="M174.795 48.707L127.066 48.5031C127.066 40.5318 131.556 38.9625 136.329 37.6679C141.102 36.3734 143.249 27.6118 151.543 27.1133C156.442 26.8187 159.011 28.0792 161.138 29.7024C161.141 29.7052 161.141 29.708 161.144 29.708C166.474 35.4428 171.06 41.8261 174.795 48.707Z" fill="white"/>
<path d="M38.6478 107.936L1.22178 108.098C0.582507 104.19 0.194571 100.245 0.0603637 96.2881C8.25829 95.1266 7.4198 88.6114 17.2097 89.2034C24.4728 89.6397 26.3594 97.3135 30.5377 98.4466C34.716 99.5797 38.6478 100.958 38.6478 107.936Z" fill="white"/>
</svg>
