<svg width="107" height="29" viewBox="0 0 107 29" fill="none" xmlns="http://www.w3.org/2000/svg">
<g clip-path="url(#clip0_0_338)">
<path d="M23.0112 28.1293H23.011L16.894 28.1284C16.3535 28.1276 15.8354 27.8869 15.4533 27.4591C15.0711 27.0313 14.8561 26.4513 14.8555 25.8463V18.9999H10.778V25.8463C10.7774 26.4513 10.5624 27.0313 10.1803 27.4591C9.79814 27.8869 9.28 28.1276 8.73953 28.1284L2.62404 28.1293C2.35629 28.1293 2.09115 28.0703 1.84377 27.9556C1.59639 27.841 1.37161 27.6729 1.18227 27.461C0.992923 27.2491 0.842727 26.9975 0.740255 26.7206C0.637783 26.4437 0.585042 26.1469 0.585043 25.8472V12.6595C0.585291 12.3416 0.644766 12.0272 0.759672 11.7365C0.874578 11.4457 1.04239 11.185 1.25239 10.9709L11.4452 0.596839C11.8197 0.212977 12.3089 3.85513e-05 12.8167 5.23411e-09C13.3244 -3.85408e-05 13.8137 0.212825 14.1882 0.596631L24.3828 10.971C24.5927 11.1851 24.7605 11.4458 24.8754 11.7366C24.9902 12.0273 25.0497 12.3417 25.05 12.6596V25.8472C25.05 26.1469 24.9973 26.4436 24.8948 26.7205C24.7923 26.9974 24.6422 27.249 24.4529 27.4609C24.2635 27.6728 24.0388 27.8409 23.7914 27.9556C23.5441 28.0703 23.279 28.1293 23.0112 28.1293ZM10.778 16.7178H14.8555C15.396 16.7185 15.9142 16.9591 16.2964 17.387C16.6786 17.8148 16.8936 18.3948 16.8943 18.9999V25.8477L23.0112 25.8472V12.6596L12.8168 2.28528L2.62379 12.6595V25.8472L8.73928 25.8463V18.9999C8.7399 18.3948 8.95489 17.8148 9.3371 17.387C9.7193 16.9591 10.2375 16.7185 10.778 16.7178Z" fill="white" fill-opacity="0.6"/>
</g>
<path d="M83.5905 0.937643V1.87529H81.0325C80.5699 1.87529 80.1949 2.29509 80.1949 2.81293V27.1916C80.1949 27.7094 80.5699 28.1293 81.0325 28.1293H106.162C106.625 28.1293 107 27.7094 107 27.1916V2.81293C107 2.29509 106.625 1.87529 106.162 1.87529H103.604V0.937643C103.604 0.419801 103.229 0 102.767 0H97.6938C96.1148 0 94.6355 0.759341 93.5974 2.04444C92.5593 0.759341 91.0801 0 89.5012 0H84.4281C83.9655 0 83.5905 0.419801 83.5905 0.937643ZM101.929 2.74572C101.928 2.76792 101.927 2.79033 101.927 2.81293C101.927 2.83553 101.928 2.85794 101.929 2.88014V22.3932H97.9871C96.6727 22.3932 95.4287 22.9014 94.4351 23.7871V3.89851C95.1493 2.63791 96.3765 1.87529 97.6938 1.87529H101.929V2.74572ZM103.604 3.75057H105.325V26.254H94.6479C95.4043 25.0178 96.6487 24.2684 97.9871 24.2684H102.767C103.229 24.2684 103.604 23.8486 103.604 23.3308V3.75057ZM89.2077 24.2684C90.5462 24.2684 91.7905 25.0178 92.5469 26.254H81.8702V3.75057H83.5905V23.3308C83.5905 23.8486 83.9655 24.2684 84.4281 24.2684H89.2077ZM85.2658 22.3932V2.88012C85.2672 2.85794 85.2679 2.83553 85.2679 2.81293C85.2679 2.79033 85.2672 2.76792 85.2658 2.74574V1.87529H89.5012C90.8184 1.87529 92.0457 2.63791 92.7598 3.89851V23.7871C91.7661 22.9014 90.5222 22.3932 89.2077 22.3932H85.2658Z" fill="white" fill-opacity="0.6"/>
<defs>
<clipPath id="clip0_0_338">
<rect width="24.4007" height="28.0554" fill="white" transform="translate(0.585043) scale(1.00263)"/>
</clipPath>
</defs>
</svg>
