<svg width="29" height="30" viewBox="0 0 29 30" fill="none" xmlns="http://www.w3.org/2000/svg">
<path d="M16.0313 6.5625C17.2683 6.5625 18.2577 5.52094 18.2577 4.21875C18.2577 2.9165 17.2683 1.875 16.0313 1.875C14.7942 1.875 13.8045 2.9165 13.8045 4.21875C13.8045 5.52094 14.7942 6.5625 16.0313 6.5625ZM16.0313 13.5938H21.8203V11.25H17.8125L15.3186 7.18752C14.8901 6.50391 14.3091 6.12486 13.5968 6.12486C13.4188 6.12486 13.1054 6.15598 12.8843 6.22723L6.67969 8.4375V15H8.90625V10.3125L11.1624 9.375L6.67969 28.125H8.90625L12.0623 18.4997L14.8623 22.5V28.125H16.9775V20.625L13.803 15L14.9021 11.3752L16.0313 13.5938Z" fill="black"/>
</svg>
