<svg width="13" height="46" viewBox="0 0 13 46" fill="none" xmlns="http://www.w3.org/2000/svg">
<line x1="6.76765" y1="32.8357" x2="6.76765" y2="13.2847" stroke="black" stroke-width="0.5" stroke-linecap="square" stroke-dasharray="1 1 2 1 1 1 2 1"/>
<path d="M6.45684 12.9137C5.1798 12.9137 3.93144 12.535 2.86962 11.8255C1.80779 11.116 0.980204 10.1076 0.491501 8.92777C0.00279755 7.74794 -0.125069 6.44968 0.124069 5.19718C0.373208 3.94467 0.988163 2.79417 1.89117 1.89117C2.79417 0.988163 3.94467 0.373208 5.19718 0.124069C6.44968 -0.125069 7.74794 0.00279755 8.92777 0.491501C10.1076 0.980204 11.116 1.80779 11.8255 2.86962C12.535 3.93144 12.9137 5.1798 12.9137 6.45684C12.9118 8.16871 12.2309 9.80991 11.0204 11.0204C9.80991 12.2309 8.16871 12.9118 6.45684 12.9137ZM6.45684 0.51655C5.28197 0.51655 4.13347 0.864942 3.15659 1.51767C2.17972 2.1704 1.41834 3.09815 0.968728 4.18359C0.519121 5.26904 0.401484 6.46343 0.630691 7.61574C0.859899 8.76804 1.42566 9.8265 2.25642 10.6573C3.08719 11.488 4.14565 12.0538 5.29795 12.283C6.45026 12.5122 7.64465 12.3946 8.7301 11.945C9.81554 11.4954 10.7433 10.734 11.396 9.7571C12.0487 8.78022 12.3971 7.63172 12.3971 6.45684C12.3954 4.88193 11.7689 3.37202 10.6553 2.25839C9.54167 1.14475 8.03176 0.518331 6.45684 0.51655Z" fill="black"/>
<path d="M6.45684 46C5.1798 46 3.93144 45.6213 2.86962 44.9118C1.80779 44.2023 0.980204 43.1939 0.491501 42.0141C0.00279755 40.8342 -0.125069 39.536 0.124069 38.2835C0.373208 37.031 0.988163 35.8805 1.89117 34.9775C2.79417 34.0745 3.94467 33.4595 5.19718 33.2104C6.44968 32.9612 7.74794 33.0891 8.92777 33.5778C10.1076 34.0665 11.116 34.8941 11.8255 35.9559C12.535 37.0177 12.9137 38.2661 12.9137 39.5432C12.9118 41.255 12.2309 42.8962 11.0204 44.1067C9.80991 45.3172 8.16871 45.9981 6.45684 46ZM6.45684 33.6029C5.28197 33.6029 4.13347 33.9513 3.15659 34.604C2.17972 35.2567 1.41834 36.1845 0.968728 37.2699C0.519121 38.3553 0.401484 39.5497 0.630691 40.702C0.859899 41.8544 1.42566 42.9128 2.25642 43.7436C3.08719 44.5743 4.14565 45.1401 5.29795 45.3693C6.45026 45.5985 7.64465 45.4809 8.7301 45.0313C9.81554 44.5817 10.7433 43.8203 11.396 42.8434C12.0487 41.8665 12.3971 40.718 12.3971 39.5432C12.3954 37.9682 11.7689 36.4583 10.6553 35.3447C9.54167 34.2311 8.03176 33.6046 6.45684 33.6029Z" fill="black"/>
</svg>
