<svg width="10" height="18" viewBox="0 0 10 18" fill="none" xmlns="http://www.w3.org/2000/svg">
<path d="M8.76839 16.7143H6.05786C6.5139 16.1182 6.94398 15.4808 7.34556 14.8058C8.85001 12.2688 9.64523 9.59437 9.64523 7.07143C9.64523 5.19597 9.13714 3.39733 8.23272 2.07117C7.32831 0.745024 6.10165 0 4.82262 0C3.54358 0 2.31693 0.745024 1.41251 2.07117C0.508096 3.39733 0 5.19597 0 7.07143C0 9.59436 0.795225 12.2688 2.29967 14.8058C2.70126 15.4808 3.13134 16.1182 3.58738 16.7143H0.876839C0.760563 16.7143 0.64905 16.782 0.56683 16.9026C0.48461 17.0231 0.43842 17.1867 0.43842 17.3571C0.43842 17.5276 0.48461 17.6912 0.56683 17.8117C0.64905 17.9323 0.760563 18 0.876839 18H8.76839C8.88467 18 8.99618 17.9323 9.0784 17.8117C9.16062 17.6912 9.20681 17.5276 9.20681 17.3571C9.20681 17.1867 9.16062 17.0231 9.0784 16.9026C8.99618 16.782 8.88467 16.7143 8.76839 16.7143ZM0.876839 7.07143C0.876839 5.53696 1.29255 4.06534 2.03253 2.98031C2.77251 1.89528 3.77613 1.28571 4.82262 1.28571C5.8691 1.28571 6.87273 1.89528 7.6127 2.98031C8.35268 4.06534 8.76839 5.53696 8.76839 7.07143C8.76839 11.6705 5.72852 15.5101 4.82262 16.5519C3.91656 15.51 0.876839 11.6705 0.876839 7.07143ZM7.01472 7.07143C7.01472 6.43571 6.88615 5.81426 6.64528 5.28567C6.40441 4.75708 6.06205 4.3451 5.6615 4.10182C5.26094 3.85854 4.82019 3.79488 4.39496 3.91891C3.96973 4.04293 3.57914 4.34906 3.27257 4.79859C2.966 5.24811 2.75722 5.82084 2.67264 6.44436C2.58806 7.06787 2.63147 7.71415 2.79738 8.30149C2.9633 8.88882 3.24426 9.39082 3.60475 9.74401C3.96524 10.0972 4.38906 10.2857 4.82262 10.2857C5.40379 10.2848 5.96098 9.94579 6.37194 9.34321C6.78289 8.74062 7.01406 7.92362 7.01472 7.07143ZM3.50736 7.07143C3.50736 6.69 3.5845 6.31713 3.72902 5.99997C3.87354 5.68282 4.07896 5.43563 4.31929 5.28966C4.55962 5.14369 4.82408 5.1055 5.07921 5.17992C5.33435 5.25433 5.5687 5.43801 5.75265 5.70772C5.93659 5.97744 6.06185 6.32108 6.1126 6.69519C6.16335 7.06929 6.13731 7.45706 6.03776 7.80946C5.93821 8.16187 5.76963 8.46307 5.55334 8.67498C5.33704 8.8869 5.08275 9 4.82262 9C4.47391 8.99942 4.1396 8.79604 3.89303 8.43449C3.64646 8.07294 3.50776 7.58274 3.50736 7.07143Z" fill="black"/>
</svg>
