<svg width="14" height="14" viewBox="0 0 14 14" fill="none" xmlns="http://www.w3.org/2000/svg">
<path fill-rule="evenodd" clip-rule="evenodd" d="M6.66667 0C4.15267 0 2.89533 -7.94729e-08 2.11467 0.781333C1.40533 1.49 1.34 2.59067 1.33333 4.66667H0.666667C0.489856 4.66667 0.320286 4.7369 0.195262 4.86193C0.0702379 4.98695 0 5.15652 0 5.33333V6C0 6.1035 0.0240967 6.20557 0.0703818 6.29814C0.116667 6.39071 0.183869 6.47124 0.266667 6.53333L1.33333 7.33333C1.34 9.40933 1.40533 10.51 2.11467 11.2187C2.276 11.3807 2.45733 11.5087 2.66667 11.61V12.6667C2.66667 12.8435 2.7369 13.013 2.86193 13.1381C2.98695 13.2631 3.15652 13.3333 3.33333 13.3333H4.33333C4.51014 13.3333 4.67971 13.2631 4.80474 13.1381C4.92976 13.013 5 12.8435 5 12.6667V11.988C5.48467 12 6.036 12 6.66667 12C7.29733 12 7.84867 12 8.33333 11.988V12.6667C8.33333 12.8435 8.40357 13.013 8.5286 13.1381C8.65362 13.2631 8.82319 13.3333 9 13.3333H10C10.1768 13.3333 10.3464 13.2631 10.4714 13.1381C10.5964 13.013 10.6667 12.8435 10.6667 12.6667V11.61C10.8714 11.5116 11.0581 11.3793 11.2187 11.2187C11.928 10.51 11.994 9.40933 12 7.33333L13.0667 6.53333C13.1495 6.47124 13.2167 6.39071 13.263 6.29814C13.3092 6.20557 13.3333 6.1035 13.3333 6V5.33333C13.3333 5.15652 13.2631 4.98695 13.1381 4.86193C13.013 4.7369 12.8435 4.66667 12.6667 4.66667H12C11.9933 2.59067 11.928 1.49 11.2187 0.781333C10.438 -7.94729e-08 9.18067 0 6.66667 0ZM2.33333 5C2.33333 5.94267 2.33333 6.414 2.62667 6.70667C2.91933 7 3.39067 7 4.33333 7H9C9.94267 7 10.414 7 10.7067 6.70667C11 6.414 11 5.94267 11 5V3.33333C11 2.39067 11 1.91933 10.7067 1.62667C10.4147 1.33333 9.94333 1.33333 9 1.33333H4.33333C3.39067 1.33333 2.91933 1.33333 2.62667 1.62667C2.33333 1.91867 2.33333 2.39 2.33333 3.33333V5ZM2.83333 9.33333C2.83333 9.20073 2.88601 9.07355 2.97978 8.97978C3.07355 8.88601 3.20073 8.83333 3.33333 8.83333H4.33333C4.46594 8.83333 4.59312 8.88601 4.68689 8.97978C4.78065 9.07355 4.83333 9.20073 4.83333 9.33333C4.83333 9.46594 4.78065 9.59312 4.68689 9.68689C4.59312 9.78066 4.46594 9.83333 4.33333 9.83333H3.33333C3.20073 9.83333 3.07355 9.78066 2.97978 9.68689C2.88601 9.59312 2.83333 9.46594 2.83333 9.33333ZM10.5 9.33333C10.5 9.20073 10.4473 9.07355 10.3536 8.97978C10.2598 8.88601 10.1326 8.83333 10 8.83333H9C8.86739 8.83333 8.74022 8.88601 8.64645 8.97978C8.55268 9.07355 8.5 9.20073 8.5 9.33333C8.5 9.46594 8.55268 9.59312 8.64645 9.68689C8.74022 9.78066 8.86739 9.83333 9 9.83333H10C10.1326 9.83333 10.2598 9.78066 10.3536 9.68689C10.4473 9.59312 10.5 9.46594 10.5 9.33333Z" fill="#FFBB89"/>
</svg>
