<svg width="26" height="18" viewBox="0 0 26 18" fill="none" xmlns="http://www.w3.org/2000/svg">
<path d="M0.608459 0.508561C1.06334 0.0536759 1.7457 -0.116876 2.39966 0.0821901L24.7762 7.10632C25.5154 7.33382 26.0273 8.01623 25.9989 8.78389C25.9989 9.57999 25.5156 10.2339 24.748 10.4897L2.34387 17.4827C1.66152 17.7101 0.950701 17.511 0.467322 16.9708C0.0123755 16.459 -0.101398 15.7197 0.154451 15.0658L2.91197 8.78246L0.153668 2.49878C-0.130692 1.87326 -0.0170105 1.13403 0.466302 0.593847C0.580031 0.593854 0.580028 0.536992 0.608459 0.508561ZM24.1224 8.78378L1.94485 1.84495L4.81691 8.41296C4.93065 8.64042 4.93067 8.92474 4.81695 9.15219L1.91728 15.7483L24.1224 8.78378Z" fill="black"/>
</svg>
