<svg width="22" height="22" viewBox="0 0 26 29" fill="none" xmlns="http://www.w3.org/2000/svg">
<!--<path fill-rule="evenodd" clip-rule="evenodd" d="M6.14246 3.07537C7.00319 1.2581 8.85385 0 11 0C13.1461 0 14.9968 1.2581 15.8575 3.07537C15.9434 3.07165 16.0296 3.06977 16.1163 3.06977C19.3658 3.06977 22 5.704 22 8.95349C22 11.1848 20.7581 13.1245 18.9302 14.1218L18.9302 17.1927C18.9303 18.1121 18.9303 18.8788 18.8485 19.4874C18.7621 20.1298 18.5721 20.7097 18.106 21.1758C17.64 21.6419 17.06 21.8319 16.4176 21.9182C15.809 22.0001 15.0423 22 14.123 22H7.87703C6.95765 22 6.19101 22.0001 5.58239 21.9182C4.94 21.8319 4.36002 21.6419 3.89395 21.1758C3.42789 20.7097 3.2379 20.1298 3.15154 19.4874C3.06971 18.8788 3.06974 18.1121 3.06977 17.1927L3.06977 14.1218C1.24194 13.1245 0 11.1848 0 8.95349C0 5.704 2.63423 3.06977 5.88372 3.06977C5.97038 3.06977 6.05664 3.07165 6.14246 3.07537ZM5.68175 4.60926C3.37371 4.71477 1.53488 6.61939 1.53488 8.95349C1.53488 10.7356 2.60694 12.269 4.14447 12.9408C4.42399 13.0629 4.60465 13.339 4.60465 13.644V17.1395C4.60465 18.126 4.60628 18.7886 4.67273 19.2829C4.73622 19.755 4.84593 19.9571 4.97928 20.0905C5.11263 20.2238 5.31472 20.3335 5.78691 20.397C6.28118 20.4635 6.9438 20.4651 7.93023 20.4651H14.0698C15.0562 20.4651 15.7188 20.4635 16.2131 20.397C16.6853 20.3335 16.8874 20.2238 17.0207 20.0905C17.1541 19.9571 17.2638 19.755 17.3273 19.2829C17.3937 18.7886 17.3953 18.126 17.3953 17.1395L17.3953 13.644C17.3953 13.339 17.576 13.0629 17.8555 12.9408C19.3931 12.269 20.4651 10.7356 20.4651 8.95349C20.4651 6.61939 18.6263 4.71477 16.3182 4.60926C16.3537 4.85867 16.3721 5.11339 16.3721 5.37209V5.88372C16.3721 6.30757 16.0285 6.65116 15.6047 6.65116C15.1808 6.65116 14.8372 6.30757 14.8372 5.88372V5.37209C14.8372 4.93941 14.7659 4.52496 14.635 4.13892C14.1211 2.62365 12.6867 1.53488 11 1.53488C9.31329 1.53488 7.87888 2.62365 7.36502 4.13892C7.23411 4.52496 7.16279 4.93941 7.16279 5.37209V5.88372C7.16279 6.30757 6.8192 6.65116 6.39535 6.65116C5.9715 6.65116 5.62791 6.30757 5.62791 5.88372V5.37209C5.62791 5.11339 5.64625 4.85868 5.68175 4.60926ZM7.16279 17.1395C7.16279 16.7157 7.50639 16.3721 7.93023 16.3721H14.0698C14.4936 16.3721 14.8372 16.7157 14.8372 17.1395C14.8372 17.5634 14.4936 17.907 14.0698 17.907H7.93023C7.50639 17.907 7.16279 17.5634 7.16279 17.1395Z" fill="#71757A"/>-->
    <path d="M24.2885 26.1907H2.5503V1.81252C2.5503 1.26877 2.14549 0.770332 1.61924 0.770332C1.09299 0.770332 0.728661 1.26877 0.728661 1.81252V26.3266C0.728661 27.3688 1.4978 28.2297 2.42885 28.2297H24.2885C24.7742 28.2297 25.2195 27.7766 25.2195 27.1875C25.2195 26.5985 24.7742 26.1907 24.2885 26.1907Z" fill="white" />
    <path d="M23.8837 10.0141H19.1474C18.6616 10.0141 18.2164 10.4672 18.2164 11.0563C18.2164 11.6453 18.6212 12.0984 19.1474 12.0984H21.9001L19.7546 14.1828H14.4516C14.1683 14.1828 13.8849 14.3188 13.723 14.5906L10.8489 18.8047H6.59838C6.11261 18.8047 5.66732 19.2578 5.66732 19.8469C5.66732 20.4359 6.07213 20.8891 6.59838 20.8891H11.2941C11.5775 20.8891 11.8609 20.7531 12.0228 20.4813L14.8969 16.2672H20.1189C20.3214 16.2672 20.5642 16.1766 20.7262 15.9953L23.3979 13.3672V16.8563C23.3979 17.4 23.8027 17.8984 24.3289 17.8984C24.8552 17.8984 25.26 17.4453 25.26 16.8563V11.4641C25.2195 10.6938 24.6123 10.0141 23.8837 10.0141Z" fill="white" />
</svg>
