<svg width="30" height="30" viewBox="0 0 30 30" fill="none" xmlns="http://www.w3.org/2000/svg">
<g clip-path="url(#clip0_0_605)">
<path d="M26.25 14.45C26.25 13.9853 26.1869 13.5227 26.0625 13.075L24.2625 6.825C23.9606 5.74842 22.9806 5.0032 21.8625 5H8.11251C7.0072 5.01267 6.04142 5.74972 5.73751 6.8125L3.93751 13.0625C3.81199 13.5143 3.7489 13.9811 3.75001 14.45V23.75C3.75001 24.4404 4.30966 25 5.00001 25H6.25001C6.94037 25 7.50001 24.4404 7.50001 23.75V22.5H22.5V23.75C22.5 24.4404 23.0597 25 23.75 25H25C25.6904 25 26.25 24.4404 26.25 23.75V14.45ZM7.83751 7.4125C7.8764 7.27917 7.99862 7.1875 8.13751 7.1875H21.8875C22.0264 7.1875 22.1486 7.27917 22.1875 7.4125L23.6125 12.5H6.38751L7.83751 7.4125ZM10 17.5C10 18.1904 9.44037 18.75 8.75001 18.75H7.50001C6.80966 18.75 6.25001 18.1904 6.25001 17.5V16.25C6.25001 15.5596 6.80966 15 7.50001 15H8.75001C9.44037 15 10 15.5596 10 16.25V17.5ZM23.75 17.5C23.75 18.1904 23.1904 18.75 22.5 18.75H21.25C20.5597 18.75 20 18.1904 20 17.5V16.25C20 15.5596 20.5597 15 21.25 15H22.5C23.1904 15 23.75 15.5596 23.75 16.25V17.5Z" fill="black"/>
</g>
<defs>
<clipPath id="clip0_0_605">
<rect width="30" height="30" fill="white"/>
</clipPath>
</defs>
</svg>
