<svg width="12" height="18" viewBox="0 0 12 18" fill="none" xmlns="http://www.w3.org/2000/svg">
<path d="M10.7898 2.76923H8.44443V2.07692C8.444 1.52628 8.29559 0.998368 8.03175 0.609004C7.76791 0.21964 7.41019 0.000622546 7.03706 0H4.22233C3.8492 0.000622546 3.49148 0.21964 3.22764 0.609004C2.96379 0.998368 2.81538 1.52628 2.81496 2.07692V2.76923H0.469122C0.344703 2.76923 0.22538 2.84217 0.137403 2.972C0.0494253 3.10184 0 3.27793 0 3.46154C0 3.64515 0.0494253 3.82124 0.137403 3.95107C0.22538 4.08091 0.344703 4.15385 0.469122 4.15385H0.938244V16.6154C0.938529 16.9825 1.03747 17.3344 1.21336 17.594C1.38926 17.8536 1.62774 17.9996 1.87649 18H9.38244C9.63119 17.9996 9.86967 17.8536 10.0456 17.594C10.2215 17.3344 10.3204 16.9825 10.3207 16.6154V4.15385H10.7898C10.9142 4.15385 11.0335 4.08091 11.1215 3.95107C11.2095 3.82124 11.2589 3.64515 11.2589 3.46154C11.2589 3.27793 11.2095 3.10184 11.1215 2.972C11.0335 2.84217 10.9142 2.76923 10.7898 2.76923ZM3.75321 2.07692C3.75335 1.89338 3.80282 1.71741 3.89077 1.58762C3.97871 1.45783 4.09795 1.38483 4.22233 1.38462H7.03706C7.16144 1.38483 7.28068 1.45783 7.36862 1.58762C7.45657 1.71741 7.50604 1.89338 7.50618 2.07692V2.76923H3.75321V2.07692ZM9.38244 16.6154H1.87649V4.15385H9.38244V16.6154ZM4.69145 7.61538V13.1538C4.69145 13.3375 4.64202 13.5135 4.55405 13.6434C4.46607 13.7732 4.34675 13.8462 4.22233 13.8462C4.09791 13.8462 3.97859 13.7732 3.89061 13.6434C3.80263 13.5135 3.75321 13.3375 3.75321 13.1538V7.61538C3.75321 7.43177 3.80263 7.25568 3.89061 7.12585C3.97859 6.99602 4.09791 6.92308 4.22233 6.92308C4.34675 6.92308 4.46607 6.99602 4.55405 7.12585C4.64202 7.25568 4.69145 7.43177 4.69145 7.61538ZM7.50618 7.61538V13.1538C7.50618 13.3375 7.45676 13.5135 7.36878 13.6434C7.2808 13.7732 7.16148 13.8462 7.03706 13.8462C6.91264 13.8462 6.79332 13.7732 6.70534 13.6434C6.61736 13.5135 6.56794 13.3375 6.56794 13.1538V7.61538C6.56794 7.43177 6.61736 7.25568 6.70534 7.12585C6.79332 6.99602 6.91264 6.92308 7.03706 6.92308C7.16148 6.92308 7.2808 6.99602 7.36878 7.12585C7.45676 7.25568 7.50618 7.43177 7.50618 7.61538Z" fill="black"/>
</svg>
