<svg width="107" height="29" viewBox="0 0 107 29" fill="none" xmlns="http://www.w3.org/2000/svg">
<g clip-path="url(#clip0_0_204)">
<path d="M23.0112 28.1293H23.011L16.894 28.1284C16.3535 28.1276 15.8354 27.8869 15.4533 27.4591C15.0711 27.0313 14.8561 26.4513 14.8555 25.8463V18.9999H10.778V25.8463C10.7774 26.4513 10.5624 27.0313 10.1803 27.4591C9.79814 27.8869 9.28 28.1276 8.73953 28.1284L2.62404 28.1293C2.35629 28.1293 2.09115 28.0703 1.84377 27.9556C1.59639 27.841 1.37161 27.6729 1.18227 27.461C0.992923 27.2491 0.842727 26.9975 0.740255 26.7206C0.637783 26.4437 0.585042 26.1469 0.585043 25.8472V12.6595C0.585291 12.3416 0.644766 12.0272 0.759672 11.7365C0.874578 11.4457 1.04239 11.185 1.25239 10.9709L11.4452 0.596839C11.8197 0.212977 12.3089 3.85513e-05 12.8167 5.23411e-09C13.3244 -3.85408e-05 13.8137 0.212825 14.1882 0.596631L24.3828 10.971C24.5927 11.1851 24.7605 11.4458 24.8754 11.7366C24.9902 12.0273 25.0497 12.3417 25.05 12.6596V25.8472C25.05 26.1469 24.9973 26.4436 24.8948 26.7205C24.7923 26.9974 24.6422 27.249 24.4529 27.4609C24.2635 27.6728 24.0388 27.8409 23.7914 27.9556C23.5441 28.0703 23.279 28.1293 23.0112 28.1293ZM10.778 16.7178H14.8555C15.396 16.7185 15.9142 16.9591 16.2964 17.387C16.6786 17.8148 16.8936 18.3948 16.8943 18.9999V25.8477L23.0112 25.8472V12.6596L12.8168 2.28528L2.62379 12.6595V25.8472L8.73928 25.8463V18.9999C8.7399 18.3948 8.95489 17.8148 9.3371 17.387C9.7193 16.9591 10.2375 16.7185 10.778 16.7178Z" fill="white" fill-opacity="0.6"/>
</g>
<mask id="path-2-inside-1_0_204" fill="white">
<path d="M83.5905 0.937643V1.87529H81.0325C80.5699 1.87529 80.1949 2.29509 80.1949 2.81293V27.1916C80.1949 27.7094 80.5699 28.1293 81.0325 28.1293H106.162C106.625 28.1293 107 27.7094 107 27.1916V2.81293C107 2.29509 106.625 1.87529 106.162 1.87529H103.604V0.937643C103.604 0.419801 103.229 0 102.767 0H97.6938C96.1148 0 94.6355 0.759341 93.5974 2.04444C92.5593 0.759341 91.0801 0 89.5012 0H84.4281C83.9655 0 83.5905 0.419801 83.5905 0.937643ZM101.929 2.74572C101.928 2.76792 101.927 2.79033 101.927 2.81293C101.927 2.83553 101.928 2.85794 101.929 2.88014V22.3932H97.9871C96.6727 22.3932 95.4287 22.9014 94.4351 23.7871V3.89851C95.1493 2.63791 96.3765 1.87529 97.6938 1.87529H101.929V2.74572ZM103.604 3.75057H105.325V26.254H94.6479C95.4043 25.0178 96.6487 24.2684 97.9871 24.2684H102.767C103.229 24.2684 103.604 23.8486 103.604 23.3308V3.75057ZM89.2077 24.2684C90.5462 24.2684 91.7905 25.0178 92.5469 26.254H81.8702V3.75057H83.5905V23.3308C83.5905 23.8486 83.9655 24.2684 84.4281 24.2684H89.2077ZM85.2658 22.3932V2.88012C85.2672 2.85794 85.2679 2.83553 85.2679 2.81293C85.2679 2.79033 85.2672 2.76792 85.2658 2.74574V1.87529H89.5012C90.8184 1.87529 92.0457 2.63791 92.7598 3.89851V23.7871C91.7661 22.9014 90.5222 22.3932 89.2077 22.3932H85.2658Z"/>
</mask>
<path d="M83.5905 0.937643V1.87529H81.0325C80.5699 1.87529 80.1949 2.29509 80.1949 2.81293V27.1916C80.1949 27.7094 80.5699 28.1293 81.0325 28.1293H106.162C106.625 28.1293 107 27.7094 107 27.1916V2.81293C107 2.29509 106.625 1.87529 106.162 1.87529H103.604V0.937643C103.604 0.419801 103.229 0 102.767 0H97.6938C96.1148 0 94.6355 0.759341 93.5974 2.04444C92.5593 0.759341 91.0801 0 89.5012 0H84.4281C83.9655 0 83.5905 0.419801 83.5905 0.937643ZM101.929 2.74572C101.928 2.76792 101.927 2.79033 101.927 2.81293C101.927 2.83553 101.928 2.85794 101.929 2.88014V22.3932H97.9871C96.6727 22.3932 95.4287 22.9014 94.4351 23.7871V3.89851C95.1493 2.63791 96.3765 1.87529 97.6938 1.87529H101.929V2.74572ZM103.604 3.75057H105.325V26.254H94.6479C95.4043 25.0178 96.6487 24.2684 97.9871 24.2684H102.767C103.229 24.2684 103.604 23.8486 103.604 23.3308V3.75057ZM89.2077 24.2684C90.5462 24.2684 91.7905 25.0178 92.5469 26.254H81.8702V3.75057H83.5905V23.3308C83.5905 23.8486 83.9655 24.2684 84.4281 24.2684H89.2077ZM85.2658 22.3932V2.88012C85.2672 2.85794 85.2679 2.83553 85.2679 2.81293C85.2679 2.79033 85.2672 2.76792 85.2658 2.74574V1.87529H89.5012C90.8184 1.87529 92.0457 2.63791 92.7598 3.89851V23.7871C91.7661 22.9014 90.5222 22.3932 89.2077 22.3932H85.2658Z" fill="#D6E4AA"/>
<path d="M83.5905 1.87529V4.79984H86.515V1.87529H83.5905ZM103.604 1.87529H100.68V4.79984H103.604V1.87529ZM93.5974 2.04444L91.3224 3.8822L93.5975 6.69858L95.8725 3.88211L93.5974 2.04444ZM101.929 2.74572L104.847 2.94386L104.854 2.8449V2.74572H101.929ZM101.929 2.88014H104.854V2.78095L104.847 2.68199L101.929 2.88014ZM101.929 22.3932V25.3177H104.854V22.3932H101.929ZM94.4351 23.7871H91.5105V30.3117L96.3811 25.9702L94.4351 23.7871ZM94.4351 3.89851L91.8905 2.4569L91.5105 3.12763V3.89851H94.4351ZM101.929 1.87529H104.854V-1.04927H101.929V1.87529ZM103.604 3.75057V0.826015H100.68V3.75057H103.604ZM105.325 3.75057H108.249V0.826015H105.325V3.75057ZM105.325 26.254V29.1786H108.249V26.254H105.325ZM94.6479 26.254L92.1533 24.7276L89.4298 29.1786H94.6479V26.254ZM92.5469 26.254V29.1786H97.7651L95.0415 24.7276L92.5469 26.254ZM81.8702 26.254H78.9456V29.1786H81.8702V26.254ZM81.8702 3.75057V0.826015H78.9456V3.75057H81.8702ZM83.5905 3.75057H86.515V0.826015H83.5905V3.75057ZM85.2658 22.3932H82.3412V25.3177H85.2658V22.3932ZM85.2658 2.88012L82.3471 2.69497L82.3412 2.78745V2.88012H85.2658ZM85.2658 2.74574H82.3412V2.8384L82.3471 2.93088L85.2658 2.74574ZM85.2658 1.87529V-1.04927H82.3412V1.87529H85.2658ZM92.7598 3.89851H95.6843V3.12769L95.3044 2.45701L92.7598 3.89851ZM92.7598 23.7871L90.8138 25.9702L95.6843 30.3115V23.7871H92.7598ZM80.6659 0.937643V1.87529H86.515V0.937643H80.6659ZM83.5905 -1.04927H81.0325V4.79984H83.5905V-1.04927ZM81.0325 -1.04927C78.6534 -1.04927 77.2703 0.998708 77.2703 2.81293H83.1194C83.1194 3.59147 82.4865 4.79984 81.0325 4.79984V-1.04927ZM77.2703 2.81293V27.1916H83.1194V2.81293H77.2703ZM77.2703 27.1916C77.2703 29.0056 78.6532 31.0538 81.0325 31.0538V25.2047C82.4866 25.2047 83.1194 26.4132 83.1194 27.1916H77.2703ZM81.0325 31.0538H106.162V25.2047H81.0325V31.0538ZM106.162 31.0538C108.541 31.0538 109.925 29.0058 109.925 27.1916H104.075C104.075 26.413 104.708 25.2047 106.162 25.2047V31.0538ZM109.925 27.1916V2.81293H104.075V27.1916H109.925ZM109.925 2.81293C109.925 0.998545 108.541 -1.04927 106.162 -1.04927V4.79984C104.708 4.79984 104.075 3.59163 104.075 2.81293H109.925ZM106.162 -1.04927H103.604V4.79984H106.162V-1.04927ZM106.529 1.87529V0.937643H100.68V1.87529H106.529ZM106.529 0.937643C106.529 -0.876741 105.146 -2.92456 102.767 -2.92456V2.92456C101.313 2.92456 100.68 1.71634 100.68 0.937643H106.529ZM102.767 -2.92456H97.6938V2.92456H102.767V-2.92456ZM97.6938 -2.92456C95.1455 -2.92456 92.8594 -1.69617 91.3224 0.206758L95.8725 3.88211C96.4115 3.21485 97.0841 2.92456 97.6938 2.92456V-2.92456ZM95.8724 0.206668C94.3354 -1.69609 92.0495 -2.92456 89.5012 -2.92456V2.92456C90.1107 2.92456 90.7833 3.21477 91.3224 3.8822L95.8724 0.206668ZM89.5012 -2.92456H84.4281V2.92456H89.5012V-2.92456ZM84.4281 -2.92456C82.0489 -2.92456 80.6659 -0.876578 80.6659 0.937643H86.515C86.515 1.71618 85.882 2.92456 84.4281 2.92456V-2.92456ZM99.0113 2.54757C99.0048 2.64377 99.0024 2.7328 99.0024 2.81293H104.852C104.852 2.84786 104.85 2.89208 104.847 2.94386L99.0113 2.54757ZM99.0024 2.81293C99.0024 2.89305 99.0048 2.98209 99.0113 3.07828L104.847 2.68199C104.85 2.73378 104.852 2.778 104.852 2.81293H99.0024ZM99.0046 2.88014V22.3932H104.854V2.88014H99.0046ZM101.929 19.4686H97.9871V25.3177H101.929V19.4686ZM97.9871 19.4686C95.8994 19.4686 93.9755 20.279 92.4891 21.6039L96.3811 25.9702C96.882 25.5237 97.4459 25.3177 97.9871 25.3177V19.4686ZM97.3597 23.7871V3.89851H91.5105V23.7871H97.3597ZM96.9797 5.34012C97.2386 4.88313 97.5534 4.79984 97.6938 4.79984V-1.04927C95.1995 -1.04927 93.06 0.392681 91.8905 2.4569L96.9797 5.34012ZM97.6938 4.79984H101.929V-1.04927H97.6938V4.79984ZM99.0046 1.87529V2.74572H104.854V1.87529H99.0046ZM103.604 6.67513H105.325V0.826015H103.604V6.67513ZM102.4 3.75057V26.254H108.249V3.75057H102.4ZM105.325 23.3294H94.6479V29.1786H105.325V23.3294ZM97.1425 27.7804C97.4322 27.3069 97.7852 27.193 97.9871 27.193V21.3439C95.5122 21.3439 93.3763 22.7288 92.1533 24.7276L97.1425 27.7804ZM97.9871 27.193H102.767V21.3439H97.9871V27.193ZM102.767 27.193C105.146 27.193 106.529 25.1449 106.529 23.3308H100.68C100.68 22.5522 101.313 21.3439 102.767 21.3439V27.193ZM106.529 23.3308V3.75057H100.68V23.3308H106.529ZM89.2077 27.193C89.4096 27.193 89.7625 27.3068 90.0524 27.7804L95.0415 24.7276C93.8185 22.7288 91.6827 21.3439 89.2077 21.3439V27.193ZM92.5469 23.3294H81.8702V29.1786H92.5469V23.3294ZM84.7948 26.254V3.75057H78.9456V26.254H84.7948ZM81.8702 6.67513H83.5905V0.826015H81.8702V6.67513ZM80.6659 3.75057V23.3308H86.515V3.75057H80.6659ZM80.6659 23.3308C80.6659 25.1448 82.0488 27.193 84.4281 27.193V21.3439C85.8822 21.3439 86.515 22.5524 86.515 23.3308H80.6659ZM84.4281 27.193H89.2077V21.3439H84.4281V27.193ZM88.1903 22.3932V2.88012H82.3412V22.3932H88.1903ZM88.1845 3.06527C88.1898 2.98179 88.1925 2.89764 88.1925 2.81293H82.3433C82.3433 2.77341 82.3446 2.73408 82.3471 2.69497L88.1845 3.06527ZM88.1925 2.81293C88.1925 2.72822 88.1898 2.64406 88.1845 2.56059L82.3471 2.93088C82.3446 2.89178 82.3433 2.85244 82.3433 2.81293H88.1925ZM88.1903 2.74574V1.87529H82.3412V2.74574H88.1903ZM85.2658 4.79984H89.5012V-1.04927H85.2658V4.79984ZM89.5012 4.79984C89.6415 4.79984 89.9564 4.88317 90.2152 5.34002L95.3044 2.45701C94.135 0.392647 91.9953 -1.04927 89.5012 -1.04927V4.79984ZM89.8352 3.89851V23.7871H95.6843V3.89851H89.8352ZM94.7057 21.6039C93.2194 20.279 91.2955 19.4686 89.2077 19.4686V25.3177C89.749 25.3177 90.3128 25.5237 90.8138 25.9702L94.7057 21.6039ZM89.2077 19.4686H85.2658V25.3177H89.2077V19.4686Z" fill="#D6E4AA" mask="url(#path-2-inside-1_0_204)"/>
<defs>
<clipPath id="clip0_0_204">
<rect width="24.4007" height="28.0554" fill="white" transform="translate(0.585043) scale(1.00263)"/>
</clipPath>
</defs>
</svg>
