<svg width="16" height="16" viewBox="0 0 16 16" fill="none" xmlns="http://www.w3.org/2000/svg">
<path d="M3.39226 12.0666H1.62272C1.18035 12.0321 0.767988 11.8432 0.46741 11.5373C0.166833 11.2314 0 10.8309 0 10.4152C0 9.99948 0.166833 9.59896 0.46741 9.29307C0.767988 8.98717 1.18035 8.79824 1.62272 8.76375H4.42958L6.23573 7.07232L1.28101 4.21518C0.89957 3.99436 0.621882 3.64615 0.504081 3.24094C0.38628 2.83573 0.437153 2.40375 0.646417 2.03232C0.738795 1.81975 0.876699 1.62717 1.05162 1.46644C1.22655 1.3057 1.43478 1.18024 1.66348 1.09779C1.89218 1.01533 2.13649 0.977628 2.38135 0.987007C2.62621 0.996387 2.86642 1.05265 3.08716 1.15232L9.55515 3.95232L12.6793 0.992322C13.0159 0.677094 13.4725 0.5 13.9485 0.5C14.4245 0.5 14.8811 0.677094 15.2177 0.992322C15.5543 1.30755 15.7434 1.73509 15.7434 2.18089C15.7434 2.62669 15.5543 3.05424 15.2177 3.36947L12.0569 6.29518L15.0468 12.4095C15.1455 12.613 15.1995 12.8331 15.2055 13.0566C15.2115 13.2801 15.1694 13.5024 15.0817 13.7104C14.994 13.9183 14.8625 14.1076 14.6951 14.267C14.5277 14.4264 14.3277 14.5525 14.1071 14.638C13.7105 14.834 13.2492 14.8817 12.8165 14.7713C12.3839 14.661 12.012 14.401 11.7762 14.0438L8.72529 9.40375L6.91914 11.0952V13.7238C6.88231 14.138 6.68056 14.5242 6.35392 14.8057C6.02727 15.0872 5.59959 15.2434 5.1557 15.2434C4.7118 15.2434 4.28412 15.0872 3.95748 14.8057C3.63083 14.5242 3.42909 14.138 3.39226 13.7238V12.0666Z" fill="#BCBCBC"/>
</svg>
