<svg width="26" height="25" viewBox="0 0 26 25" fill="none" xmlns="http://www.w3.org/2000/svg">
<g clip-path="url(#clip0_0_340)">
<path d="M8.21665 12.5C8.21665 10.1212 10.185 8.15634 12.5737 8.15634C14.9623 8.15634 16.9307 10.1212 16.9307 12.5C16.9307 14.9152 14.965 16.8436 12.5737 16.8436C10.1823 16.8436 8.21665 14.9152 8.21665 12.5ZM8.97911 12.539C8.97911 14.4921 10.5712 16.1251 12.5737 16.1251C14.537 16.1251 16.1682 14.4921 16.1682 12.5C16.1682 10.5387 14.5679 8.953 12.5737 8.953C10.5753 8.953 8.97911 10.5428 8.97911 12.539Z" fill="white" stroke="white"/>
<path d="M1.31649 8.49401L3.44779 4.82281C3.44791 4.8226 3.44803 4.8224 3.44815 4.82219C3.57213 4.61098 3.92829 4.38443 4.49661 4.69492L6.56979 5.86519L6.90015 6.05167L7.16877 5.78379C7.1845 5.7681 7.21003 5.74697 7.26461 5.70342C7.2669 5.7016 7.26927 5.69971 7.27172 5.69776C7.3086 5.66837 7.36263 5.62531 7.41415 5.57719C7.52874 5.49104 7.63574 5.40756 7.73879 5.32715C8.08721 5.05532 8.39055 4.81866 8.7893 4.63308L8.86911 4.59595L8.93144 4.53379C8.93239 4.53284 8.93353 4.53171 8.93483 4.53042C8.95134 4.51407 8.99455 4.47125 9.03184 4.42167C9.06807 4.37351 9.15674 4.24564 9.15674 4.06249V2.53905C9.15674 1.80092 9.79328 1.16415 10.5368 1.16415H14.5714C15.3473 1.16415 15.9514 1.79412 15.9514 2.53905V3.9453C15.9514 4.12997 16.057 4.45871 16.3709 4.54265C16.8319 4.78121 17.1456 5.0397 17.503 5.33423C17.549 5.3721 17.5957 5.41056 17.6435 5.44966C17.7203 5.52626 17.8621 5.66595 18.0157 5.76801L18.2677 5.93557L18.533 5.79003L20.8491 4.51968C21.1426 4.42254 21.4847 4.55038 21.6212 4.78375L21.6228 4.78647L23.876 8.58315C24 8.90417 23.8723 9.22758 23.6181 9.36408L23.6181 9.36401L23.6104 9.36831L21.3777 10.6183L21.0945 10.7769L21.124 11.1001C21.1634 11.5321 21.2003 11.9401 21.2003 12.3828C21.2003 12.7819 21.1639 13.1816 21.0908 13.5822L21.0264 13.9359L21.3411 14.1097L23.5314 15.3188C23.745 15.4414 23.8943 15.6256 23.9223 15.7237C23.9609 15.8582 23.9458 16.0308 23.8532 16.1941L21.6694 19.8884C21.5732 20.0278 21.44 20.1257 21.2856 20.1642C21.1331 20.2022 20.9099 20.1946 20.6115 20.0316L18.5384 18.8614L18.208 18.6749L17.9394 18.9428C17.8183 19.0636 17.7727 19.1071 17.7023 19.1538L17.6801 19.1686L17.6595 19.1857C17.6134 19.224 17.5686 19.2614 17.5249 19.2979C17.1075 19.6466 16.7862 19.915 16.3189 20.1325L16.2391 20.1697L16.1767 20.2318C16.1758 20.2328 16.1746 20.2339 16.1733 20.2352C16.1568 20.2515 16.1136 20.2943 16.0763 20.3439C16.0401 20.3921 15.9514 20.52 15.9514 20.7031V22.5C15.9514 23.2381 15.3149 23.8749 14.5714 23.8749H10.576C9.80005 23.8749 9.19591 23.2449 9.19591 22.5V20.8203C9.19591 20.6322 9.0864 20.2945 8.75855 20.2185C8.24079 19.983 7.87164 19.6852 7.47369 19.325L7.47071 19.322C7.36075 19.2123 7.25164 19.1034 7.09251 18.9976L6.84048 18.83L6.57513 18.9756L4.26401 20.2432C3.9309 20.3464 3.62289 20.2143 3.48697 19.9819L3.48535 19.9791L1.23213 16.1825C1.10815 15.8614 1.23584 15.538 1.49004 15.4015L1.49005 15.4016L1.49452 15.3991L3.7664 14.1491L4.05307 13.9914L4.02336 13.6655C3.98384 13.232 3.94709 12.825 3.94709 12.4219C3.94709 11.9006 3.94902 11.5244 4.01566 11.1921L4.08873 10.8277L3.76098 10.6526L1.57412 9.48433C1.40761 9.38797 1.3095 9.26068 1.2685 9.09713C1.22318 8.91635 1.23693 8.72097 1.31649 8.49401ZM20.5548 19.1862L20.9807 19.4251L21.2297 19.0049L22.7573 16.4268L23.0198 15.9839L22.5694 15.7344L20.8068 14.7579L20.8068 14.7578L20.7993 14.7538C20.4014 14.5422 20.1959 14.1311 20.2726 13.6859C20.3565 13.2656 20.3986 12.8441 20.3986 12.4219C20.3986 12.0012 20.3565 11.5866 20.3172 11.2337L20.3154 11.2177L20.3126 11.2019C20.2308 10.7394 20.453 10.2881 20.8111 10.0835C20.8114 10.0833 20.8117 10.0831 20.812 10.0829L22.6118 9.06847L23.0561 8.81802L22.797 8.37872L21.2302 5.72247L20.9816 5.30097L20.5548 5.54038L18.6746 6.59507L18.666 6.59987L18.6577 6.605C18.3283 6.80712 17.8965 6.78101 17.5937 6.52943L17.5938 6.52935L17.586 6.52312C17.5482 6.49292 17.513 6.46514 17.4802 6.4391C17.3298 6.32008 17.2258 6.23777 17.118 6.13025L17.0984 6.1107L17.0768 6.09343C17.0352 6.06027 16.9943 6.02741 16.9538 5.99487C16.629 5.73392 16.3307 5.49419 15.9305 5.29462C15.4651 5.06261 15.1498 4.56691 15.1498 4.06249V2.57811C15.1498 2.46161 15.1202 2.28245 14.9735 2.1361C14.827 1.99001 14.6481 1.96082 14.5322 1.96082H10.5368C10.4209 1.96082 10.242 1.99001 10.0955 2.13611C9.94879 2.28246 9.9192 2.46161 9.9192 2.57811V4.10155C9.9192 4.62048 9.63096 5.10244 9.14924 5.32851L9.14918 5.32838L9.13854 5.33369C8.69769 5.55351 8.35007 5.81537 7.9467 6.17615C7.85981 6.24248 7.77644 6.31524 7.70718 6.37568L7.7011 6.38098C7.61975 6.45198 7.55588 6.50737 7.49536 6.55263L7.4851 6.5603L7.47525 6.56849C7.15593 6.83386 6.7542 6.87821 6.39734 6.67486L6.3944 6.6732L4.51423 5.61851L4.08547 5.378L3.83765 5.80257L2.31001 8.41976L2.05465 8.85725L2.49538 9.10698L4.21887 10.0835L4.21878 10.0837L4.23057 10.09C4.62007 10.2971 4.83744 10.7437 4.75636 11.2019L4.75417 11.2143L4.7526 11.2269C4.7122 11.5491 4.67037 11.9628 4.67037 12.4219C4.67037 12.8376 4.71165 13.2491 4.75007 13.6323L4.75121 13.6436L4.75113 13.6436L4.75216 13.6523C4.80643 14.1124 4.59571 14.5051 4.22053 14.7202L2.38284 15.734L1.93215 15.9826L2.19366 16.426L3.76047 19.0822L4.00909 19.5037L4.43589 19.2643L6.30467 18.216C6.48766 18.1265 6.68041 18.0782 6.81563 18.0782C7.05008 18.0782 7.26386 18.1543 7.46557 18.2979L7.48182 18.3095L7.49894 18.3198C7.5648 18.3592 7.63033 18.4089 7.70762 18.4724C7.72495 18.4866 7.74454 18.503 7.76564 18.5206C7.82035 18.5664 7.88514 18.6205 7.94661 18.6675C8.35002 19.0283 8.69765 19.2902 9.13854 19.51C9.60385 19.7421 9.9192 20.2378 9.9192 20.7422V22.4219C9.9192 22.5384 9.94879 22.7175 10.0955 22.8639C10.242 23.01 10.4209 23.0392 10.5368 23.0392H14.5322C14.6481 23.0392 14.827 23.01 14.9735 22.8639C15.1202 22.7175 15.1498 22.5384 15.1498 22.4219V20.7031C15.1498 20.2045 15.4579 19.7145 15.9143 19.4792C16.3869 19.2859 16.7166 18.9966 17.0989 18.6534L17.1087 18.6446L17.118 18.6354C17.2258 18.5278 17.3298 18.4455 17.4802 18.3265C17.513 18.3005 17.5482 18.2727 17.586 18.2425L17.5861 18.2426L17.5937 18.2362C17.9131 17.9708 18.3148 17.9265 18.6716 18.1298L18.6746 18.1315L20.5548 19.1862Z" fill="white" stroke="white"/>
</g>
<defs>
<clipPath id="clip0_0_340">
<rect width="25.0638" height="24.9948" fill="white"/>
</clipPath>
</defs>
</svg>
