<svg width="26" height="29" viewBox="0 0 26 29" fill="none" xmlns="http://www.w3.org/2000/svg">
<g clip-path="url(#clip0_0_332)">
<path d="M24.2884 26.1906H2.55029V1.81252C2.55029 1.26877 2.14548 0.77033 1.61923 0.77033C1.09299 0.77033 0.728659 1.26877 0.728659 1.81252V26.3265C0.728659 27.3687 1.49779 28.2297 2.42885 28.2297H24.2884C24.7742 28.2297 25.2195 27.7765 25.2195 27.1875C25.2195 26.5984 24.7742 26.1906 24.2884 26.1906Z" fill="#D6E4AA"/>
<path d="M23.8836 10.014H19.1474C18.6616 10.014 18.2163 10.4672 18.2163 11.0562C18.2163 11.6453 18.6211 12.0984 19.1474 12.0984H21.9L19.7546 14.1828H14.4516C14.1682 14.1828 13.8849 14.3187 13.7229 14.5906L10.8488 18.8047H6.59835C6.11258 18.8047 5.66729 19.2578 5.66729 19.8468C5.66729 20.4359 6.0721 20.889 6.59835 20.889H11.2941C11.5775 20.889 11.8608 20.7531 12.0228 20.4812L14.8969 16.2672H20.1189C20.3213 16.2672 20.5642 16.1765 20.7261 15.9953L23.3978 13.3672V16.8562C23.3978 17.4 23.8026 17.8984 24.3289 17.8984C24.8551 17.8984 25.2599 17.4453 25.2599 16.8562V11.464C25.2195 10.6937 24.6122 10.014 23.8836 10.014Z" fill="#D6E4AA"/>
</g>
<defs>
<clipPath id="clip0_0_332">
<rect width="25.0638" height="28.0554" fill="white" transform="scale(1.03367)"/>
</clipPath>
</defs>
</svg>
