<svg width="24" height="24" viewBox="0 0 24 24" fill="none" xmlns="http://www.w3.org/2000/svg">
<path d="M0.0395985 12.4363C0.0395985 11.8029 0.395964 11.209 0.98991 10.8923L21.4612 0.20257C22.1344 -0.153753 22.9659 -0.0349786 23.4806 0.519301C24.035 1.07358 24.1538 1.86541 23.7974 2.57805L13.0668 23.0468C12.75 23.6803 12.1165 24.0366 11.4037 23.997C10.7306 23.9574 10.1367 23.5219 9.85949 22.8885L7.40452 16.5934L1.1087 14.1387C0.475159 13.9012 0.0395966 13.3073 0 12.5947C0.0791931 12.5155 0.0395985 12.4759 0.0395985 12.4363ZM22.174 1.82582L1.90063 12.4363L8.47362 15.0098C8.7112 15.0889 8.90918 15.2869 8.98837 15.5244L11.5621 22.1362L22.174 1.82582Z" fill="black"/>
</svg>
