<svg width="40" height="26" viewBox="0 0 40 26" fill="none" xmlns="http://www.w3.org/2000/svg">
<g filter="url(#filter0_d_0_65)">
<path d="M19.028 6.9336C19.028 11.843 19.028 14.3415 19.028 18.7861C19.028 29.4232 2.01517 16.7016 2.01517 11.7922C2.01517 6.88279 9.63207 1.00758 19.028 1.00758C19.028 1.00758 19.028 2.02436 19.028 6.9336Z" fill="#F4F4F4"/>
<path d="M18.7257 6.9336V6.96234V6.99102V7.01965V7.04823V7.07675V7.10521V7.13362V7.16198V7.19029V7.21854V7.24673V7.27488V7.30297V7.33101V7.35899V7.38693V7.41481V7.44264V7.47042V7.49815V7.52582V7.55345V7.58102V7.60854V7.63602V7.66344V7.69081V7.71813V7.74541V7.77263V7.7998V7.82693V7.854V7.88103V7.90801V7.93494V7.96182V7.98865V8.01544V8.04218V8.06887V8.09551V8.12211V8.14866V8.17516V8.20162V8.22803V8.25439V8.28071V8.30699V8.33321V8.3594V8.38553V8.41163V8.43767V8.46368V8.48964V8.51555V8.54142V8.56725V8.59304V8.61878V8.64447V8.67013V8.69574V8.72131V8.74684V8.77232V8.79777V8.82317V8.84853V8.87384V8.89912V8.92436V8.94955V8.97471V8.99982V9.0249V9.04993V9.07493V9.09988V9.1248V9.14967V9.17451V9.19931V9.22407V9.24879V9.27348V9.29812V9.32273V9.3473V9.37183V9.39633V9.42078V9.4452V9.46959V9.49394V9.51825V9.54252V9.56676V9.59097V9.61514V9.63927V9.66337V9.68743V9.71146V9.73545V9.75941V9.78334V9.80723V9.83109V9.85491V9.8787V9.90246V9.92618V9.94988V9.97353V9.99716V10.0208V10.0443V10.0678V10.0913V10.1148V10.1383V10.1617V10.185V10.2084V10.2317V10.255V10.2782V10.3015V10.3246V10.3478V10.3709V10.394V10.4171V10.4402V10.4632V10.4862V10.5091V10.5321V10.555V10.5779V10.6007V10.6236V10.6464V10.6691V10.6919V10.7146V10.7373V10.7599V10.7826V10.8052V10.8278V10.8504V10.8729V10.8954V10.9179V10.9404V10.9628V10.9852V11.0076V11.03V11.0523V11.0747V11.097V11.1192V11.1415V11.1637V11.1859V11.2081V11.2303V11.2524V11.2746V11.2967V11.3188V11.3408V11.3629V11.3849V11.4069V11.4289V11.4508V11.4728V11.4947V11.5166V11.5385V11.5603V11.5822V11.604V11.6258V11.6476V11.6693V11.6911V11.7128V11.7346V11.7563V11.7779V11.7996V11.8213V11.8429V11.8645V11.8861V11.9077V11.9293V11.9508V11.9724V11.9939V12.0154V12.0369V12.0584V12.0798V12.1013V12.1227V12.1441V12.1655V12.1869V12.2083V12.2297V12.2511V12.2724V12.2937V12.3151V12.3364V12.3577V12.379V12.4002V12.4215V12.4427V12.464V12.4852V12.5064V12.5276V12.5489V12.57V12.5912V12.6124V12.6336V12.6547V12.6759V12.697V12.7181V12.7392V12.7604V12.7815V12.8026V12.8236V12.8447V12.8658V12.8869V12.9079V12.929V12.95V12.9711V12.9921V13.0131V13.0342V13.0552V13.0762V13.0972V13.1182V13.1392V13.1602V13.1812V13.2022V13.2232V13.2441V13.2651V13.2861V13.3071V13.328V13.349V13.37V13.3909V13.4119V13.4328V13.4538V13.4747V13.4957V13.5167V13.5376V13.5586V13.5795V13.6005V13.6214V13.6424V13.6633V13.6843V13.7052V13.7262V13.7471V13.7681V13.789V13.81V13.8309V13.8519V13.8729V13.8938V13.9148V13.9358V13.9567V13.9777V13.9987V14.0197V14.0407V14.0617V14.0827V14.1037V14.1247V14.1457V14.1667V14.1877V14.2088V14.2298V14.2508V14.2719V14.2929V14.314V14.335V14.3561V14.3772V14.3983V14.4194V14.4405V14.4616V14.4827V14.5038V14.5249V14.5461V14.5672V14.5884V14.6095V14.6307V14.6519V14.6731V14.6943V14.7155V14.7367V14.758V14.7792V14.8005V14.8217V14.843V14.8643V14.8856V14.9069V14.9283V14.9496V14.9709V14.9923V15.0137V15.0351V15.0565V15.0779V15.0993V15.1208V15.1422V15.1637V15.1852V15.2067V15.2282V15.2497V15.2713V15.2928V15.3144V15.336V15.3576V15.3792V15.4009V15.4225V15.4442V15.4659V15.4876V15.5093V15.5311V15.5528V15.5746V15.5964V15.6182V15.64V15.6619V15.6838V15.7056V15.7276V15.7495V15.7714V15.7934V15.8154V15.8374V15.8594V15.8815V15.9035V15.9256V15.9477V15.9699V15.992V16.0142V16.0364V16.0586V16.0808V16.1031V16.1254V16.1477V16.17V16.1924V16.2148V16.2372V16.2596V16.2821V16.3045V16.327V16.3496V16.3721V16.3947V16.4173V16.4399V16.4626V16.4852V16.5079V16.5307V16.5534V16.5762V16.599V16.6219V16.6447V16.6676V16.6905V16.7135V16.7364V16.7595V16.7825V16.8055V16.8286V16.8517V16.8749V16.8981V16.9213V16.9445V16.9678V16.9911V17.0144V17.0377V17.0611V17.0846V17.108V17.1315V17.155V17.1785V17.2021V17.2257V17.2494V17.273V17.2967V17.3205V17.3442V17.368V17.3919V17.4158V17.4397V17.4636V17.4876V17.5116V17.5356V17.5597V17.5838V17.608V17.6321V17.6563V17.6806V17.7049V17.7292V17.7536V17.778V17.8024V17.8269V17.8514V17.8759V17.9005V17.9251V17.9498V17.9745V17.9992V18.024V18.0488V18.0737V18.0986V18.1235V18.1485V18.1735V18.1985V18.2236V18.2488V18.2739V18.2991V18.3244V18.3497V18.375V18.4004V18.4258V18.4513V18.4768V18.5023V18.5279V18.5535V18.5792V18.6049V18.6307V18.6565V18.6823V18.7082V18.7341V18.7601V18.7861C18.7257 20.0801 18.4664 20.9754 18.0498 21.5669C17.6396 22.1495 17.0549 22.4686 16.3272 22.572C14.8388 22.7833 12.7888 22.0834 10.6731 20.8575C8.57298 19.6407 6.46984 17.9416 4.89488 16.2463C4.10751 15.3987 3.45805 14.5584 3.00724 13.7862C2.55273 13.0075 2.31744 12.3273 2.31744 11.7922C2.31744 9.48572 4.12225 6.86906 7.16747 4.80924C10.1308 2.8048 14.209 1.37331 18.7257 1.31191V1.31284V1.31755V1.3223V1.32709V1.33192V1.33679V1.34171V1.34666V1.35167V1.35671V1.3618V1.36693V1.3721V1.37732V1.38257V1.38788V1.39323V1.39862V1.40405V1.40953V1.41505V1.42062V1.42623V1.43189V1.43759V1.44334V1.44913V1.45497V1.46085V1.46677V1.47275V1.47877V1.48483V1.49094V1.49709V1.5033V1.50955V1.51584V1.52218V1.52857V1.535V1.54149V1.54801V1.55459V1.56121V1.56788V1.5746V1.58137V1.58818V1.59504V1.60195V1.60891V1.61592V1.62297V1.63008V1.63723V1.64443V1.65168V1.65898V1.66633V1.67373V1.68117V1.68867V1.69622V1.70381V1.71146V1.71916V1.7269V1.7347V1.74255V1.75045V1.7584V1.7664V1.77445V1.78255V1.7907V1.79891V1.80716V1.81547V1.82383V1.83225V1.84071V1.84923V1.85779V1.86642V1.87509V1.88382V1.89259V1.90143V1.91031V1.91925V1.92824V1.93729V1.94639V1.95554V1.96475V1.97401V1.98332V1.99269V2.00211V2.01159V2.02112V2.03071V2.04035V2.05005V2.0598V2.06961V2.07947V2.08939V2.09937V2.1094V2.11948V2.12963V2.13982V2.15008V2.16039V2.17076V2.18118V2.19166V2.2022V2.2128V2.22345V2.23416V2.24492V2.25575V2.26663V2.27757V2.28857V2.29963V2.31074V2.32191V2.33315V2.34444V2.35578V2.36719V2.37866V2.39018V2.40177V2.41341V2.42512V2.43688V2.44871V2.46059V2.47253V2.48454V2.4966V2.50872V2.52091V2.53315V2.54546V2.55783V2.57026V2.58275V2.5953V2.60791V2.62058V2.63332V2.64612V2.65898V2.6719V2.68488V2.69793V2.71104V2.72421V2.73744V2.75074V2.7641V2.77752V2.79101V2.80456V2.81817V2.83185V2.84559V2.85939V2.87326V2.88719V2.90119V2.91525V2.92938V2.94357V2.95782V2.97214V2.98653V3.00098V3.01549V3.03007V3.04472V3.05943V3.07421V3.08906V3.10397V3.11894V3.13399V3.14909V3.16427V3.17951V3.19482V3.2102V3.22564V3.24115V3.25673V3.27238V3.28809V3.30387V3.31972V3.33564V3.35162V3.36768V3.3838V3.39999V3.41625V3.43257V3.44897V3.46544V3.48197V3.49858V3.51525V3.53199V3.5488V3.56569V3.58264V3.59966V3.61675V3.63392V3.65115V3.66846V3.68583V3.70328V3.72079V3.73838V3.75604V3.77377V3.79157V3.80944V3.82739V3.84541V3.8635V3.88166V3.89989V3.9182V3.93657V3.95502V3.97355V3.99214V4.01081V4.02956V4.04837V4.06726V4.08622V4.10526V4.12437V4.14356V4.16281V4.18215V4.20155V4.22103V4.24059V4.26022V4.27993V4.29971V4.31956V4.33949V4.3595V4.37958V4.39974V4.41997V4.44028V4.46066V4.48112V4.50166V4.52227V4.54296V4.56373V4.58457V4.60549V4.62649V4.64756V4.66871V4.68994V4.71125V4.73263V4.7541V4.77564V4.79725V4.81895V4.84072V4.86258V4.88451V4.90652V4.9286V4.95077V4.97302V4.99534V5.01775V5.04023V5.0628V5.08544V5.10817V5.13097V5.15385V5.17682V5.19986V5.22299V5.24619V5.26948V5.29284V5.31629V5.33982V5.36343V5.38712V5.4109V5.43475V5.45869V5.48271V5.50681V5.53099V5.55526V5.5796V5.60403V5.62855V5.65314V5.67782V5.70258V5.72742V5.75235V5.77736V5.80246V5.82764V5.8529V5.87825V5.90368V5.92919V5.95479V5.98047V6.00624V6.03209V6.05803V6.08405V6.11016V6.13635V6.16263V6.189V6.21545V6.24198V6.2686V6.29531V6.3221V6.34898V6.37595V6.403V6.43014V6.45736V6.48468V6.51208V6.53956V6.56714V6.5948V6.62255V6.65038V6.67831V6.70632V6.73442V6.76261V6.79089V6.81925V6.84771V6.87625V6.90488V6.9336Z" stroke="black" stroke-width="0.6"/>
</g>
<g filter="url(#filter1_d_0_65)">
<path d="M20.972 6.9336C20.972 11.843 20.972 14.3415 20.972 18.7861C20.972 29.4232 37.9848 16.7016 37.9848 11.7922C37.9848 6.88279 30.3679 1.00758 20.972 1.00758C20.972 1.00758 20.972 2.02436 20.972 6.9336Z" fill="#F4F4F4"/>
<path d="M21.2239 6.9336V6.96234V6.99102V7.01965V7.04823V7.07675V7.10521V7.13362V7.16198V7.19029V7.21854V7.24673V7.27488V7.30297V7.33101V7.35899V7.38693V7.41481V7.44264V7.47042V7.49815V7.52582V7.55345V7.58102V7.60854V7.63602V7.66344V7.69081V7.71813V7.74541V7.77263V7.7998V7.82693V7.854V7.88103V7.90801V7.93494V7.96182V7.98865V8.01544V8.04218V8.06887V8.09551V8.12211V8.14866V8.17516V8.20162V8.22803V8.25439V8.28071V8.30699V8.33321V8.3594V8.38553V8.41163V8.43767V8.46368V8.48964V8.51555V8.54142V8.56725V8.59304V8.61878V8.64447V8.67013V8.69574V8.72131V8.74684V8.77232V8.79777V8.82317V8.84853V8.87384V8.89912V8.92436V8.94955V8.97471V8.99982V9.0249V9.04993V9.07493V9.09988V9.1248V9.14967V9.17451V9.19931V9.22407V9.24879V9.27348V9.29812V9.32273V9.3473V9.37183V9.39633V9.42078V9.4452V9.46959V9.49394V9.51825V9.54252V9.56676V9.59097V9.61514V9.63927V9.66337V9.68743V9.71146V9.73545V9.75941V9.78334V9.80723V9.83109V9.85491V9.8787V9.90246V9.92618V9.94988V9.97353V9.99716V10.0208V10.0443V10.0678V10.0913V10.1148V10.1383V10.1617V10.185V10.2084V10.2317V10.255V10.2782V10.3015V10.3246V10.3478V10.3709V10.394V10.4171V10.4402V10.4632V10.4862V10.5091V10.5321V10.555V10.5779V10.6007V10.6236V10.6464V10.6691V10.6919V10.7146V10.7373V10.7599V10.7826V10.8052V10.8278V10.8504V10.8729V10.8954V10.9179V10.9404V10.9628V10.9852V11.0076V11.03V11.0523V11.0747V11.097V11.1192V11.1415V11.1637V11.1859V11.2081V11.2303V11.2524V11.2746V11.2967V11.3188V11.3408V11.3629V11.3849V11.4069V11.4289V11.4508V11.4728V11.4947V11.5166V11.5385V11.5603V11.5822V11.604V11.6258V11.6476V11.6693V11.6911V11.7128V11.7346V11.7563V11.7779V11.7996V11.8213V11.8429V11.8645V11.8861V11.9077V11.9293V11.9508V11.9724V11.9939V12.0154V12.0369V12.0584V12.0798V12.1013V12.1227V12.1441V12.1655V12.1869V12.2083V12.2297V12.2511V12.2724V12.2937V12.3151V12.3364V12.3577V12.379V12.4002V12.4215V12.4427V12.464V12.4852V12.5064V12.5276V12.5489V12.57V12.5912V12.6124V12.6336V12.6547V12.6759V12.697V12.7181V12.7392V12.7604V12.7815V12.8026V12.8236V12.8447V12.8658V12.8869V12.9079V12.929V12.95V12.9711V12.9921V13.0131V13.0342V13.0552V13.0762V13.0972V13.1182V13.1392V13.1602V13.1812V13.2022V13.2232V13.2441V13.2651V13.2861V13.3071V13.328V13.349V13.37V13.3909V13.4119V13.4328V13.4538V13.4747V13.4957V13.5167V13.5376V13.5586V13.5795V13.6005V13.6214V13.6424V13.6633V13.6843V13.7052V13.7262V13.7471V13.7681V13.789V13.81V13.8309V13.8519V13.8729V13.8938V13.9148V13.9358V13.9567V13.9777V13.9987V14.0197V14.0407V14.0617V14.0827V14.1037V14.1247V14.1457V14.1667V14.1877V14.2088V14.2298V14.2508V14.2719V14.2929V14.314V14.335V14.3561V14.3772V14.3983V14.4194V14.4405V14.4616V14.4827V14.5038V14.5249V14.5461V14.5672V14.5884V14.6095V14.6307V14.6519V14.6731V14.6943V14.7155V14.7367V14.758V14.7792V14.8005V14.8217V14.843V14.8643V14.8856V14.9069V14.9283V14.9496V14.9709V14.9923V15.0137V15.0351V15.0565V15.0779V15.0993V15.1208V15.1422V15.1637V15.1852V15.2067V15.2282V15.2497V15.2713V15.2928V15.3144V15.336V15.3576V15.3792V15.4009V15.4225V15.4442V15.4659V15.4876V15.5093V15.5311V15.5528V15.5746V15.5964V15.6182V15.64V15.6619V15.6838V15.7056V15.7276V15.7495V15.7714V15.7934V15.8154V15.8374V15.8594V15.8815V15.9035V15.9256V15.9477V15.9699V15.992V16.0142V16.0364V16.0586V16.0808V16.1031V16.1254V16.1477V16.17V16.1924V16.2148V16.2372V16.2596V16.2821V16.3045V16.327V16.3496V16.3721V16.3947V16.4173V16.4399V16.4626V16.4852V16.5079V16.5307V16.5534V16.5762V16.599V16.6219V16.6447V16.6676V16.6905V16.7135V16.7364V16.7595V16.7825V16.8055V16.8286V16.8517V16.8749V16.8981V16.9213V16.9445V16.9678V16.9911V17.0144V17.0377V17.0611V17.0846V17.108V17.1315V17.155V17.1785V17.2021V17.2257V17.2494V17.273V17.2967V17.3205V17.3442V17.368V17.3919V17.4158V17.4397V17.4636V17.4876V17.5116V17.5356V17.5597V17.5838V17.608V17.6321V17.6563V17.6806V17.7049V17.7292V17.7536V17.778V17.8024V17.8269V17.8514V17.8759V17.9005V17.9251V17.9498V17.9745V17.9992V18.024V18.0488V18.0737V18.0986V18.1235V18.1485V18.1735V18.1985V18.2236V18.2488V18.2739V18.2991V18.3244V18.3497V18.375V18.4004V18.4258V18.4513V18.4768V18.5023V18.5279V18.5535V18.5792V18.6049V18.6307V18.6565V18.6823V18.7082V18.7341V18.7601V18.7861C21.2239 20.086 21.4843 20.9929 21.909 21.5959C22.3284 22.1915 22.9264 22.5169 23.6657 22.6218C25.1719 22.8357 27.2346 22.1281 29.3521 20.9011C31.4567 19.6817 33.5637 17.9794 35.142 16.2806C35.9311 15.4312 36.5831 14.5879 37.0363 13.8116C37.4926 13.0299 37.7329 12.3404 37.7329 11.7922C37.7329 9.46102 35.9116 6.83111 32.8608 4.76751C29.8782 2.75007 25.7709 1.31229 21.2239 1.2609V1.26382V1.26807V1.27237V1.2767V1.28107V1.28549V1.28994V1.29444V1.29898V1.30356V1.30818V1.31284V1.31755V1.3223V1.32709V1.33192V1.33679V1.34171V1.34666V1.35167V1.35671V1.3618V1.36693V1.3721V1.37732V1.38257V1.38788V1.39323V1.39862V1.40405V1.40953V1.41505V1.42062V1.42623V1.43189V1.43759V1.44334V1.44913V1.45497V1.46085V1.46677V1.47275V1.47877V1.48483V1.49094V1.49709V1.5033V1.50955V1.51584V1.52218V1.52857V1.535V1.54149V1.54801V1.55459V1.56121V1.56788V1.5746V1.58137V1.58818V1.59504V1.60195V1.60891V1.61592V1.62297V1.63008V1.63723V1.64443V1.65168V1.65898V1.66633V1.67373V1.68117V1.68867V1.69622V1.70381V1.71146V1.71916V1.7269V1.7347V1.74255V1.75045V1.7584V1.7664V1.77445V1.78255V1.7907V1.79891V1.80716V1.81547V1.82383V1.83225V1.84071V1.84923V1.85779V1.86642V1.87509V1.88382V1.89259V1.90143V1.91031V1.91925V1.92824V1.93729V1.94639V1.95554V1.96475V1.97401V1.98332V1.99269V2.00211V2.01159V2.02112V2.03071V2.04035V2.05005V2.0598V2.06961V2.07947V2.08939V2.09937V2.1094V2.11948V2.12963V2.13982V2.15008V2.16039V2.17076V2.18118V2.19166V2.2022V2.2128V2.22345V2.23416V2.24492V2.25575V2.26663V2.27757V2.28857V2.29963V2.31074V2.32191V2.33315V2.34444V2.35578V2.36719V2.37866V2.39018V2.40177V2.41341V2.42512V2.43688V2.44871V2.46059V2.47253V2.48454V2.4966V2.50872V2.52091V2.53315V2.54546V2.55783V2.57026V2.58275V2.5953V2.60791V2.62058V2.63332V2.64612V2.65898V2.6719V2.68488V2.69793V2.71104V2.72421V2.73744V2.75074V2.7641V2.77752V2.79101V2.80456V2.81817V2.83185V2.84559V2.85939V2.87326V2.88719V2.90119V2.91525V2.92938V2.94357V2.95782V2.97214V2.98653V3.00098V3.01549V3.03007V3.04472V3.05943V3.07421V3.08906V3.10397V3.11894V3.13399V3.14909V3.16427V3.17951V3.19482V3.2102V3.22564V3.24115V3.25673V3.27238V3.28809V3.30387V3.31972V3.33564V3.35162V3.36768V3.3838V3.39999V3.41625V3.43257V3.44897V3.46544V3.48197V3.49858V3.51525V3.53199V3.5488V3.56569V3.58264V3.59966V3.61675V3.63392V3.65115V3.66846V3.68583V3.70328V3.72079V3.73838V3.75604V3.77377V3.79157V3.80944V3.82739V3.84541V3.8635V3.88166V3.89989V3.9182V3.93657V3.95502V3.97355V3.99214V4.01081V4.02956V4.04837V4.06726V4.08622V4.10526V4.12437V4.14356V4.16281V4.18215V4.20155V4.22103V4.24059V4.26022V4.27993V4.29971V4.31956V4.33949V4.3595V4.37958V4.39974V4.41997V4.44028V4.46066V4.48112V4.50166V4.52227V4.54296V4.56373V4.58457V4.60549V4.62649V4.64756V4.66871V4.68994V4.71125V4.73263V4.7541V4.77564V4.79725V4.81895V4.84072V4.86258V4.88451V4.90652V4.9286V4.95077V4.97302V4.99534V5.01775V5.04023V5.0628V5.08544V5.10817V5.13097V5.15385V5.17682V5.19986V5.22299V5.24619V5.26948V5.29284V5.31629V5.33982V5.36343V5.38712V5.4109V5.43475V5.45869V5.48271V5.50681V5.53099V5.55526V5.5796V5.60403V5.62855V5.65314V5.67782V5.70258V5.72742V5.75235V5.77736V5.80246V5.82764V5.8529V5.87825V5.90368V5.92919V5.95479V5.98047V6.00624V6.03209V6.05803V6.08405V6.11016V6.13635V6.16263V6.189V6.21545V6.24198V6.2686V6.29531V6.3221V6.34898V6.37595V6.403V6.43014V6.45736V6.48468V6.51208V6.53956V6.56714V6.5948V6.62255V6.65038V6.67831V6.70632V6.73442V6.76261V6.79089V6.81925V6.84771V6.87625V6.90488V6.9336Z" stroke="black" stroke-width="0.5"/>
</g>
<path d="M16.7704 17.8007H14.9826C14.5459 17.8007 14.1774 17.2677 14.1774 16.5913V14.4183C14.1774 14.2544 14.0955 14.1314 13.9863 14.1314H12.8946C12.7854 14.1314 12.7035 14.2544 12.7035 14.4183V16.5913C12.7035 17.2677 12.3487 17.8007 11.8983 17.8007H10.1105C9.67383 17.8007 9.30536 17.2677 9.30536 16.5913V9.68304C9.30536 9.33455 9.41453 9.02706 9.6056 8.84257L13.0856 5.5422C13.304 5.33721 13.5769 5.33721 13.7816 5.5422L17.2617 8.86307C17.4527 9.04756 17.5619 9.35505 17.5619 9.70354V16.5913C17.5756 17.2472 17.2071 17.8007 16.7704 17.8007ZM12.8946 13.2089H13.9863C14.4367 13.2089 14.7915 13.7419 14.7915 14.4183V16.5913C14.7915 16.7553 14.8734 16.8783 14.9826 16.8783H16.7704C16.8795 16.8783 16.9614 16.7553 16.9614 16.5913V9.68304C16.9614 9.66254 16.9478 9.64204 16.9478 9.62154L13.4541 6.32117C13.4405 6.30067 13.4268 6.30067 13.4132 6.32117L9.94677 9.62154C9.93313 9.64204 9.91948 9.66254 9.91948 9.68304V16.5913C9.91948 16.7553 10.0014 16.8783 10.1105 16.8783H11.8983C12.0075 16.8783 12.0894 16.7553 12.0894 16.5913V14.4183C12.0894 13.7624 12.4442 13.2089 12.8946 13.2089Z" fill="black"/>
<path d="M30.496 7.65285H28.9326V6.49969C28.9326 5.89166 28.5976 5.38846 28.1928 5.38846H26.0851C25.6803 5.38846 25.3453 5.89166 25.3453 6.49969V7.65285H23.7959C23.3214 7.65285 22.9166 8.23992 22.9166 8.97375V16.4798C22.9166 17.1927 23.3074 17.8007 23.7959 17.8007H30.496C30.9706 17.8007 31.3754 17.2136 31.3754 16.4798V8.97375C31.3614 8.23992 30.9706 7.65285 30.496 7.65285ZM25.9874 6.49969C25.9874 6.41582 26.0293 6.35292 26.0851 6.35292H28.1928C28.2487 6.35292 28.3045 6.41582 28.3045 6.52066V7.67382H25.9874V6.49969ZM30.7333 16.4798C30.7333 16.6895 30.6216 16.8572 30.482 16.8572H23.7959C23.6564 16.8572 23.5447 16.6895 23.5447 16.4798V8.97375C23.5447 8.76409 23.6564 8.59635 23.7959 8.59635H30.496C30.6356 8.59635 30.7472 8.76409 30.7472 8.97375V16.4798H30.7333Z" fill="black"/>
<defs>
<filter id="filter0_d_0_65" x="0" y="0" width="21.0432" height="25.9343" filterUnits="userSpaceOnUse" color-interpolation-filters="sRGB">
<feFlood flood-opacity="0" result="BackgroundImageFix"/>
<feColorMatrix in="SourceAlpha" type="matrix" values="0 0 0 0 0 0 0 0 0 0 0 0 0 0 0 0 0 0 127 0" result="hardAlpha"/>
<feOffset dy="1"/>
<feGaussianBlur stdDeviation="1"/>
<feComposite in2="hardAlpha" operator="out"/>
<feColorMatrix type="matrix" values="0 0 0 0 0 0 0 0 0 0 0 0 0 0 0 0 0 0 0.25 0"/>
<feBlend mode="normal" in2="BackgroundImageFix" result="effect1_dropShadow_0_65"/>
<feBlend mode="normal" in="SourceGraphic" in2="effect1_dropShadow_0_65" result="shape"/>
</filter>
<filter id="filter1_d_0_65" x="18.9569" y="0" width="21.0431" height="25.9343" filterUnits="userSpaceOnUse" color-interpolation-filters="sRGB">
<feFlood flood-opacity="0" result="BackgroundImageFix"/>
<feColorMatrix in="SourceAlpha" type="matrix" values="0 0 0 0 0 0 0 0 0 0 0 0 0 0 0 0 0 0 127 0" result="hardAlpha"/>
<feOffset dy="1"/>
<feGaussianBlur stdDeviation="1"/>
<feComposite in2="hardAlpha" operator="out"/>
<feColorMatrix type="matrix" values="0 0 0 0 0 0 0 0 0 0 0 0 0 0 0 0 0 0 0.25 0"/>
<feBlend mode="normal" in2="BackgroundImageFix" result="effect1_dropShadow_0_65"/>
<feBlend mode="normal" in="SourceGraphic" in2="effect1_dropShadow_0_65" result="shape"/>
</filter>
</defs>
</svg>
