<svg width="10" height="18" viewBox="0 0 10 18" fill="none" xmlns="http://www.w3.org/2000/svg">
<path d="M8.76839 16.7143H6.05785C6.51389 16.1182 6.94397 15.4808 7.34556 14.8058C8.85 12.2688 9.64523 9.59436 9.64523 7.07143C9.64523 5.19597 9.13713 3.39732 8.23272 2.07117C7.3283 0.745023 6.10165 0 4.82261 0C3.54358 0 2.31693 0.745023 1.41251 2.07117C0.508095 3.39732 0 5.19597 0 7.07143C0 9.59436 0.795224 12.2688 2.29967 14.8058C2.70126 15.4808 3.13134 16.1182 3.58737 16.7143H0.876839C0.760563 16.7143 0.649049 16.782 0.566829 16.9026C0.48461 17.0231 0.438419 17.1866 0.438419 17.3571C0.438419 17.5276 0.48461 17.6911 0.566829 17.8117C0.649049 17.9323 0.760563 18 0.876839 18H8.76839C8.88466 18 8.99618 17.9323 9.0784 17.8117C9.16062 17.6911 9.20681 17.5276 9.20681 17.3571C9.20681 17.1866 9.16062 17.0231 9.0784 16.9026C8.99618 16.782 8.88466 16.7143 8.76839 16.7143ZM0.876839 7.07143C0.876839 5.53696 1.29255 4.06534 2.03253 2.98031C2.77251 1.89528 3.77613 1.28571 4.82261 1.28571C5.8691 1.28571 6.87272 1.89528 7.6127 2.98031C8.35267 4.06534 8.76839 5.53696 8.76839 7.07143C8.76839 11.6705 5.72851 15.5101 4.82261 16.5519C3.91655 15.5099 0.876839 11.6705 0.876839 7.07143ZM7.01471 7.07143C7.01471 6.4357 6.88614 5.81425 6.64527 5.28567C6.4044 4.75708 6.06204 4.3451 5.66149 4.10181C5.26094 3.85853 4.82018 3.79488 4.39496 3.9189C3.96973 4.04293 3.57914 4.34906 3.27257 4.79858C2.966 5.24811 2.75722 5.82084 2.67264 6.44435C2.58805 7.06786 2.63147 7.71415 2.79738 8.30148C2.96329 8.88881 3.24426 9.39082 3.60475 9.74401C3.96524 10.0972 4.38906 10.2857 4.82261 10.2857C5.40379 10.2847 5.96098 9.94578 6.37193 9.3432C6.78289 8.74061 7.01405 7.92361 7.01471 7.07143ZM3.50735 7.07143C3.50735 6.68999 3.58449 6.31712 3.72902 5.99997C3.87354 5.68282 4.07895 5.43563 4.31929 5.28966C4.55962 5.14369 4.82407 5.1055 5.07921 5.17991C5.33434 5.25433 5.5687 5.438 5.75264 5.70772C5.93658 5.97744 6.06185 6.32107 6.1126 6.69518C6.16335 7.06929 6.1373 7.45706 6.03775 7.80946C5.9382 8.16186 5.76962 8.46306 5.55333 8.67497C5.33704 8.88689 5.08275 9 4.82261 9C4.47391 8.99941 4.1396 8.79604 3.89303 8.43449C3.64645 8.07293 3.50775 7.58273 3.50735 7.07143Z" fill="black"/>
</svg>
