<svg width="259" height="104" viewBox="0 0 259 104" fill="none" xmlns="http://www.w3.org/2000/svg">
<g filter="url(#filter0_d_133_57)">
<path d="M23 55H112V66.9652C103.748 71.7513 83.7086 79.4091 69.5629 71.7513C55.4172 64.0936 32.6269 70.6877 23 74.942V55Z" fill="#FCE468"/>
<path fill-rule="evenodd" clip-rule="evenodd" d="M213.501 0.319868C214.268 -0.106623 215.202 -0.106623 215.969 0.319868L238.577 12.8794C239.384 13.3277 239.884 14.1782 239.884 15.1013V40.2204C239.884 41.1435 239.384 41.994 238.577 42.4423L215.969 55.0018C215.182 55.4392 214.222 55.4273 213.446 54.9706C212.67 54.5139 212.193 53.6805 212.193 52.7799V29.1565L194.67 19.4212V27.6609C194.67 29.0647 193.532 30.2027 192.128 30.2027C190.724 30.2027 189.586 29.0647 189.586 27.6609V15.1013C189.586 14.1782 190.087 13.3277 190.893 12.8794L213.501 0.319868ZM197.362 15.1013L214.735 24.7531L232.108 15.1013L214.735 5.44953L197.362 15.1013ZM234.8 38.7248V19.4212L217.277 29.1565V48.4601L234.8 38.7248ZM36.7415 47.9463V26.2435H29.7081V47.8961C29.7081 50.8769 30.3277 53.4055 31.5669 55.482C32.8061 57.5251 34.4807 59.0657 36.5907 60.1039C38.7342 61.1422 41.1122 61.6613 43.7246 61.6613C46.3704 61.6613 48.7651 61.1422 50.9086 60.1039C53.0856 59.0657 54.8104 57.5251 56.0831 55.482C57.3893 53.4055 58.0424 50.8769 58.0424 47.8961V26.2435H50.9588V47.9463C50.9588 50.3243 50.3392 52.1496 49.1 53.4223C47.8608 54.6615 46.1025 55.2811 43.825 55.2811C41.5811 55.2811 39.8395 54.6615 38.6003 53.4223C37.3611 52.1496 36.7415 50.3243 36.7415 47.9463ZM65.4408 34.4825C63.9001 37.1954 63.1298 40.2766 63.1298 43.7263C63.1298 47.176 63.9001 50.2573 65.4408 52.9701C67.0149 55.683 69.1416 57.8097 71.821 59.3504C74.5339 60.8575 77.5649 61.6111 80.9141 61.6111C84.8662 61.6111 88.2991 60.6231 91.2129 58.647C94.1602 56.6375 96.22 53.8409 97.3922 50.2573H89.3039C88.5 51.9319 87.3613 53.2046 85.8877 54.0754C84.4475 54.9127 82.7729 55.3313 80.8639 55.3313C78.8208 55.3313 76.9955 54.8624 75.3879 53.9247C73.8138 52.9534 72.5746 51.597 71.6703 49.8554C70.7995 48.0803 70.3641 46.0373 70.3641 43.7263C70.3641 41.3819 70.7995 39.3389 71.6703 37.5973C72.5746 35.8557 73.8138 34.516 75.3879 33.5782C76.9955 32.607 78.8208 32.1213 80.8639 32.1213C82.7729 32.1213 84.4475 32.54 85.8877 33.3773C87.3613 34.2146 88.5 35.4705 89.3039 37.1451H97.3922C96.22 33.595 94.1602 30.8151 91.2129 28.8056C88.2656 26.7961 84.8327 25.7913 80.9141 25.7913C77.5649 25.7913 74.5339 26.5616 71.821 28.1023C69.1416 29.6094 67.0149 31.7362 65.4408 34.4825ZM110.433 61.3097V24.1335H103.4V61.3097H110.433ZM143.054 49.5037C143.187 48.6999 143.254 47.7956 143.254 46.7909C143.254 44.078 142.668 41.6833 141.496 39.6068C140.357 37.4968 138.733 35.8724 136.623 34.7337C134.547 33.595 132.185 33.0256 129.539 33.0256C126.793 33.0256 124.365 33.6117 122.255 34.7839C120.145 35.9562 118.504 37.6308 117.332 39.8078C116.159 41.9847 115.573 44.5134 115.573 47.3937C115.573 50.2405 116.159 52.7524 117.332 54.9294C118.537 57.1064 120.195 58.7978 122.305 60.0035C124.449 61.1757 126.86 61.7618 129.539 61.7618C132.855 61.7618 135.652 60.9078 137.929 59.1997C140.207 57.4581 141.747 55.2476 142.551 52.5682H134.965C133.86 54.8122 132.001 55.9342 129.389 55.9342C127.58 55.9342 126.056 55.3648 124.817 54.2261C123.578 53.0874 122.875 51.5132 122.707 49.5037H143.054ZM134.011 40.4608C135.283 41.5326 135.936 42.9728 135.97 44.7813H122.757C123.025 42.9058 123.745 41.4489 124.918 40.4106C126.123 39.3389 127.597 38.803 129.339 38.803C131.181 38.803 132.738 39.3556 134.011 40.4608ZM148.237 39.8078C147.132 41.9847 146.58 44.4799 146.58 47.2932C146.58 50.1401 147.132 52.6687 148.237 54.8792C149.376 57.0562 150.9 58.7475 152.809 59.9532C154.752 61.1589 156.895 61.7618 159.24 61.7618C161.316 61.7618 163.141 61.3432 164.716 60.5059C166.323 59.6351 167.579 58.5466 168.483 57.2404V61.3097H175.567V33.4778H168.483V37.4466C167.546 36.1739 166.29 35.1189 164.716 34.2816C163.175 33.4443 161.366 33.0256 159.29 33.0256C156.912 33.0256 154.752 33.6117 152.809 34.7839C150.9 35.9562 149.376 37.6308 148.237 39.8078ZM167.479 43.023C168.148 44.2287 168.483 45.6856 168.483 47.3937C168.483 49.1018 168.148 50.5755 167.479 51.8147C166.809 53.0204 165.905 53.9582 164.766 54.628C163.627 55.2643 162.405 55.5825 161.098 55.5825C159.826 55.5825 158.62 55.2476 157.481 54.5778C156.376 53.9079 155.472 52.9534 154.768 51.7142C154.099 50.4415 153.764 48.9678 153.764 47.2932C153.764 45.6186 154.099 44.1785 154.768 42.9728C155.472 41.7336 156.376 40.7958 157.481 40.1594C158.587 39.5231 159.792 39.2049 161.098 39.2049C162.405 39.2049 163.627 39.5398 164.766 40.2097C165.905 40.846 166.809 41.7838 167.479 43.023ZM205.897 36.2409C203.854 34.1309 201.175 33.0759 197.859 33.0759C196.118 33.0759 194.51 33.4275 193.036 34.1309C191.596 34.8007 190.407 35.7385 189.47 36.9442V33.4778H182.436V61.3097H189.47V45.9368C189.47 43.7263 190.022 42.035 191.127 40.8628C192.266 39.657 193.807 39.0542 195.749 39.0542C197.658 39.0542 199.166 39.657 200.271 40.8628C201.376 42.035 201.929 43.7263 201.929 45.9368V61.3097H208.962V44.9823C208.962 41.2312 207.94 38.3174 205.897 36.2409Z" fill="black"/>
</g>
<defs>
<filter id="filter0_d_133_57" x="-28" y="-24" width="315" height="160" filterUnits="userSpaceOnUse" color-interpolation-filters="sRGB">
<feFlood flood-opacity="0" result="BackgroundImageFix"/>
<feColorMatrix in="SourceAlpha" type="matrix" values="0 0 0 0 0 0 0 0 0 0 0 0 0 0 0 0 0 0 127 0" result="hardAlpha"/>
<feOffset dy="4"/>
<feGaussianBlur stdDeviation="14"/>
<feComposite in2="hardAlpha" operator="out"/>
<feColorMatrix type="matrix" values="0 0 0 0 1 0 0 0 0 1 0 0 0 0 1 0 0 0 0.5 0"/>
<feBlend mode="normal" in2="BackgroundImageFix" result="effect1_dropShadow_133_57"/>
<feBlend mode="normal" in="SourceGraphic" in2="effect1_dropShadow_133_57" result="shape"/>
</filter>
</defs>
</svg>
