<svg width="34" height="34" viewBox="0 0 34 34" fill="none" xmlns="http://www.w3.org/2000/svg">
<g clip-path="url(#clip0_766_4604)">
<path d="M2.04531 15.9109C1.72656 16.2297 1.7 16.7875 2.04531 17.1328C2.39062 17.4781 2.92187 17.4781 3.26719 17.1328C10.8641 9.53595 23.1359 9.48282 30.6265 16.9734C30.9453 17.2922 31.5031 17.3188 31.8484 16.9734C32.1937 16.6281 32.1937 16.0969 31.8484 15.7516C23.6406 7.54376 10.3062 7.65001 2.04531 15.9109Z" fill="black"/>
<path d="M5.60468 19.4703C5.28593 19.7891 5.25937 20.3469 5.60468 20.6922C5.94999 21.0375 6.48124 21.0375 6.82655 20.6922C12.5109 15.0078 21.6218 14.9281 27.1468 20.4531C27.4656 20.7719 28.0234 20.7984 28.3687 20.4531C28.714 20.1078 28.714 19.5766 28.3687 19.2313C22.1265 12.9891 11.9531 13.1219 5.60468 19.4703Z" fill="black"/>
<path d="M8.73905 22.6047C8.4203 22.9234 8.39374 23.4812 8.73905 23.8265C9.08437 24.1718 9.61562 24.1718 9.96093 23.8265C13.839 19.9484 20.1078 19.8953 23.9062 23.6937C24.225 24.0125 24.7828 24.039 25.1281 23.6937C25.4734 23.3484 25.4734 22.8172 25.1281 22.4718C20.5859 17.9828 13.2812 18.0625 8.73905 22.6047Z" fill="black"/>
<path d="M11.9531 25.8187C11.6344 26.1375 11.6078 26.6953 11.9531 27.0406C12.2984 27.3859 12.8297 27.3859 13.175 27.0406C15.2203 24.9953 18.514 24.9953 20.5328 27.014C20.8515 27.3328 21.4094 27.3593 21.7547 27.014C22.1 26.6687 22.1 26.1375 21.7547 25.7921C19.0719 23.1093 14.6625 23.1093 11.9531 25.8187Z" fill="black"/>
<path d="M15.2469 27.8375C14.2906 28.7938 14.2906 30.3875 15.2469 31.3438C16.2031 32.3 17.7703 32.3266 18.7531 31.3438C19.7359 30.3609 19.7094 28.7938 18.7531 27.8375C17.7969 26.8813 16.2031 26.8813 15.2469 27.8375ZM17.5578 30.1484C17.2656 30.4406 16.7609 30.4672 16.4422 30.1484C16.1234 29.8297 16.1234 29.3516 16.4422 29.0328C16.7344 28.7406 17.239 28.7141 17.5578 29.0328C17.85 29.325 17.8765 29.8297 17.5578 30.1484Z" fill="black"/>
</g>
<defs>
<clipPath id="clip0_766_4604">
<rect width="24" height="24" fill="white" transform="translate(0 17) scale(1.00173) rotate(-45)"/>
</clipPath>
</defs>
</svg>
