<svg width="258" height="258" viewBox="0 0 258 258" fill="none" xmlns="http://www.w3.org/2000/svg">
<path d="M178.586 173.547H163.122L155.088 169.972V160.218C166.336 154.021 175.16 143.949 179.752 131.814H186.643C203.054 131.814 216.405 118.462 216.405 102.051C216.405 91.4548 210.834 82.1396 202.471 76.8652V73.4714C202.472 32.9589 169.512 0 129 0C88.4873 0 55.5278 32.9589 55.5278 73.4719V76.8632C47.163 82.1376 41.5903 91.4533 41.5903 102.051C41.5903 118.462 54.9418 131.814 71.3525 131.814H78.2474C82.839 143.949 91.6629 154.021 102.911 160.218V169.931L94.7871 173.547H79.413C35.6246 173.547 0 209.172 0 252.96C0 255.743 2.25598 258 5.03905 258H106.324C109.107 258 111.363 255.743 111.363 252.96C111.363 250.178 109.107 247.921 106.324 247.921H10.259C12.7715 213.098 41.1177 185.32 76.1779 183.702C76.1648 183.744 76.1466 183.784 76.1346 183.827C75.7259 185.263 75.9753 186.806 76.8148 188.04L100.652 223.084C101.497 224.326 102.851 225.126 104.345 225.267C104.503 225.281 104.662 225.289 104.819 225.289C106.149 225.289 107.433 224.762 108.382 223.813L128.955 203.24L149.527 223.813C150.477 224.762 151.761 225.289 153.09 225.289C153.247 225.289 153.405 225.281 153.564 225.267C155.059 225.126 156.413 224.326 157.257 223.084L181.095 188.04C181.935 186.806 182.183 185.262 181.775 183.827C181.763 183.783 181.745 183.742 181.731 183.699C216.833 185.273 245.226 213.068 247.74 247.922H151.675C148.893 247.922 146.636 250.178 146.636 252.961C146.636 255.744 148.893 258 151.675 258H252.96C255.743 258 258 255.744 258 252.961C258 209.172 222.375 173.547 178.586 173.547ZM173.06 78.4162C162.707 76.9947 152.992 72.8697 144.737 66.3391C142.928 64.907 140.375 64.8879 138.544 66.2933C127.719 74.5986 114.769 78.9887 101.097 78.9887C95.609 78.9887 90.198 78.2575 84.9569 76.837V74.2751C84.9569 49.9909 104.714 30.2343 128.998 30.2343C153.282 30.2343 173.039 49.9909 173.039 74.2751C173.04 74.2751 173.049 78.2812 173.06 78.4162ZM186.644 121.736H183.239V82.3673H186.644C197.498 82.3673 206.328 91.1973 206.328 102.052C206.328 112.906 197.498 121.736 186.644 121.736ZM129 10.0781C163.748 10.0781 192.05 38.1804 192.386 72.8506C190.527 72.4858 188.608 72.2892 186.643 72.2892H183.077C182.028 43.3646 158.174 20.1562 128.998 20.1562C99.8211 20.1562 75.9678 43.3646 74.9186 72.2892H71.353C69.3898 72.2892 67.4724 72.4853 65.614 72.8501C65.9496 38.1804 94.2525 10.0781 129 10.0781ZM74.7574 121.736H71.353C60.4989 121.736 51.6689 112.906 51.6689 102.051C51.6689 91.1973 60.4989 82.3668 71.353 82.3668H74.7579V121.736H74.7574ZM84.8355 112.676V87.2084C90.1446 88.4419 95.5893 89.0668 101.097 89.0668C115.719 89.0668 129.632 84.7508 141.57 76.5472C150.952 83.1605 161.747 87.2663 173.16 88.5835V112.947C173.131 117.67 172.357 122.22 170.95 126.485H146.886C144.804 120.597 139.185 116.366 132.594 116.366H125.848C117.49 116.366 110.691 123.166 110.691 131.524C110.691 139.882 117.49 146.681 125.848 146.681H132.594C139.185 146.681 144.805 142.451 146.886 136.563H166.13C158.261 148.753 144.557 156.84 129 156.84C104.648 156.84 84.8355 137.028 84.8355 112.676ZM137.673 131.524C137.673 134.325 135.395 136.603 132.594 136.603H125.848C123.048 136.603 120.769 134.325 120.769 131.524C120.769 128.723 123.048 126.444 125.848 126.444H132.594C135.395 126.444 137.673 128.723 137.673 131.524ZM129 166.918C134.571 166.918 139.948 166.072 145.01 164.505V172.931L128.955 188.987L112.989 173.021V164.505C118.052 166.072 123.429 166.918 129 166.918ZM105.561 212.381L88.5397 187.359L105.517 179.803L121.828 196.114L105.561 212.381ZM152.349 212.381L136.081 196.114L152.392 179.803L169.37 187.359L152.349 212.381Z" fill="#00466B"/>
<path d="M129 247.921C127.674 247.921 126.374 248.46 125.437 249.398C124.5 250.335 123.961 251.635 123.961 252.96C123.961 254.286 124.499 255.586 125.437 256.523C126.374 257.46 127.674 258 129 258C130.325 258 131.625 257.46 132.562 256.523C133.5 255.586 134.039 254.286 134.039 252.96C134.039 251.635 133.5 250.335 132.562 249.398C131.625 248.46 130.325 247.921 129 247.921Z" fill="#00466B"/>
</svg>
