<svg width="13" height="19" viewBox="0 0 13 19" fill="none" xmlns="http://www.w3.org/2000/svg">
<path d="M6.4374 19C5.1642 19 3.9196 18.4428 2.86097 17.399C1.80235 16.3551 0.977251 14.8714 0.49002 13.1355C0.00278912 11.3996 -0.124693 9.48947 0.123696 7.64665C0.372084 5.80383 0.985186 4.11109 1.88547 2.78249C2.78576 1.45389 3.93279 0.549104 5.18152 0.182544C6.43026 -0.184015 7.7246 0.00411605 8.90088 0.723149C10.0772 1.44218 11.0825 2.65982 11.7899 4.22209C12.4972 5.78436 12.8748 7.62108 12.8748 9.50001C12.8729 12.0187 12.194 14.4334 10.9872 16.2144C9.78036 17.9954 8.14411 18.9972 6.4374 19ZM6.4374 0.760004C5.26606 0.760004 4.12102 1.2726 3.14709 2.23296C2.17315 3.19332 1.41406 4.55833 0.96581 6.15535C0.517558 7.75238 0.400274 9.5097 0.628792 11.2051C0.857309 12.9005 1.42136 14.4578 2.24963 15.6801C3.07789 16.9024 4.13316 17.7348 5.28199 18.0721C6.43083 18.4093 7.62162 18.2362 8.7038 17.5747C9.78598 16.9132 10.7109 15.793 11.3617 14.3557C12.0125 12.9184 12.3598 11.2286 12.3598 9.50001C12.358 7.18282 11.7335 4.96129 10.6232 3.32279C9.51292 1.68428 8.00757 0.762624 6.4374 0.760004Z" fill="black"/>
</svg>
