<svg width="186" height="186" viewBox="0 0 186 186" fill="none" xmlns="http://www.w3.org/2000/svg">
<path opacity="0.1" d="M93 185.999C144.363 185.999 186 144.361 186 92.9993C186 41.6372 144.363 0 93 0C41.6375 0 0 41.6372 0 92.9993C0 144.361 41.6375 185.999 93 185.999Z" fill="#FFBF7F"/>
<path d="M52.7637 65.1036C53.1 64.7266 53.5071 64.4195 53.962 64.1999C54.417 63.9803 54.9107 63.8524 55.415 63.8236C55.9193 63.7948 56.4243 63.8656 56.9013 64.032C57.3782 64.1983 57.8178 64.457 58.1947 64.7933L70.4705 75.7421L65.3496 81.4835L53.0738 70.5347C52.6968 70.1985 52.3898 69.7913 52.1701 69.3364C51.9505 68.8814 51.8227 68.3877 51.7939 67.8834C51.7651 67.379 51.8359 66.874 52.0023 66.397C52.1687 65.92 52.4275 65.4805 52.7637 65.1036Z" fill="white"/>
<path d="M65.3796 82.0191L52.8212 70.8177C52.407 70.4483 52.0696 70.0009 51.8283 69.5011C51.587 69.0013 51.4464 68.4588 51.4148 67.9047C51.3831 67.3506 51.4609 66.7956 51.6437 66.2716C51.8265 65.7475 52.1107 65.2646 52.4801 64.8504C52.8496 64.4361 53.297 64.0987 53.7968 63.8574C54.2966 63.6161 54.8391 63.4756 55.3932 63.4439C55.9474 63.4123 56.5023 63.4901 57.0264 63.6728C57.5504 63.8556 58.0334 64.1399 58.4476 64.5093L71.0073 75.711L65.3796 82.0191ZM55.6378 64.1966C55.5706 64.1966 55.5031 64.1985 55.4355 64.2022C54.751 64.2415 54.0934 64.4829 53.5461 64.8959C52.9987 65.3088 52.5861 65.8748 52.3604 66.5223C52.1347 67.1697 52.106 67.8696 52.278 68.5333C52.4501 69.1971 52.8151 69.7949 53.3268 70.2512L65.3192 80.9472L69.9343 75.773L57.9419 65.077C57.3094 64.5091 56.489 64.1955 55.6389 64.1966H55.6378Z" fill="#292A2E"/>
<path d="M120.649 81.4831L115.528 75.7418L127.804 64.7931C128.565 64.114 129.565 63.7652 130.584 63.8234C131.602 63.8816 132.556 64.342 133.235 65.1034C133.914 65.8647 134.263 66.8646 134.204 67.8831C134.146 68.9016 133.686 69.8553 132.924 70.5343L120.649 81.4831Z" fill="white"/>
<path d="M120.619 82.0191L114.993 75.711L127.552 64.5093C128.389 63.7632 129.487 63.38 130.607 63.4439C131.726 63.5079 132.774 64.0138 133.52 64.8504C134.266 65.6869 134.649 66.7856 134.585 67.9047C134.521 69.0238 134.015 70.0717 133.179 70.8177L120.619 82.0191ZM116.066 75.7724L120.681 80.9467L132.673 70.2512C133.013 69.9482 133.289 69.5812 133.487 69.1712C133.685 68.7612 133.801 68.3163 133.827 67.8618C133.852 67.4073 133.789 66.9521 133.639 66.5223C133.489 66.0924 133.256 65.6963 132.953 65.3566C132.65 65.0168 132.283 64.7401 131.873 64.5422C131.463 64.3442 131.018 64.229 130.563 64.2031C130.109 64.1771 129.653 64.2409 129.224 64.3909C128.794 64.5408 128.398 64.7739 128.058 65.077L116.066 75.7724Z" fill="#292A2E"/>
<path d="M125.762 88.605C128.5 100.731 132.248 108.532 130.382 113.013C129.4 115.368 127.386 117.343 124.053 117.343C118.856 117.343 118.856 111.214 113.658 111.214C108.461 111.214 108.462 117.343 103.265 117.343C98.0687 117.343 98.0693 111.214 92.8732 111.214C87.6771 111.214 87.6769 117.343 82.4805 117.343C77.2841 117.343 77.2844 111.214 72.0883 111.214C66.8922 111.214 66.8928 117.343 61.6973 117.343C58.6125 117.343 56.8686 115.526 55.7627 113.426C53.1051 108.382 59.2991 97.2833 61.6973 87.4957C64.347 76.6804 64.1238 63.2091 64.4793 55.0844C65.1651 39.4161 77.1921 26.6873 92.8766 26.6873C108.561 26.6873 120.131 39.4427 121.274 55.0844C121.89 63.5168 123.255 77.5047 125.762 88.605Z" fill="white"/>
<path d="M124.052 117.726C121.276 117.726 119.897 116.099 118.563 114.525C117.286 113.018 116.079 111.596 113.658 111.596C111.237 111.596 110.032 113.018 108.754 114.525C107.42 116.098 106.041 117.726 103.265 117.726C100.49 117.726 99.1109 116.099 97.7772 114.525C96.4999 113.018 95.2935 111.596 92.8732 111.596C90.4529 111.596 89.2473 113.018 87.9692 114.525C86.6352 116.098 85.2562 117.726 82.4805 117.726C79.7047 117.726 78.3251 116.099 76.9937 114.526C75.7165 113.02 74.5103 111.597 72.0897 111.597C69.6691 111.597 68.4638 113.02 67.1862 114.526C65.8529 116.099 64.4739 117.727 61.6987 117.727C58.9382 117.727 56.8862 116.38 55.425 113.606C53.5721 110.09 55.7975 103.872 58.1541 97.29C59.3243 94.0205 60.5336 90.6399 61.3267 87.407C63.4459 78.7573 63.7142 68.5938 63.9295 60.4268C63.9802 58.4952 64.0283 56.6704 64.0994 55.0699C64.4394 47.3142 67.5231 40.0959 72.7837 34.7441C75.3984 32.0646 78.5243 29.9373 81.9761 28.488C85.428 27.0387 89.1356 26.297 92.8794 26.3068C96.599 26.298 100.282 27.042 103.706 28.494C107.131 29.946 110.226 32.076 112.806 34.7557C117.945 40.0469 121.089 47.2578 121.659 55.0588C122.208 62.5808 123.52 76.9299 126.138 88.5231C127.026 92.4551 128.019 95.9283 128.896 98.9928C130.727 105.392 132.05 110.015 130.737 113.163C130.025 114.866 128.212 117.726 124.052 117.726ZM113.658 110.831C116.434 110.831 117.814 112.457 119.148 114.032C120.425 115.538 121.632 116.961 124.052 116.961C127.768 116.961 129.391 114.396 130.028 112.866C131.237 109.966 129.943 105.451 128.157 99.2021C127.278 96.1278 126.28 92.6438 125.388 88.6908C122.759 77.0483 121.443 62.6565 120.892 55.1135C119.724 39.1268 107.68 27.0714 92.8763 27.0714C77.8555 27.0714 65.5498 39.3837 64.8606 55.1022C64.7909 56.6959 64.7427 58.5173 64.6906 60.4455C64.4858 68.2162 64.2051 78.8581 62.0664 87.588C61.265 90.8592 60.0478 94.2593 58.8711 97.5472C56.5731 103.966 54.4027 110.03 56.0987 113.249C57.4147 115.746 59.245 116.96 61.6944 116.96C64.1147 116.96 65.3203 115.537 66.5979 114.031C67.9313 112.457 69.3102 110.83 72.0855 110.83C74.8607 110.83 76.2402 112.456 77.5736 114.031C78.8509 115.537 80.0571 116.96 82.4776 116.96C84.8982 116.96 86.1049 115.537 87.3819 114.031C88.7159 112.457 90.0948 110.83 92.8703 110.83C95.6459 110.83 97.0251 112.457 98.3585 114.031C99.6358 115.537 100.842 116.96 103.263 116.96C105.683 116.96 106.89 115.537 108.167 114.031C109.504 112.459 110.883 110.831 113.658 110.831Z" fill="#292A2E"/>
<path d="M82.2057 56.9165C83.9442 56.9165 85.3535 55.5072 85.3535 53.7688C85.3535 52.0304 83.9442 50.6211 82.2057 50.6211C80.4673 50.6211 79.058 52.0304 79.058 53.7688C79.058 55.5072 80.4673 56.9165 82.2057 56.9165Z" fill="#292A2E"/>
<path d="M103.79 56.9165C105.529 56.9165 106.938 55.5072 106.938 53.7688C106.938 52.0304 105.529 50.6211 103.79 50.6211C102.052 50.6211 100.643 52.0304 100.643 53.7688C100.643 55.5072 102.052 56.9165 103.79 56.9165Z" fill="#292A2E"/>
<path d="M98.6358 62.2644C98.8174 62.2639 98.9969 62.304 99.1612 62.3816C99.3254 62.4593 99.4703 62.5726 99.5853 62.7133C99.7002 62.8539 99.7824 63.0185 99.8258 63.1949C99.8691 63.3713 99.8726 63.5552 99.836 63.7332C99.1612 66.8891 96.3565 68.8728 92.9989 68.8728C89.6413 68.8728 86.8366 66.8899 86.1618 63.7332C86.1252 63.5552 86.1287 63.3713 86.1721 63.1948C86.2155 63.0184 86.2977 62.8538 86.4126 62.7131C86.5276 62.5725 86.6725 62.4592 86.8368 62.3816C87.0011 62.3039 87.1806 62.2639 87.3623 62.2644H98.6358Z" fill="white"/>
<path d="M92.9987 69.2558C89.3813 69.2558 86.4834 67.0687 85.7871 63.813C85.7375 63.5813 85.7406 63.3413 85.7961 63.1109C85.8516 62.8805 85.9581 62.6655 86.1078 62.4817C86.2587 62.2943 86.4497 62.1431 86.6668 62.0394C86.8839 61.9357 87.1215 61.8821 87.3621 61.8826H98.6364C98.877 61.8822 99.1146 61.9358 99.3317 62.0395C99.5488 62.1432 99.7398 62.2943 99.8907 62.4817C100.04 62.6655 100.147 62.8805 100.202 63.1109C100.258 63.3413 100.261 63.5813 100.211 63.813C99.514 67.0687 96.6152 69.2558 92.9987 69.2558ZM87.3616 62.6474C87.2352 62.6473 87.1103 62.6755 86.9963 62.73C86.8823 62.7845 86.7819 62.8639 86.7027 62.9624C86.6249 63.0577 86.5696 63.1692 86.5407 63.2887C86.5118 63.4082 86.5102 63.5327 86.5358 63.653C87.1542 66.546 89.7512 68.4898 92.9981 68.4898C96.245 68.4898 98.8421 66.546 99.4607 63.653C99.4863 63.5327 99.4845 63.4082 99.4555 63.2886C99.4266 63.1691 99.3711 63.0576 99.2933 62.9624C99.2141 62.8639 99.1138 62.7845 98.9998 62.73C98.8858 62.6755 98.7611 62.6472 98.6347 62.6474H87.3616Z" fill="#292A2E"/>
<path d="M166.99 149.35C149.999 171.627 123.179 186 93.0014 186C62.8243 186 36.004 171.627 19.0133 149.35C38.409 142.053 64.4135 137.592 93.0014 137.592C121.589 137.592 147.592 142.053 166.99 149.35Z" fill="#FFBF7F"/>
<path d="M174.795 48.707L127.066 48.5031C127.066 40.5318 131.556 38.9625 136.329 37.6679C141.102 36.3734 143.249 27.6118 151.544 27.1133C156.442 26.8187 159.011 28.0792 161.138 29.7024C161.141 29.7052 161.141 29.708 161.144 29.708C166.474 35.4428 171.06 41.8261 174.795 48.707Z" fill="white"/>
<path d="M38.6478 107.936L1.22172 108.098C0.582447 104.19 0.19451 100.245 0.0603027 96.2881C8.25823 95.1267 7.41974 88.6114 17.2097 89.2035C24.4728 89.6397 26.3594 97.3135 30.5377 98.4466C34.7159 99.5797 38.6478 100.958 38.6478 107.936Z" fill="white"/>
</svg>
