<svg width="18" height="18" viewBox="0 0 18 18" fill="none" xmlns="http://www.w3.org/2000/svg">
<path d="M16.56 0H1.44C1.05809 0 0.691819 0.151714 0.421766 0.421766C0.151714 0.691819 0 1.05809 0 1.44V16.56C0 16.9419 0.151714 17.3082 0.421766 17.5782C0.691819 17.8483 1.05809 18 1.44 18H16.56C16.9419 18 17.3082 17.8483 17.5782 17.5782C17.8483 17.3082 18 16.9419 18 16.56V1.44C18 1.05809 17.8483 0.691819 17.5782 0.421766C17.3082 0.151714 16.9419 0 16.56 0ZM6.12 13.32C6.12 13.511 6.04414 13.6941 5.90912 13.8291C5.77409 13.9641 5.59096 14.04 5.4 14.04C5.20904 14.04 5.02591 13.9641 4.89088 13.8291C4.75586 13.6941 4.68 13.511 4.68 13.32V7.56C4.68 7.36904 4.75586 7.18591 4.89088 7.05088C5.02591 6.91586 5.20904 6.84 5.4 6.84C5.59096 6.84 5.77409 6.91586 5.90912 7.05088C6.04414 7.18591 6.12 7.36904 6.12 7.56V13.32ZM5.4 5.76C5.1864 5.76 4.97759 5.69666 4.79998 5.57799C4.62238 5.45932 4.48395 5.29064 4.40221 5.0933C4.32047 4.89595 4.29908 4.6788 4.34075 4.4693C4.38242 4.2598 4.48528 4.06737 4.63632 3.91632C4.78737 3.76528 4.9798 3.66242 5.1893 3.62075C5.3988 3.57908 5.61595 3.60047 5.8133 3.68221C6.01064 3.76395 6.17932 3.90238 6.29799 4.07998C6.41666 4.25759 6.48 4.4664 6.48 4.68C6.48 4.96643 6.36621 5.24114 6.16368 5.44368C5.96114 5.64621 5.68643 5.76 5.4 5.76ZM14.04 13.32C14.04 13.511 13.9641 13.6941 13.8291 13.8291C13.6941 13.9641 13.511 14.04 13.32 14.04C13.129 14.04 12.9459 13.9641 12.8109 13.8291C12.6759 13.6941 12.6 13.511 12.6 13.32V10.08C12.6 9.60261 12.4104 9.14477 12.0728 8.80721C11.7352 8.46964 11.2774 8.28 10.8 8.28C10.3226 8.28 9.86477 8.46964 9.52721 8.80721C9.18964 9.14477 9 9.60261 9 10.08V13.32C9 13.511 8.92414 13.6941 8.78912 13.8291C8.65409 13.9641 8.47096 14.04 8.28 14.04C8.08904 14.04 7.90591 13.9641 7.77088 13.8291C7.63586 13.6941 7.56 13.511 7.56 13.32V7.56C7.5595 7.38281 7.62436 7.21165 7.74216 7.07929C7.85997 6.94693 8.02245 6.86266 8.1985 6.8426C8.37455 6.82255 8.55182 6.86811 8.69638 6.97058C8.84094 7.07306 8.94263 7.22524 8.982 7.398C9.46919 7.06774 10.0371 6.87644 10.6248 6.84462C11.2126 6.8128 11.7978 6.94167 12.3178 7.2174C12.8378 7.49312 13.2729 7.90529 13.5763 8.40963C13.8797 8.91396 14.04 9.49143 14.04 10.08V13.32Z" fill="#64ACD5"/>
</svg>
