<svg width="123" height="97" viewBox="0 0 123 97" fill="none" xmlns="http://www.w3.org/2000/svg">
<path opacity="0.08" d="M28.4649 90.1458C51.5523 105.454 84.8212 91.4752 105.374 72.9031C125.101 55.0777 134.694 8.79144 99.0931 1.21485C84.2696 -1.93984 77.5284 1.35017 66.6115 7.61537C57.7982 12.6735 45.6884 10.2793 36.9301 5.7453C24.5458 -0.66556 9.28336 8.65894 2.74916 22.7206C-5.25572 39.953 4.49049 74.2492 28.4649 90.1458Z" fill="white"/>
<path opacity="0.1" d="M28.4649 90.1458C51.5523 105.454 84.8212 91.4752 105.374 72.9031C125.101 55.0777 134.694 8.79144 99.0931 1.21485C84.2696 -1.93984 77.5284 1.35017 66.6115 7.61537C57.7982 12.6735 45.6884 10.2793 36.9301 5.7453C24.5458 -0.66556 9.28336 8.65894 2.74916 22.7206C-5.25572 39.953 4.49049 74.2492 28.4649 90.1458Z" fill="#FCE468"/>
<path d="M32.5819 14.9227C32.5819 14.9227 32.0775 22.4913 30.375 25.2363C25.4728 33.1413 24.0527 42.034 28.9616 46.6803C33.8705 51.3265 65.1812 51.3909 67.5534 40.7045C69.5503 31.708 65.2649 30.7405 64.222 23.3195C63.7503 19.9613 62.4523 12.9197 62.4523 12.9197" fill="#0A0A0A"/>
<path d="M59.4489 39.1399C59.3949 39.1328 58.7951 49.0846 47.2338 48.217C39.2301 47.6174 36.3763 39.125 36.1931 39.125C37.056 38.9416 38.5091 38.6749 38.8922 38.4705C40.1526 37.7932 41.7114 37.0886 42.1183 34.6411C42.3533 33.2315 41.9539 26.0139 42.0775 24.586L54.364 27.3283C54.1923 30.3425 52.9908 37.3306 57.202 38.5673C57.9016 38.7719 58.6565 38.9599 59.4489 39.1399Z" fill="#E98862"/>
<path opacity="0.5" d="M54.5353 35.7115C54.3428 35.0913 54.2189 34.4519 54.1657 33.8048C54.0307 32.3279 54.0577 30.8407 54.2461 29.3697C51.7493 29.0326 49.3972 28.002 47.457 26.395C47.2288 27.2374 45.9741 30.9188 46.3215 31.7195C46.9772 33.2329 50.0626 35.7115 54.5353 35.7115Z" fill="#0C0C0C"/>
<path d="M52.9466 32.6108C48.1028 33.0807 41.8357 31.142 40.5375 24.6917L39.3661 18.8715C38.0678 12.4212 40.4033 6.51 46.4766 5.28764C52.5501 4.06599 58.142 8.38077 59.4402 14.8311L59.9589 17.4085C60.457 19.8829 61.5887 31.7747 52.9466 32.6108Z" fill="#E98862"/>
<path d="M56.3919 24.8968C54.8181 25.6969 53.0226 25.9499 51.289 25.6159C51.2289 25.6046 51.167 25.6106 51.1102 25.6332C51.0535 25.6559 51.0044 25.6942 50.9686 25.7437C50.9329 25.7932 50.912 25.8518 50.9083 25.9128C50.9047 25.9738 50.9185 26.0345 50.9481 26.0879C51.4649 26.9987 52.6908 28.5547 54.7939 27.9204C56.1518 27.5107 56.6652 26.1135 56.8555 25.2494C56.8684 25.1897 56.8641 25.1275 56.8429 25.0701C56.8217 25.0127 56.7846 24.9626 56.736 24.9256C56.6873 24.8885 56.6291 24.8662 56.5681 24.8611C56.5072 24.856 56.4461 24.8684 56.3919 24.8968Z" fill="white"/>
<path d="M56.4904 17.8975C56.9104 17.8975 57.2508 17.557 57.2508 17.137C57.2508 16.717 56.9104 16.3765 56.4904 16.3765C56.0704 16.3765 55.7299 16.717 55.7299 17.137C55.7299 17.557 56.0704 17.8975 56.4904 17.8975Z" fill="#0C0C0C"/>
<path d="M49.183 19.1769C49.603 19.1769 49.9435 18.8364 49.9435 18.4164C49.9435 17.9964 49.603 17.6559 49.183 17.6559C48.763 17.6559 48.4225 17.9964 48.4225 18.4164C48.4225 18.8364 48.763 19.1769 49.183 19.1769Z" fill="#0C0C0C"/>
<path opacity="0.1" d="M49.8679 24.1584C50.665 24.0633 51.2546 23.5122 51.1849 22.9275C51.1151 22.3429 50.4124 21.946 49.6152 22.0411C48.8181 22.1362 48.2285 22.6873 48.2983 23.2719C48.368 23.8566 49.0708 24.2535 49.8679 24.1584Z" fill="#0C0C0C"/>
<path opacity="0.1" d="M58.2904 21.8208C58.3609 22.4046 59.0645 22.801 59.8616 22.707C59.9994 22.6905 60.135 22.6597 60.2664 22.6151C60.3035 21.919 60.3057 21.2492 60.2855 20.6292C60.064 20.574 59.8343 20.5605 59.6079 20.5895C58.8108 20.6837 58.2213 21.2344 58.2904 21.8208Z" fill="#0C0C0C"/>
<path opacity="0.5" d="M54.7683 23.6253L54.78 23.6234C55.0262 23.5722 55.2693 23.5073 55.5083 23.4292C55.865 23.3098 56.3306 23.1139 56.2667 22.7913C56.1929 22.4236 54.3872 18.6607 54.1824 18.2336C54.1738 18.2145 54.1615 18.1974 54.1463 18.1831C54.131 18.1689 54.113 18.1578 54.0933 18.1506C54.0737 18.1435 54.0528 18.1403 54.032 18.1413C54.0111 18.1423 53.9906 18.1475 53.9718 18.1566C53.9529 18.1656 53.9361 18.1784 53.9223 18.194C53.9084 18.2097 53.8979 18.228 53.8912 18.2478C53.8846 18.2676 53.882 18.2886 53.8836 18.3094C53.8852 18.3303 53.8909 18.3506 53.9005 18.3692C54.6703 19.9716 55.9103 22.6062 55.9601 22.8538C55.9211 22.9692 55.3296 23.1945 54.719 23.3176C54.6781 23.3242 54.6415 23.3468 54.6172 23.3803C54.5929 23.4139 54.583 23.4558 54.5896 23.4967C54.5962 23.5376 54.6188 23.5742 54.6524 23.5985C54.686 23.6227 54.7279 23.6326 54.7688 23.626L54.7683 23.6253Z" fill="#0C0C0C"/>
<path d="M34.5201 20.9607L39.9649 19.8972C44.0779 18.1772 45.2448 11.0092 45.2448 11.0092C45.2448 11.0092 50.3208 15.8432 62.4523 12.9199C62.4523 12.9199 59.817 -4.01526 41.9038 1.12626C36.128 2.78371 32.0366 8.6709 32.6451 16.469C33.0715 21.9329 34.5201 20.9607 34.5201 20.9607Z" fill="#0A0A0A"/>
<path d="M41.3101 26.581C39.4645 26.9525 37.571 25.279 37.1988 23.4329C36.8267 21.5868 38.1188 20.2681 39.9645 19.8967L41.1645 20.9419L42.8967 26.261L41.3101 26.581Z" fill="#E98862"/>
<path d="M55.4917 15.2326C55.9534 14.906 56.4934 14.7076 57.0568 14.6577C57.3395 14.6308 57.6246 14.6466 57.9026 14.7047C58.1832 14.762 58.4556 14.8542 58.7133 14.9793L58.7213 14.9831C58.75 14.9966 58.7829 14.9981 58.8128 14.9873C58.8426 14.9766 58.867 14.9544 58.8805 14.9257C58.894 14.8969 58.8955 14.864 58.8847 14.8342C58.8739 14.8043 58.8517 14.78 58.823 14.7665C58.5499 14.6224 58.2598 14.5132 57.9594 14.4416C57.6569 14.368 57.3452 14.3404 57.0345 14.3596C56.4052 14.3942 55.7967 14.597 55.2725 14.9469C55.253 14.9602 55.2363 14.9772 55.2233 14.9969C55.2104 15.0166 55.2015 15.0387 55.1971 15.0618C55.1927 15.085 55.1929 15.1088 55.1977 15.1319C55.2025 15.155 55.2118 15.1769 55.225 15.1964C55.2383 15.2159 55.2553 15.2326 55.275 15.2455C55.2947 15.2585 55.3168 15.2674 55.3399 15.2718C55.3631 15.2762 55.3869 15.276 55.41 15.2712C55.4331 15.2664 55.455 15.2571 55.4745 15.2439L55.4787 15.2408L55.4917 15.2326Z" fill="#0C0C0C"/>
<path d="M50.517 15.92C49.8986 15.7972 49.2587 15.8425 48.6638 16.0511C48.3698 16.1524 48.0926 16.2972 47.8415 16.4808C47.5915 16.662 47.3653 16.8739 47.1682 17.1116C47.1474 17.1351 47.1367 17.1659 47.1383 17.1972C47.14 17.2286 47.1539 17.2581 47.1771 17.2792C47.2004 17.3004 47.231 17.3116 47.2623 17.3104C47.2937 17.3092 47.3234 17.2956 47.3449 17.2728L47.3512 17.2662C47.5414 17.052 47.7576 16.8626 47.9949 16.7023C48.2298 16.5421 48.4876 16.4183 48.7594 16.3351C49.2991 16.1659 49.8739 16.1424 50.4256 16.2672L50.4392 16.2705C50.4855 16.2817 50.5343 16.2741 50.5749 16.2493C50.6156 16.2246 50.6447 16.1846 50.6559 16.1384C50.6671 16.0921 50.6595 16.0433 50.6347 16.0027C50.6099 15.962 50.57 15.9329 50.5238 15.9217L50.517 15.92Z" fill="#0C0C0C"/>
<path d="M39.9687 19.8079C43.6287 18.4453 44.8433 15.9179 45.2173 14.037C45.4594 12.7826 45.4368 11.4915 45.1508 10.2464L45.0376 10.2774C45.3192 11.5064 45.341 12.7806 45.1015 14.0185C44.7322 15.8686 43.535 18.3556 39.9276 19.698L39.9687 19.8079Z" fill="#0C0C0C"/>
<path d="M73.8634 45.2798L88.8322 85.0806L76.4089 81.5662L104.663 60.4927L114.729 74.257L86.0837 94.7955C85.089 95.5072 83.9488 95.9892 82.7452 96.2067C81.5416 96.4243 80.3048 96.3719 79.1239 96.0534C77.943 95.7349 76.8476 95.1582 75.9166 94.3649C74.9857 93.5717 74.2424 92.5817 73.7406 91.4663L73.6604 91.2812L56.4657 52.3901L73.8634 45.2798Z" fill="#FCE468"/>
<path d="M47.0181 45.7281C39.0087 45.3506 38.6716 38.5523 38.6716 38.5523C38.6716 38.5523 34.7031 38.8089 32.0651 39.1657C27.746 39.7502 24.8968 41.2148 22.6292 43.4821C20.52 45.5914 19.2358 47.8735 20.5947 62.4438C21.5786 72.9937 20.886 96.1988 20.886 96.1988H69.2235C69.2235 96.1988 72.1221 65.7832 72.5262 61.0342C73.2972 51.9682 76.4552 46.8584 72.0413 42.1884C68.8403 38.8016 60.5766 38.5523 57.2504 38.553C57.1963 38.5525 57.9256 46.2421 47.0181 45.7281Z" fill="#FCE468"/>
<path d="M93.4843 47.2422C90.4798 42.1677 83.6803 41.5582 78.6058 44.564L78.2842 44.7637L78.0685 44.4162C74.9627 39.403 68.6312 36.7882 63.618 39.894C61.2106 41.3855 59.4944 43.7722 58.8467 46.5291C58.199 49.286 58.6731 52.1873 60.1645 54.5947L70.482 70.8936C70.8167 71.4224 71.3459 71.7983 71.9553 71.9402C72.5647 72.0821 73.2056 71.9787 73.7394 71.6522L90.1142 61.6375C92.4248 60.1364 94.0656 57.8003 94.6937 55.1175C95.3217 52.4347 94.8884 49.613 93.4843 47.2422Z" fill="#FCE468"/>
<path opacity="0.6" d="M93.4843 47.2422C90.4798 42.1677 83.6803 41.5582 78.6058 44.564L78.2842 44.7637L78.0685 44.4162C74.9627 39.403 68.6312 36.7882 63.618 39.894C61.2106 41.3855 59.4944 43.7722 58.8467 46.5291C58.199 49.286 58.6731 52.1873 60.1645 54.5947L70.482 70.8936C70.8167 71.4224 71.3459 71.7983 71.9553 71.9402C72.5647 72.0821 73.2056 71.9787 73.7394 71.6522L90.1142 61.6375C92.4248 60.1364 94.0656 57.8003 94.6937 55.1175C95.3217 52.4347 94.8884 49.613 93.4843 47.2422Z" fill="white"/>
<path d="M76.1853 57.7369C70.8579 54.5261 64.2382 57.3594 61.0274 62.6867L60.8284 63.033L60.4544 62.8181C55.0636 59.7146 47.8758 60.4516 44.7726 65.8424C43.2822 68.431 42.8812 71.5057 43.6578 74.39C44.4343 77.2744 46.3249 79.7321 48.9135 81.2225L66.6447 91.2025C67.2199 91.5262 67.8993 91.6108 68.5363 91.4379C69.1734 91.265 69.7168 90.8484 70.0493 90.2782L80.2501 72.791C81.6456 70.242 82.0018 67.2522 81.2443 64.4467C80.4867 61.6412 78.6741 59.2371 76.1853 57.7369Z" fill="#FCE468"/>
<path opacity="0.5" d="M76.1853 57.7369C70.8579 54.5261 64.2382 57.3594 61.0274 62.6867L60.8284 63.033L60.4544 62.8181C55.0636 59.7146 47.8758 60.4516 44.7726 65.8424C43.2822 68.431 42.8812 71.5057 43.6578 74.39C44.4343 77.2744 46.3249 79.7321 48.9135 81.2225L66.6447 91.2025C67.2199 91.5262 67.8993 91.6108 68.5363 91.4379C69.1734 91.265 69.7168 90.8484 70.0493 90.2782L80.2501 72.791C81.6456 70.242 82.0018 67.2522 81.2443 64.4467C80.4867 61.6412 78.6741 59.2371 76.1853 57.7369Z" fill="white"/>
<path d="M71.5402 65.291C71.5422 65.2598 71.5564 65.2307 71.5798 65.2101C71.6033 65.1894 71.6339 65.179 71.6651 65.1809C71.6962 65.1829 71.7253 65.1971 71.746 65.2206C71.7666 65.244 71.7771 65.2746 71.7751 65.3058L70.7919 81.005C70.7902 81.0332 70.7784 81.0599 70.7586 81.0801C70.7387 81.1003 70.7123 81.1126 70.6841 81.1149C70.6787 81.1149 70.6731 81.1149 70.6674 81.1149C70.6363 81.113 70.6073 81.0988 70.5867 81.0754C70.566 81.0521 70.5555 81.0215 70.5575 80.9904" fill="#0C0C0C"/>
<path d="M108.183 63.8819C108.196 63.7093 108.243 63.5412 108.323 63.3875C108.402 63.2339 108.512 63.0981 108.646 62.9884C108.779 62.8787 108.934 62.7974 109.1 62.7495C109.266 62.7015 109.441 62.6879 109.612 62.7095C109.943 62.7628 110.241 62.9397 110.446 63.2044C110.652 63.4691 110.749 63.8018 110.718 64.1353L110.595 65.8504L113.113 61.2306C113.422 60.6433 114.177 60.1199 114.813 60.5101C115.348 60.792 116.357 60.6386 116.729 61.3453C116.735 61.3476 118.679 68.2288 118.392 68.7748C117.176 71.087 113.086 72.6277 110.486 72.3693L106.394 71.9593L108.183 63.8819Z" fill="#E98862"/>
<g opacity="0.1">
<path d="M108.183 63.8819C108.196 63.7093 108.243 63.5412 108.323 63.3875C108.402 63.2339 108.512 63.0981 108.646 62.9884C108.779 62.8787 108.934 62.7974 109.1 62.7495C109.266 62.7015 109.441 62.6879 109.612 62.7095C109.943 62.7628 110.241 62.9397 110.446 63.2044C110.652 63.4691 110.749 63.8018 110.718 64.1353L110.595 65.8504L113.113 61.2306C113.422 60.6433 114.177 60.1199 114.813 60.5101C115.348 60.792 116.357 60.6386 116.729 61.3453C116.735 61.3476 118.679 68.2288 118.392 68.7748C117.176 71.087 113.086 72.6277 110.486 72.3693L106.394 71.9593L108.183 63.8819Z" fill="#0C0C0C"/>
</g>
<path d="M112.664 58.652C107.965 52.7082 99.2024 53.1012 93.2586 57.8001L92.8827 58.1098L92.5484 57.7043C87.7322 51.8544 79.219 49.6153 73.3698 54.4326C71.979 55.578 70.8274 56.9862 69.9808 58.5767C69.1342 60.1673 68.6092 61.9089 68.4357 63.7024C68.2622 65.4958 68.4437 67.3058 68.9697 69.0291C69.4958 70.7524 70.3561 72.3552 71.5016 73.746L87.4426 92.7251C87.9598 93.3407 88.6983 93.7282 89.4987 93.804C90.2992 93.8798 91.0973 93.6379 91.7209 93.1303L110.848 77.5608C113.531 75.2522 115.219 71.9955 115.557 68.4716C115.896 64.9477 114.859 61.4294 112.664 58.652Z" fill="#1D868A"/>
<path d="M112.876 67.1982C112.875 66.9709 112.949 66.7497 113.086 66.5683C113.223 66.3869 113.416 66.2552 113.634 66.1933C113.627 66.1767 113.596 66.1417 113.626 66.1299L112.768 65.9782C112.515 65.9389 112.284 65.8093 112.119 65.6133C111.954 65.4173 111.865 65.1681 111.87 64.9118C111.882 64.6588 111.988 64.4195 112.167 64.2402C112.346 64.0609 112.585 63.9544 112.838 63.9413C112.832 63.9331 112.834 63.9215 112.831 63.9117L112.478 63.8492C112.24 63.8112 112.022 63.692 111.861 63.5118C111.7 63.3315 111.607 63.1012 111.596 62.8599C111.593 62.7084 111.623 62.5581 111.684 62.4197C111.746 62.2813 111.838 62.1583 111.953 62.0597C112.068 61.961 112.203 61.889 112.349 61.849C112.495 61.809 112.649 61.8019 112.798 61.8283L113.61 61.9723C113.61 61.9678 113.606 61.9645 113.607 61.9601C113.608 61.9556 113.614 61.9512 113.616 61.946C113.402 61.8563 113.225 61.6966 113.114 61.4931C113.003 61.2897 112.964 61.0545 113.005 60.8263C113.07 60.2305 113.774 60.0087 114.299 60.1018L115.931 60.5246C116.183 60.5898 116.414 60.7161 116.606 60.8923C116.797 61.0685 116.941 61.2893 117.027 61.5349C117.765 63.6608 119.561 69.2597 117.885 68.9627L113.758 68.2316C113.517 68.1819 113.3 68.0533 113.14 67.8661C112.98 67.679 112.887 67.444 112.876 67.1982Z" fill="#E98862"/>
<path d="M63.0398 75.1302L69.4493 70.2654C69.5901 70.1586 69.7517 70.0822 69.9237 70.0412C70.0957 70.0002 70.2743 69.9955 70.4482 70.0273C70.6222 70.0591 70.7876 70.1268 70.9339 70.226C71.0802 70.3253 71.2043 70.4539 71.2982 70.6037C71.4629 70.8857 71.5171 71.2187 71.4502 71.5384C71.3833 71.858 71.2001 72.1414 70.9361 72.3336L69.5618 73.3767L75.3895 72.0803C76.0349 71.925 76.9265 72.147 77.0531 72.8824C77.1203 73.1622 77.0907 73.4566 76.9691 73.7174C76.8475 73.9783 76.6411 74.1903 76.3835 74.3187C76.3866 74.3244 76.3889 74.3304 76.3906 74.3366C76.3909 74.3415 76.3909 74.3465 76.3906 74.3514L77.3858 74.1118C77.5701 74.0674 77.7621 74.0648 77.9476 74.1041C78.1331 74.1433 78.3075 74.2235 78.4581 74.3387C78.6088 74.4539 78.7318 74.6013 78.8182 74.7701C78.9046 74.9389 78.9523 75.1248 78.9577 75.3144C78.9603 75.6131 78.8602 75.9035 78.6742 76.1373C78.4882 76.371 78.2276 76.5337 77.936 76.5983L77.5131 76.7005C77.5105 76.7141 77.5054 76.7271 77.4981 76.7388C77.8001 76.7363 78.0932 76.8412 78.3249 77.0349C78.5567 77.2286 78.712 77.4983 78.7632 77.796C78.8095 78.1235 78.7306 78.4564 78.5423 78.7282C78.3539 79.0001 78.07 79.191 77.7471 79.2627L76.6953 79.5159C76.7126 79.5229 76.7281 79.5338 76.7403 79.5479C76.7526 79.562 76.7613 79.5789 76.7658 79.597C76.7702 79.6188 76.7681 79.6415 76.7597 79.6621C77.0294 79.7346 77.2678 79.8936 77.4382 80.1148C77.6087 80.336 77.7018 80.6071 77.7032 80.8863C77.6986 81.1797 77.5952 81.4629 77.4096 81.6901C77.2241 81.9174 76.9672 82.0754 76.6807 82.1385L67.8047 84.2764C66.563 84.5755 65.2603 84.4969 64.0635 84.0507C62.8668 83.6045 61.8306 82.811 61.0877 81.772C60.4472 80.8762 60.1812 79.7659 60.3462 78.677C60.5113 77.5881 61.0943 76.6065 61.9716 75.9407L63.0398 75.1302Z" fill="#E98862"/>
<g opacity="0.2">
<path d="M70.6213 75.6306C70.6287 75.6604 70.6474 75.6861 70.6735 75.7023C70.6996 75.7184 70.7309 75.7237 70.7609 75.7171L76.3015 74.4771C76.332 74.4703 76.3585 74.4516 76.3752 74.4253C76.3919 74.3989 76.3974 74.367 76.3906 74.3366C76.3838 74.3062 76.3651 74.2797 76.3388 74.263C76.3124 74.2463 76.2805 74.2407 76.2501 74.2476L70.7094 75.4875C70.6943 75.4909 70.68 75.4973 70.6674 75.5062C70.6547 75.5151 70.644 75.5265 70.6357 75.5396C70.6275 75.5527 70.6219 75.5673 70.6193 75.5825C70.6167 75.5978 70.6172 75.6134 70.6206 75.6285L70.6213 75.6306Z" fill="#0C0C0C"/>
</g>
<g opacity="0.2">
<path d="M71.1008 78.0894C71.1082 78.1192 71.127 78.1449 71.1532 78.161C71.1793 78.1771 71.2107 78.1824 71.2406 78.1756L77.4238 76.7919C77.439 76.7885 77.4533 76.7822 77.4659 76.7733C77.4786 76.7644 77.4894 76.753 77.4977 76.7399C77.506 76.7268 77.5116 76.7122 77.5142 76.6969C77.5168 76.6817 77.5163 76.666 77.5129 76.6509C77.5051 76.6209 77.4862 76.5951 77.46 76.5785C77.4338 76.562 77.4023 76.5562 77.3719 76.5621L71.1885 77.9459C71.1734 77.9493 71.1591 77.9556 71.1464 77.9645C71.1338 77.9735 71.123 77.9848 71.1147 77.9979C71.1065 78.011 71.1009 78.0256 71.0983 78.0409C71.0957 78.0561 71.0962 78.0717 71.0997 78.0868L71.1008 78.0894Z" fill="#0C0C0C"/>
</g>
<g opacity="0.2">
<path d="M71.6048 80.7552C71.6122 80.785 71.631 80.8107 71.6571 80.8268C71.6832 80.8429 71.7146 80.8482 71.7446 80.8414L76.6782 79.7372C76.7086 79.7304 76.735 79.7118 76.7517 79.6855C76.7684 79.6592 76.7739 79.6273 76.7671 79.5969C76.7602 79.5665 76.7416 79.54 76.7153 79.5233C76.689 79.5067 76.6571 79.5011 76.6267 79.508L71.6931 80.6121C71.678 80.6155 71.6637 80.6219 71.6511 80.6308C71.6384 80.6397 71.6276 80.6511 71.6194 80.6642C71.6111 80.6773 71.6056 80.6919 71.603 80.7071C71.6004 80.7224 71.6008 80.738 71.6043 80.7531L71.6048 80.7552Z" fill="#0C0C0C"/>
</g>
<path d="M65.7921 86.77L25.0577 96.0296C23.7045 96.1769 22.3356 96.0086 21.0583 95.538C19.7811 95.0673 18.6303 94.3071 17.6962 93.317C16.7621 92.3269 16.0701 91.1337 15.6746 89.8313C15.2791 88.5288 15.1907 87.1524 15.4165 85.81L20.0781 48.3147C20.4657 46.0105 21.7528 43.9547 23.6562 42.5995C25.5597 41.2443 27.9235 40.7007 30.2276 41.0884C32.5318 41.476 34.5877 42.7632 35.9429 44.6666C37.298 46.57 37.8416 48.9338 37.454 51.238L35.2092 78.0756L63.5102 71.6711L65.7921 86.77Z" fill="#FCE468"/>
<path d="M29.4822 79.1299C29.4511 79.1322 29.4203 79.122 29.3966 79.1016C29.373 79.0812 29.3584 79.0522 29.3562 79.0211C29.3539 78.9899 29.3641 78.9591 29.3845 78.9355C29.4049 78.9118 29.4339 78.8973 29.4651 78.895L35.1413 77.6832C35.1566 77.6807 35.1722 77.6813 35.1872 77.6849C35.2023 77.6885 35.2164 77.6951 35.2289 77.7043C35.2413 77.7135 35.2518 77.7251 35.2597 77.7385C35.2675 77.7518 35.2727 77.7666 35.2747 77.7819C35.2793 77.8127 35.2715 77.844 35.253 77.869C35.2345 77.894 35.2068 77.9107 35.176 77.9153L29.4998 79.1274C29.494 79.1287 29.4881 79.1296 29.4822 79.1299Z" fill="#0C0C0C"/>
<path d="M26.2798 96.1988C26.2487 96.2008 26.218 96.1904 26.1945 96.1698C26.1711 96.1492 26.1568 96.1201 26.1547 96.089C26.1527 96.0578 26.1631 96.0271 26.1837 96.0037C26.2043 95.9802 26.2334 95.9659 26.2646 95.9639L65.5365 86.7143L63.3112 71.843L35.1791 77.917C35.1609 77.9194 35.1423 77.9175 35.1249 77.9115C35.1076 77.9054 35.0919 77.8954 35.0791 77.8821C35.0663 77.8689 35.0568 77.8529 35.0514 77.8353C35.0459 77.8177 35.0447 77.7991 35.0478 77.781L36.6258 62.4469C36.6281 62.4316 36.6335 62.4169 36.6416 62.4037C36.6498 62.3905 36.6604 62.379 36.6731 62.37C36.6857 62.3611 36.7 62.3547 36.7151 62.3514C36.7303 62.348 36.7459 62.3477 36.7611 62.3506C36.7919 62.3557 36.8193 62.3729 36.8373 62.3983C36.8554 62.4237 36.8626 62.4552 36.8575 62.4859L35.3069 77.6626L63.3659 71.5848C63.381 71.5807 63.3968 71.5796 63.4123 71.5816C63.4279 71.5836 63.4428 71.5887 63.4564 71.5966C63.4699 71.6046 63.4817 71.6151 63.491 71.6276C63.5004 71.6402 63.5073 71.6545 63.5111 71.6697L65.793 86.7695C65.8002 86.7992 65.7956 86.8305 65.7801 86.8568C65.7646 86.8831 65.7395 86.9024 65.7101 86.9105L26.2951 96.1979C26.29 96.1985 26.2849 96.1988 26.2798 96.1988Z" fill="#0C0C0C"/>
<path d="M116.351 27.8008C114.801 25.1811 111.29 24.8665 108.67 26.4175L108.504 26.5207L108.393 26.3412C106.79 23.7531 103.521 22.4035 100.933 24.0066C99.6906 24.7766 98.8047 26.0086 98.4703 27.4316C98.136 28.8547 98.3805 30.3522 99.1502 31.595L104.477 40.0091C104.649 40.2821 104.923 40.4761 105.237 40.5494C105.552 40.6226 105.883 40.5693 106.158 40.4007L114.611 35.2308C115.804 34.4559 116.65 33.2502 116.975 31.8656C117.299 30.481 117.076 29.0246 116.351 27.8008Z" fill="#1D868A"/>
<path opacity="0.2" d="M116.351 27.8008C114.801 25.1811 111.29 24.8665 108.67 26.4175L108.504 26.5207L108.393 26.3412C106.79 23.7531 103.521 22.4035 100.933 24.0066C99.6906 24.7766 98.8047 26.0086 98.4703 27.4316C98.136 28.8547 98.3805 30.3522 99.1502 31.595L104.477 40.0091C104.649 40.2821 104.923 40.4761 105.237 40.5494C105.552 40.6226 105.883 40.5693 106.158 40.4007L114.611 35.2308C115.804 34.4559 116.65 33.2502 116.975 31.8656C117.299 30.481 117.076 29.0246 116.351 27.8008Z" fill="white"/>
<path d="M93.202 3.09313C91.7935 2.26875 90.0663 3.03439 89.2422 4.44282L89.1909 4.53421L89.0923 4.47923C87.6674 3.68328 85.7844 3.90083 84.9885 5.32499C84.7991 5.66377 84.6783 6.03654 84.6331 6.42201C84.5878 6.80747 84.6189 7.19808 84.7246 7.57152C84.8304 7.94495 85.0086 8.2939 85.2492 8.59843C85.4898 8.90296 85.7881 9.1571 86.1269 9.34634L90.8122 11.9045C90.9642 11.9875 91.1428 12.0074 91.3093 11.9599C91.4759 11.9124 91.617 11.8013 91.7024 11.6506L94.3193 7.02849C94.6767 6.35508 94.7601 5.56958 94.5518 4.83617C94.3436 4.10277 93.8599 3.47824 93.202 3.09313Z" fill="#FCE468"/>
<path opacity="0.5" d="M93.202 3.09313C91.7935 2.26875 90.0663 3.03439 89.2422 4.44282L89.1909 4.53421L89.0923 4.47923C87.6674 3.68328 85.7844 3.90083 84.9885 5.32499C84.7991 5.66377 84.6783 6.03654 84.6331 6.42201C84.5878 6.80747 84.6189 7.19808 84.7246 7.57152C84.8304 7.94495 85.0086 8.2939 85.2492 8.59843C85.4898 8.90296 85.7881 9.1571 86.1269 9.34634L90.8122 11.9045C90.9642 11.9875 91.1428 12.0074 91.3093 11.9599C91.4759 11.9124 91.617 11.8013 91.7024 11.6506L94.3193 7.02849C94.6767 6.35508 94.7601 5.56958 94.5518 4.83617C94.3436 4.10277 93.8599 3.47824 93.202 3.09313Z" fill="white"/>
<path d="M115.503 96.4338H11.8514C11.7891 96.4338 11.7294 96.409 11.6853 96.3649C11.6412 96.3209 11.6165 96.2611 11.6165 96.1988C11.6165 96.1365 11.6412 96.0768 11.6853 96.0327C11.7294 95.9886 11.7891 95.9639 11.8514 95.9639H115.504C115.566 95.9639 115.626 95.9886 115.67 96.0327C115.714 96.0768 115.739 96.1365 115.739 96.1988C115.739 96.2611 115.714 96.3209 115.67 96.3649C115.626 96.409 115.566 96.4338 115.504 96.4338H115.503Z" fill="#292A2E"/>
</svg>
