<svg width="26" height="29" viewBox="0 0 26 29" fill="none" xmlns="http://www.w3.org/2000/svg">
<g clip-path="url(#clip0_0_370)">
<path d="M12.9943 8.88128C10.2416 8.88128 7.9747 11.4188 7.9747 14.5C7.9747 17.6266 10.2416 20.1188 12.9943 20.1188C15.747 20.1188 18.0139 17.6266 18.0139 14.5C18.0139 11.4188 15.747 8.88128 12.9943 8.88128ZM12.9943 18.125C11.2132 18.125 9.79634 16.4938 9.79634 14.5453C9.79634 12.5516 11.2132 10.9657 12.9943 10.9657C14.7755 10.9657 16.1923 12.5516 16.1923 14.5C16.1923 16.4938 14.735 18.125 12.9943 18.125Z" fill="#D6E4AA"/>
<path d="M24.5718 17.2641L22.3049 15.8594C22.3859 15.361 22.4263 14.8625 22.4263 14.3641C22.4263 13.8203 22.3859 13.3219 22.3454 12.8235L24.6528 11.3735C25.179 11.0563 25.3814 10.3313 25.1385 9.6969L22.7907 5.25627C22.5073 4.71252 21.8596 4.48596 21.3334 4.71252L18.9045 6.20784C18.7831 6.11721 18.6616 5.98127 18.5807 5.89065C18.1354 5.48284 17.7306 5.07502 17.0829 4.71252C17.0424 4.71252 17.0019 4.66721 17.0019 4.57659V2.94533C17.0019 1.76721 16.1518 0.770332 15.0588 0.770332H10.8893C9.83682 0.770332 8.94624 1.76721 8.94624 2.94533V4.71252C8.94624 4.75784 8.90576 4.80315 8.86528 4.84846C8.25807 5.16565 7.81278 5.61877 7.32701 6.02659C7.24605 6.11721 7.12461 6.20784 7.04365 6.29846L4.89817 4.93909C4.08855 4.44065 3.40038 4.75784 3.11701 5.30159L0.890572 9.60628C0.769129 9.96878 0.728648 10.3313 0.80961 10.6938C0.890572 11.0563 1.09298 11.3282 1.37634 11.5094L3.64326 12.8688C3.5623 13.3219 3.5623 13.8203 3.5623 14.4094C3.5623 14.9078 3.60278 15.4063 3.64326 15.9047L1.29538 17.3547C0.769129 17.6719 0.566725 18.3969 0.80961 19.0313L3.15749 23.4719C3.44086 24.0157 4.04807 24.2422 4.6148 24.0157L7.04365 22.5203C7.16509 22.611 7.24605 22.7016 7.36749 22.8375C7.81278 23.2907 8.25807 23.6985 8.90576 24.0157C8.94624 24.0157 8.98672 24.061 8.98672 24.1516V26.1C8.98672 27.2782 9.83682 28.275 10.9298 28.275H15.0588C16.1113 28.275 17.0019 27.2782 17.0019 26.1V24.0157C17.0019 23.9704 17.0424 23.925 17.0829 23.8797C17.6901 23.5625 18.0949 23.1547 18.5807 22.7016C18.7021 22.611 18.7831 22.5203 18.9045 22.3844L21.05 23.7438C21.8596 24.2422 22.5073 23.925 22.8311 23.3813L25.0981 19.0766C25.26 18.7594 25.3005 18.3969 25.2195 18.0797C25.1385 17.7625 24.8552 17.4453 24.5718 17.2641ZM21.4953 21.75L19.5522 20.5266C18.9855 20.1641 18.3378 20.2547 17.852 20.7078C17.6496 20.8891 17.4877 21.025 17.3258 21.2063C16.921 21.6141 16.6376 21.886 16.2328 22.0672C15.5851 22.4297 15.1398 23.2 15.1398 24.0157V26.0094C15.1398 26.1 15.0993 26.1454 15.0184 26.1454H10.8893C10.8084 26.1454 10.7679 26.1 10.7679 26.0094V24.061C10.7679 23.2453 10.3226 22.475 9.6749 22.1125C9.27009 21.886 8.94624 21.6141 8.54144 21.2063C8.37951 21.0703 8.21759 20.8891 8.01519 20.7532C7.73182 20.5266 7.40797 20.3907 7.04365 20.3907C6.80076 20.3907 6.5174 20.4813 6.27451 20.6172L4.33144 21.8407L2.71221 18.7594L4.6148 17.5813C5.18153 17.2188 5.50538 16.5391 5.42442 15.7688C5.38394 15.3157 5.34346 14.8625 5.34346 14.4094C5.34346 13.911 5.38394 13.4578 5.42442 13.0953C5.54586 12.325 5.22201 11.5547 4.6148 11.1922L2.83365 10.0594L4.4124 7.02346L6.35547 8.2469C6.9222 8.6094 7.5699 8.51877 8.05567 8.06565C8.21759 7.92971 8.37951 7.74846 8.54144 7.61252C8.94624 7.20471 9.27009 6.93284 9.6749 6.70627C10.3631 6.34377 10.7679 5.57346 10.7679 4.75784V2.99065C10.7679 2.90002 10.8084 2.85471 10.8893 2.85471H15.0184C15.0993 2.85471 15.1398 2.90002 15.1398 2.99065V4.71252C15.1398 5.52815 15.5851 6.29846 16.2328 6.66096C16.6376 6.88752 16.921 7.1594 17.3258 7.5219C17.4877 7.70315 17.6496 7.83909 17.852 8.02034C18.3378 8.47346 19.026 8.51878 19.5522 8.15628L21.4953 6.93284L23.1145 10.0141L21.2524 11.1922C20.6857 11.5547 20.3618 12.325 20.4833 13.0953C20.5237 13.5032 20.5642 13.9563 20.5642 14.4094C20.5642 14.8625 20.5237 15.3157 20.4428 15.7688C20.3213 16.5391 20.6452 17.2641 21.2524 17.6266L23.074 18.7594L21.4953 21.75Z" fill="#D6E4AA"/>
</g>
<defs>
<clipPath id="clip0_0_370">
<rect width="25.0638" height="28.0554" fill="white" transform="scale(1.03367)"/>
</clipPath>
</defs>
</svg>
