<svg width="184" height="157" viewBox="0 0 184 157" fill="none" xmlns="http://www.w3.org/2000/svg">
<path opacity="0.1" d="M183.156 108.155C178.131 82.8129 148.688 62.5585 142.945 36.1501C132.508 2.55141 98.1067 -2.76061 75.7519 11.8313C40.3307 34.9523 78.1178 40.69 8.66826 95.393C-8.48039 108.9 -3.01606 168.524 50.9326 154.841C79.9654 147.477 88.7913 146.444 101.85 145.231C134.766 142.175 191.592 150.695 183.156 108.155Z" fill="#00A4FD"/>
<path d="M143.834 114.507L92.9592 141.376L42.1611 114.507V73.9314H143.834V114.507Z" fill="white"/>
<path d="M92.9592 141.789C92.892 141.789 92.8257 141.772 92.7664 141.74L41.9699 114.871C41.9038 114.836 41.8485 114.784 41.8098 114.72C41.7712 114.656 41.7506 114.583 41.7503 114.508V73.9314C41.7503 73.8221 41.7937 73.7173 41.871 73.64C41.9483 73.5627 42.0531 73.5193 42.1624 73.5193H143.834C143.943 73.5193 144.048 73.5627 144.126 73.64C144.203 73.7173 144.246 73.8221 144.246 73.9314V114.507C144.246 114.581 144.225 114.655 144.187 114.719C144.148 114.782 144.093 114.835 144.027 114.869L93.1518 141.739C93.0926 141.771 93.0265 141.788 92.9592 141.789ZM42.5732 114.259L92.9592 140.911L143.422 114.258V74.3435H42.5732V114.259Z" fill="#262626"/>
<path d="M143.834 65.2244L92.9592 38.3548L115.82 27.3355L166.695 54.2054L143.834 65.2244Z" fill="white"/>
<path d="M143.834 65.6366C143.767 65.6366 143.701 65.6204 143.642 65.5892L92.7667 38.7192C92.6993 38.6835 92.6431 38.6298 92.6044 38.5641C92.5656 38.4985 92.5459 38.4233 92.5473 38.3471C92.5487 38.2708 92.5712 38.1965 92.6123 38.1323C92.6534 38.068 92.7115 38.0165 92.7802 37.9833L115.641 26.964C115.7 26.9358 115.763 26.9217 115.828 26.9229C115.893 26.9241 115.956 26.9406 116.013 26.9709L166.888 53.8409C166.955 53.8765 167.012 53.9301 167.05 53.9958C167.089 54.0614 167.109 54.1366 167.107 54.2128C167.106 54.289 167.083 54.3634 167.042 54.4276C167.001 54.4918 166.943 54.5433 166.874 54.5764L144.013 65.5957C143.957 65.6227 143.896 65.6367 143.834 65.6366ZM93.8735 38.371L143.843 64.7623L165.781 54.188L115.812 27.7974L93.8735 38.371Z" fill="#262626"/>
<path d="M42.1611 65.2244L93.036 38.3548L70.1748 27.3355L19.2999 54.2054L42.1611 65.2244Z" fill="white"/>
<path d="M42.1611 65.6366C42.0991 65.6367 42.0379 65.6227 41.9821 65.5957L19.1222 54.5764C19.0535 54.5433 18.9954 54.4918 18.9542 54.4276C18.9131 54.3634 18.8906 54.289 18.8892 54.2128C18.8878 54.1366 18.9075 54.0614 18.9463 53.9958C18.985 53.9301 19.0412 53.8765 19.1087 53.8409L69.9836 26.9709C70.0406 26.9406 70.104 26.9241 70.1685 26.9229C70.2331 26.9217 70.297 26.9358 70.3551 26.964L93.2164 37.9833C93.285 38.0165 93.3432 38.068 93.3843 38.1323C93.4254 38.1965 93.4479 38.2708 93.4493 38.3471C93.4507 38.4233 93.4309 38.4985 93.3922 38.5641C93.3535 38.6298 93.2973 38.6835 93.2299 38.7192L42.355 65.5892C42.2952 65.6206 42.2286 65.6369 42.1611 65.6366ZM20.2141 54.1887L42.1525 64.7629L92.1218 38.3717L70.1834 27.7974L20.2141 54.1887Z" fill="#262626"/>
<path d="M42.1611 65.2246L93.036 92.0946L66.8779 106.411L16.0029 79.5409L42.1611 65.2246Z" fill="white"/>
<path d="M66.8779 106.823C66.8107 106.823 66.7446 106.806 66.6853 106.775L15.8104 79.9048C15.7447 79.8699 15.6897 79.818 15.6511 79.7544C15.6126 79.6908 15.5919 79.618 15.5914 79.5437C15.5908 79.4693 15.6104 79.3962 15.648 79.3321C15.6857 79.268 15.74 79.2152 15.8051 79.1794L41.9633 64.8632C42.023 64.8304 42.09 64.813 42.1581 64.8125C42.2263 64.8121 42.2935 64.8286 42.3537 64.8605L93.2286 91.7305C93.2943 91.7654 93.3493 91.8173 93.3879 91.8809C93.4264 91.9444 93.4471 92.0173 93.4476 92.0916C93.4481 92.166 93.4286 92.2391 93.3909 92.3032C93.3533 92.3673 93.299 92.4201 93.2339 92.4558L67.0757 106.772C67.015 106.805 66.947 106.823 66.8779 106.823ZM16.8733 79.5342L66.8742 105.943L92.166 92.1008L42.1647 65.6924L16.8733 79.5342Z" fill="#262626"/>
<path d="M143.834 65.2246L92.9592 92.0946L119.117 106.411L169.992 79.5409L143.834 65.2246Z" fill="white"/>
<path d="M119.118 106.823C119.049 106.823 118.981 106.805 118.92 106.772L92.7621 92.4558C92.6969 92.4201 92.6426 92.3673 92.605 92.3032C92.5674 92.2391 92.5478 92.166 92.5483 92.0916C92.5489 92.0173 92.5695 91.9444 92.6081 91.8809C92.6466 91.8173 92.7017 91.7654 92.7673 91.7305L143.642 64.8605C143.702 64.8286 143.77 64.8121 143.838 64.8125C143.906 64.813 143.973 64.8304 144.033 64.8632L170.191 79.1794C170.256 79.2152 170.31 79.268 170.348 79.3321C170.386 79.3962 170.405 79.4693 170.405 79.5437C170.404 79.618 170.383 79.6908 170.345 79.7544C170.306 79.818 170.251 79.8699 170.186 79.9048L119.311 106.775C119.251 106.806 119.185 106.823 119.118 106.823ZM93.8306 92.1008L119.122 105.943L169.123 79.5342L143.832 65.6924L93.8306 92.1008Z" fill="#262626"/>
<path d="M93.036 38.3547L42.1611 65.2244L92.9592 92.0944L143.834 65.2244L93.036 38.3547Z" fill="#262626"/>
<path d="M93.3713 92.0943H92.5471V141.376H93.3713V92.0943Z" fill="#262626"/>
<path d="M64.455 62.785C64.3867 62.7851 64.3202 62.7637 64.2647 62.724C64.1934 62.6735 64.145 62.5967 64.1303 62.5105C64.1156 62.4243 64.1357 62.3358 64.1863 62.2644C64.2473 62.1784 70.2058 53.5642 63.5539 45.7109C62.3766 44.3137 60.9079 43.1909 59.2509 42.4211C57.5939 41.6513 55.7886 41.2532 53.9615 41.2548H53.8718C54.5035 43.4492 54.3907 45.4003 53.4963 46.8971C53.1152 47.5735 52.5527 48.13 51.8724 48.504C51.192 48.8779 50.4208 49.0545 49.6455 49.0138C49.0037 48.9612 48.3912 48.7226 47.883 48.3272C47.3747 47.9318 46.9928 47.3968 46.7841 46.7877C46.0525 44.8794 46.817 43.0292 48.8321 41.8367C50.1087 41.1327 51.5271 40.7247 52.9826 40.6428C52.5091 39.3875 51.8934 38.1905 51.1476 37.0752C48.7457 33.4071 44.3684 30.8678 39.1375 30.1085C34.7045 29.4653 30.456 30.2229 28.3127 32.0382C28.2459 32.0947 28.1595 32.1223 28.0723 32.1151C27.9852 32.1078 27.9045 32.0662 27.848 31.9994C27.7915 31.9327 27.7639 31.8462 27.7711 31.7591C27.7784 31.6719 27.82 31.5912 27.8867 31.5347C30.1675 29.6031 34.6207 28.7864 39.2321 29.4577C44.65 30.2443 49.1938 32.8895 51.6995 36.7155C52.5118 37.929 53.1726 39.2372 53.6671 40.6112C55.638 40.5638 57.5945 40.9593 59.3924 41.7684C61.1903 42.5775 62.7837 43.7796 64.0554 45.2862C71.0426 53.5348 64.7863 62.5572 64.7223 62.6475C64.6919 62.69 64.6517 62.7246 64.6052 62.7485C64.5587 62.7724 64.5072 62.785 64.455 62.785ZM53.1966 41.2788C51.7855 41.339 50.4073 41.7242 49.1694 42.4044C47.4299 43.4337 46.7857 44.9457 47.4013 46.5519C47.568 47.0441 47.8747 47.477 48.2836 47.7976C48.6925 48.1183 49.1861 48.3128 49.7038 48.3573C50.3557 48.3865 51.0029 48.2338 51.573 47.9163C52.143 47.5987 52.6135 47.1288 52.9319 46.5592C53.7528 45.1844 53.828 43.3569 53.1956 41.2788H53.1966Z" fill="#292A2E"/>
<path d="M22.6225 37.3538C22.0623 37.5221 21.4584 37.4651 20.9396 37.1949C20.4207 36.9246 20.0279 36.4625 19.8447 35.9069C19.6615 35.3514 19.7024 34.7462 19.9587 34.2204C20.215 33.6945 20.6664 33.2894 21.2169 33.0915C21.7674 32.8935 22.3734 32.9182 22.9059 33.1604C23.4384 33.4025 23.8554 33.843 24.068 34.388C24.2806 34.933 24.2721 35.5395 24.0442 36.0783C23.8163 36.6171 23.3872 37.0456 22.848 37.2727C22.7744 37.3039 22.6991 37.3309 22.6225 37.3538ZM21.5263 33.6903C21.4729 33.7063 21.4204 33.7253 21.369 33.747C20.9897 33.9069 20.6878 34.2087 20.5276 34.5879C20.3674 34.9672 20.3617 35.394 20.5115 35.7774C20.6614 36.1608 20.955 36.4706 21.3299 36.6408C21.7047 36.8109 22.1312 36.828 22.5185 36.6884C22.9058 36.5487 23.2232 36.2634 23.4033 35.8932C23.5833 35.5229 23.6116 35.097 23.4823 34.7062C23.3529 34.3153 23.0761 33.9904 22.7108 33.8007C22.3454 33.6109 21.9204 33.5713 21.5263 33.6903Z" fill="#292A2E"/>
<path d="M22.6186 32.1876C22.0886 32.3458 21.5188 32.3026 21.0188 32.0661C20.5188 31.8297 20.1238 31.4167 19.9098 30.9067C19.7382 30.4978 19.6918 30.0472 19.7763 29.6119C19.8608 29.1766 20.0726 28.7762 20.3847 28.4612C20.6968 28.1462 21.0953 27.9309 21.5299 27.8424C21.9644 27.754 22.4154 27.7964 22.8258 27.9642C23.2362 28.1321 23.5877 28.4179 23.8356 28.7855C24.0836 29.1531 24.217 29.586 24.219 30.0294C24.221 30.4728 24.0914 30.9069 23.8466 31.2766C23.6019 31.6464 23.253 31.9353 22.8441 32.1068C22.7704 32.1376 22.6951 32.1646 22.6186 32.1876ZM21.5237 28.5237C21.4696 28.5399 21.4165 28.5589 21.3644 28.5807C20.9776 28.7432 20.6712 29.0526 20.5124 29.4409C20.3537 29.8292 20.3556 30.2646 20.5178 30.6515C20.636 30.9335 20.8335 31.1753 21.0862 31.3474C21.339 31.5196 21.6362 31.6148 21.942 31.6216C22.2477 31.6284 22.5489 31.5465 22.8091 31.3857C23.0692 31.225 23.2772 30.9923 23.4079 30.7158C23.5386 30.4393 23.5864 30.1308 23.5454 29.8278C23.5045 29.5247 23.3767 29.24 23.1773 29.008C22.978 28.7761 22.7157 28.6069 22.4222 28.5209C22.1288 28.4348 21.8166 28.4357 21.5237 28.5234V28.5237Z" fill="#292A2E"/>
<path d="M21.9786 34.5191C23.5977 34.5191 24.9103 33.6425 24.9103 32.5611C24.9103 31.4797 23.5977 30.603 21.9786 30.603C20.3595 30.603 19.047 31.4797 19.047 32.5611C19.047 33.6425 20.3595 34.5191 21.9786 34.5191Z" fill="white"/>
<path d="M23.2763 34.6633C22.856 34.7876 22.4199 34.8502 21.9816 34.8493C20.1525 34.8493 18.7176 33.847 18.7176 32.5642C18.7176 31.2813 20.1482 30.2754 21.9766 30.2735C22.7738 30.2582 23.5581 30.4759 24.2334 30.8999C24.5367 31.0579 24.7909 31.296 24.9683 31.5882C25.1458 31.8805 25.2398 32.2159 25.2401 32.5578C25.2404 32.8998 25.147 33.2353 24.9701 33.5279C24.7931 33.8205 24.5394 34.0591 24.2364 34.2176C23.9402 34.4129 23.6166 34.5631 23.2763 34.6633ZM20.8821 31.0898C20.0011 31.3535 19.3767 31.9229 19.377 32.5625C19.377 33.4451 20.5695 34.1899 21.9816 34.1886C22.6486 34.2026 23.3053 34.0221 23.8714 33.669C24.0837 33.5712 24.2635 33.4146 24.3895 33.2177C24.5155 33.0208 24.5823 32.7919 24.5821 32.5581C24.5819 32.3244 24.5146 32.0956 24.3883 31.8989C24.262 31.7022 24.0819 31.5459 23.8694 31.4485C23.3029 31.0961 22.6459 30.9167 21.979 30.9322C21.6076 30.9312 21.2381 30.9843 20.8821 31.0898Z" fill="#292A2E"/>
<path d="M22.6977 34.4595L22.6285 30.6515L21.6816 30.6133L21.6153 34.504L22.6977 34.4595Z" fill="#292A2E"/>
<path d="M18.0892 33.3895C18.2564 33.3895 18.3919 33.254 18.3919 33.0868C18.3919 32.9197 18.2564 32.7842 18.0892 32.7842C17.9221 32.7842 17.7866 32.9197 17.7866 33.0868C17.7866 33.254 17.9221 33.3895 18.0892 33.3895Z" fill="#292A2E"/>
<path d="M18.3256 31.7701C18.4928 31.7701 18.6283 31.6346 18.6283 31.4675C18.6283 31.3003 18.4928 31.1648 18.3256 31.1648C18.1585 31.1648 18.023 31.3003 18.023 31.4675C18.023 31.6346 18.1585 31.7701 18.3256 31.7701Z" fill="#292A2E"/>
<path d="M116.258 43.7717C116.187 43.7717 116.119 43.749 116.062 43.7071C116.005 43.6651 115.963 43.6061 115.943 43.5386C114.849 39.4549 114.557 35.198 115.084 31.0033C115.936 24.871 119.318 16.8229 130.589 13.2988C132.175 12.7889 133.802 12.416 135.451 12.1841C135.983 8.86709 138.003 5.26882 142.521 2.78623C153.257 -3.11264 160.508 2.17992 160.58 2.23399C160.65 2.28646 160.696 2.36456 160.709 2.45112C160.721 2.53768 160.699 2.62561 160.646 2.69556C160.594 2.76551 160.516 2.81176 160.429 2.82413C160.343 2.83649 160.255 2.81397 160.185 2.7615C160.116 2.71007 153.186 -2.32138 142.839 3.36451C138.617 5.68456 136.684 9.01446 136.135 12.1057C141.106 11.6161 143.487 13.2744 144.556 14.5269C145.217 15.2801 145.641 16.2112 145.777 17.2041C145.913 18.1971 145.753 19.208 145.318 20.1109C144.975 20.8407 144.418 21.4492 143.721 21.8559C143.025 22.2625 142.221 22.4484 141.417 22.3888C138.64 22.2259 136.343 19.8904 135.564 16.4385C135.307 15.27 135.239 14.0679 135.361 12.8778C133.81 13.1007 132.279 13.4526 130.786 13.9299C122.002 16.6765 116.939 22.4524 115.736 31.096C115.221 35.1955 115.505 39.356 116.573 43.3474C116.588 43.3967 116.592 43.4488 116.583 43.4996C116.574 43.5505 116.554 43.5985 116.523 43.64C116.492 43.6814 116.452 43.7151 116.406 43.7383C116.36 43.7616 116.31 43.7737 116.258 43.7737V43.7717ZM136.034 12.7954C135.896 13.9628 135.955 15.145 136.207 16.2931C136.92 19.4509 138.979 21.585 141.455 21.7304C142.13 21.7787 142.803 21.622 143.388 21.2808C143.972 20.9395 144.439 20.4297 144.728 19.8182C145.105 19.0308 145.242 18.1499 145.122 17.2853C145.002 16.4206 144.63 15.6104 144.053 14.9555C142.511 13.1465 139.698 12.4159 136.034 12.7954Z" fill="#292A2E"/>
<path d="M168.26 5.56626C167.816 5.56533 167.381 5.43886 167.006 5.20143C166.631 4.964 166.33 4.6253 166.139 4.22441C165.948 3.82353 165.875 3.37681 165.927 2.93581C165.979 2.49481 166.154 2.0775 166.433 1.73205C166.712 1.3866 167.083 1.1271 167.504 0.983481C167.924 0.839866 168.376 0.817996 168.808 0.920396C169.24 1.0228 169.634 1.24529 169.946 1.5622C170.257 1.87912 170.472 2.27753 170.566 2.71145C170.64 3.05543 170.636 3.41158 170.554 3.75382C170.473 4.09606 170.316 4.41574 170.095 4.68943C169.874 4.96313 169.594 5.18392 169.277 5.33563C168.959 5.48735 168.612 5.56615 168.26 5.56626ZM168.265 1.51631C167.914 1.51631 167.572 1.62506 167.286 1.82759C167 2.03012 166.783 2.31646 166.667 2.64713C166.55 2.97781 166.539 3.33654 166.634 3.67389C166.73 4.01124 166.928 4.31061 167.201 4.53072C167.474 4.75083 167.809 4.88086 168.159 4.90287C168.509 4.92489 168.857 4.83782 169.155 4.65366C169.454 4.46949 169.688 4.19731 169.825 3.87461C169.962 3.55192 169.996 3.1946 169.921 2.8519C169.841 2.47275 169.632 2.13289 169.331 1.88961C169.029 1.64632 168.653 1.51449 168.265 1.51631Z" fill="#292A2E"/>
<path d="M167.267 10.9471C166.663 10.9471 166.082 10.7154 165.643 10.2997C165.205 9.88405 164.942 9.31605 164.91 8.71265C164.877 8.10925 165.077 7.51637 165.469 7.05607C165.86 6.59577 166.413 6.30308 167.014 6.23825C167.615 6.17342 168.218 6.34138 168.699 6.70756C169.179 7.07374 169.501 7.61027 169.598 8.2067C169.695 8.80312 169.56 9.41406 169.22 9.91373C168.88 10.4134 168.362 10.7638 167.772 10.8927C167.606 10.9289 167.437 10.9471 167.267 10.9471ZM167.276 6.89686C167.154 6.89691 167.032 6.91007 166.913 6.9361C166.492 7.02859 166.122 7.27898 165.88 7.63575C165.638 7.99251 165.542 8.42852 165.611 8.85406C165.681 9.2796 165.911 9.6623 166.254 9.92343C166.597 10.1846 167.027 10.3042 167.456 10.2579C167.884 10.2115 168.279 10.0026 168.558 9.67411C168.838 9.34565 168.981 8.92261 168.958 8.49205C168.934 8.06148 168.747 7.65614 168.434 7.35941C168.122 7.06269 167.707 6.89715 167.276 6.89686Z" fill="#292A2E"/>
<path d="M170.808 6.52955C171.016 5.40343 169.818 4.23831 168.132 3.92719C166.446 3.61607 164.91 4.27676 164.703 5.40288C164.495 6.529 165.693 7.69411 167.379 8.00523C169.065 8.31635 170.6 7.65566 170.808 6.52955Z" fill="white"/>
<path d="M168.209 8.41209C167.911 8.41161 167.613 8.38402 167.319 8.32967C166.49 8.19211 165.719 7.8156 165.101 7.2463C164.83 7.01539 164.622 6.71997 164.496 6.38735C164.369 6.05474 164.329 5.69566 164.378 5.34331C164.458 4.99661 164.624 4.67562 164.861 4.40997C165.097 4.14433 165.397 3.9426 165.732 3.82343C166.517 3.52722 167.367 3.45107 168.191 3.6032C169.016 3.75533 169.783 4.12996 170.41 4.68656C170.68 4.91747 170.888 5.21289 171.015 5.54551C171.141 5.87812 171.181 6.2372 171.132 6.58955C171.052 6.93625 170.886 7.25725 170.65 7.52289C170.413 7.78853 170.113 7.99026 169.778 8.10944C169.281 8.31517 168.747 8.41812 168.209 8.41209ZM167.299 4.17949C166.851 4.1738 166.407 4.25869 165.993 4.42907C165.759 4.50749 165.548 4.6431 165.379 4.82364C165.21 5.00417 165.089 5.22392 165.027 5.46299C165 5.70856 165.034 5.95701 165.128 6.18584C165.221 6.41467 165.369 6.61666 165.56 6.77352C166.094 7.23898 166.742 7.55238 167.438 7.68087C168.134 7.80935 168.852 7.74819 169.517 7.50379C169.751 7.42537 169.962 7.28976 170.131 7.10923C170.299 6.92869 170.42 6.70894 170.483 6.46987C170.51 6.22428 170.475 5.97578 170.382 5.74692C170.289 5.51806 170.14 5.31609 169.949 5.15934C169.424 4.68055 168.771 4.36514 168.07 4.2517C167.816 4.20441 167.558 4.18024 167.3 4.17949H167.299Z" fill="#292A2E"/>
<path d="M167.375 3.85132L166.712 7.8294L167.69 8.05227L168.51 4.01386L167.375 3.85132Z" fill="#292A2E"/>
<path d="M171.349 8.13092C171.526 8.13092 171.67 7.98744 171.67 7.81045C171.67 7.63347 171.526 7.48999 171.349 7.48999C171.172 7.48999 171.029 7.63347 171.029 7.81045C171.029 7.98744 171.172 8.13092 171.349 8.13092Z" fill="#292A2E"/>
<path d="M171.908 6.49029C172.085 6.49029 172.228 6.34681 172.228 6.16983C172.228 5.99284 172.085 5.84937 171.908 5.84937C171.731 5.84937 171.587 5.99284 171.587 6.16983C171.587 6.34681 171.731 6.49029 171.908 6.49029Z" fill="#292A2E"/>
</svg>
