<svg width="26" height="25" viewBox="0 0 26 25" fill="none" xmlns="http://www.w3.org/2000/svg">
<g clip-path="url(#clip0_0_268)">
<path d="M12.5736 7.65625C9.91007 7.65625 7.71654 9.84375 7.71654 12.5C7.71654 15.1953 9.91007 17.3437 12.5736 17.3437C15.2372 17.3437 17.4308 15.1953 17.4308 12.5C17.4308 9.84375 15.2372 7.65625 12.5736 7.65625ZM12.5736 15.625C10.8502 15.625 9.4792 14.2187 9.4792 12.5391C9.4792 10.8203 10.8502 9.45313 12.5736 9.45313C14.2971 9.45313 15.6681 10.8203 15.6681 12.5C15.6681 14.2187 14.258 15.625 12.5736 15.625Z" fill="#D6E4AA"/>
<path d="M23.7764 14.8828L21.5828 13.6719C21.6612 13.2422 21.7003 12.8125 21.7003 12.3828C21.7003 11.9141 21.6612 11.4844 21.622 11.0547L23.8547 9.8047C24.3639 9.53126 24.5598 8.90626 24.3247 8.35939L22.0529 4.53126C21.7787 4.06251 21.1519 3.8672 20.6427 4.06251L18.2925 5.35157C18.175 5.27345 18.0575 5.15626 17.9792 5.07814C17.5483 4.72658 17.1566 4.37501 16.5299 4.06251C16.4907 4.06251 16.4515 4.02345 16.4515 3.94533V2.53908C16.4515 1.52345 15.6289 0.664078 14.5713 0.664078H10.5368C9.51837 0.664078 8.65663 1.52345 8.65663 2.53908V4.06251C8.65663 4.10158 8.61746 4.14064 8.57829 4.1797C7.99073 4.45314 7.55986 4.84376 7.08981 5.19533C7.01147 5.27345 6.89396 5.35157 6.81562 5.4297L4.7396 4.25783C3.95619 3.82814 3.2903 4.10158 3.01611 4.57033L0.861741 8.28126C0.74423 8.59376 0.70506 8.90626 0.7834 9.21876C0.861741 9.53126 1.05759 9.76563 1.33178 9.92188L3.52532 11.0938C3.44698 11.4844 3.44698 11.9141 3.44698 12.4219C3.44698 12.8516 3.48615 13.2813 3.52532 13.7109L1.25344 14.9609C0.74423 15.2344 0.548379 15.8594 0.7834 16.4063L3.05528 20.2344C3.32947 20.7031 3.91702 20.8984 4.46541 20.7031L6.81562 19.4141C6.93313 19.4922 7.01147 19.5703 7.12899 19.6875C7.55986 20.0781 7.99073 20.4297 8.61746 20.7031C8.65663 20.7031 8.6958 20.7422 8.6958 20.8203V22.5C8.6958 23.5156 9.51837 24.375 10.576 24.375H14.5713C15.5898 24.375 16.4515 23.5156 16.4515 22.5V20.7031C16.4515 20.6641 16.4907 20.625 16.5299 20.5859C17.1174 20.3125 17.5091 19.9609 17.9792 19.5703C18.0967 19.4922 18.175 19.4141 18.2925 19.2969L20.3685 20.4688C21.1519 20.8984 21.7787 20.625 22.092 20.1563L24.2856 16.4453C24.4422 16.1719 24.4814 15.8594 24.4031 15.5859C24.3247 15.3125 24.0505 15.0391 23.7764 14.8828ZM20.7994 18.75L18.9192 17.6953C18.3709 17.3828 17.7441 17.4609 17.2741 17.8516C17.0782 18.0078 16.9216 18.125 16.7649 18.2813C16.3732 18.6328 16.099 18.8672 15.7073 19.0234C15.0806 19.3359 14.6497 20 14.6497 20.7031V22.4219C14.6497 22.5 14.6105 22.5391 14.5322 22.5391H10.5368C10.4585 22.5391 10.4193 22.5 10.4193 22.4219V20.7422C10.4193 20.0391 9.98842 19.375 9.36169 19.0625C8.96999 18.8672 8.65663 18.6328 8.26492 18.2813C8.10824 18.1641 7.95156 18.0078 7.75571 17.8906C7.48152 17.6953 7.16816 17.5781 6.81562 17.5781C6.5806 17.5781 6.30641 17.6563 6.07139 17.7734L4.19121 18.8281L2.6244 16.1719L4.46541 15.1563C5.01379 14.8438 5.32715 14.2578 5.24881 13.5938C5.20964 13.2031 5.17047 12.8125 5.17047 12.4219C5.17047 11.9922 5.20964 11.6016 5.24881 11.2891C5.36632 10.625 5.05296 9.96095 4.46541 9.64845L2.74191 8.67189L4.26955 6.0547L6.14973 7.10939C6.69811 7.42189 7.32484 7.34376 7.79488 6.95314C7.95156 6.83595 8.10824 6.6797 8.26492 6.56251C8.65663 6.21095 8.96999 5.97657 9.36169 5.78126C10.0276 5.46876 10.4193 4.8047 10.4193 4.10158V2.57814C10.4193 2.50001 10.4585 2.46095 10.5368 2.46095H14.5322C14.6105 2.46095 14.6497 2.50001 14.6497 2.57814V4.06251C14.6497 4.76564 15.0806 5.4297 15.7073 5.7422C16.099 5.93751 16.3732 6.17189 16.7649 6.48439C16.9216 6.64064 17.0782 6.75782 17.2741 6.91407C17.7441 7.3047 18.41 7.34376 18.9192 7.03126L20.7994 5.97657L22.3662 8.63282L20.5644 9.64845C20.016 9.96095 19.7026 10.625 19.8202 11.2891C19.8593 11.6406 19.8985 12.0313 19.8985 12.4219C19.8985 12.8125 19.8593 13.2031 19.781 13.5938C19.6635 14.2578 19.9768 14.8828 20.5644 15.1953L22.3271 16.1719L20.7994 18.75Z" fill="#D6E4AA"/>
</g>
<defs>
<clipPath id="clip0_0_268">
<rect width="25.0638" height="24.9948" fill="white"/>
</clipPath>
</defs>
</svg>
