<svg width="26" height="29" viewBox="0 0 26 29" fill="none" xmlns="http://www.w3.org/2000/svg">
<g clip-path="url(#clip0_0_365)">
<path d="M24.2885 26.1907H2.5503V1.81252C2.5503 1.26877 2.14549 0.770332 1.61924 0.770332C1.09299 0.770332 0.728661 1.26877 0.728661 1.81252V26.3266C0.728661 27.3688 1.4978 28.2297 2.42885 28.2297H24.2885C24.7742 28.2297 25.2195 27.7766 25.2195 27.1875C25.2195 26.5985 24.7742 26.1907 24.2885 26.1907Z" fill="white" fill-opacity="0.6"/>
<path d="M23.8837 10.0141H19.1474C18.6616 10.0141 18.2164 10.4672 18.2164 11.0563C18.2164 11.6453 18.6212 12.0984 19.1474 12.0984H21.9001L19.7546 14.1828H14.4516C14.1683 14.1828 13.8849 14.3188 13.723 14.5906L10.8489 18.8047H6.59838C6.11261 18.8047 5.66732 19.2578 5.66732 19.8469C5.66732 20.4359 6.07213 20.8891 6.59838 20.8891H11.2941C11.5775 20.8891 11.8609 20.7531 12.0228 20.4813L14.8969 16.2672H20.1189C20.3214 16.2672 20.5642 16.1766 20.7262 15.9953L23.3979 13.3672V16.8563C23.3979 17.4 23.8027 17.8984 24.3289 17.8984C24.8552 17.8984 25.26 17.4453 25.26 16.8563V11.4641C25.2195 10.6938 24.6123 10.0141 23.8837 10.0141Z" fill="white" fill-opacity="0.6"/>
</g>
<defs>
<clipPath id="clip0_0_365">
<rect width="25.0638" height="28.0554" fill="white" transform="scale(1.03367)"/>
</clipPath>
</defs>
</svg>
