<svg width="26" height="25" viewBox="0 0 26 25" fill="none" xmlns="http://www.w3.org/2000/svg">
<path d="M11.6867 23.6737C9.0637 23.6737 5.50146 23.6737 1.00001 23.6737C2.06562 19.7586 5.61523 17.6688 11.6488 17.4042M13 13.5965C9.3181 13.5965 6.33334 10.7767 6.33334 7.29824C6.33334 3.81982 9.3181 0.999999 13 0.999999C16.6819 0.999999 19.6667 3.81982 19.6667 7.29824C19.6667 10.7767 16.6819 13.5965 13 13.5965Z" stroke="black" stroke-width="2" stroke-linecap="round" stroke-linejoin="round"/>
<path d="M14.3133 23.6702C16.9363 23.6702 20.4985 23.6702 25 23.6702C23.9344 19.7557 20.3848 17.6662 14.3512 17.4017M13 13.5945C16.6819 13.5945 19.6667 10.7752 19.6667 7.29727C19.6667 3.81938 16.6819 0.999999 13 0.999999C9.3181 0.999999 6.33334 3.81938 6.33334 7.29727C6.33334 10.7752 9.3181 13.5945 13 13.5945Z" stroke="black" stroke-width="2" stroke-linecap="round" stroke-linejoin="round"/>
<line x1="11.3333" y1="17.6842" x2="14.6667" y2="17.6842" stroke="black" stroke-width="2" stroke-linecap="round"/>
<line x1="11.3333" y1="24" x2="14.6667" y2="24" stroke="black" stroke-width="2" stroke-linecap="round"/>
</svg>
