<svg width="333" height="13" viewBox="0 0 333 13" fill="none" xmlns="http://www.w3.org/2000/svg">
<path d="M12.7262 4.81696H12.1337L10.61 0.635638C10.541 0.446516 10.4285 0.285841 10.2862 0.173037C10.1438 0.0602336 9.97775 0.000132481 9.808 0H3.35704C3.18729 0.000132456 3.02121 0.0602412 2.87887 0.173058C2.73654 0.285875 2.62405 0.446567 2.55501 0.635704L1.03132 4.81696H0.438835C0.322449 4.81696 0.210829 4.87335 0.128532 4.97372C0.0462342 5.07409 0 5.21023 0 5.35217C0 5.49412 0.0462342 5.63026 0.128532 5.73063C0.210829 5.831 0.322449 5.88739 0.438835 5.88739H0.87767V11.2396C0.877936 11.5234 0.97049 11.7954 1.13503 11.9961C1.29956 12.1968 1.52265 12.3097 1.75534 12.31H3.07184C3.30453 12.3097 3.52762 12.1968 3.69216 11.9961C3.85669 11.7954 3.94925 11.5234 3.94951 11.2396V10.1691H9.21553V11.2396C9.2158 11.5234 9.30835 11.7954 9.47289 11.9961C9.63743 12.1968 9.86051 12.3097 10.0932 12.31H11.4097C11.6424 12.3097 11.8655 12.1968 12.03 11.9961C12.1946 11.7954 12.2871 11.5234 12.2874 11.2396V5.88739H12.7262C12.8426 5.88739 12.9542 5.831 13.0365 5.73063C13.1188 5.63026 13.165 5.49412 13.165 5.35217C13.165 5.21023 13.1188 5.07409 13.0365 4.97372C12.9542 4.87335 12.8426 4.81696 12.7262 4.81696ZM3.35704 1.07043H9.808L11.1733 4.81696H1.99178L3.35704 1.07043ZM3.07184 11.2396H1.75534V10.1691H3.07184V11.2396ZM10.0932 11.2396V10.1691H11.4097V11.2396H10.0932ZM11.4097 9.0987H1.75534V5.88739H11.4097V9.0987ZM2.63301 7.49304C2.63301 7.3511 2.67925 7.21497 2.76155 7.1146C2.84384 7.01422 2.95546 6.95783 3.07184 6.95783H3.94951C4.0659 6.95783 4.17752 7.01421 4.25982 7.11459C4.34211 7.21496 4.38835 7.3511 4.38835 7.49304C4.38835 7.63499 4.34211 7.77113 4.25982 7.8715C4.17752 7.97187 4.0659 8.02826 3.94951 8.02826H3.07184C2.95546 8.02825 2.84384 7.97186 2.76155 7.87149C2.67925 7.77112 2.63301 7.63499 2.63301 7.49304ZM8.7767 7.49304C8.7767 7.3511 8.82294 7.21497 8.90524 7.1146C8.98753 7.01422 9.09915 6.95783 9.21553 6.95783H10.0932C10.2096 6.95783 10.3212 7.01421 10.4035 7.11459C10.4858 7.21496 10.532 7.3511 10.532 7.49304C10.532 7.63499 10.4858 7.77113 10.4035 7.8715C10.3212 7.97187 10.2096 8.02826 10.0932 8.02826H9.21553C9.09915 8.02825 8.98753 7.97186 8.90524 7.87149C8.82294 7.77112 8.7767 7.63499 8.7767 7.49304Z" fill="black"/>
<path d="M332.523 1.89385H330.137V1.42038C330.137 1.04381 329.986 0.682773 329.717 0.416491C329.449 0.15021 329.085 0.000425753 328.705 0H325.842C325.463 0.000425753 325.099 0.15021 324.83 0.416491C324.562 0.682773 324.411 1.04381 324.411 1.42038V1.89385H322.024C321.898 1.89385 321.777 1.94373 321.687 2.03252C321.598 2.12131 321.547 2.24174 321.547 2.36731C321.547 2.49288 321.598 2.6133 321.687 2.7021C321.777 2.79089 321.898 2.84077 322.024 2.84077H322.502V11.3631C322.502 11.6141 322.603 11.8548 322.782 12.0323C322.96 12.2099 323.203 12.3097 323.456 12.31H331.091C331.344 12.3097 331.587 12.2099 331.766 12.0323C331.945 11.8548 332.045 11.6141 332.046 11.3631V2.84077H332.523C332.649 2.84077 332.771 2.79089 332.86 2.7021C332.95 2.6133 333 2.49288 333 2.36731C333 2.24174 332.95 2.12131 332.86 2.03252C332.771 1.94373 332.649 1.89385 332.523 1.89385ZM325.365 1.42038C325.365 1.29486 325.416 1.17452 325.505 1.08576C325.594 0.996995 325.716 0.947067 325.842 0.946923H328.705C328.832 0.947067 328.953 0.996995 329.043 1.08576C329.132 1.17452 329.183 1.29486 329.183 1.42038V1.89385H325.365V1.42038ZM331.091 11.3631H323.456V2.84077H331.091V11.3631ZM326.319 5.20808V8.99577C326.319 9.12134 326.269 9.24177 326.18 9.33056C326.09 9.41935 325.969 9.46923 325.842 9.46923C325.716 9.46923 325.594 9.41935 325.505 9.33056C325.415 9.24177 325.365 9.12134 325.365 8.99577V5.20808C325.365 5.08251 325.415 4.96208 325.505 4.87329C325.594 4.7845 325.716 4.73462 325.842 4.73462C325.969 4.73462 326.09 4.7845 326.18 4.87329C326.269 4.96208 326.319 5.08251 326.319 5.20808ZM329.183 5.20808V8.99577C329.183 9.12134 329.132 9.24177 329.043 9.33056C328.953 9.41935 328.832 9.46923 328.705 9.46923C328.579 9.46923 328.458 9.41935 328.368 9.33056C328.279 9.24177 328.228 9.12134 328.228 8.99577V5.20808C328.228 5.08251 328.279 4.96208 328.368 4.87329C328.458 4.7845 328.579 4.73462 328.705 4.73462C328.832 4.73462 328.953 4.7845 329.043 4.87329C329.132 4.96208 329.183 5.08251 329.183 5.20808Z" fill="black"/>
</svg>
