<svg width="15" height="18" viewBox="0 0 15 18" fill="none" xmlns="http://www.w3.org/2000/svg">
<path d="M4.05818 17.5H4.07786H4.0975H4.11711H4.13667H4.1562H4.1757H4.19515H4.21457H4.23396H4.2533H4.27261H4.29189H4.31112H4.33032H4.34949H4.36862H4.38771H4.40677H4.42579H4.44478H4.46373H4.48265H4.50153H4.52038H4.5392H4.55798H4.57672H4.59543H4.61411H4.63275H4.65136H4.66993H4.68847H4.70698H4.72546H4.7439H4.76231H4.78068H4.79903H4.81734H4.83562H4.85386H4.87208H4.89026H4.90841H4.92652H4.94461H4.96267H4.98069H4.99868H5.01664H5.03457H5.05247H5.07034H5.08818H5.10598H5.12376H5.14151H5.15923H5.17691H5.19457H5.2122H5.22979H5.24736H5.2649H5.28241H5.29989H5.31735H5.33477H5.35216H5.36953H5.38687H5.40418H5.42146H5.43872H5.45594H5.47314H5.49031H5.50746H5.52457H5.54166H5.55872H5.57576H5.59277H5.60975H5.62671H5.64364H5.66054H5.67742H5.69427H5.71109H5.72789H5.74467H5.76142H5.77814H5.79484H5.81151H5.82816H5.84479H5.86138H5.87796H5.89451H5.91104H5.92754H5.94402H5.96047H5.9769H5.99331H6.0097H6.02606H6.04239H6.05871H6.075H6.09127H6.10752H6.12374H6.13994H6.15612H6.17228H6.18842H6.20453H6.22062H6.23669H6.25274H6.26877H6.28478H6.30077H6.31673H6.33268H6.3486H6.3645H6.38039H6.39625H6.41209H6.42792H6.44372H6.4595H6.47527H6.49101H6.50674H6.52244H6.53813H6.5538H6.56945H6.58508H6.60069H6.61629H6.63186H6.64742H6.66296H6.67849H6.69399H6.70948H6.72495H6.7404H6.75584H6.77126H6.78666H6.80204H6.81741H6.83276H6.8481H6.86342H6.87872H6.89401H6.90928H6.92454H6.93978H6.955H6.97021H6.98541H7.00059H7.01575H7.0309H7.04604H7.06116H7.07627H7.09136H7.10644H7.12151H7.13656H7.15159H7.16662H7.18163H7.19663H7.21161H7.22658H7.24154H7.25649H7.27142H7.28634H7.30125H7.31614H7.33103H7.3459H7.36076H7.37561H7.39045H7.40527H7.42009H7.43489H7.44968H7.46447H7.47924H7.494H7.50875H7.52349H7.53822H7.55294H7.56765H7.58235H7.59704H7.61172H7.62639H7.64105H7.6557H7.67035H7.68498H7.69961H7.71423H7.72884H7.74344H7.75803H7.77261H7.78719H7.80176H7.81632H7.83088H7.84542H7.85996H7.87449H7.88902H7.90354H7.91805H7.93255H7.94705H7.96155H7.97603H7.99051H8.00499H8.01946H8.03392H8.04838H8.06283H8.07727H8.09172H8.10615H8.12058H8.13501H8.14943H8.16385H8.17827H8.19268H8.20708H8.22148H8.23588H8.25027H8.26467H8.27905H8.29344H8.30782H8.3222H8.33657H8.35094H8.36531H8.37968H8.39405H8.40841H8.42277H8.43713H8.45149H8.46584H8.4802H8.49455H8.5089H8.52325H8.5376H8.55195H8.5663H8.58064H8.59499H8.60934H8.62368H8.63803H8.65237H8.66672H8.68107H8.69542H8.70976H8.72411H8.73846H8.75281H8.76716H8.78152H8.79587H8.81023H8.82459H8.83895H8.85331H8.86767H8.88204H8.89641H8.91078H8.92515H8.93953H8.95391H8.96829H8.98267H8.99706H9.01145H9.02585H9.04025H9.05465H9.06906H9.08347H9.09789H9.11231H9.12673H9.14116H9.15559H9.17003H9.18447H9.19892H9.21338H9.22784H9.2423H9.25677H9.27125H9.28573H9.30022H9.31471H9.32922H9.34372H9.35824H9.37276H9.38729H9.40182H9.41636H9.43091H9.44547H9.46003H9.47461H9.48919H9.50378H9.51837H9.53297H9.54759H9.56221H9.57684H9.59148H9.60612H9.62078H9.63545H9.65012H9.66481H9.6795H9.6942H9.70892H9.72364H9.73837H9.75312H9.76787H9.78264H9.79741H9.8122H9.82699H9.8418H9.85662H9.87145H9.88629H9.90115H9.91601H9.93089H9.94578H9.96068H9.97559H9.99052H10.0055H10.0204H10.0354H10.0503H10.0653H10.0803H10.0954H10.1104H10.1254H10.1405H10.1556H10.1706H10.1857H10.2008H10.216H10.2311H10.2463H10.2614H10.2766H10.2918H10.307H10.3223H10.3375H10.3528H10.3681H10.3834H10.3987H10.414H10.4293H10.4447H10.4601H10.4755H10.4909H10.5063H10.5217H10.5372H10.5527H10.5682H10.5837H10.5992H10.6148H10.6303H10.6459H10.6615H10.6771L10.6928 17.5H10.7084H10.7241H10.7398H10.7555H10.7712H10.787H10.8028H10.8185H10.8344H10.8502H10.866H10.8819H10.8978H10.9137H10.9296H10.9456H10.9616H10.9776H10.9936H11.0096H11.0257H11.0418H11.0579H11.074H11.0901H11.1063H11.1225H11.1387H11.1549H11.1712H11.1875H11.2038H11.2201H11.2364H11.2528H11.2692H11.2856H11.302H11.3185H11.335H11.3515H11.368H11.3846H11.4012H11.4178H11.4344H11.4511H11.4678H11.4845H11.5012H11.518H11.5348H11.5516H11.5684H11.5853H11.6022H11.6191H11.636H11.653H11.67H11.687H11.704H11.7211H11.7382H11.7553H11.7725H11.7897H11.8069H11.8241H11.8414H11.8587H11.876H11.8933H11.9107H11.9281H11.9456H11.963H11.9805H11.998H12.0156H12.0332H12.0508H12.0684H12.0861H12.1038H12.1215H12.1393H12.1571H12.1749C13.0326 17.5 13.6215 17.2444 14.0167 16.8263C14.4173 16.4025 14.649 15.7802 14.7235 14.9921C14.873 13.41 14.3788 11.2665 13.5393 9.08998C12.7024 6.92054 11.5356 4.75202 10.3732 3.13C9.79166 2.31844 9.21661 1.65133 8.69039 1.18993C8.15335 0.719036 7.70934 0.5 7.38538 0.5C6.64269 0.5 5.82184 0.935275 4.99343 1.79835C4.16919 2.65709 3.36537 3.91166 2.65989 5.47828C1.2741 8.55565 0.284888 12.7992 0.250904 17.5H0.253195H0.256797H0.260429H0.26409H0.267782H0.271504H0.275256H0.279038H0.282851H0.286694H0.290568H0.294472H0.298408H0.302373H0.30637H0.310398H0.314457H0.318547H0.322668H0.326821H0.331005H0.335221H0.339468H0.343747H0.348058H0.3524H0.356775H0.361181H0.36562H0.370091H0.374594H0.37913H0.383698H0.388299H0.392932H0.397598H0.402297H0.407029H0.411794H0.416592H0.421423H0.426288H0.431186H0.436117H0.441082H0.44608H0.451112H0.456178H0.461278H0.466412H0.47158H0.476782H0.482019H0.487289H0.492595H0.497934H0.503308H0.508717H0.514161H0.51964H0.525153H0.530702H0.536285H0.541904H0.547559H0.553248H0.558973H0.564734H0.57053H0.576362H0.58223H0.588134H0.594074H0.60005H0.606062H0.61211H0.618195H0.624316H0.630474H0.636668H0.642899H0.649167H0.655472H0.661814H0.668192H0.674608H0.681062H0.687552H0.69408H0.700645H0.707248H0.713889H0.720568H0.727284H0.734038H0.740831H0.747661H0.75453H0.761437H0.768382H0.775366H0.782388H0.789449H0.796549H0.803688H0.810865H0.818082H0.825337H0.832632H0.839966H0.847339H0.854752H0.862204H0.869696H0.877228H0.8848H0.892411H0.900062H0.907754H0.915485H0.923257H0.931069H0.938922H0.946815H0.954748H0.962722H0.970737H0.978793H0.98689H0.995028H1.00321H1.01143H1.01969H1.02799H1.03634H1.04472H1.05315H1.06162H1.07013H1.07868H1.08728H1.09591H1.10459H1.11331H1.12208H1.13088H1.13973H1.14863H1.15756H1.16654H1.17556H1.18462H1.19372H1.20287H1.21207H1.2213H1.23058H1.2399H1.24927H1.25868H1.26813H1.27763H1.28717H1.29675H1.30638H1.31606H1.32577H1.33554H1.34534H1.35519H1.36509H1.37503H1.38502H1.39505H1.40512H1.41524H1.42541H1.43562H1.44587H1.45617H1.46652H1.47691H1.48735H1.49784H1.50837H1.51894H1.52956H1.54023H1.55095H1.56171H1.57251H1.58337H1.59427H1.60521H1.61621H1.62725H1.63833H1.64947H1.66065H1.67188H1.68315H1.69448H1.70585H1.71727H1.72873H1.74025H1.75181H1.76342H1.77507H1.78678H1.79853H1.81033H1.82218H1.83408H1.84603H1.85802H1.87007H1.88216H1.8943H1.90649H1.91873H1.93102H1.94336H1.95575H1.96818H1.98067H1.99321H2.00579H2.01843H2.03111H2.04385H2.05663H2.06947H2.08235H2.09529H2.10827H2.12131H2.1344H2.14754H2.16072H2.17396H2.18725H2.20059H2.21399H2.22743H2.24092H2.25447H2.26807H2.28171H2.29541H2.30917H2.32297H2.33683H2.35073H2.36469H2.3787H2.39277H2.40688H2.42105H2.43527H2.44955H2.46387H2.47825H2.49268H2.50717H2.52171H2.5363H2.55094H2.56564H2.58039H2.59519H2.61005H2.62496H2.63992H2.65494H2.67002H2.68514H2.70032H2.71556H2.73085H2.74619H2.76159H2.77704H2.79255H2.80811H2.82372H2.83939H2.85512H2.8709H2.88674H2.90263H2.91857H2.93458H2.95063H2.96675H2.98291H2.99914H3.01542H3.03176H3.04815H3.0646H3.0811H3.09766H3.11428H3.13095H3.14768H3.16447H3.18131H3.19821H3.21517H3.23218H3.24925H3.26638H3.28356H3.30081H3.31811H3.33546H3.35288H3.37035H3.38788H3.40547H3.42311H3.44082H3.45858H3.4764H3.49428H3.51222H3.53021H3.54827H3.56638H3.58455H3.60278H3.62107H3.63942H3.65783H3.67629H3.69482H3.7134H3.73205H3.75075H3.76951H3.78834H3.80722H3.82616H3.84517H3.86423H3.88335H3.90253H3.92178H3.94108H3.96045H3.97987H3.99936H4.0189H4.03851H4.05818Z" stroke="black" stroke-width="0.5"/>
<path d="M10.7965 6.05068H9.18835V5.26098C9.18835 4.84459 8.84375 4.5 8.42737 4.5H6.25929C5.84291 4.5 5.49831 4.84459 5.49831 5.26098V6.05068H3.90456C3.41639 6.05068 3 6.4527 3 6.95524V12.0954C3 12.5836 3.40203 13 3.90456 13H10.7965C11.2846 13 11.701 12.598 11.701 12.0954V6.95524C11.6867 6.4527 11.2846 6.05068 10.7965 6.05068ZM6.15878 5.26098C6.15878 5.20355 6.20186 5.16047 6.25929 5.16047H8.42737C8.4848 5.16047 8.54223 5.20355 8.54223 5.27534V6.06503H6.15878V5.26098ZM11.0405 12.0954C11.0405 12.239 10.9257 12.3539 10.7821 12.3539H3.90456C3.76098 12.3539 3.64612 12.239 3.64612 12.0954V6.95524C3.64612 6.81166 3.76098 6.69679 3.90456 6.69679H10.7965C10.94 6.69679 11.0549 6.81166 11.0549 6.95524V12.0954H11.0405Z" fill="black"/>
</svg>
