<svg width="26" height="25" viewBox="0 0 26 25" fill="none" xmlns="http://www.w3.org/2000/svg">
<g clip-path="url(#clip0_0_260)">
<path d="M12.8961 11.6016V12.1017H13.3962H16.5299C16.725 12.1017 16.8915 12.2697 16.8915 12.4609C16.8915 12.7058 16.7106 12.8593 16.5299 12.8593H13.4354H12.9353V13.3594V16.4453C12.9353 16.6902 12.7544 16.8436 12.5737 16.8436C12.3247 16.8436 12.1728 16.6612 12.1728 16.4844V13.3984V12.8983H11.6727H8.57829C8.32934 12.8983 8.17748 12.7159 8.17748 12.5391C8.17748 12.2941 8.35839 12.1407 8.53912 12.1407H11.6336H12.1337V11.6406V8.55469C12.1337 8.30978 12.3146 8.15636 12.4953 8.15636C12.7443 8.15636 12.8961 8.33875 12.8961 8.51563V11.6016Z" fill="white" stroke="white"/>
<path d="M1.20517 12.5C1.20517 6.25408 6.26795 1.20325 12.5345 1.20325C18.8021 1.20325 23.9038 6.25544 23.9421 12.5014C23.9414 18.7467 18.8397 23.8358 12.5737 23.8358C6.30712 23.8358 1.20517 18.7459 1.20517 12.5ZM1.96762 12.5C1.96762 18.3219 6.69488 23.0782 12.5345 23.0782C18.3716 23.0782 23.1405 18.3244 23.1405 12.5C23.1405 6.67313 18.369 1.96086 12.5345 1.96086C6.69741 1.96086 1.96762 6.67565 1.96762 12.5Z" fill="white" stroke="white"/>
</g>
<defs>
<clipPath id="clip0_0_260">
<rect width="25.0638" height="24.9948" fill="white"/>
</clipPath>
</defs>
</svg>
