<svg width="16" height="16" viewBox="0 0 16 16" fill="none" xmlns="http://www.w3.org/2000/svg">
<g clip-path="url(#clip0_878_2829)">
<path fill-rule="evenodd" clip-rule="evenodd" d="M4.22875 2.89541C5.22894 1.89522 6.5855 1.33331 7.99998 1.33331C9.41447 1.33331 10.771 1.89522 11.7712 2.89541C12.7714 3.8956 13.3333 5.25216 13.3333 6.66665C13.3333 7.92798 13.0653 8.75331 12.3333 9.66665L7.99998 14.6666L3.66665 9.66665C2.93465 8.75331 2.66665 7.92798 2.66665 6.66665C2.66665 5.25216 3.22855 3.8956 4.22875 2.89541ZM10 6.66671C10 7.77128 9.10457 8.66671 8 8.66671C6.89543 8.66671 6 7.77128 6 6.66671C6 5.56214 6.89543 4.66671 8 4.66671C9.10457 4.66671 10 5.56214 10 6.66671Z" fill="#BCBCBC"/>
<path d="M4.22875 2.89541L4.5823 3.24896L4.22875 2.89541ZM11.7712 2.89541L12.1248 2.54186V2.54186L11.7712 2.89541ZM12.3333 9.66665L12.7112 9.99411C12.7154 9.98927 12.7195 9.98434 12.7235 9.97934L12.3333 9.66665ZM7.99998 14.6666L7.62214 14.9941C7.71711 15.1037 7.85498 15.1666 7.99998 15.1666C8.14499 15.1666 8.28286 15.1037 8.37783 14.9941L7.99998 14.6666ZM3.66665 9.66665L3.27649 9.97934C3.2805 9.98434 3.28461 9.98927 3.28881 9.99411L3.66665 9.66665ZM7.99998 0.833313C6.45289 0.833313 4.96916 1.44789 3.87519 2.54186L4.5823 3.24896C5.48873 2.34254 6.7181 1.83331 7.99998 1.83331V0.833313ZM12.1248 2.54186C11.0308 1.44789 9.54708 0.833313 7.99998 0.833313V1.83331C9.28186 1.83331 10.5112 2.34254 11.4177 3.24896L12.1248 2.54186ZM13.8333 6.66665C13.8333 5.11955 13.2187 3.63582 12.1248 2.54186L11.4177 3.24896C12.3241 4.15539 12.8333 5.38477 12.8333 6.66665H13.8333ZM12.7235 9.97934C13.1183 9.48665 13.4015 9.00036 13.5824 8.45447C13.7626 7.9108 13.8333 7.33262 13.8333 6.66665H12.8333C12.8333 7.26201 12.77 7.72716 12.6332 8.13983C12.4972 8.55026 12.2803 8.93331 11.9432 9.35395L12.7235 9.97934ZM8.37783 14.9941L12.7112 9.99411L11.9555 9.33918L7.62214 14.3392L8.37783 14.9941ZM3.28881 9.99411L7.62214 14.9941L8.37783 14.3392L4.0445 9.33918L3.28881 9.99411ZM2.16665 6.66665C2.16665 7.33262 2.23733 7.9108 2.41755 8.45447C2.5985 9.00036 2.88162 9.48665 3.27649 9.97934L4.05681 9.35395C3.71968 8.93331 3.5028 8.55026 3.36676 8.13983C3.22997 7.72716 3.16665 7.26201 3.16665 6.66665H2.16665ZM3.87519 2.54186C2.78123 3.63582 2.16665 5.11955 2.16665 6.66665H3.16665C3.16665 5.38477 3.67588 4.15539 4.5823 3.24896L3.87519 2.54186ZM8 9.16671C9.38071 9.16671 10.5 8.04742 10.5 6.66671H9.5C9.5 7.49514 8.82843 8.16671 8 8.16671V9.16671ZM5.5 6.66671C5.5 8.04742 6.61929 9.16671 8 9.16671V8.16671C7.17157 8.16671 6.5 7.49514 6.5 6.66671H5.5ZM8 4.16671C6.61929 4.16671 5.5 5.286 5.5 6.66671H6.5C6.5 5.83828 7.17157 5.16671 8 5.16671V4.16671ZM10.5 6.66671C10.5 5.286 9.38071 4.16671 8 4.16671V5.16671C8.82843 5.16671 9.5 5.83828 9.5 6.66671H10.5Z" fill="#BCBCBC"/>
</g>
<defs>
<clipPath id="clip0_878_2829">
<rect width="16" height="16" fill="white"/>
</clipPath>
</defs>
</svg>
