<svg width="16" height="18" viewBox="0 0 16 18" fill="none" xmlns="http://www.w3.org/2000/svg">
<path d="M15.379 7.04348H14.663L12.8217 0.929446C12.7383 0.652908 12.6023 0.417964 12.4303 0.25302C12.2583 0.0880752 12.0576 0.000193717 11.8525 0H4.05683C3.8517 0.00019368 3.65099 0.0880863 3.47899 0.25305C3.30698 0.418013 3.17105 0.652982 3.08761 0.929543L1.2463 7.04348H0.530312C0.389664 7.04348 0.254777 7.12593 0.155325 7.2727C0.0558719 7.41947 0 7.61853 0 7.82609C0 8.03365 0.0558719 8.23271 0.155325 8.37947C0.254777 8.52624 0.389664 8.6087 0.530312 8.6087H1.06062V16.4348C1.06094 16.8498 1.17279 17.2476 1.37163 17.541C1.57046 17.8345 1.84005 17.9995 2.12125 18H3.71218C3.99338 17.9995 4.26296 17.8345 4.4618 17.541C4.66064 17.2476 4.77248 16.8498 4.7728 16.4348V14.8696H11.1365V16.4348C11.1369 16.8498 11.2487 17.2476 11.4475 17.541C11.6464 17.8345 11.916 17.9995 12.1972 18H13.7881C14.0693 17.9995 14.3389 17.8345 14.5377 17.541C14.7366 17.2476 14.8484 16.8498 14.8487 16.4348V8.6087H15.379C15.5197 8.6087 15.6546 8.52624 15.754 8.37947C15.8535 8.23271 15.9093 8.03365 15.9093 7.82609C15.9093 7.61853 15.8535 7.41947 15.754 7.2727C15.6546 7.12593 15.5197 7.04348 15.379 7.04348ZM4.05683 1.56522H11.8525L13.5024 7.04348H2.40697L4.05683 1.56522ZM3.71218 16.4348H2.12125V14.8696H3.71218V16.4348ZM12.1972 16.4348V14.8696H13.7881V16.4348H12.1972ZM13.7881 13.3043H2.12125V8.6087H13.7881V13.3043ZM3.18187 10.9565C3.18188 10.749 3.23775 10.5499 3.3372 10.4031C3.43665 10.2564 3.57154 10.1739 3.71218 10.1739H4.7728C4.91345 10.1739 5.04834 10.2564 5.14779 10.4031C5.24724 10.5499 5.30312 10.749 5.30312 10.9565C5.30312 11.1641 5.24724 11.3631 5.14779 11.5099C5.04834 11.6567 4.91345 11.7391 4.7728 11.7391H3.71218C3.57154 11.7391 3.43665 11.6567 3.3372 11.5099C3.23775 11.3631 3.18188 11.1641 3.18187 10.9565ZM10.6062 10.9565C10.6062 10.749 10.6621 10.5499 10.7616 10.4031C10.861 10.2564 10.9959 10.1739 11.1365 10.1739H12.1972C12.3378 10.1739 12.4727 10.2564 12.5722 10.4031C12.6716 10.5499 12.7275 10.749 12.7275 10.9565C12.7275 11.1641 12.6716 11.3631 12.5722 11.5099C12.4727 11.6567 12.3378 11.7391 12.1972 11.7391H11.1365C10.9959 11.7391 10.861 11.6567 10.7616 11.5099C10.6621 11.3631 10.6062 11.1641 10.6062 10.9565Z" fill="black"/>
</svg>
