<svg width="15" height="15" viewBox="0 0 15 15" fill="none" xmlns="http://www.w3.org/2000/svg">
<path d="M3.23208 11.5204H1.54609C1.12462 11.4876 0.731724 11.3076 0.44534 11.0161C0.158956 10.7247 0 10.3431 0 9.94699C0 9.55092 0.158956 9.16932 0.44534 8.87786C0.731724 8.58641 1.12462 8.40641 1.54609 8.37354H4.22041L5.94128 6.76198L1.22052 4.03975C0.857093 3.82936 0.592517 3.49759 0.480278 3.11151C0.36804 2.72544 0.416511 2.31386 0.615894 1.95997C0.703909 1.75744 0.835301 1.57394 1.00197 1.4208C1.16863 1.26766 1.36703 1.14812 1.58493 1.06956C1.80283 0.990995 2.03561 0.955074 2.26891 0.964011C2.5022 0.972948 2.73107 1.02655 2.94139 1.12152L9.10396 3.78931L12.0806 0.969075C12.4013 0.668731 12.8363 0.5 13.2899 0.5C13.7434 0.5 14.1784 0.668731 14.4991 0.969075C14.8198 1.26942 15 1.67677 15 2.10152C15 2.52627 14.8198 2.93363 14.4991 3.23397L11.4876 6.02153L14.3363 11.8471C14.4304 12.0411 14.4818 12.2507 14.4875 12.4637C14.4932 12.6766 14.4531 12.8885 14.3695 13.0866C14.286 13.2847 14.1607 13.4651 14.0012 13.6169C13.8417 13.7688 13.6512 13.889 13.441 13.9704C13.0631 14.1572 12.6236 14.2026 12.2114 14.0974C11.7991 13.9923 11.4448 13.7446 11.2202 13.4042L8.31329 8.98332L6.59242 10.5949V13.0993C6.55733 13.494 6.36511 13.862 6.05389 14.1302C5.74267 14.3984 5.33518 14.5472 4.91225 14.5472C4.48931 14.5472 4.08183 14.3984 3.77061 14.1302C3.45939 13.862 3.26717 13.494 3.23208 13.0993V11.5204Z" fill="#FFBB89"/>
</svg>
