<svg width="24" height="24" viewBox="0 0 24 24" fill="none" xmlns="http://www.w3.org/2000/svg">
<path d="M19.5 11.72C19.5 11.3895 19.4551 11.0606 19.3667 10.7422L18.0867 6.29778C17.872 5.53221 17.1751 5.00228 16.38 5H6.60223C5.81623 5.00901 5.12945 5.53313 4.91334 6.28889L3.63334 10.7333C3.54408 11.0546 3.49922 11.3866 3.50001 11.72V18.3333C3.50001 18.8242 3.89798 19.2222 4.3889 19.2222H5.27779C5.76871 19.2222 6.16668 18.8242 6.16668 18.3333V17.4444H16.8333V18.3333C16.8333 18.8242 17.2313 19.2222 17.7222 19.2222H18.6111C19.102 19.2222 19.5 18.8242 19.5 18.3333V11.72ZM6.40667 6.71555C6.43433 6.62074 6.52124 6.55555 6.62001 6.55555H16.3978C16.4965 6.55555 16.5835 6.62074 16.6111 6.71555L17.6244 10.3333H5.37556L6.40667 6.71555ZM7.94445 13.8889C7.94445 14.3798 7.54648 14.7778 7.05556 14.7778H6.16668C5.67576 14.7778 5.27779 14.3798 5.27779 13.8889V13C5.27779 12.5091 5.67576 12.1111 6.16668 12.1111H7.05556C7.54648 12.1111 7.94445 12.5091 7.94445 13V13.8889ZM17.7222 13.8889C17.7222 14.3798 17.3243 14.7778 16.8333 14.7778H15.9444C15.4535 14.7778 15.0556 14.3798 15.0556 13.8889V13C15.0556 12.5091 15.4535 12.1111 15.9444 12.1111H16.8333C17.3243 12.1111 17.7222 12.5091 17.7222 13V13.8889Z" fill="#BCBCBC"/>
</svg>
