<svg width="15" height="18" viewBox="0 0 15 18" fill="none" xmlns="http://www.w3.org/2000/svg">
<path d="M10.9418 17.2H10.9221H10.9025H10.8829H10.8633H10.8438H10.8243H10.8048H10.7854H10.766H10.7467H10.7274H10.7081H10.6889H10.6697H10.6505H10.6314H10.6123H10.5932H10.5742H10.5552H10.5363H10.5173H10.4985H10.4796H10.4608H10.442H10.4233H10.4046H10.3859H10.3673H10.3486H10.3301H10.3115H10.293H10.2745H10.2561H10.2377H10.2193H10.201H10.1827H10.1644H10.1461H10.1279H10.1097H10.0916H10.0735H10.0554H10.0373H10.0193H10.0013H9.98336H9.96543H9.94753H9.92966H9.91182H9.89402H9.87624H9.85849H9.84078H9.82309H9.80543H9.7878H9.77021H9.75264H9.7351H9.71759H9.70011H9.68265H9.66523H9.64784H9.63047H9.61313H9.59582H9.57854H9.56128H9.54406H9.52686H9.50969H9.49254H9.47543H9.45834H9.44128H9.42424H9.40723H9.39025H9.37329H9.35636H9.33946H9.32258H9.30573H9.28891H9.27211H9.25533H9.23858H9.22186H9.20516H9.18849H9.17184H9.15521H9.13862H9.12204H9.10549H9.08896H9.07246H9.05598H9.03953H9.0231H9.00669H8.9903H8.97394H8.95761H8.94129H8.925H8.90873H8.89248H8.87626H8.86006H8.84388H8.82772H8.81158H8.79547H8.77938H8.76331H8.74726H8.73123H8.71522H8.69923H8.68327H8.66732H8.6514H8.6355H8.61961H8.60375H8.58791H8.57208H8.55628H8.5405H8.52473H8.50899H8.49326H8.47756H8.46187H8.4462H8.43055H8.41492H8.39931H8.38371H8.36814H8.35258H8.33704H8.32151H8.30601H8.29052H8.27505H8.2596H8.24416H8.22874H8.21334H8.19796H8.18259H8.16724H8.1519H8.13658H8.12128H8.10599H8.09072H8.07546H8.06022H8.045H8.02979H8.01459H7.99941H7.98425H7.9691H7.95396H7.93884H7.92373H7.90864H7.89356H7.87849H7.86344H7.84841H7.83338H7.81837H7.80337H7.78839H7.77342H7.75846H7.74351H7.72858H7.71366H7.69875H7.68386H7.66897H7.6541H7.63924H7.62439H7.60955H7.59473H7.57991H7.56511H7.55032H7.53553H7.52076H7.506H7.49125H7.47651H7.46178H7.44706H7.43235H7.41765H7.40296H7.38828H7.37361H7.35895H7.3443H7.32965H7.31502H7.30039H7.28577H7.27116H7.25656H7.24197H7.22739H7.21281H7.19824H7.18368H7.16912H7.15458H7.14004H7.12551H7.11098H7.09646H7.08195H7.06745H7.05295H7.03845H7.02397H7.00949H6.99501H6.98055H6.96608H6.95162H6.93717H6.92273H6.90829H6.89385H6.87942H6.86499H6.85057H6.83615H6.82174H6.80733H6.79292H6.77852H6.76412H6.74973H6.73534H6.72095H6.70656H6.69218H6.6778H6.66343H6.64906H6.63469H6.62032H6.60596H6.59159H6.57723H6.56287H6.54852H6.53416H6.51981H6.50545H6.4911H6.47675H6.4624H6.44805H6.43371H6.41936H6.40501H6.39067H6.37632H6.36197H6.34763H6.33328H6.31893H6.30458H6.29024H6.27589H6.26154H6.24719H6.23284H6.21848H6.20413H6.18977H6.17541H6.16105H6.14669H6.13233H6.11796H6.10359H6.08922H6.07485H6.06047H6.04609H6.03171H6.01733H6.00294H5.98855H5.97415H5.95975H5.94535H5.93094H5.91653H5.90211H5.8877H5.87327H5.85884H5.84441H5.82997H5.81553H5.80108H5.78662H5.77216H5.7577H5.74323H5.72875H5.71427H5.69978H5.68529H5.67078H5.65628H5.64176H5.62724H5.61271H5.59818H5.58364H5.56909H5.55453H5.53997H5.52539H5.51081H5.49623H5.48163H5.46703H5.45241H5.43779H5.42316H5.40852H5.39388H5.37922H5.36455H5.34988H5.3352H5.3205H5.3058H5.29108H5.27636H5.26163H5.24688H5.23213H5.21737H5.20259H5.1878H5.17301H5.1582H5.14338H5.12855H5.11371H5.09886H5.08399H5.06911H5.05422H5.03932H5.02441H5.00949H4.99455H4.9796H4.96463H4.94966H4.93467H4.91967H4.90465H4.88962H4.87458H4.85952H4.84445H4.82937H4.81427H4.79916H4.78403H4.76889H4.75373H4.73856H4.72337H4.70817H4.69296H4.67773H4.66248H4.64722H4.63194H4.61665H4.60134H4.58601H4.57067H4.55531H4.53994H4.52454H4.50914H4.49371H4.47827H4.46281H4.44733H4.43184H4.41633H4.4008H4.38525H4.36968H4.3541H4.3385H4.32288H4.30724H4.29158H4.27591H4.26021H4.2445H4.22877H4.21301H4.19724H4.18145H4.16564H4.14981H4.13396H4.11809H4.1022H4.08629H4.07035H4.0544H4.03843H4.02243H4.00642H3.99038H3.97432H3.95825H3.94214H3.92602H3.90988H3.89371H3.87752H3.86131H3.84508H3.82882H3.81255H3.79625H3.77992H3.76358H3.74721H3.73081H3.7144H3.69796H3.68149H3.665H3.64849H3.63196H3.6154H3.59881H3.5822H3.56557H3.54891H3.53223H3.51552H3.49879H3.48203H3.46524H3.44843H3.4316H3.41474H3.39785H3.38094H3.364H3.34703H3.33004H3.31302H3.29597H3.2789H3.2618H3.24467H3.22752H3.21034H3.19313H3.17589H3.15863H3.14133H3.12401H3.10666H3.08929H3.07188H3.05445H3.03698H3.01949H3.00197H2.98442H2.96684H2.94923H2.93159H2.91392H2.89622H2.87849H2.86074H2.84295H2.82513C1.97798 17.2 1.40342 16.9479 1.01964 16.542C0.629402 16.1292 0.400188 15.519 0.326299 14.7374C0.177843 13.167 0.668654 11.0323 1.5074 8.85797C2.34287 6.69215 3.50772 4.52742 4.66741 2.90912C5.24773 2.09932 5.82026 1.4355 6.34258 0.977523C6.87788 0.508156 7.30992 0.3 7.61462 0.3C8.33775 0.3 9.1464 0.724393 9.9705 1.58298C10.7896 2.43635 11.5906 3.68555 12.2945 5.24881C13.6723 8.30832 14.6581 12.5256 14.6987 17.2H14.6976H14.6936H14.6896H14.6855H14.6815H14.6773H14.6732H14.669H14.6648H14.6605H14.6563H14.6519H14.6476H14.6432H14.6388H14.6344H14.6299H14.6254H14.6209H14.6163H14.6117H14.6071H14.6024H14.5977H14.593H14.5882H14.5834H14.5786H14.5737H14.5688H14.5639H14.5589H14.5539H14.5489H14.5438H14.5387H14.5336H14.5284H14.5232H14.518H14.5127H14.5074H14.5021H14.4967H14.4913H14.4858H14.4804H14.4748H14.4693H14.4637H14.4581H14.4524H14.4468H14.441H14.4353H14.4295H14.4236H14.4178H14.4119H14.4059H14.4H14.3939H14.3879H14.3818H14.3757H14.3695H14.3633H14.3571H14.3508H14.3445H14.3382H14.3318H14.3254H14.3189H14.3124H14.3059H14.2994H14.2928H14.2861H14.2794H14.2727H14.266H14.2592H14.2523H14.2455H14.2386H14.2316H14.2246H14.2176H14.2106H14.2035H14.1963H14.1891H14.1819H14.1747H14.1674H14.16H14.1527H14.1452H14.1378H14.1303H14.1228H14.1152H14.1076H14.0999H14.0922H14.0845H14.0767H14.0689H14.0611H14.0532H14.0453H14.0373H14.0293H14.0212H14.0131H14.005H13.9968H13.9886H13.9803H13.972H13.9637H13.9553H13.9469H13.9384H13.9299H13.9213H13.9127H13.9041H13.8954H13.8867H13.8779H13.8691H13.8603H13.8514H13.8424H13.8335H13.8244H13.8154H13.8063H13.7971H13.7879H13.7787H13.7694H13.7601H13.7507H13.7413H13.7319H13.7224H13.7128H13.7032H13.6936H13.6839H13.6742H13.6645H13.6547H13.6448H13.6349H13.625H13.615H13.605H13.5949H13.5848H13.5746H13.5644H13.5541H13.5438H13.5335H13.5231H13.5126H13.5022H13.4916H13.4811H13.4704H13.4598H13.4491H13.4383H13.4275H13.4166H13.4057H13.3948H13.3838H13.3728H13.3617H13.3505H13.3393H13.3281H13.3168H13.3055H13.2942H13.2827H13.2713H13.2598H13.2482H13.2366H13.2249H13.2132H13.2015H13.1897H13.1778H13.1659H13.154H13.142H13.1299H13.1178H13.1057H13.0935H13.0813H13.069H13.0566H13.0443H13.0318H13.0193H13.0068H12.9942H12.9816H12.9689H12.9562H12.9434H12.9305H12.9176H12.9047H12.8917H12.8787H12.8656H12.8525H12.8393H12.826H12.8127H12.7994H12.786H12.7726H12.7591H12.7455H12.7319H12.7183H12.7046H12.6908H12.677H12.6632H12.6493H12.6353H12.6213H12.6072H12.5931H12.5789H12.5647H12.5505H12.5361H12.5217H12.5073H12.4928H12.4783H12.4637H12.4491H12.4344H12.4196H12.4048H12.39H12.375H12.3601H12.3451H12.33H12.3149H12.2997H12.2844H12.2692H12.2538H12.2384H12.223H12.2075H12.1919H12.1763H12.1606H12.1449H12.1291H12.1133H12.0974H12.0814H12.0654H12.0494H12.0333H12.0171H12.0009H11.9846H11.9682H11.9519H11.9354H11.9189H11.9023H11.8857H11.8691H11.8523H11.8355H11.8187H11.8018H11.7848H11.7678H11.7508H11.7336H11.7164H11.6992H11.6819H11.6645H11.6471H11.6297H11.6121H11.5945H11.5769H11.5592H11.5414H11.5236H11.5057H11.4878H11.4698H11.4517H11.4336H11.4154H11.3972H11.3789H11.3606H11.3422H11.3237H11.3052H11.2866H11.268H11.2492H11.2305H11.2117H11.1928H11.1738H11.1548H11.1358H11.1166H11.0975H11.0782H11.0589H11.0396H11.0201H11.0006H10.9811H10.9615H10.9418Z" stroke="black" stroke-width="0.6"/>
<path d="M10.9288 12.75H9.0898C8.64059 12.75 8.26156 12.385 8.26156 11.9218V10.4337C8.26156 10.3214 8.17733 10.2372 8.06503 10.2372H6.94199C6.82969 10.2372 6.74546 10.3214 6.74546 10.4337V11.9218C6.74546 12.385 6.38047 12.75 5.91722 12.75H4.07824C3.62903 12.75 3.25 12.385 3.25 11.9218V7.19096C3.25 6.95231 3.3623 6.74174 3.55884 6.6154L7.13852 4.35528C7.36313 4.21491 7.64389 4.21491 7.85446 4.35528L11.4341 6.62944C11.6307 6.75578 11.743 6.96635 11.743 7.205V11.9218C11.757 12.371 11.378 12.75 10.9288 12.75ZM6.94199 9.60549H8.06503C8.52828 9.60549 8.89327 9.97048 8.89327 10.4337V11.9218C8.89327 12.0341 8.9775 12.1183 9.0898 12.1183H10.9288C11.0411 12.1183 11.1253 12.0341 11.1253 11.9218V7.19096C11.1253 7.17692 11.1113 7.16288 11.1113 7.14884L7.51755 4.88873C7.50351 4.87469 7.48947 4.87469 7.47543 4.88873L3.90979 7.14884C3.89575 7.16288 3.88171 7.17692 3.88171 7.19096V11.9218C3.88171 12.0341 3.96594 12.1183 4.07824 12.1183H5.91722C6.02952 12.1183 6.11375 12.0341 6.11375 11.9218V10.4337C6.11375 9.98452 6.47874 9.60549 6.94199 9.60549Z" fill="black"/>
</svg>
