<svg width="130" height="125" viewBox="0 0 130 125" fill="none" xmlns="http://www.w3.org/2000/svg">
<path d="M57.195 57.1999V7.79999C57.195 5.7313 58.0168 3.74734 59.4796 2.28456C60.9424 0.821781 62.9263 0 64.995 0C67.0637 0 69.0476 0.821781 70.5104 2.28456C71.9732 3.74734 72.795 5.7313 72.795 7.79999V57.1999C72.795 59.2686 71.9732 61.2526 70.5104 62.7154C69.0476 64.1781 67.0637 64.9999 64.995 64.9999C62.9263 64.9999 60.9424 64.1781 59.4796 62.7154C58.0168 61.2526 57.195 59.2686 57.195 57.1999ZM100.462 5.31584C98.7287 4.18591 96.618 3.79063 94.5937 4.21695C92.5695 4.64327 90.7975 5.85626 89.6675 7.58909C88.5376 9.32192 88.1423 11.4326 88.5687 13.4569C88.995 15.4812 90.208 17.2532 91.9408 18.3831C100.867 24.1911 107.678 32.7282 111.357 42.722C115.037 52.7158 115.388 63.631 112.359 73.8408C109.33 84.0505 103.083 93.008 94.5481 99.378C86.0137 105.748 75.6492 109.19 64.9996 109.19C54.3499 109.189 43.9855 105.748 35.4511 99.3777C26.9167 93.0075 20.6694 84.05 17.6404 73.8402C14.6114 63.6304 14.963 52.7152 18.6426 42.7214C22.3222 32.7277 29.1329 24.1906 38.0594 18.3828C39.7922 17.2529 41.0053 15.4809 41.4316 13.4567C41.8579 11.4324 41.4627 9.32175 40.3328 7.58892C39.7734 6.73091 39.0504 5.99149 38.2052 5.41289C37.3599 4.83429 36.409 4.42784 35.4067 4.21673C33.3825 3.79039 31.2718 4.18563 29.539 5.31552C17.7963 12.9595 8.83803 24.1933 3.99919 37.3427C-0.839656 50.4921 -1.3 64.853 2.68677 78.2853C6.67354 91.7176 14.894 103.502 26.1229 111.882C37.3519 120.263 50.9883 124.79 64.9997 124.79C79.0111 124.79 92.6475 120.263 103.877 111.883C115.106 103.502 123.326 91.7181 127.313 78.2859C131.3 64.8536 130.84 50.4927 126.001 37.3432C121.162 24.1938 112.204 12.9599 100.462 5.31584Z" fill="#00A4FD"/>
</svg>
