<svg width="22" height="22" viewBox="0 0 27 25" fill="none" xmlns="http://www.w3.org/2000/svg">
<!--<path d="M9.97493 19.1826C15.0602 19.1826 19.1826 15.0602 19.1826 9.97493C19.1826 4.8897 15.0602 0.767302 9.97493 0.767302C4.8897 0.767302 0.767302 4.8897 0.767302 9.97493C0.767302 15.0602 4.8897 19.1826 9.97493 19.1826Z" stroke="#71757A" stroke-width="1.5" stroke-linecap="round" stroke-linejoin="round"/>-->
<!--<path d="M18.0878 19.8883C18.63 21.5252 19.8679 21.6889 20.8194 20.2566C21.689 18.9471 21.1161 17.8728 19.5406 17.8728C18.3743 17.8626 17.7195 18.7731 18.0878 19.8883Z" stroke="#71757A" stroke-width="1.5" stroke-linecap="round" stroke-linejoin="round"/>-->
    <mask id="path-1-inside-1_0_1105" fill="white">
        <path d="M3.38736 0.833334V1.66667H0.835634C0.37413 1.66667 0 2.03977 0 2.5V24.1667C0 24.6268 0.37413 25 0.835634 25H25.9046C26.3661 25 26.7403 24.6268 26.7403 24.1667V2.5C26.7403 2.03977 26.3661 1.66667 25.9046 1.66667H23.353V0.833334C23.353 0.3731 22.9788 0 22.5173 0H17.4566C15.8814 0 14.4057 0.674867 13.3701 1.817C12.3345 0.674867 10.8589 0 9.28381 0H4.22299C3.76149 0 3.38736 0.3731 3.38736 0.833334ZM21.6817 2.44027C21.6802 2.46 21.6795 2.47992 21.6795 2.5C21.6795 2.52008 21.6802 2.54 21.6817 2.55973V19.902H17.7492C16.4379 19.902 15.197 20.3537 14.2058 21.1408V3.46482C14.9182 2.34445 16.1424 1.66667 17.4566 1.66667H21.6817V2.44027ZM23.353 3.33334H25.069V23.3333H14.418C15.1726 22.2347 16.414 21.5687 17.7492 21.5687H22.5173C22.9788 21.5687 23.353 21.1955 23.353 20.7353V3.33334ZM8.99103 21.5687C10.3262 21.5687 11.5676 22.2347 12.3222 23.3333H1.67127V3.33334H3.38736V20.7353C3.38736 21.1955 3.76149 21.5687 4.22299 21.5687H8.99103ZM5.05863 19.902V2.55972C5.06003 2.54 5.06075 2.52008 5.06075 2.5C5.06075 2.47992 5.06003 2.46 5.05863 2.44028V1.66667H9.28381C10.5978 1.66667 11.8221 2.34445 12.5345 3.46482V21.1408C11.5432 20.3537 10.3024 19.902 8.99103 19.902H5.05863Z"/>
    </mask>
    <path d="M3.38736 0.833334V1.66667H0.835634C0.37413 1.66667 0 2.03977 0 2.5V24.1667C0 24.6268 0.37413 25 0.835634 25H25.9046C26.3661 25 26.7403 24.6268 26.7403 24.1667V2.5C26.7403 2.03977 26.3661 1.66667 25.9046 1.66667H23.353V0.833334C23.353 0.3731 22.9788 0 22.5173 0H17.4566C15.8814 0 14.4057 0.674867 13.3701 1.817C12.3345 0.674867 10.8589 0 9.28381 0H4.22299C3.76149 0 3.38736 0.3731 3.38736 0.833334ZM21.6817 2.44027C21.6802 2.46 21.6795 2.47992 21.6795 2.5C21.6795 2.52008 21.6802 2.54 21.6817 2.55973V19.902H17.7492C16.4379 19.902 15.197 20.3537 14.2058 21.1408V3.46482C14.9182 2.34445 16.1424 1.66667 17.4566 1.66667H21.6817V2.44027ZM23.353 3.33334H25.069V23.3333H14.418C15.1726 22.2347 16.414 21.5687 17.7492 21.5687H22.5173C22.9788 21.5687 23.353 21.1955 23.353 20.7353V3.33334ZM8.99103 21.5687C10.3262 21.5687 11.5676 22.2347 12.3222 23.3333H1.67127V3.33334H3.38736V20.7353C3.38736 21.1955 3.76149 21.5687 4.22299 21.5687H8.99103ZM5.05863 19.902V2.55972C5.06003 2.54 5.06075 2.52008 5.06075 2.5C5.06075 2.47992 5.06003 2.46 5.05863 2.44028V1.66667H9.28381C10.5978 1.66667 11.8221 2.34445 12.5345 3.46482V21.1408C11.5432 20.3537 10.3024 19.902 8.99103 19.902H5.05863Z" fill="white"/>
    <path d="M3.38736 1.66667V4.58415H6.30484V1.66667H3.38736ZM23.353 1.66667H20.4355V4.58415H23.353V1.66667ZM13.3701 1.817L11.2088 3.77671L13.3702 6.16045L15.5315 3.77662L13.3701 1.817ZM21.6817 2.44027L24.5907 2.662L24.5992 2.5513V2.44027H21.6817ZM21.6817 2.55973H24.5992V2.44871L24.5907 2.338L21.6817 2.55973ZM21.6817 19.902V22.8195H24.5992V19.902H21.6817ZM14.2058 21.1408H11.2883V27.1832L16.0201 23.4255L14.2058 21.1408ZM14.2058 3.46482L11.7439 1.89928L11.2883 2.61575V3.46482H14.2058ZM21.6817 1.66667H24.5992V-1.25081H21.6817V1.66667ZM23.353 3.33334V0.415853H20.4355V3.33334H23.353ZM25.069 3.33334H27.9865V0.415853H25.069V3.33334ZM25.069 23.3333V26.2508H27.9865V23.3333H25.069ZM14.418 23.3333L12.0131 21.6816L8.87495 26.2508H14.418V23.3333ZM12.3222 23.3333V26.2508H17.8653L14.7271 21.6816L12.3222 23.3333ZM1.67127 23.3333H-1.24621V26.2508H1.67127V23.3333ZM1.67127 3.33334V0.415853H-1.24621V3.33334H1.67127ZM3.38736 3.33334H6.30484V0.415853H3.38736V3.33334ZM5.05863 19.902H2.14114V22.8195H5.05863V19.902ZM5.05863 2.55972L2.14851 2.35251L2.14114 2.45598V2.55972H5.05863ZM5.05863 2.44028H2.14114V2.54402L2.14851 2.64749L5.05863 2.44028ZM5.05863 1.66667V-1.25081H2.14114V1.66667H5.05863ZM12.5345 3.46482H15.452V2.61581L14.9964 1.89938L12.5345 3.46482ZM12.5345 21.1408L10.7202 23.4256L15.452 27.1831V21.1408H12.5345ZM0.469877 0.833334V1.66667H6.30484V0.833334H0.469877ZM3.38736 -1.25081H0.835634V4.58415H3.38736V-1.25081ZM0.835634 -1.25081C-1.22956 -1.25081 -2.91748 0.420911 -2.91748 2.5H2.91748C2.91748 3.65862 1.97782 4.58415 0.835634 4.58415V-1.25081ZM-2.91748 2.5V24.1667H2.91748V2.5H-2.91748ZM-2.91748 24.1667C-2.91748 26.2455 -1.22972 27.9175 0.835634 27.9175V22.0825C1.97798 22.0825 2.91748 23.0081 2.91748 24.1667H-2.91748ZM0.835634 27.9175H25.9046V22.0825H0.835634V27.9175ZM25.9046 27.9175C27.9698 27.9175 29.6578 26.2457 29.6578 24.1667H23.8228C23.8228 23.008 24.7624 22.0825 25.9046 22.0825V27.9175ZM29.6578 24.1667V2.5H23.8228V24.1667H29.6578ZM29.6578 2.5C29.6578 0.420757 27.9696 -1.25081 25.9046 -1.25081V4.58415C24.7625 4.58415 23.8228 3.65878 23.8228 2.5H29.6578ZM25.9046 -1.25081H23.353V4.58415H25.9046V-1.25081ZM26.2704 1.66667V0.833334H20.4355V1.66667H26.2704ZM26.2704 0.833334C26.2704 -1.24591 24.5823 -2.91748 22.5173 -2.91748V2.91748C21.3752 2.91748 20.4355 1.99211 20.4355 0.833334H26.2704ZM22.5173 -2.91748H17.4566V2.91748H22.5173V-2.91748ZM17.4566 -2.91748C15.041 -2.91748 12.7857 -1.88195 11.2088 -0.142621L15.5315 3.77662C16.0256 3.23168 16.7218 2.91748 17.4566 2.91748V-2.91748ZM15.5314 -0.142708C13.9545 -1.88188 11.6994 -2.91748 9.28381 -2.91748V2.91748C10.0184 2.91748 10.7146 3.23161 11.2088 3.77671L15.5314 -0.142708ZM9.28381 -2.91748H4.22299V2.91748H9.28381V-2.91748ZM4.22299 -2.91748C2.15779 -2.91748 0.469877 -1.24576 0.469877 0.833334H6.30484C6.30484 1.99196 5.36518 2.91748 4.22299 2.91748V-2.91748ZM18.7726 2.21853C18.7648 2.32099 18.762 2.41548 18.762 2.5H24.597C24.597 2.54435 24.5955 2.59901 24.5907 2.662L18.7726 2.21853ZM18.762 2.5C18.762 2.58452 18.7648 2.67901 18.7726 2.78147L24.5907 2.338C24.5955 2.401 24.597 2.45565 24.597 2.5H18.762ZM18.7642 2.55973V19.902H24.5992V2.55973H18.7642ZM21.6817 16.9845H17.7492V22.8195H21.6817V16.9845ZM17.7492 16.9845C15.7624 16.9845 13.8854 17.6697 12.3914 18.8561L16.0201 23.4255C16.5086 23.0376 17.1135 22.8195 17.7492 22.8195V16.9845ZM17.1233 21.1408V3.46482H11.2883V21.1408H17.1233ZM16.6676 5.03036C16.8522 4.74009 17.1543 4.58415 17.4566 4.58415V-1.25081C15.1306 -1.25081 12.9842 -0.051184 11.7439 1.89928L16.6676 5.03036ZM17.4566 4.58415H21.6817V-1.25081H17.4566V4.58415ZM18.7642 1.66667V2.44027H24.5992V1.66667H18.7642ZM23.353 6.25082H25.069V0.415853H23.353V6.25082ZM22.1515 3.33334V23.3333H27.9865V3.33334H22.1515ZM25.069 20.4159H14.418V26.2508H25.069V20.4159ZM16.8229 24.9851C17.0436 24.6638 17.3932 24.4862 17.7492 24.4862V18.6512C15.4349 18.6512 13.3016 19.8055 12.0131 21.6816L16.8229 24.9851ZM17.7492 24.4862H22.5173V18.6512H17.7492V24.4862ZM22.5173 24.4862C24.5825 24.4862 26.2704 22.8144 26.2704 20.7353H20.4355C20.4355 19.5767 21.3751 18.6512 22.5173 18.6512V24.4862ZM26.2704 20.7353V3.33334H20.4355V20.7353H26.2704ZM8.99103 24.4862C9.34706 24.4862 9.69662 24.6638 9.9173 24.9851L14.7271 21.6816C13.4386 19.8056 11.3054 18.6512 8.99103 18.6512V24.4862ZM12.3222 20.4159H1.67127V26.2508H12.3222V20.4159ZM4.58875 23.3333V3.33334H-1.24621V23.3333H4.58875ZM1.67127 6.25082H3.38736V0.415853H1.67127V6.25082ZM0.469877 3.33334V20.7353H6.30484V3.33334H0.469877ZM0.469877 20.7353C0.469877 22.8142 2.15764 24.4862 4.22299 24.4862V18.6512C5.36534 18.6512 6.30484 19.5768 6.30484 20.7353H0.469877ZM4.22299 24.4862H8.99103V18.6512H4.22299V24.4862ZM7.97611 19.902V2.55972H2.14114V19.902H7.97611ZM7.96874 2.76692C7.97502 2.67868 7.97823 2.58965 7.97823 2.5H2.14327C2.14327 2.45052 2.14504 2.40133 2.14851 2.35251L7.96874 2.76692ZM7.97823 2.5C7.97823 2.41036 7.97502 2.32133 7.96874 2.23308L2.14851 2.64749C2.14504 2.59868 2.14327 2.54948 2.14327 2.5H7.97823ZM7.97611 2.44028V1.66667H2.14114V2.44028H7.97611ZM5.05863 4.58415H9.28381V-1.25081H5.05863V4.58415ZM9.28381 4.58415C9.58604 4.58415 9.88809 4.74012 10.0726 5.03026L14.9964 1.89938C13.7561 -0.0512184 11.6096 -1.25081 9.28381 -1.25081V4.58415ZM9.61702 3.46482V21.1408H15.452V3.46482H9.61702ZM14.3488 18.8561C12.8548 17.6697 10.978 16.9845 8.99103 16.9845V22.8195C9.6268 22.8195 10.2317 23.0376 10.7202 23.4256L14.3488 18.8561ZM8.99103 16.9845H5.05863V22.8195H8.99103V16.9845Z" fill="white" mask="url(#path-1-inside-1_0_1105)"/>

</svg>
