<svg width="13" height="67" viewBox="0 0 13 67" fill="none" xmlns="http://www.w3.org/2000/svg">
<line x1="6.67493" y1="47.939" x2="6.67493" y2="19.2362" stroke="black" stroke-width="0.5" stroke-linecap="square" stroke-dasharray="1 1 2 1 1 1 2 1"/>
<path d="M6.37271 18.8091C5.1123 18.8091 3.88021 18.2575 2.83222 17.2241C1.78424 16.1907 0.967431 14.7219 0.485096 13.0035C0.00276109 11.285 -0.12344 9.3941 0.122453 7.5698C0.368345 5.7455 0.975286 4.06978 1.86652 2.75453C2.75776 1.43928 3.89327 0.543586 5.12945 0.18071C6.36564 -0.182166 7.64697 0.00407469 8.81143 0.715881C9.97589 1.42769 10.9712 2.63309 11.6714 4.17966C12.3717 5.72623 12.7454 7.5445 12.7454 9.40454C12.7435 11.8979 12.0715 14.2884 10.8768 16.0514C9.68208 17.8145 8.06226 18.8063 6.37271 18.8091ZM6.37271 0.752367C5.21314 0.752367 4.07961 1.25981 3.11546 2.21052C2.15131 3.16123 1.39985 4.51252 0.956105 6.09349C0.512357 7.67447 0.396252 9.41413 0.622473 11.0925C0.848693 12.7708 1.40708 14.3125 2.22702 15.5225C3.04696 16.7326 4.09162 17.5566 5.22891 17.8905C6.3662 18.2243 7.54503 18.053 8.61633 17.3981C9.68764 16.7432 10.6033 15.6343 11.2475 14.2114C11.8917 12.7886 12.2356 11.1158 12.2356 9.40454C12.2338 7.11063 11.6156 4.91143 10.5164 3.28939C9.41733 1.66736 7.9271 0.754961 6.37271 0.752367Z" fill="black"/>
<path d="M6.37271 67C5.1123 67 3.88021 66.4484 2.83222 65.4151C1.78424 64.3817 0.967431 62.9129 0.485096 61.1944C0.00276109 59.476 -0.12344 57.585 0.122453 55.7607C0.368345 53.9364 0.975286 52.2607 1.86652 50.9455C2.75776 49.6302 3.89327 48.7345 5.12945 48.3716C6.36564 48.0088 7.64697 48.195 8.81143 48.9068C9.97589 49.6186 10.9712 50.824 11.6714 52.3706C12.3717 53.9172 12.7454 55.7354 12.7454 57.5955C12.7435 60.0888 12.0715 62.4793 10.8768 64.2424C9.68208 66.0055 8.06226 66.9972 6.37271 67ZM6.37271 48.9433C5.21314 48.9433 4.07961 49.4507 3.11546 50.4015C2.15131 51.3522 1.39985 52.7035 0.956105 54.2844C0.512357 55.8654 0.396252 57.6051 0.622473 59.2834C0.848693 60.9618 1.40708 62.5035 2.22702 63.7135C3.04696 64.9235 4.09162 65.7475 5.22891 66.0814C6.3662 66.4152 7.54503 66.2439 8.61633 65.589C9.68764 64.9342 10.6033 63.8252 11.2475 62.4024C11.8917 60.9795 12.2356 59.3067 12.2356 57.5955C12.2338 55.3016 11.6156 53.1024 10.5164 51.4803C9.41733 49.8583 7.9271 48.9459 6.37271 48.9433Z" fill="black"/>
</svg>
