<svg width="25" height="28" viewBox="0 0 25 28" fill="none" xmlns="http://www.w3.org/2000/svg">
<g clip-path="url(#clip0_0_376)">
<path d="M12.8422 12.9863V13.5035H13.3594H16.4844C16.6142 13.5035 16.8265 13.6528 16.8265 13.9483C16.8265 14.3032 16.6003 14.4367 16.4844 14.4367H13.3984H12.8812V14.9539V18.4082C12.8812 18.7632 12.655 18.8967 12.5391 18.8967C12.356 18.8967 12.1578 18.7317 12.1578 18.4519V14.9977V14.4805H11.6406H8.55468C8.37162 14.4805 8.17344 14.3155 8.17344 14.0357C8.17344 13.6807 8.39971 13.5472 8.51562 13.5472H11.6016H12.1188V13.03V9.57576C12.1188 9.2208 12.345 9.08729 12.4609 9.08729C12.644 9.08729 12.8422 9.25224 12.8422 9.53204V12.9863Z" fill="white" stroke="white"/>
<path d="M1.22032 13.992C1.22032 6.91917 6.3155 1.30424 12.5 1.30424C18.686 1.30424 23.8193 6.92096 23.8578 13.9933C23.8572 21.0655 18.7232 26.7235 12.5391 26.7235C6.35456 26.7235 1.22032 21.0648 1.22032 13.992ZM1.94374 13.992C1.94374 20.4275 6.61174 25.7902 12.5 25.7902C18.3858 25.7902 23.0953 20.4302 23.0953 13.992C23.0953 7.55104 18.3834 2.23746 12.5 2.23746C6.61419 2.23746 1.94374 7.55378 1.94374 13.992Z" fill="white" stroke="white"/>
</g>
<defs>
<clipPath id="clip0_0_376">
<rect width="24.1686" height="27.0534" fill="white" transform="scale(1.0344)"/>
</clipPath>
</defs>
</svg>
