<svg width="25" height="25" viewBox="0 0 25 25" fill="none" xmlns="http://www.w3.org/2000/svg">
<path d="M22.3719 25H22.3717L16.2695 24.9992C15.7303 24.9985 15.2135 24.7846 14.8322 24.4044C14.451 24.0242 14.2366 23.5087 14.236 22.971V16.8862H10.1683V22.971C10.1677 23.5087 9.95326 24.0242 9.57203 24.4044C9.19081 24.7846 8.67392 24.9985 8.13476 24.9992L2.03407 25C1.76696 25 1.50247 24.9476 1.25568 24.8457C1.0089 24.7438 0.784662 24.5944 0.595778 24.406C0.406894 24.2177 0.257061 23.9941 0.154837 23.748C0.0526127 23.5019 -1.00385e-06 23.2382 0 22.9718V11.2512C0.000247202 10.9686 0.0595792 10.6892 0.174207 10.4308C0.288835 10.1724 0.45624 9.94069 0.665731 9.75045L10.8339 0.530443C11.2074 0.189284 11.6955 3.42626e-05 12.202 4.65184e-09C12.7085 -3.42533e-05 13.1967 0.189149 13.5702 0.530258L23.7402 9.75051C23.9496 9.94079 24.117 10.1725 24.2316 10.4309C24.3462 10.6893 24.4055 10.9687 24.4058 11.2512V22.9718C24.4058 23.2381 24.3532 23.5019 24.2509 23.748C24.1487 23.994 23.9989 24.2176 23.8101 24.406C23.6212 24.5943 23.397 24.7437 23.1503 24.8456C22.9035 24.9476 22.639 25 22.3719 25ZM10.1683 14.858H14.236C14.7752 14.8586 15.2921 15.0725 15.6734 15.4527C16.0547 15.833 16.2691 16.3485 16.2698 16.8862V22.9723L22.3719 22.9718V11.2512L12.2021 2.03106L2.03381 11.2512V22.9718L8.13451 22.971V16.8862C8.13513 16.3485 8.3496 15.833 8.73088 15.4527C9.11216 15.0725 9.62911 14.8586 10.1683 14.858Z" fill="#D6E4AA"/>
</svg>
