<svg width="84" height="27" viewBox="0 0 84 27" fill="none" xmlns="http://www.w3.org/2000/svg">
<path d="M84 9.01588C84 18.9482 65.196 27 42 27C18.804 27 0 18.9482 0 9.01588C0 -0.916475 18.804 0.0238314 42 0.0238314C65.196 0.0238314 84 -0.916475 84 9.01588Z" fill="#00466B"/>
<mask id="mask0_915_5813" style="mask-type:alpha" maskUnits="userSpaceOnUse" x="31" y="-1" width="25" height="25">
<rect x="31.8541" y="-0.534157" width="24" height="24" fill="#D9D9D9"/>
</mask>
<g mask="url(#mask0_915_5813)">
<path d="M37.7041 11.4658L37.4041 9.96584C37.2041 9.88251 37.0166 9.79501 36.8416 9.70334C36.6666 9.61168 36.4874 9.49918 36.3041 9.36584L34.8541 9.81584L33.8541 8.11584L35.0041 7.11584C34.9707 6.89918 34.9541 6.68251 34.9541 6.46584C34.9541 6.24918 34.9707 6.03251 35.0041 5.81584L33.8541 4.81584L34.8541 3.11584L36.3041 3.56584C36.4874 3.43251 36.6666 3.32001 36.8416 3.22834C37.0166 3.13668 37.2041 3.04918 37.4041 2.96584L37.7041 1.46584H39.7041L40.0041 2.96584C40.2041 3.04918 40.3916 3.13668 40.5666 3.22834C40.7416 3.32001 40.9207 3.43251 41.1041 3.56584L42.5541 3.11584L43.5541 4.81584L42.4041 5.81584C42.4374 6.03251 42.4541 6.24918 42.4541 6.46584C42.4541 6.68251 42.4374 6.89918 42.4041 7.11584L43.5541 8.11584L42.5541 9.81584L41.1041 9.36584C40.9207 9.49918 40.7416 9.61168 40.5666 9.70334C40.3916 9.79501 40.2041 9.88251 40.0041 9.96584L39.7041 11.4658H37.7041ZM38.7041 8.46584C39.2541 8.46584 39.7249 8.27001 40.1166 7.87834C40.5082 7.48668 40.7041 7.01584 40.7041 6.46584C40.7041 5.91584 40.5082 5.44501 40.1166 5.05334C39.7249 4.66168 39.2541 4.46584 38.7041 4.46584C38.1541 4.46584 37.6832 4.66168 37.2916 5.05334C36.8999 5.44501 36.7041 5.91584 36.7041 6.46584C36.7041 7.01584 36.8999 7.48668 37.2916 7.87834C37.6832 8.27001 38.1541 8.46584 38.7041 8.46584ZM46.6541 22.4658L46.2041 20.3658C45.9207 20.2658 45.6582 20.145 45.4166 20.0033C45.1749 19.8617 44.9374 19.6992 44.7041 19.5158L42.7041 20.1658L41.3041 17.7658L42.9041 16.3658C42.8707 16.0658 42.8541 15.7658 42.8541 15.4658C42.8541 15.1658 42.8707 14.8658 42.9041 14.5658L41.3041 13.1658L42.7041 10.7658L44.7041 11.4158C44.9374 11.2325 45.1749 11.07 45.4166 10.9283C45.6582 10.7867 45.9207 10.6658 46.2041 10.5658L46.6541 8.46584H49.4541L49.9041 10.5658C50.1874 10.6658 50.4499 10.7867 50.6916 10.9283C50.9332 11.07 51.1707 11.2325 51.4041 11.4158L53.4041 10.7658L54.8041 13.1658L53.2041 14.5658C53.2374 14.8658 53.2541 15.1658 53.2541 15.4658C53.2541 15.7658 53.2374 16.0658 53.2041 16.3658L54.8041 17.7658L53.4041 20.1658L51.4041 19.5158C51.1707 19.6992 50.9332 19.8617 50.6916 20.0033C50.4499 20.145 50.1874 20.2658 49.9041 20.3658L49.4541 22.4658H46.6541ZM48.0541 18.4658C48.8874 18.4658 49.5957 18.1742 50.1791 17.5908C50.7624 17.0075 51.0541 16.2992 51.0541 15.4658C51.0541 14.6325 50.7624 13.9242 50.1791 13.3408C49.5957 12.7575 48.8874 12.4658 48.0541 12.4658C47.2207 12.4658 46.5124 12.7575 45.9291 13.3408C45.3457 13.9242 45.0541 14.6325 45.0541 15.4658C45.0541 16.2992 45.3457 17.0075 45.9291 17.5908C46.5124 18.1742 47.2207 18.4658 48.0541 18.4658Z" fill="white"/>
</g>
</svg>
