<svg width="19" height="19" viewBox="0 0 19 19" fill="none" xmlns="http://www.w3.org/2000/svg">
<path d="M9.49745 6.33187C7.75305 6.33187 6.32949 7.75543 6.32949 9.49983C6.32949 11.2442 7.75305 12.6678 9.49745 12.6678C11.2418 12.6678 12.6654 11.2442 12.6654 9.49983C12.6654 7.75543 11.2418 6.33187 9.49745 6.33187ZM18.9989 9.49983C18.9989 8.18797 19.0108 6.88799 18.9372 5.5785C18.8635 4.0575 18.5165 2.70761 17.4043 1.59538C16.2897 0.480772 14.9422 0.136171 13.4212 0.0624975C12.1093 -0.011176 10.8093 0.000706895 9.49983 0.000706895C8.18796 0.000706895 6.88799 -0.011176 5.5785 0.0624975C4.0575 0.136171 2.70761 0.483149 1.59538 1.59538C0.480773 2.70999 0.136171 4.0575 0.0624975 5.5785C-0.011176 6.89036 0.000706895 8.19034 0.000706895 9.49983C0.000706895 10.8093 -0.011176 12.1117 0.0624975 13.4212C0.136171 14.9422 0.483149 16.292 1.59538 17.4043C2.70999 18.5189 4.0575 18.8635 5.5785 18.9372C6.89036 19.0108 8.19034 18.9989 9.49983 18.9989C10.8117 18.9989 12.1117 19.0108 13.4212 18.9372C14.9422 18.8635 16.292 18.5165 17.4043 17.4043C18.5189 16.2897 18.8635 14.9422 18.9372 13.4212C19.0132 12.1117 18.9989 10.8117 18.9989 9.49983ZM9.49745 14.3742C6.80005 14.3742 4.62312 12.1972 4.62312 9.49983C4.62312 6.80243 6.80005 4.6255 9.49745 4.6255C12.1948 4.6255 14.3718 6.80243 14.3718 9.49983C14.3718 12.1972 12.1948 14.3742 9.49745 14.3742ZM14.5714 5.56424C13.9416 5.56424 13.433 5.05566 13.433 4.42587C13.433 3.79608 13.9416 3.28749 14.5714 3.28749C15.2012 3.28749 15.7098 3.79608 15.7098 4.42587C15.71 4.57541 15.6807 4.72353 15.6235 4.86173C15.5664 4.99992 15.4825 5.12549 15.3768 5.23124C15.271 5.33698 15.1455 5.42083 15.0073 5.47797C14.8691 5.53511 14.721 5.56443 14.5714 5.56424Z" fill="#FF7A69"/>
</svg>
