<svg width="30" height="30" viewBox="0 0 30 30" fill="none" xmlns="http://www.w3.org/2000/svg">
<g clip-path="url(#clip0_0_590)">
<path d="M23.68 11.2875L21.195 8.625L19.3283 6.625C19.1067 6.3875 18.8033 6.25 18.5 6.25H15C14.3583 6.25 13.8333 6.8125 13.8333 7.5C13.8333 8.1875 14.3583 8.75 15 8.75H18.0217L20.355 11.25H6.83333C3.56667 11.25 1 14 1 17.5C1 21 3.56667 23.75 6.83333 23.75C9.70333 23.75 12.025 21.6375 12.55 18.75H13.5067C14.125 18.75 14.72 18.4875 15.1517 18.0125L17.695 15.2875C17.4617 15.9625 17.3333 16.7125 17.3333 17.5C17.3333 21 19.9 23.75 23.1667 23.75C26.4333 23.75 29 21 29 17.5C29 14.1875 26.7017 11.5375 23.68 11.2875ZM6.83333 18.75H10.1233C9.63333 20.1875 8.32667 21.25 6.83333 21.25C4.93167 21.25 3.33333 19.5375 3.33333 17.5C3.33333 15.4625 4.93167 13.75 6.83333 13.75C8.32667 13.75 9.63333 14.8125 10.1233 16.25H6.83333C6.19167 16.25 5.66667 16.8125 5.66667 17.5C5.66667 18.1875 6.19167 18.75 6.83333 18.75ZM23.1667 21.25C21.23 21.25 19.6667 19.575 19.6667 17.5C19.6667 15.425 21.23 13.75 23.1667 13.75C25.1033 13.75 26.6667 15.425 26.6667 17.5C26.6667 19.575 25.1033 21.25 23.1667 21.25Z" fill="black"/>
</g>
<defs>
<clipPath id="clip0_0_590">
<rect width="30" height="30" fill="white"/>
</clipPath>
</defs>
</svg>
