<svg width="30" height="30" viewBox="0 0 30 30" fill="none" xmlns="http://www.w3.org/2000/svg">
<g clip-path="url(#clip0_0_583)">
<rect width="30" height="30" rx="3" fill="#F6F7F8"/>
<path d="M29.976 29.9761L29.967 14.9527C29.967 6.69071 23.2607 -0.00292969 14.9987 -0.00292969C6.73675 -0.00292969 0.0305176 6.69551 0.0305176 14.9581L0.151021 29.9971L3.59706 29.9887V14.9587C3.59706 8.51925 8.5503 3.29983 14.988 3.29983C21.4268 3.29983 26.3788 8.51985 26.3788 14.9593V29.9761H29.976ZM19.9022 24.536L19.8471 24.4353L19.8758 24.3981L19.9022 24.361C20.4178 24.1481 20.886 23.8874 21.3045 23.5756C21.723 23.2627 21.9676 22.8046 22.1127 22.1991C22.1288 22.129 22.1822 21.9659 22.1822 21.7171V9.2153C22.1886 8.88931 22.1085 8.56746 21.9502 8.28244C21.7727 7.9587 21.5683 7.66913 21.2967 7.41194C21.0335 7.15714 20.7445 6.97968 20.4142 6.80882C20.0845 6.63976 19.7763 6.59479 19.4724 6.59479H10.5263C10.241 6.59479 9.934 6.63496 9.60306 6.79563C9.27273 6.9557 8.96877 7.14155 8.69419 7.39215C8.4318 7.63098 8.20989 7.9108 8.03711 8.22069C7.8762 8.49907 7.7922 8.81522 7.79371 9.13676V21.825C7.79371 22.0366 7.82608 22.2615 7.9304 22.4905C8.03771 22.7237 8.15882 22.9413 8.31889 23.1428C8.47956 23.3514 8.64802 23.539 8.83567 23.7069C9.02273 23.876 9.20018 24.0139 9.38004 24.1194C9.46697 24.1559 9.62165 24.2117 9.84587 24.2818C10.0671 24.3532 10.169 24.3958 10.1522 24.4293L6.49215 29.9761H8.62704L11.2997 26.379H18.675L21.3441 29.9761H23.5059L19.9022 24.536ZM11.9904 7.79383C11.9904 7.4641 12.2601 7.19431 12.5899 7.19431H17.386C17.7158 7.19431 17.9856 7.4641 17.9856 7.79383V8.39335C17.9856 8.72309 17.7158 8.99287 17.386 8.99287H12.5899C12.2601 8.99287 11.9904 8.72309 11.9904 8.39335V7.79383ZM9.63064 10.7225C9.71037 10.5534 9.77272 10.3999 9.89682 10.2555C10.0233 10.1128 10.1498 9.90774 10.3183 9.81841C10.4868 9.72849 10.642 9.59239 10.8201 9.59239H19.1276C19.2877 9.59239 19.4466 9.72129 19.6079 9.78904C19.7685 9.86098 19.9148 10.0067 20.0497 10.1302C20.1828 10.2543 20.2356 10.4131 20.3183 10.5552C20.3968 10.6943 20.3836 10.8706 20.3836 11.0306V13.8628C20.3836 14.0246 20.3914 14.1751 20.3039 14.3274C20.2152 14.4833 20.1252 14.6176 19.9814 14.7333C19.8381 14.8466 19.702 14.876 19.5419 14.9449C19.3812 15.0205 19.2338 14.9881 19.0755 14.9881H10.8734C10.8537 14.9881 10.8093 15.0438 10.7386 15.0294L10.5767 15.0061C10.2751 14.9533 10.0899 14.8088 9.85726 14.5414C9.62644 14.2722 9.59227 13.9977 9.59227 13.6763V11.2459C9.59227 11.0678 9.5515 10.8928 9.63064 10.7225ZM11.901 22.2782C11.6258 22.563 11.2811 22.7051 10.8734 22.7051C10.464 22.7051 10.1294 22.563 9.87045 22.2782C9.61145 21.9941 9.48316 21.644 9.48316 21.2357C9.48316 20.8616 9.61805 20.5372 9.88424 20.2621C10.0108 20.1274 10.1643 20.0208 10.3347 19.9492C10.5051 19.8777 10.6887 19.8427 10.8734 19.8466C11.2811 19.8466 11.6252 19.9779 11.901 20.2321C12.1774 20.4947 12.3159 20.8328 12.3159 21.2639C12.3159 21.6559 12.1774 21.9947 11.901 22.2782ZM18.0179 22.2782C17.7433 21.9941 17.6049 21.644 17.6049 21.2357C17.6049 20.8244 17.7505 20.4941 18.0449 20.2315C18.3291 19.9798 18.6965 19.8424 19.0761 19.846C19.4826 19.846 19.8171 19.9845 20.0749 20.2615C20.3345 20.5366 20.464 20.861 20.464 21.2351C20.464 21.644 20.3315 21.9941 20.0617 22.2776C19.7955 22.5624 19.4568 22.7045 19.0467 22.7045C18.6372 22.7051 18.2955 22.563 18.0179 22.2782Z" fill="black"/>
</g>
<defs>
<clipPath id="clip0_0_583">
<rect width="30" height="30" fill="white"/>
</clipPath>
</defs>
</svg>
