<svg width="15" height="20" viewBox="0 0 15 20" fill="none" xmlns="http://www.w3.org/2000/svg">
<path d="M7.04001 0C4.42001 0 2.29001 2.13 2.29001 4.75C2.29001 7.32 4.30001 9.4 6.92001 9.49C7.00001 9.48 7.08001 9.48 7.14001 9.49C7.16001 9.49 7.17001 9.49 7.19001 9.49C7.20001 9.49 7.20001 9.49 7.21001 9.49C9.77001 9.4 11.78 7.32 11.79 4.75C11.79 2.13 9.66001 0 7.04001 0Z" fill="#162E38"/>
<path d="M12.12 12.15C9.33 10.29 4.78 10.29 1.97 12.15C0.7 13 0 14.15 0 15.38C0 16.61 0.7 17.75 1.96 18.59C3.36 19.53 5.2 20 7.04 20C8.88 20 10.72 19.53 12.12 18.59C13.38 17.74 14.08 16.6 14.08 15.36C14.07 14.13 13.38 12.99 12.12 12.15Z" fill="#162E38"/>
</svg>
