<svg width="20" height="17" viewBox="0 0 20 17" fill="none" xmlns="http://www.w3.org/2000/svg">
<path d="M14.1007 9.95891C14.2782 9.48449 14.3683 8.98182 14.3665 8.47528C14.3665 7.35057 13.9197 6.27192 13.1244 5.47663C12.3291 4.68134 11.2505 4.23455 10.1258 4.23455C9.62548 4.23513 9.12931 4.32516 8.66069 4.50037L9.65596 5.52655C9.80726 5.50234 9.9602 5.48994 10.1134 5.48946C10.9087 5.4878 11.6723 5.80086 12.2375 6.36029C12.8027 6.91971 13.1236 7.68005 13.1301 8.47528C13.1296 8.62849 13.1172 8.78143 13.0931 8.93273L14.1007 9.95891Z" fill="#B8C3D4"/>
<path d="M19.7262 8.18478C17.6429 4.33351 13.9894 2.00297 9.94654 2.00297C8.84577 2.00555 7.7524 2.18291 6.70726 2.52842L7.70254 3.52987C8.43561 3.34042 9.18939 3.24282 9.94654 3.23933C13.4269 3.23933 16.592 5.18042 18.4774 8.4506C17.7858 9.66384 16.8689 10.7339 15.776 11.6033L16.6538 12.4811C17.9186 11.4607 18.9691 10.2002 19.7447 8.77205L19.9054 8.47533L19.7262 8.18478Z" fill="#B8C3D4"/>
<path d="M1.53927 0.921091L4.29636 3.67818C2.55366 4.80025 1.12936 6.35229 0.160727 8.18472L0 8.47527L0.160727 8.772C2.244 12.6233 5.89745 14.9538 9.94036 14.9538C11.5184 14.9535 13.0759 14.5963 14.4964 13.9091L17.5873 17L18.6691 16.0727L2.59636 0L1.53927 0.921091ZM7.56654 6.94836L11.6774 11.0593C11.213 11.3468 10.6783 11.5008 10.132 11.5044C9.73508 11.5044 9.34208 11.4259 8.97561 11.2734C8.60914 11.121 8.27643 10.8976 7.99664 10.616C7.71684 10.3345 7.49547 10.0004 7.34527 9.63305C7.19507 9.26565 7.11901 8.87218 7.12145 8.47527C7.12842 7.93533 7.28228 7.40747 7.56654 6.94836ZM6.67018 6.052C6.09183 6.86763 5.82075 7.8616 5.90494 8.85792C5.98913 9.85423 6.42316 10.7886 7.13017 11.4956C7.83719 12.2027 8.77157 12.6367 9.76789 12.7209C10.7642 12.8051 11.7582 12.534 12.5738 11.9556L13.5629 12.9447C12.4179 13.4342 11.1856 13.6865 9.94036 13.6865C6.46 13.6865 3.29491 11.7454 1.40945 8.47527C2.31429 6.87308 3.61743 5.53161 5.19272 4.58073L6.67018 6.052Z" fill="#B8C3D4"/>
</svg>
