<svg width="10" height="18" viewBox="0 0 10 18" fill="none" xmlns="http://www.w3.org/2000/svg">
<path d="M8.71226 16.7143H6.01908C6.47219 16.1182 6.89952 15.4808 7.29854 14.8058C8.79335 12.2688 9.58349 9.59436 9.58349 7.07143C9.58349 5.19597 9.07864 3.39732 8.18002 2.07117C7.28139 0.745024 6.06259 0 4.79174 0C3.52089 0 2.3021 0.745024 1.40347 2.07117C0.504843 3.39732 0 5.19597 0 7.07143C0 9.59436 0.790134 12.2688 2.28495 14.8058C2.68396 15.4808 3.11129 16.1182 3.56441 16.7143H0.871226C0.755694 16.7143 0.644894 16.782 0.563201 16.9026C0.481508 17.0231 0.435613 17.1866 0.435613 17.3571C0.435613 17.5276 0.481508 17.6912 0.563201 17.8117C0.644894 17.9323 0.755694 18 0.871226 18H8.71226C8.82779 18 8.93859 17.9323 9.02029 17.8117C9.10198 17.6912 9.14787 17.5276 9.14787 17.3571C9.14787 17.1866 9.10198 17.0231 9.02029 16.9026C8.93859 16.782 8.82779 16.7143 8.71226 16.7143ZM0.871226 7.07143C0.871226 5.53696 1.28428 4.06534 2.01952 2.98031C2.75476 1.89528 3.75196 1.28571 4.79174 1.28571C5.83153 1.28571 6.82873 1.89528 7.56397 2.98031C8.29921 4.06534 8.71226 5.53696 8.71226 7.07143C8.71226 11.6705 5.69184 15.5101 4.79174 16.5519C3.89148 15.51 0.871226 11.6705 0.871226 7.07143ZM6.96981 7.07143C6.96981 6.4357 6.84207 5.81425 6.60274 5.28567C6.36341 4.75708 6.02324 4.3451 5.62525 4.10182C5.22726 3.85853 4.78933 3.79488 4.36682 3.9189C3.94432 4.04293 3.55623 4.34906 3.25162 4.79859C2.94701 5.24811 2.73957 5.82084 2.65553 6.44435C2.57149 7.06786 2.61462 7.71415 2.77947 8.30148C2.94433 8.88882 3.22349 9.39082 3.58168 9.74401C3.93986 10.0972 4.36096 10.2857 4.79174 10.2857C5.3692 10.2847 5.92282 9.94579 6.33114 9.3432C6.73947 8.74062 6.96915 7.92361 6.96981 7.07143ZM3.4849 7.07143C3.4849 6.68999 3.56155 6.31712 3.70515 5.99997C3.84874 5.68282 4.05284 5.43563 4.29164 5.28966C4.53043 5.14369 4.79319 5.1055 5.04669 5.17991C5.3002 5.25433 5.53305 5.43801 5.71582 5.70772C5.89858 5.97744 6.02305 6.32108 6.07347 6.69518C6.1239 7.06929 6.09802 7.45706 5.9991 7.80946C5.90019 8.16186 5.73269 8.46306 5.51778 8.67498C5.30288 8.88689 5.05021 9 4.79174 9C4.44527 8.99942 4.1131 8.79604 3.86811 8.43449C3.62311 8.07294 3.4853 7.58274 3.4849 7.07143Z" fill="black"/>
</svg>
