<svg width="22" height="67" viewBox="0 0 22 67" fill="none" xmlns="http://www.w3.org/2000/svg">
<line x1="11.6937" y1="47.9391" x2="11.6937" y2="19.2363" stroke="black" stroke-width="0.5" stroke-linecap="square" stroke-dasharray="1 1 2 1 1 1 2 1"/>
<path d="M10.9895 18.8091C8.816 18.8091 6.69129 18.2575 4.88407 17.2241C3.07685 16.1907 1.6683 14.7219 0.836531 13.0035C0.00476141 11.285 -0.212867 9.3941 0.211165 7.5698C0.635198 5.7455 1.68185 4.06977 3.21876 2.75453C4.75567 1.43928 6.71381 0.543586 8.84557 0.18071C10.9773 -0.182166 13.1869 0.00407469 15.195 0.715881C17.2031 1.42769 18.9194 2.63309 20.127 4.17966C21.3345 5.72622 21.979 7.54449 21.979 9.40453C21.9757 11.8979 20.8169 14.2883 18.7566 16.0514C16.6964 17.8145 13.9031 18.8062 10.9895 18.8091ZM10.9895 0.752367C8.98988 0.752367 7.03514 1.25981 5.37251 2.21052C3.70987 3.16123 2.414 4.51252 1.64877 6.09349C0.883542 7.67447 0.683323 9.41413 1.07343 11.0925C1.46354 12.7708 2.42646 14.3125 3.84042 15.5225C5.25438 16.7326 7.05587 17.5566 9.01708 17.8905C10.9783 18.2243 13.0112 18.053 14.8586 17.3981C16.706 16.7432 18.285 15.6343 19.396 14.2114C20.5069 12.7886 21.0999 11.1158 21.0999 9.40453C21.0968 7.11063 20.0307 4.91143 18.1353 3.28939C16.2399 1.66736 13.67 0.75496 10.9895 0.752367Z" fill="black"/>
<path d="M10.9895 67C8.816 67 6.69129 66.4484 4.88407 65.4151C3.07685 64.3817 1.6683 62.9129 0.836531 61.1944C0.00476141 59.476 -0.212867 57.585 0.211165 55.7607C0.635198 53.9364 1.68185 52.2607 3.21876 50.9455C4.75567 49.6302 6.71381 48.7345 8.84557 48.3717C10.9773 48.0088 13.1869 48.195 15.195 48.9068C17.2031 49.6186 18.9194 50.824 20.127 52.3706C21.3345 53.9172 21.979 55.7354 21.979 57.5955C21.9757 60.0888 20.8169 62.4793 18.7566 64.2424C16.6964 66.0055 13.9031 66.9972 10.9895 67ZM10.9895 48.9433C8.98988 48.9433 7.03514 49.4508 5.37251 50.4015C3.70987 51.3522 2.414 52.7035 1.64877 54.2844C0.883542 55.8654 0.683323 57.6051 1.07343 59.2834C1.46354 60.9618 2.42646 62.5035 3.84042 63.7135C5.25438 64.9235 7.05587 65.7475 9.01708 66.0814C10.9783 66.4152 13.0112 66.2439 14.8586 65.589C16.706 64.9342 18.285 63.8252 19.396 62.4024C20.5069 60.9795 21.0999 59.3067 21.0999 57.5955C21.0968 55.3016 20.0307 53.1024 18.1353 51.4803C16.2399 49.8583 13.67 48.9459 10.9895 48.9433Z" fill="black"/>
</svg>
