<svg width="13" height="46" viewBox="0 0 13 46" fill="none" xmlns="http://www.w3.org/2000/svg">
<path fill-rule="evenodd" clip-rule="evenodd" d="M6.44 12.9137C5.16629 12.9137 3.92118 12.535 2.86213 11.8255C1.80308 11.116 0.977647 10.1076 0.490219 8.92777C0.00279025 7.74793 -0.124743 6.44968 0.123746 5.19718C0.372234 3.94467 0.985585 2.79417 1.88623 1.89117C2.78689 0.988162 3.93438 0.373208 5.18362 0.124069C6.43286 -0.125069 7.72773 0.00279755 8.90448 0.4915C10.0812 0.980203 11.087 1.80779 11.7947 2.86961C12.5023 3.93144 12.88 5.1798 12.88 6.45684C12.8781 8.16871 12.199 9.80991 10.9916 11.0204C9.78432 12.2309 8.1474 12.9117 6.44 12.9137ZM6.44 0.51655C5.26819 0.51655 4.12269 0.864942 3.14836 1.51767C2.17403 2.1704 1.41464 3.09814 0.966201 4.18359C0.517767 5.26904 0.400436 6.46343 0.629046 7.61574C0.857656 8.76804 1.42194 9.8265 2.25054 10.6573C3.07913 11.488 4.13483 12.0538 5.28413 12.283C6.43343 12.5122 7.62471 12.3946 8.70732 11.945C9.78994 11.4953 10.7153 10.734 11.3663 9.75709C12.0173 8.78022 12.3648 7.63172 12.3648 6.45684C12.363 4.88193 11.7382 3.37202 10.6275 2.25839C9.51678 1.14475 8.01081 0.518331 6.44 0.51655ZM6.5 33.0863V32.8363V32.3475V32.0975H7V32.3475V32.8363V33.0863H6.5ZM6.5 31.6199V31.3699V29.4147V29.1647H7V29.4147V31.3699V31.6199H6.5ZM6.5 28.6871V28.4371V27.4594V27.2094H7V27.4594V28.4371V28.6871H6.5ZM6.5 26.7318V26.4818V24.5266V24.2766H7V24.5266V26.4818V26.7318H6.5ZM6.5 23.799V23.549V22.5714V22.3214H7V22.5714V23.549V23.799H6.5ZM6.5 21.8437V21.5937V19.6385V19.3885H7V19.6385V21.5937V21.8437H6.5ZM6.5 18.9109V18.6609V17.6833V17.4333H7V17.6833V18.6609V18.9109H6.5ZM6.5 16.9557V16.7057V14.7504V14.5004H7V14.7504V16.7057V16.9557H6.5ZM6.5 14.0228V13.7728V13.284V13.034H7V13.284V13.7728V14.0228H6.5ZM2.86213 44.9118C3.92118 45.6213 5.16629 46 6.44 46C8.1474 45.9981 9.78432 45.3172 10.9916 44.1067C12.199 42.8962 12.8781 41.255 12.88 39.5432C12.88 38.2661 12.5023 37.0178 11.7947 35.9559C11.087 34.8941 10.0812 34.0665 8.90448 33.5778C7.72773 33.0891 6.43286 32.9613 5.18362 33.2104C3.93438 33.4595 2.78689 34.0745 1.88623 34.9775C0.985585 35.8805 0.372234 37.031 0.123746 38.2835C-0.124743 39.536 0.00279025 40.8343 0.490219 42.0141C0.977647 43.1939 1.80308 44.2023 2.86213 44.9118ZM3.14836 34.604C4.12269 33.9513 5.26819 33.6029 6.44 33.6029C8.01081 33.6046 9.51678 34.2311 10.6275 35.3447C11.7382 36.4583 12.363 37.9682 12.3648 39.5432C12.3648 40.718 12.0173 41.8665 11.3663 42.8434C10.7153 43.8203 9.78994 44.5817 8.70732 45.0313C7.62471 45.4809 6.43343 45.5985 5.28413 45.3693C4.13483 45.1401 3.07913 44.5743 2.25054 43.7436C1.42194 42.9128 0.857656 41.8544 0.629046 40.7021C0.400436 39.5498 0.517767 38.3554 0.966201 37.2699C1.41464 36.1845 2.17403 35.2567 3.14836 34.604Z" fill="black"/>
</svg>
