<svg width="25" height="25" viewBox="0 0 25 25" fill="none" xmlns="http://www.w3.org/2000/svg">
<path d="M10.0468 16.8862V22.9709C10.0462 23.4763 9.84463 23.9609 9.4862 24.3183C9.12776 24.6758 8.6417 24.877 8.13461 24.8777L2.03405 24.8785C1.78287 24.8785 1.53414 24.8292 1.30208 24.7334C1.07003 24.6375 0.859192 24.4971 0.681612 24.32C0.504033 24.1429 0.363186 23.9327 0.267099 23.7014C0.171012 23.4701 0.121561 23.2222 0.121562 22.9718V11.2512C0.121801 10.9857 0.177573 10.723 0.285327 10.4801C0.393088 10.2372 0.550475 10.0193 0.747456 9.84045L10.9156 0.620498L10.9159 0.620199C11.267 0.299528 11.7259 0.121594 12.2021 0.121562C12.6783 0.12153 13.1371 0.299401 13.4883 0.620026L13.4886 0.620318L23.6584 9.84049C23.6585 9.84052 23.6585 9.84054 23.6585 9.84056C23.8554 10.0195 24.0127 10.2373 24.1205 10.4802C24.2282 10.7231 24.284 10.9858 24.2842 11.2514V22.9718C24.2842 23.2222 24.2348 23.4701 24.1387 23.7014C24.0426 23.9327 23.9018 24.1429 23.7243 24.3199C23.5467 24.497 23.3359 24.6375 23.1039 24.7333C22.8718 24.8291 22.6231 24.8785 22.372 24.8785H22.3717L16.2697 24.8777C15.7626 24.877 15.2765 24.6758 14.9181 24.3183C14.5597 23.9609 14.3581 23.4763 14.3575 22.9709V16.8862V16.7647H14.236H10.1683H10.0468V16.8862ZM8.25608 22.971V16.8864C8.25666 16.3809 8.45825 15.8963 8.81673 15.5388C9.17522 15.1813 9.66135 14.9802 10.1685 14.9796H14.2358C14.743 14.9802 15.2291 15.1813 15.5876 15.5388C15.9461 15.8963 16.1476 16.3809 16.1482 16.8864V22.9723V23.0939L16.2698 23.0939L22.372 23.0934L22.4935 23.0934V22.9718V11.2512V11.1974L22.4536 11.1612L12.2838 1.941L12.2021 1.86697L12.1205 1.941L1.95216 11.1611L1.91225 11.1973V11.2512V22.9718V23.0934L2.03383 23.0934L8.13454 23.0926L8.25608 23.0926V22.971Z" fill="white" stroke="white" stroke-width="0.243073"/>
</svg>
