<svg width="30" height="30" viewBox="0 0 30 30" fill="none" xmlns="http://www.w3.org/2000/svg">
<g clip-path="url(#clip0_0_588)">
<path d="M24.3 11.2875L21.6375 8.625L19.6375 6.625C19.4 6.3875 19.075 6.25 18.75 6.25H15C14.3125 6.25 13.75 6.8125 13.75 7.5C13.75 8.1875 14.3125 8.75 15 8.75H18.2375L20.7375 11.25H6.25C2.75 11.25 0 14 0 17.5C0 21 2.75 23.75 6.25 23.75C9.325 23.75 11.8125 21.6375 12.375 18.75H13.4C14.0625 18.75 14.7 18.4875 15.1625 18.0125L17.8875 15.2875C17.6375 15.9625 17.5 16.7125 17.5 17.5C17.5 21 20.25 23.75 23.75 23.75C27.25 23.75 30 21 30 17.5C30 14.1875 27.5375 11.5375 24.3 11.2875ZM6.25 18.75H9.775C9.25 20.1875 7.85 21.25 6.25 21.25C4.2125 21.25 2.5 19.5375 2.5 17.5C2.5 15.4625 4.2125 13.75 6.25 13.75C7.85 13.75 9.25 14.8125 9.775 16.25H6.25C5.5625 16.25 5 16.8125 5 17.5C5 18.1875 5.5625 18.75 6.25 18.75ZM23.75 21.25C21.675 21.25 20 19.575 20 17.5C20 15.425 21.675 13.75 23.75 13.75C25.825 13.75 27.5 15.425 27.5 17.5C27.5 19.575 25.825 21.25 23.75 21.25Z" fill="black"/>
</g>
<defs>
<clipPath id="clip0_0_588">
<rect width="30" height="30" fill="white"/>
</clipPath>
</defs>
</svg>
