<svg width="26" height="25" viewBox="0 0 26 25" fill="none" xmlns="http://www.w3.org/2000/svg">
<g clip-path="url(#clip0_0_288)">
<path d="M23.5022 22.5782H2.46774V1.56252C2.46774 1.09377 2.07604 0.66408 1.56682 0.66408C1.05761 0.66408 0.705074 1.09377 0.705074 1.56252V22.6954C0.705074 23.5938 1.44931 24.336 2.35023 24.336H23.5022C23.9723 24.336 24.4031 23.9454 24.4031 23.4376C24.4031 22.9297 23.9723 22.5782 23.5022 22.5782Z" fill="#D6E4AA"/>
<path d="M23.1105 8.63279H18.5276C18.0575 8.63279 17.6267 9.02342 17.6267 9.53123C17.6267 10.039 18.0184 10.4297 18.5276 10.4297H21.1912L19.1151 12.2265H13.9838C13.7096 12.2265 13.4354 12.3437 13.2788 12.5781L10.4977 16.2109H6.38477C5.91472 16.2109 5.48385 16.6016 5.48385 17.1094C5.48385 17.6172 5.87555 18.0078 6.38477 18.0078H10.9285C11.2027 18.0078 11.4769 17.8906 11.6336 17.6562L14.4147 14.0234H19.4677C19.6635 14.0234 19.8985 13.9453 20.0552 13.7891L22.6405 11.5234V14.5312C22.6405 15 23.0322 15.4297 23.5414 15.4297C24.0506 15.4297 24.4423 15.0391 24.4423 14.5312V9.8828C24.4031 9.21873 23.8156 8.63279 23.1105 8.63279Z" fill="#D6E4AA"/>
</g>
<defs>
<clipPath id="clip0_0_288">
<rect width="25.0638" height="24.9948" fill="white"/>
</clipPath>
</defs>
</svg>
