<svg width="15" height="21" viewBox="0 0 15 21" fill="none" xmlns="http://www.w3.org/2000/svg">
<path d="M9.26471 4.07143C10.4902 4.07143 11.4704 3.27786 11.4704 2.28571C11.4704 1.29353 10.4902 0.5 9.26471 0.5C8.03917 0.5 7.05866 1.29353 7.05866 2.28571C7.05866 3.27786 8.03917 4.07143 9.26471 4.07143ZM9.26471 9.42857H15V7.64286H11.0294L8.55871 4.54763C8.13419 4.02679 7.55857 3.73799 6.85285 3.73799C6.67649 3.73799 6.36601 3.7617 6.14702 3.81598L0 5.5V10.5H2.20588V6.92857L4.44105 6.21429L0 20.5H2.20588L5.33261 13.1665L8.10662 16.2143V20.5H10.2022V14.7857L7.05711 10.5L8.14599 7.73821L9.26471 9.42857Z" fill="#BCBCBC"/>
</svg>
